<svg xmlns="http://www.w3.org/2000/svg" xmlns:xlink="http://www.w3.org/1999/xlink" xmlns:lucid="lucid" width="1928.99" height="1415.51"><g transform="translate(0 0)" lucid:page-tab-id="rq95XpaCu8qr"><path d="M0 0h1929v1415.5H0z" fill="#fff"/><path d="M266.64 86.88H1734.5v1241.75H266.63z" stroke="#000" stroke-width="2" fill="#fff"/><path d="M541.33 146.88c0 11.05-8.95 20-20 20-11.04 0-20-8.95-20-20 0-11.04 8.96-20 20-20 11.05 0 20 8.96 20 20z" stroke="#000" stroke-width="2"/><path d="M457.33 209.55c-8.83 0-16 7.16-16 16v48c0 8.83 7.17 16 16 16h128c8.84 0 16-7.17 16-16v-48c0-8.84-7.16-16-16-16z" stroke="#000" stroke-width="2" fill="#fff"/><use xlink:href="#a" transform="matrix(1,0,0,1,449.3333333332945,217.5483474402434) translate(7.549999999999997 35.6)"/><use xlink:href="#b" transform="matrix(1,0,0,1,449.3333333332945,217.5483474402434) translate(56.5 35.6)"/><path d="M521.33 168.88v21.17" stroke="#000" stroke-width="2" fill="none"/><path d="M521.3 167.88l1.03-.03v1.06h-2v-1.14z"/><path d="M521.33 205.3l-4.63-14.25h9.27z" stroke="#000" stroke-width="2"/><path d="M1324.9 395.5c-8.83 0-16 7.17-16 16v48c0 8.85 7.17 16 16 16h128c8.84 0 16-7.15 16-16v-48c0-8.83-7.16-16-16-16z" stroke="#000" stroke-width="2" fill="#fff"/><use xlink:href="#c" transform="matrix(1,0,0,1,1316.9059673852485,403.51138163546466) translate(18.574999999999996 24.799999999999997)"/><use xlink:href="#d" transform="matrix(1,0,0,1,1316.9059673852485,403.51138163546466) translate(90.42500000000001 24.799999999999997)"/><use xlink:href="#e" transform="matrix(1,0,0,1,1316.9059673852485,403.51138163546466) translate(36.525 46.4)"/><path d="M522.33 380.54h-2v-39.57h2zm0-61.17h-2v-27.82h2z"/><path d="M522.33 291.57h-2v-1.02h2zM521.33 395.8l-4.63-14.26h9.27z"/><path d="M521.33 399.04l-6-18.5h12.02zm-3.26-16.5l3.26 10.03 3.26-10.03z"/><use xlink:href="#f" transform="matrix(1,0,0,1,450.9333333332945,319.37386484956403) translate(0 14.4)"/><use xlink:href="#g" transform="matrix(1,0,0,1,450.9333333332945,319.37386484956403) translate(52 14.4)"/><path d="M1310.1 659.8c-8.85 0-16 7.17-16 16v48c0 8.84 7.15 16 16 16h128c8.83 0 16-7.16 16-16v-48c0-8.83-7.17-16-16-16z" stroke="#000" stroke-width="2" fill="#fff"/><use xlink:href="#h" transform="matrix(1,0,0,1,1302.089087357718,667.8049790810655) translate(38.25 24.799999999999997)"/><use xlink:href="#i" transform="matrix(1,0,0,1,1302.089087357718,667.8049790810655) translate(23.099999999999994 46.4)"/><path d="M936.36 400.04c-8.84 0-16 7.16-16 16v48c0 8.84 7.16 16 16 16h128c8.84 0 16-7.16 16-16v-48c0-8.84-7.16-16-16-16z" stroke="#000" stroke-width="2" fill="#fff"/><use xlink:href="#h" transform="matrix(1,0,0,1,928.3596163003799,408.04049887138126) translate(38.25 24.799999999999997)"/><use xlink:href="#g" transform="matrix(1,0,0,1,928.3596163003799,408.04049887138126) translate(27.6 46.4)"/><path d="M1082.36 440.04h203.55v-6.2h3.5" stroke="#000" stroke-width="2" fill="none"/><path d="M1082.4 441.04h-1.04v-2h1.03z"/><path d="M1304.67 433.84l-14.27 4.63v-9.27z" stroke="#000" stroke-width="2"/><use xlink:href="#j" transform="matrix(1,0,0,1,1096.8543295297345,414.44049887138124) translate(0 14.4)"/><use xlink:href="#k" transform="matrix(1,0,0,1,1096.8543295297345,414.44049887138124) translate(21.849999999999998 14.4)"/><use xlink:href="#l" transform="matrix(1,0,0,1,1096.8543295297345,414.44049887138124) translate(115.64999999999999 14.4)"/><path d="M1374.1 477.5v162.8" stroke="#000" stroke-width="2" fill="none"/><path d="M1375.1 477.54h-2v-1.03h2z"/><path d="M1374.1 655.57l-4.65-14.27h9.27z" stroke="#000" stroke-width="2"/><use xlink:href="#m" transform="matrix(1,0,0,1,1382.0890873577182,540.7109362378959) translate(0 14.4)"/><use xlink:href="#n" transform="matrix(1,0,0,1,1382.0890873577182,540.7109362378959) translate(47 14.4)"/><use xlink:href="#o" transform="matrix(1,0,0,1,1382.0890873577182,540.7109362378959) translate(149.8 14.4)"/><path d="M457.67 400.04c-9.02 0-16.34 7.3-16.34 16.34v49c0 9.02 7.32 16.34 16.34 16.34H585c9.02 0 16.33-7.32 16.33-16.34v-49c0-9.03-7.3-16.34-16.33-16.34z" stroke="#000" stroke-width="2" fill="#fff"/><use xlink:href="#p" transform="matrix(1,0,0,1,449.33333333337214,408.04049887138126) translate(24.099999999999994 25.799999999999997)"/><use xlink:href="#q" transform="matrix(1,0,0,1,449.33333333337214,408.04049887138126) translate(38.5 47.4)"/><path d="M699.54 420.88l20 20-20 20-20-20z" stroke="#000" stroke-width="2" fill="#fff"/><path d="M603.33 440.88h56.3" stroke="#000" stroke-width="2" fill="none"/><path d="M603.36 441.88h-1.03v-2h1.03z"/><path d="M674.9 440.88l-14.28 4.63v-9.26z" stroke="#000" stroke-width="2"/><path d="M701.54 546.98h-2v-22.3h2zm-1-43.9h-2v-39.8h2z"/><path d="M700.54 463.32h-2v-2.03l1 1 1-1zM700.54 562.24l-4.64-14.26h9.27z"/><path d="M700.54 565.48l-6-18.5h12zm-3.26-16.5l3.26 10.03L703.8 549z"/><use xlink:href="#r" transform="matrix(1,0,0,1,685.3617077491483,503.08538592364795) translate(0 14.4)"/><path d="M808.68 441.88h-86.73v-2h86.73zm92.18-.84h-69.23v-2h69.23z"/><path d="M721.98 441.88h-2.03l1-1-1-1h2.03zM916.12 440.04l-14.26 4.64v-9.27z"/><path d="M919.36 440.04l-18.5 6v-12zm-16.5 3.26l10.03-3.26-10.04-3.26z"/><use xlink:href="#s" transform="matrix(1,0,0,1,808.680268805943,429.65947394062704) translate(0 14.4)"/><path d="M579.54 360.88h240v60h-240z" stroke="#000" stroke-opacity="0" stroke-width="2" fill="#fff" fill-opacity="0"/><use xlink:href="#t" transform="matrix(1,0,0,1,584.5367077491246,365.87844900987284) translate(46.599999999999994 30.025)"/><use xlink:href="#u" transform="matrix(1,0,0,1,584.5367077491246,365.87844900987284) translate(138.45 30.025)"/><path d="M636.87 739.8c-9.02 0-16.33 7.32-16.33 16.34v49c0 9.03 7.3 16.34 16.33 16.34H764.2c9.02 0 16.34-7.3 16.34-16.33v-49c0-9.03-7.32-16.35-16.34-16.35z" stroke="#000" stroke-width="2" fill="#fff"/><use xlink:href="#v" transform="matrix(1,0,0,1,628.5367077491246,747.8049790810655) translate(5.674999999999997 36.6)"/><use xlink:href="#w" transform="matrix(1,0,0,1,628.5367077491246,747.8049790810655) translate(101.47500000000001 36.6)"/><path d="M700.54 1048.63l20 20-20 20-20-20z" stroke="#000" stroke-width="2" fill="#fff"/><path d="M700.54 823.48v67.32" stroke="#000" stroke-width="2" fill="none"/><path d="M701.54 823.5h-2v-1.02h2z"/><path d="M700.54 906.07l-4.64-14.27h9.27z" stroke="#000" stroke-width="2"/><path d="M836.2 1229.13h-2v-77.9h2zm0-99.5h-2v-60H722.95v-2H836.2z"/><path d="M722.98 1069.63h-2.03l1-1-1-1h2.03zM835.2 1244.4l-4.63-14.27h9.27z"/><path d="M835.2 1247.63l-6-18.5h12.02zm-3.26-16.5l3.26 10.02 3.26-10.02z"/><use xlink:href="#v" transform="matrix(1,0,0,1,742.8783744157912,1129.6190141689144) translate(0 14.4)"/><use xlink:href="#x" transform="matrix(1,0,0,1,742.8783744157912,1129.6190141689144) translate(95.80000000000001 14.4)"/><path d="M678.12 1068.63h-98.58v-288h21.5" stroke="#000" stroke-width="2" fill="none"/><path d="M679.12 1068.63l1 1h-2.02v-2h2.02z"/><path d="M616.3 780.64l-14.27 4.64V776z" stroke="#000" stroke-width="2"/><use xlink:href="#v" transform="matrix(1,0,0,1,432.83670774912457,943.6282047098837) translate(0 14.4)"/><use xlink:href="#y" transform="matrix(1,0,0,1,432.83670774912457,943.6282047098837) translate(95.80000000000001 14.4)"/><path d="M636.54 910.3c-8.84 0-16 7.17-16 16v48c0 8.84 7.16 16 16 16h128c8.83 0 16-7.16 16-16v-48c0-8.83-7.17-16-16-16z" stroke="#000" stroke-width="2" fill="#fff"/><use xlink:href="#z" transform="matrix(1,0,0,1,628.5367077491246,918.3035940395662) translate(26.599999999999994 24.799999999999997)"/><use xlink:href="#A" transform="matrix(1,0,0,1,628.5367077491246,918.3035940395662) translate(33.05 46.4)"/><path d="M700.54 992.3v36.4" stroke="#000" stroke-width="2" fill="none"/><path d="M701.54 992.33h-2v-1.03h2z"/><path d="M700.54 1043.98l-4.64-14.27h9.27z" stroke="#000" stroke-width="2"/><path d="M636.87 566.48c-9.02 0-16.33 7.3-16.33 16.33v49.02c0 9.02 7.3 16.33 16.33 16.33H764.2c9.02 0 16.34-7.3 16.34-16.33v-49c0-9.03-7.32-16.34-16.34-16.34z" stroke="#000" stroke-width="2" fill="#fff"/><use xlink:href="#B" transform="matrix(1,0,0,1,628.5367077491634,574.47810927505) translate(16.799999999999997 36.6)"/><use xlink:href="#C" transform="matrix(1,0,0,1,628.5367077491634,574.47810927505) translate(89.3 36.6)"/><path d="M701.54 720.3h-2v-15.52h2zm0-37.12h-2v-33.03h2z"/><path d="M701.54 650.18h-2v-1.03h2zM700.54 735.57l-4.64-14.27h9.27z"/><path d="M700.54 738.8l-6-18.5h12zm-3.26-16.5l3.26 10.03 3.26-10.03z"/><use xlink:href="#j" transform="matrix(1,0,0,1,646.1867077491634,683.1794941780578) translate(0 14.4)"/><use xlink:href="#D" transform="matrix(1,0,0,1,646.1867077491634,683.1794941780578) translate(21.849999999999998 14.4)"/><path d="M675.2 835.9h240v60h-240z" stroke="#000" stroke-opacity="0" stroke-width="2" fill="#fff" fill-opacity="0"/><use xlink:href="#E" transform="matrix(1,0,0,1,680.2033744157525,840.8922366988076) translate(41.125 30.025)"/><use xlink:href="#D" transform="matrix(1,0,0,1,680.2033744157525,840.8922366988076) translate(102.025 30.025)"/><path d="M1470.9 435.5h39v-81h-121V376" stroke="#000" stroke-width="2" fill="none"/><path d="M1470.93 436.5h-1.02v-2h1.03z"/><path d="M1388.9 391.28l-4.63-14.27h9.27z" stroke="#000" stroke-width="2"/><path d="M1358.44 294.67h240v60h-240z" stroke="#000" stroke-opacity="0" stroke-width="2" fill="#fff" fill-opacity="0"/><use xlink:href="#F" transform="matrix(1,0,0,1,1363.435885193292,299.6734314969731) translate(0.4000000000000057 30.025)"/><use xlink:href="#G" transform="matrix(1,0,0,1,1363.435885193292,299.6734314969731) translate(78.95000000000002 30.025)"/><use xlink:href="#k" transform="matrix(1,0,0,1,1363.435885193292,299.6734314969731) translate(100.80000000000001 30.025)"/><use xlink:href="#l" transform="matrix(1,0,0,1,1363.435885193292,299.6734314969731) translate(194.6 30.025)"/><path d="M1310.1 830.3c-8.85 0-16 7.17-16 16v48c0 8.84 7.15 16 16 16h128c8.83 0 16-7.16 16-16v-48c0-8.83-7.17-16-16-16z" stroke="#000" stroke-width="2" fill="#fff"/><use xlink:href="#H" transform="matrix(1,0,0,1,1302.089087357718,838.3035940395662) translate(11.124999999999993 35.6)"/><use xlink:href="#I" transform="matrix(1,0,0,1,1302.089087357718,838.3035940395662) translate(54.025 35.6)"/><path d="M1375.1 810.8h-2v-27.2h2zm0-48.8h-2v-20.2h2z"/><path d="M1375.1 741.83h-2v-1.03h2zM1374.1 826.07l-4.65-14.27h9.27z"/><path d="M1374.1 829.3l-6.02-18.5h12.02zm-3.27-16.5l3.26 10.03 3.25-10.03z"/><g><use xlink:href="#J" transform="matrix(1,0,0,1,1322.714087357718,761.9971573126496) translate(0 14.4)"/><use xlink:href="#K" transform="matrix(1,0,0,1,1322.714087357718,761.9971573126496) translate(67.80000000000001 14.4)"/></g><path d="M1038.3 869.3h43.1v2h-45.1V608.32H800.05v-2h238.27zm253.8 0v2h-166.75v-2z"/><path d="M1293.1 871.3h-1.04v-2h1.03zM799.04 611.95l-14.27-4.63 14.27-4.64z"/><path d="M800.04 613.33l-18.5-6 18.5-6.03zm-12.03-6l10.04 3.24v-6.5z"/><g><use xlink:href="#L" transform="matrix(1,0,0,1,1081.3950952100913,859.5035940395662) translate(0 14.4)"/></g><path d="M1375.1 1026.26h-2v-62.68h2zm0-84.28h-2V912.3h2z"/><path d="M1375.1 912.33h-2v-1.03h2zM1374.1 1041.53l-4.65-14.27h9.27z"/><path d="M1374.1 1044.77l-6.02-18.5h12.02zm-3.27-16.5l3.26 10.02 3.25-10.04z"/><g><use xlink:href="#M" transform="matrix(1,0,0,1,1312.1890873577179,941.9759675870641) translate(0 14.4)"/><use xlink:href="#g" transform="matrix(1,0,0,1,1312.1890873577179,941.9759675870641) translate(35 14.4)"/></g><path d="M1394.1 1068.63c0 11.04-8.97 20-20 20-11.06 0-20-8.96-20-20 0-11.05 8.94-20 20-20 11.03 0 20 8.95 20 20z" stroke="#000" stroke-width="2" fill="#fff"/><path d="M1386.1 1068.63c0 6.63-5.38 12-12 12-6.64 0-12-5.37-12-12s5.36-12 12-12c6.62 0 12 5.37 12 12z" stroke="#000" stroke-width="2"/><path d="M1294.1 1088.63h160v40h-160z" fill="#fff"/><g><use xlink:href="#H" transform="matrix(1,0,0,1,1294.0890873577446,1088.627693762562) translate(18.630000000000003 24.4)"/><use xlink:href="#N" transform="matrix(1,0,0,1,1294.0890873577446,1088.627693762562) translate(61.53000000000001 24.4)"/></g><path d="M855.2 1268.63c0 11.04-8.95 20-20 20-11.04 0-20-8.96-20-20 0-11.05 8.96-20 20-20 11.05 0 20 8.95 20 20z" stroke="#000" stroke-width="2" fill="#fff"/><path d="M847.2 1268.63c0 6.63-5.37 12-12 12-6.62 0-12-5.37-12-12s5.38-12 12-12c6.63 0 12 5.37 12 12z" stroke="#000" stroke-width="2"/><path d="M755.2 1288.63h160v40h-160z" fill="#fff"/><g><use xlink:href="#O" transform="matrix(1,0,0,1,755.2033744157525,1288.627693762583) translate(40.529999999999994 24.4)"/><use xlink:href="#P" transform="matrix(1,0,0,1,755.2033744157525,1288.627693762583) translate(105.53 24.4)"/></g><path d="M675.2-43.12h624.42v170H675.2z" stroke="#000" stroke-opacity="0" fill="#fff" fill-opacity="0"/><g><use xlink:href="#Q" transform="matrix(1,0,0,1,680.2033744157525,-38.118319226364974) translate(31.06481481481495 66.66666666666666)"/><use xlink:href="#R" transform="matrix(1,0,0,1,680.2033744157525,-38.118319226364974) translate(110.50925925925937 66.66666666666666)"/><use xlink:href="#S" transform="matrix(1,0,0,1,680.2033744157525,-38.118319226364974) translate(284.212962962963 66.66666666666666)"/><use xlink:href="#T" transform="matrix(1,0,0,1,680.2033744157525,-38.118319226364974) translate(349.02777777777777 66.66666666666666)"/><use xlink:href="#U" transform="matrix(1,0,0,1,680.2033744157525,-38.118319226364974) translate(428.4722222222222 66.66666666666666)"/><use xlink:href="#V" transform="matrix(1,0,0,1,680.2033744157525,-38.118319226364974) translate(509.95370370370364 66.66666666666666)"/><use xlink:href="#W" transform="matrix(1,0,0,1,680.2033744157525,-38.118319226364974) translate(247.45370370370372 106.66666666666664)"/></g><defs><path d="M30 0v-248h33v221h125V0H30" id="X"/><path d="M100-194c62-1 85 37 85 99 1 63-27 99-86 99S16-35 15-95c0-66 28-99 85-99zM99-20c44 1 53-31 53-75 0-43-8-75-51-75s-53 32-53 75 10 74 51 75" id="Y"/><path d="M177-190C167-65 218 103 67 71c-23-6-38-20-44-43l32-5c15 47 100 32 89-28v-30C133-14 115 1 83 1 29 1 15-40 15-95c0-56 16-97 71-98 29-1 48 16 59 35 1-10 0-23 2-32h30zM94-22c36 0 50-32 50-73 0-42-14-75-50-75-39 0-46 34-46 75s6 73 46 73" id="Z"/><path d="M24-231v-30h32v30H24zM24 0v-190h32V0H24" id="aa"/><path d="M117-194c89-4 53 116 60 194h-32v-121c0-31-8-49-39-48C34-167 62-67 57 0H25l-1-190h30c1 10-1 24 2 32 11-22 29-35 61-36" id="ab"/><g id="a"><use transform="matrix(0.05,0,0,0.05,0,0)" xlink:href="#X"/><use transform="matrix(0.05,0,0,0.05,10,0)" xlink:href="#Y"/><use transform="matrix(0.05,0,0,0.05,20,0)" xlink:href="#Z"/><use transform="matrix(0.05,0,0,0.05,30,0)" xlink:href="#aa"/><use transform="matrix(0.05,0,0,0.05,33.95,0)" xlink:href="#ab"/></g><path d="M114-163C36-179 61-72 57 0H25l-1-190h30c1 12-1 29 2 39 6-27 23-49 58-41v29" id="ac"/><path d="M100-194c63 0 86 42 84 106H49c0 40 14 67 53 68 26 1 43-12 49-29l28 8c-11 28-37 45-77 45C44 4 14-33 15-96c1-61 26-98 85-98zm52 81c6-60-76-77-97-28-3 7-6 17-6 28h103" id="ad"/><path d="M145-31C134-9 116 4 85 4 32 4 16-35 15-94c0-59 17-99 70-100 32-1 48 14 60 33 0-11-1-24 2-32h30l-1 268h-32zM93-21c41 0 51-33 51-76s-8-73-50-73c-40 0-46 35-46 75s5 74 45 74" id="ae"/><path d="M84 4C-5 8 30-112 23-190h32v120c0 31 7 50 39 49 72-2 45-101 50-169h31l1 190h-30c-1-10 1-25-2-33-11 22-28 36-60 37" id="af"/><path d="M135-143c-3-34-86-38-87 0 15 53 115 12 119 90S17 21 10-45l28-5c4 36 97 45 98 0-10-56-113-15-118-90-4-57 82-63 122-42 12 7 21 19 24 35" id="ag"/><path d="M59-47c-2 24 18 29 38 22v24C64 9 27 4 27-40v-127H5v-23h24l9-43h21v43h35v23H59v120" id="ah"/><path d="M85-194c31 0 48 13 60 33l-1-100h32l1 261h-30c-2-10 0-23-3-31C134-8 116 4 85 4 32 4 16-35 15-94c0-66 23-100 70-100zm9 24c-40 0-46 34-46 75 0 40 6 74 45 74 42 0 51-32 51-76 0-42-9-74-50-73" id="ai"/><g id="b"><use transform="matrix(0.05,0,0,0.05,0,0)" xlink:href="#ac"/><use transform="matrix(0.05,0,0,0.05,5.95,0)" xlink:href="#ad"/><use transform="matrix(0.05,0,0,0.05,15.949999999999998,0)" xlink:href="#ae"/><use transform="matrix(0.05,0,0,0.05,25.950000000000003,0)" xlink:href="#af"/><use transform="matrix(0.05,0,0,0.05,35.95,0)" xlink:href="#ad"/><use transform="matrix(0.05,0,0,0.05,45.95,0)" xlink:href="#ag"/><use transform="matrix(0.05,0,0,0.05,54.95,0)" xlink:href="#ah"/><use transform="matrix(0.05,0,0,0.05,59.95,0)" xlink:href="#ad"/><use transform="matrix(0.05,0,0,0.05,69.95,0)" xlink:href="#ai"/></g><path d="M233-177c-1 41-23 64-60 70L243 0h-38l-65-103H63V0H30v-248c88 3 205-21 203 71zM63-129c60-2 137 13 137-47 0-61-80-42-137-45v92" id="aj"/><g id="c"><use transform="matrix(0.05,0,0,0.05,0,0)" xlink:href="#aj"/><use transform="matrix(0.05,0,0,0.05,12.950000000000001,0)" xlink:href="#ad"/><use transform="matrix(0.05,0,0,0.05,22.950000000000003,0)" xlink:href="#Z"/><use transform="matrix(0.05,0,0,0.05,32.95,0)" xlink:href="#aa"/><use transform="matrix(0.05,0,0,0.05,36.900000000000006,0)" xlink:href="#ag"/><use transform="matrix(0.05,0,0,0.05,45.900000000000006,0)" xlink:href="#ah"/><use transform="matrix(0.05,0,0,0.05,50.900000000000006,0)" xlink:href="#ad"/><use transform="matrix(0.05,0,0,0.05,60.900000000000006,0)" xlink:href="#ac"/></g><path d="M141-36C126-15 110 5 73 4 37 3 15-17 15-53c-1-64 63-63 125-63 3-35-9-54-41-54-24 1-41 7-42 31l-33-3c5-37 33-52 76-52 45 0 72 20 72 64v82c-1 20 7 32 28 27v20c-31 9-61-2-59-35zM48-53c0 20 12 33 32 33 41-3 63-29 60-74-43 2-92-5-92 41" id="ak"/><g id="d"><use transform="matrix(0.05,0,0,0.05,0,0)" xlink:href="#ai"/><use transform="matrix(0.05,0,0,0.05,10,0)" xlink:href="#ak"/><use transform="matrix(0.05,0,0,0.05,20,0)" xlink:href="#ah"/><use transform="matrix(0.05,0,0,0.05,25,0)" xlink:href="#ak"/></g><path d="M106-169C34-169 62-67 57 0H25v-261h32l-1 103c12-21 28-36 61-36 89 0 53 116 60 194h-32v-121c2-32-8-49-39-48" id="al"/><g id="e"><use transform="matrix(0.05,0,0,0.05,0,0)" xlink:href="#Z"/><use transform="matrix(0.05,0,0,0.05,10,0)" xlink:href="#ak"/><use transform="matrix(0.05,0,0,0.05,20,0)" xlink:href="#ah"/><use transform="matrix(0.05,0,0,0.05,25,0)" xlink:href="#al"/><use transform="matrix(0.05,0,0,0.05,35,0)" xlink:href="#ad"/><use transform="matrix(0.05,0,0,0.05,45,0)" xlink:href="#ac"/><use transform="matrix(0.05,0,0,0.05,50.95,0)" xlink:href="#ad"/><use transform="matrix(0.05,0,0,0.05,60.95,0)" xlink:href="#ai"/></g><path d="M96-169c-40 0-48 33-48 73s9 75 48 75c24 0 41-14 43-38l32 2c-6 37-31 61-74 61-59 0-76-41-82-99-10-93 101-131 147-64 4 7 5 14 7 22l-32 3c-4-21-16-35-41-35" id="am"/><path d="M143 0L79-87 56-68V0H24v-261h32v163l83-92h37l-77 82L181 0h-38" id="an"/><g id="f"><use transform="matrix(0.05,0,0,0.05,0,0)" xlink:href="#am"/><use transform="matrix(0.05,0,0,0.05,9,0)" xlink:href="#al"/><use transform="matrix(0.05,0,0,0.05,19,0)" xlink:href="#ad"/><use transform="matrix(0.05,0,0,0.05,29,0)" xlink:href="#am"/><use transform="matrix(0.05,0,0,0.05,38,0)" xlink:href="#an"/></g><g id="g"><use transform="matrix(0.05,0,0,0.05,0,0)" xlink:href="#ac"/><use transform="matrix(0.05,0,0,0.05,5.95,0)" xlink:href="#ad"/><use transform="matrix(0.05,0,0,0.05,15.949999999999998,0)" xlink:href="#Z"/><use transform="matrix(0.05,0,0,0.05,25.950000000000003,0)" xlink:href="#aa"/><use transform="matrix(0.05,0,0,0.05,29.899999999999995,0)" xlink:href="#ag"/><use transform="matrix(0.05,0,0,0.05,38.9,0)" xlink:href="#ah"/><use transform="matrix(0.05,0,0,0.05,43.9,0)" xlink:href="#ac"/><use transform="matrix(0.05,0,0,0.05,49.85,0)" xlink:href="#ak"/><use transform="matrix(0.05,0,0,0.05,59.85,0)" xlink:href="#ah"/><use transform="matrix(0.05,0,0,0.05,64.85,0)" xlink:href="#aa"/><use transform="matrix(0.05,0,0,0.05,68.8,0)" xlink:href="#Y"/><use transform="matrix(0.05,0,0,0.05,78.8,0)" xlink:href="#ab"/></g><path d="M205 0l-28-72H64L36 0H1l101-248h38L239 0h-34zm-38-99l-47-123c-12 45-31 82-46 123h93" id="ao"/><path d="M206 0h-36l-40-164L89 0H53L-1-190h32L70-26l43-164h34l41 164 42-164h31" id="ap"/><g id="h"><use transform="matrix(0.05,0,0,0.05,0,0)" xlink:href="#ao"/><use transform="matrix(0.05,0,0,0.05,11.65,0)" xlink:href="#ap"/><use transform="matrix(0.05,0,0,0.05,24.6,0)" xlink:href="#ak"/><use transform="matrix(0.05,0,0,0.05,34.6,0)" xlink:href="#aa"/><use transform="matrix(0.05,0,0,0.05,38.550000000000004,0)" xlink:href="#ah"/><use transform="matrix(0.05,0,0,0.05,43.550000000000004,0)" xlink:href="#aa"/><use transform="matrix(0.05,0,0,0.05,47.50000000000001,0)" xlink:href="#ab"/><use transform="matrix(0.05,0,0,0.05,57.5,0)" xlink:href="#Z"/></g><path d="M101-234c-31-9-42 10-38 44h38v23H63V0H32v-167H5v-23h27c-7-52 17-82 69-68v24" id="aq"/><path d="M210-169c-67 3-38 105-44 169h-31v-121c0-29-5-50-35-48C34-165 62-65 56 0H25l-1-190h30c1 10-1 24 2 32 10-44 99-50 107 0 11-21 27-35 58-36 85-2 47 119 55 194h-31v-121c0-29-5-49-35-48" id="ar"/><g id="i"><use transform="matrix(0.05,0,0,0.05,0,0)" xlink:href="#am"/><use transform="matrix(0.05,0,0,0.05,9,0)" xlink:href="#Y"/><use transform="matrix(0.05,0,0,0.05,19,0)" xlink:href="#ab"/><use transform="matrix(0.05,0,0,0.05,29,0)" xlink:href="#aq"/><use transform="matrix(0.05,0,0,0.05,34,0)" xlink:href="#aa"/><use transform="matrix(0.05,0,0,0.05,37.95,0)" xlink:href="#ac"/><use transform="matrix(0.05,0,0,0.05,43.900000000000006,0)" xlink:href="#ar"/><use transform="matrix(0.05,0,0,0.05,58.85,0)" xlink:href="#ak"/><use transform="matrix(0.05,0,0,0.05,68.85000000000001,0)" xlink:href="#ah"/><use transform="matrix(0.05,0,0,0.05,73.85000000000001,0)" xlink:href="#aa"/><use transform="matrix(0.05,0,0,0.05,77.80000000000001,0)" xlink:href="#Y"/><use transform="matrix(0.05,0,0,0.05,87.80000000000001,0)" xlink:href="#ab"/></g><path d="M24 0v-261h32V0H24" id="as"/><g id="j"><use transform="matrix(0.05,0,0,0.05,0,0)" xlink:href="#aq"/><use transform="matrix(0.05,0,0,0.05,5,0)" xlink:href="#aa"/><use transform="matrix(0.05,0,0,0.05,8.95,0)" xlink:href="#as"/><use transform="matrix(0.05,0,0,0.05,12.899999999999999,0)" xlink:href="#as"/></g><g id="k"><use transform="matrix(0.05,0,0,0.05,0,0)" xlink:href="#ac"/><use transform="matrix(0.05,0,0,0.05,5.95,0)" xlink:href="#ad"/><use transform="matrix(0.05,0,0,0.05,15.949999999999998,0)" xlink:href="#Z"/><use transform="matrix(0.05,0,0,0.05,25.950000000000003,0)" xlink:href="#aa"/><use transform="matrix(0.05,0,0,0.05,29.899999999999995,0)" xlink:href="#ag"/><use transform="matrix(0.05,0,0,0.05,38.9,0)" xlink:href="#ah"/><use transform="matrix(0.05,0,0,0.05,43.9,0)" xlink:href="#ac"/><use transform="matrix(0.05,0,0,0.05,49.85,0)" xlink:href="#ak"/><use transform="matrix(0.05,0,0,0.05,59.85,0)" xlink:href="#ah"/><use transform="matrix(0.05,0,0,0.05,64.85,0)" xlink:href="#aa"/><use transform="matrix(0.05,0,0,0.05,68.8,0)" xlink:href="#Y"/><use transform="matrix(0.05,0,0,0.05,78.8,0)" xlink:href="#ab"/></g><g id="l"><use transform="matrix(0.05,0,0,0.05,0,0)" xlink:href="#ai"/><use transform="matrix(0.05,0,0,0.05,10,0)" xlink:href="#ak"/><use transform="matrix(0.05,0,0,0.05,20,0)" xlink:href="#ah"/><use transform="matrix(0.05,0,0,0.05,25,0)" xlink:href="#ak"/></g><path d="M185-189c-5-48-123-54-124 2 14 75 158 14 163 119 3 78-121 87-175 55-17-10-28-26-33-46l33-7c5 56 141 63 141-1 0-78-155-14-162-118-5-82 145-84 179-34 5 7 8 16 11 25" id="at"/><g id="m"><use transform="matrix(0.05,0,0,0.05,0,0)" xlink:href="#at"/><use transform="matrix(0.05,0,0,0.05,12,0)" xlink:href="#ad"/><use transform="matrix(0.05,0,0,0.05,22,0)" xlink:href="#ab"/><use transform="matrix(0.05,0,0,0.05,32,0)" xlink:href="#ai"/></g><g id="n"><use transform="matrix(0.05,0,0,0.05,0,0)" xlink:href="#am"/><use transform="matrix(0.05,0,0,0.05,9,0)" xlink:href="#Y"/><use transform="matrix(0.05,0,0,0.05,19,0)" xlink:href="#ab"/><use transform="matrix(0.05,0,0,0.05,29,0)" xlink:href="#aq"/><use transform="matrix(0.05,0,0,0.05,34,0)" xlink:href="#aa"/><use transform="matrix(0.05,0,0,0.05,37.95,0)" xlink:href="#ac"/><use transform="matrix(0.05,0,0,0.05,43.900000000000006,0)" xlink:href="#ar"/><use transform="matrix(0.05,0,0,0.05,58.85,0)" xlink:href="#ak"/><use transform="matrix(0.05,0,0,0.05,68.85000000000001,0)" xlink:href="#ah"/><use transform="matrix(0.05,0,0,0.05,73.85000000000001,0)" xlink:href="#aa"/><use transform="matrix(0.05,0,0,0.05,77.80000000000001,0)" xlink:href="#Y"/><use transform="matrix(0.05,0,0,0.05,87.80000000000001,0)" xlink:href="#ab"/></g><g id="o"><use transform="matrix(0.05,0,0,0.05,0,0)" xlink:href="#ad"/><use transform="matrix(0.05,0,0,0.05,10,0)" xlink:href="#ar"/><use transform="matrix(0.05,0,0,0.05,24.950000000000003,0)" xlink:href="#ak"/><use transform="matrix(0.05,0,0,0.05,34.95,0)" xlink:href="#aa"/><use transform="matrix(0.05,0,0,0.05,38.900000000000006,0)" xlink:href="#as"/></g><g id="p"><use transform="matrix(0.05,0,0,0.05,0,0)" xlink:href="#aj"/><use transform="matrix(0.05,0,0,0.05,12.950000000000001,0)" xlink:href="#ad"/><use transform="matrix(0.05,0,0,0.05,22.950000000000003,0)" xlink:href="#Z"/><use transform="matrix(0.05,0,0,0.05,32.95,0)" xlink:href="#aa"/><use transform="matrix(0.05,0,0,0.05,36.900000000000006,0)" xlink:href="#ag"/><use transform="matrix(0.05,0,0,0.05,45.900000000000006,0)" xlink:href="#ah"/><use transform="matrix(0.05,0,0,0.05,50.900000000000006,0)" xlink:href="#ac"/><use transform="matrix(0.05,0,0,0.05,56.85,0)" xlink:href="#ak"/><use transform="matrix(0.05,0,0,0.05,66.85000000000001,0)" xlink:href="#ah"/><use transform="matrix(0.05,0,0,0.05,71.85000000000001,0)" xlink:href="#aa"/><use transform="matrix(0.05,0,0,0.05,75.80000000000001,0)" xlink:href="#Y"/><use transform="matrix(0.05,0,0,0.05,85.80000000000001,0)" xlink:href="#ab"/></g><g id="q"><use transform="matrix(0.05,0,0,0.05,0,0)" xlink:href="#am"/><use transform="matrix(0.05,0,0,0.05,9,0)" xlink:href="#al"/><use transform="matrix(0.05,0,0,0.05,19,0)" xlink:href="#ad"/><use transform="matrix(0.05,0,0,0.05,29,0)" xlink:href="#am"/><use transform="matrix(0.05,0,0,0.05,38,0)" xlink:href="#an"/><use transform="matrix(0.05,0,0,0.05,47,0)" xlink:href="#ad"/><use transform="matrix(0.05,0,0,0.05,57,0)" xlink:href="#ai"/></g><path d="M137-103V0h-34v-103L8-248h37l75 118 75-118h37" id="au"/><g id="r"><use transform="matrix(0.05,0,0,0.05,0,0)" xlink:href="#au"/><use transform="matrix(0.05,0,0,0.05,10.35,0)" xlink:href="#ad"/><use transform="matrix(0.05,0,0,0.05,20.35,0)" xlink:href="#ag"/></g><path d="M190 0L58-211 59 0H30v-248h39L202-35l-2-213h31V0h-41" id="av"/><g id="s"><use transform="matrix(0.05,0,0,0.05,0,0)" xlink:href="#av"/><use transform="matrix(0.05,0,0,0.05,12.950000000000001,0)" xlink:href="#Y"/></g><g id="t"><use transform="matrix(0.05,0,0,0.05,0,0)" xlink:href="#aj"/><use transform="matrix(0.05,0,0,0.05,12.950000000000001,0)" xlink:href="#ad"/><use transform="matrix(0.05,0,0,0.05,22.950000000000003,0)" xlink:href="#Z"/><use transform="matrix(0.05,0,0,0.05,32.95,0)" xlink:href="#aa"/><use transform="matrix(0.05,0,0,0.05,36.900000000000006,0)" xlink:href="#ag"/><use transform="matrix(0.05,0,0,0.05,45.900000000000006,0)" xlink:href="#ah"/><use transform="matrix(0.05,0,0,0.05,50.900000000000006,0)" xlink:href="#ad"/><use transform="matrix(0.05,0,0,0.05,60.900000000000006,0)" xlink:href="#ac"/><use transform="matrix(0.05,0,0,0.05,66.85000000000001,0)" xlink:href="#ad"/><use transform="matrix(0.05,0,0,0.05,76.85000000000001,0)" xlink:href="#ai"/></g><path d="M103-251c84 0 111 97 45 133-19 10-37 24-39 52H78c0-63 77-55 77-114 0-30-21-42-52-43-32 0-53 17-56 46l-32-2c7-45 34-72 88-72zM77 0v-35h34V0H77" id="aw"/><g id="u"><use transform="matrix(0.05,0,0,0.05,0,0)" xlink:href="#af"/><use transform="matrix(0.05,0,0,0.05,10,0)" xlink:href="#ag"/><use transform="matrix(0.05,0,0,0.05,19,0)" xlink:href="#ad"/><use transform="matrix(0.05,0,0,0.05,29,0)" xlink:href="#ac"/><use transform="matrix(0.05,0,0,0.05,34.95,0)" xlink:href="#aw"/></g><path d="M212-179c-10-28-35-45-73-45-59 0-87 40-87 99 0 60 29 101 89 101 43 0 62-24 78-52l27 14C228-24 195 4 139 4 59 4 22-46 18-125c-6-104 99-153 187-111 19 9 31 26 39 46" id="ax"/><g id="v"><use transform="matrix(0.05,0,0,0.05,0,0)" xlink:href="#ax"/><use transform="matrix(0.05,0,0,0.05,12.950000000000001,0)" xlink:href="#ac"/><use transform="matrix(0.05,0,0,0.05,18.900000000000002,0)" xlink:href="#ad"/><use transform="matrix(0.05,0,0,0.05,28.900000000000002,0)" xlink:href="#ai"/><use transform="matrix(0.05,0,0,0.05,38.900000000000006,0)" xlink:href="#ad"/><use transform="matrix(0.05,0,0,0.05,48.900000000000006,0)" xlink:href="#ab"/><use transform="matrix(0.05,0,0,0.05,58.900000000000006,0)" xlink:href="#ah"/><use transform="matrix(0.05,0,0,0.05,63.900000000000006,0)" xlink:href="#aa"/><use transform="matrix(0.05,0,0,0.05,67.85000000000001,0)" xlink:href="#ak"/><use transform="matrix(0.05,0,0,0.05,77.85000000000001,0)" xlink:href="#as"/><use transform="matrix(0.05,0,0,0.05,81.80000000000001,0)" xlink:href="#ag"/></g><g id="w"><use transform="matrix(0.05,0,0,0.05,0,0)" xlink:href="#aq"/><use transform="matrix(0.05,0,0,0.05,5,0)" xlink:href="#aa"/><use transform="matrix(0.05,0,0,0.05,8.95,0)" xlink:href="#as"/><use transform="matrix(0.05,0,0,0.05,12.899999999999999,0)" xlink:href="#as"/><use transform="matrix(0.05,0,0,0.05,16.849999999999998,0)" xlink:href="#ad"/><use transform="matrix(0.05,0,0,0.05,26.849999999999994,0)" xlink:href="#ai"/></g><g id="x"><use transform="matrix(0.05,0,0,0.05,0,0)" xlink:href="#am"/><use transform="matrix(0.05,0,0,0.05,9,0)" xlink:href="#Y"/><use transform="matrix(0.05,0,0,0.05,19,0)" xlink:href="#ab"/><use transform="matrix(0.05,0,0,0.05,29,0)" xlink:href="#aq"/><use transform="matrix(0.05,0,0,0.05,34,0)" xlink:href="#aa"/><use transform="matrix(0.05,0,0,0.05,37.95,0)" xlink:href="#ac"/><use transform="matrix(0.05,0,0,0.05,43.900000000000006,0)" xlink:href="#ar"/><use transform="matrix(0.05,0,0,0.05,58.85,0)" xlink:href="#ad"/><use transform="matrix(0.05,0,0,0.05,68.85000000000001,0)" xlink:href="#ai"/><use transform="matrix(0.05,0,0,0.05,78.85000000000001,0)" xlink:href="#aw"/></g><g id="y"><use transform="matrix(0.05,0,0,0.05,0,0)" xlink:href="#aq"/><use transform="matrix(0.05,0,0,0.05,5,0)" xlink:href="#ak"/><use transform="matrix(0.05,0,0,0.05,15,0)" xlink:href="#aa"/><use transform="matrix(0.05,0,0,0.05,18.95,0)" xlink:href="#as"/><use transform="matrix(0.05,0,0,0.05,22.9,0)" xlink:href="#ad"/><use transform="matrix(0.05,0,0,0.05,32.9,0)" xlink:href="#ai"/></g><g id="z"><use transform="matrix(0.05,0,0,0.05,0,0)" xlink:href="#ax"/><use transform="matrix(0.05,0,0,0.05,12.950000000000001,0)" xlink:href="#ac"/><use transform="matrix(0.05,0,0,0.05,18.900000000000002,0)" xlink:href="#ad"/><use transform="matrix(0.05,0,0,0.05,28.900000000000002,0)" xlink:href="#ai"/><use transform="matrix(0.05,0,0,0.05,38.900000000000006,0)" xlink:href="#ad"/><use transform="matrix(0.05,0,0,0.05,48.900000000000006,0)" xlink:href="#ab"/><use transform="matrix(0.05,0,0,0.05,58.900000000000006,0)" xlink:href="#ah"/><use transform="matrix(0.05,0,0,0.05,63.900000000000006,0)" xlink:href="#aa"/><use transform="matrix(0.05,0,0,0.05,67.85000000000001,0)" xlink:href="#ak"/><use transform="matrix(0.05,0,0,0.05,77.85000000000001,0)" xlink:href="#as"/><use transform="matrix(0.05,0,0,0.05,81.80000000000001,0)" xlink:href="#ag"/></g><path d="M115-194c53 0 69 39 70 98 0 66-23 100-70 100C84 3 66-7 56-30L54 0H23l1-261h32v101c10-23 28-34 59-34zm-8 174c40 0 45-34 45-75 0-40-5-75-45-74-42 0-51 32-51 76 0 43 10 73 51 73" id="ay"/><g id="A"><use transform="matrix(0.05,0,0,0.05,0,0)" xlink:href="#ag"/><use transform="matrix(0.05,0,0,0.05,9,0)" xlink:href="#af"/><use transform="matrix(0.05,0,0,0.05,19,0)" xlink:href="#ay"/><use transform="matrix(0.05,0,0,0.05,29,0)" xlink:href="#ar"/><use transform="matrix(0.05,0,0,0.05,43.95,0)" xlink:href="#aa"/><use transform="matrix(0.05,0,0,0.05,47.900000000000006,0)" xlink:href="#ah"/><use transform="matrix(0.05,0,0,0.05,52.900000000000006,0)" xlink:href="#ah"/><use transform="matrix(0.05,0,0,0.05,57.900000000000006,0)" xlink:href="#ad"/><use transform="matrix(0.05,0,0,0.05,67.9,0)" xlink:href="#ai"/></g><g id="B"><use transform="matrix(0.05,0,0,0.05,0,0)" xlink:href="#ao"/><use transform="matrix(0.05,0,0,0.05,11.65,0)" xlink:href="#ap"/><use transform="matrix(0.05,0,0,0.05,24.6,0)" xlink:href="#ak"/><use transform="matrix(0.05,0,0,0.05,34.6,0)" xlink:href="#aa"/><use transform="matrix(0.05,0,0,0.05,38.550000000000004,0)" xlink:href="#ah"/><use transform="matrix(0.05,0,0,0.05,43.550000000000004,0)" xlink:href="#aa"/><use transform="matrix(0.05,0,0,0.05,47.50000000000001,0)" xlink:href="#ab"/><use transform="matrix(0.05,0,0,0.05,57.5,0)" xlink:href="#Z"/></g><g id="C"><use transform="matrix(0.05,0,0,0.05,0,0)" xlink:href="#as"/><use transform="matrix(0.05,0,0,0.05,3.95,0)" xlink:href="#Y"/><use transform="matrix(0.05,0,0,0.05,13.949999999999998,0)" xlink:href="#Z"/><use transform="matrix(0.05,0,0,0.05,23.95,0)" xlink:href="#aa"/><use transform="matrix(0.05,0,0,0.05,27.899999999999995,0)" xlink:href="#ab"/></g><g id="D"><use transform="matrix(0.05,0,0,0.05,0,0)" xlink:href="#am"/><use transform="matrix(0.05,0,0,0.05,9,0)" xlink:href="#ac"/><use transform="matrix(0.05,0,0,0.05,14.949999999999998,0)" xlink:href="#ad"/><use transform="matrix(0.05,0,0,0.05,24.95,0)" xlink:href="#ai"/><use transform="matrix(0.05,0,0,0.05,34.95,0)" xlink:href="#ad"/><use transform="matrix(0.05,0,0,0.05,44.95,0)" xlink:href="#ab"/><use transform="matrix(0.05,0,0,0.05,54.95,0)" xlink:href="#ah"/><use transform="matrix(0.05,0,0,0.05,59.95,0)" xlink:href="#aa"/><use transform="matrix(0.05,0,0,0.05,63.900000000000006,0)" xlink:href="#ak"/><use transform="matrix(0.05,0,0,0.05,73.9,0)" xlink:href="#as"/><use transform="matrix(0.05,0,0,0.05,77.85000000000001,0)" xlink:href="#ag"/></g><g id="E"><use transform="matrix(0.05,0,0,0.05,0,0)" xlink:href="#at"/><use transform="matrix(0.05,0,0,0.05,12,0)" xlink:href="#af"/><use transform="matrix(0.05,0,0,0.05,22,0)" xlink:href="#ay"/><use transform="matrix(0.05,0,0,0.05,32,0)" xlink:href="#ar"/><use transform="matrix(0.05,0,0,0.05,46.95,0)" xlink:href="#aa"/><use transform="matrix(0.05,0,0,0.05,50.900000000000006,0)" xlink:href="#ah"/></g><path d="M26 75v-336h71v23H56V52h41v23H26" id="az"/><path d="M137 0h-34L2-248h35l83 218 83-218h36" id="aA"/><path d="M3 75V52h41v-290H3v-23h71V75H3" id="aB"/><g id="F"><use transform="matrix(0.05,0,0,0.05,0,0)" xlink:href="#az"/><use transform="matrix(0.05,0,0,0.05,5,0)" xlink:href="#ab"/><use transform="matrix(0.05,0,0,0.05,15,0)" xlink:href="#Y"/><use transform="matrix(0.05,0,0,0.05,25,0)" xlink:href="#ah"/><use transform="matrix(0.05,0,0,0.05,30,0)" xlink:href="#aA"/><use transform="matrix(0.05,0,0,0.05,40.65,0)" xlink:href="#ak"/><use transform="matrix(0.05,0,0,0.05,50.65,0)" xlink:href="#as"/><use transform="matrix(0.05,0,0,0.05,54.6,0)" xlink:href="#aa"/><use transform="matrix(0.05,0,0,0.05,58.550000000000004,0)" xlink:href="#ai"/><use transform="matrix(0.05,0,0,0.05,68.55000000000001,0)" xlink:href="#aB"/></g><g id="G"><use transform="matrix(0.05,0,0,0.05,0,0)" xlink:href="#aq"/><use transform="matrix(0.05,0,0,0.05,5,0)" xlink:href="#aa"/><use transform="matrix(0.05,0,0,0.05,8.95,0)" xlink:href="#as"/><use transform="matrix(0.05,0,0,0.05,12.899999999999999,0)" xlink:href="#as"/></g><path d="M232-93c-1 65-40 97-104 97C67 4 28-28 28-90v-158h33c8 89-33 224 67 224 102 0 64-133 71-224h33v155" id="aC"/><g id="H"><use transform="matrix(0.05,0,0,0.05,0,0)" xlink:href="#aC"/><use transform="matrix(0.05,0,0,0.05,12.950000000000001,0)" xlink:href="#ag"/><use transform="matrix(0.05,0,0,0.05,21.950000000000003,0)" xlink:href="#ad"/><use transform="matrix(0.05,0,0,0.05,31.950000000000003,0)" xlink:href="#ac"/></g><g id="I"><use transform="matrix(0.05,0,0,0.05,0,0)" xlink:href="#am"/><use transform="matrix(0.05,0,0,0.05,9,0)" xlink:href="#Y"/><use transform="matrix(0.05,0,0,0.05,19,0)" xlink:href="#ab"/><use transform="matrix(0.05,0,0,0.05,29,0)" xlink:href="#aq"/><use transform="matrix(0.05,0,0,0.05,34,0)" xlink:href="#aa"/><use transform="matrix(0.05,0,0,0.05,37.95,0)" xlink:href="#ac"/><use transform="matrix(0.05,0,0,0.05,43.900000000000006,0)" xlink:href="#ar"/><use transform="matrix(0.05,0,0,0.05,58.85,0)" xlink:href="#ad"/><use transform="matrix(0.05,0,0,0.05,68.85000000000001,0)" xlink:href="#ai"/></g><g id="J"><use transform="matrix(0.05,0,0,0.05,0,0)" xlink:href="#ax"/><use transform="matrix(0.05,0,0,0.05,12.950000000000001,0)" xlink:href="#Y"/><use transform="matrix(0.05,0,0,0.05,22.950000000000003,0)" xlink:href="#ab"/><use transform="matrix(0.05,0,0,0.05,32.95,0)" xlink:href="#aq"/><use transform="matrix(0.05,0,0,0.05,37.95,0)" xlink:href="#aa"/><use transform="matrix(0.05,0,0,0.05,41.900000000000006,0)" xlink:href="#ac"/><use transform="matrix(0.05,0,0,0.05,47.85000000000001,0)" xlink:href="#ar"/></g><g id="K"><use transform="matrix(0.05,0,0,0.05,0,0)" xlink:href="#af"/><use transform="matrix(0.05,0,0,0.05,10,0)" xlink:href="#ag"/><use transform="matrix(0.05,0,0,0.05,19,0)" xlink:href="#ad"/><use transform="matrix(0.05,0,0,0.05,29,0)" xlink:href="#ac"/></g><g id="L"><use transform="matrix(0.05,0,0,0.05,0,0)" xlink:href="#X"/><use transform="matrix(0.05,0,0,0.05,10,0)" xlink:href="#Y"/><use transform="matrix(0.05,0,0,0.05,20,0)" xlink:href="#Z"/><use transform="matrix(0.05,0,0,0.05,30,0)" xlink:href="#aa"/><use transform="matrix(0.05,0,0,0.05,33.95,0)" xlink:href="#ab"/></g><g id="M"><use transform="matrix(0.05,0,0,0.05,0,0)" xlink:href="#ad"/><use transform="matrix(0.05,0,0,0.05,10,0)" xlink:href="#ab"/><use transform="matrix(0.05,0,0,0.05,20,0)" xlink:href="#ai"/></g><g id="N"><use transform="matrix(0.05,0,0,0.05,0,0)" xlink:href="#ac"/><use transform="matrix(0.05,0,0,0.05,5.95,0)" xlink:href="#ad"/><use transform="matrix(0.05,0,0,0.05,15.949999999999998,0)" xlink:href="#Z"/><use transform="matrix(0.05,0,0,0.05,25.950000000000003,0)" xlink:href="#aa"/><use transform="matrix(0.05,0,0,0.05,29.899999999999995,0)" xlink:href="#ag"/><use transform="matrix(0.05,0,0,0.05,38.9,0)" xlink:href="#ah"/><use transform="matrix(0.05,0,0,0.05,43.9,0)" xlink:href="#ad"/><use transform="matrix(0.05,0,0,0.05,53.900000000000006,0)" xlink:href="#ac"/><use transform="matrix(0.05,0,0,0.05,59.85,0)" xlink:href="#ad"/><use transform="matrix(0.05,0,0,0.05,69.85,0)" xlink:href="#ai"/></g><g id="O"><use transform="matrix(0.05,0,0,0.05,0,0)" xlink:href="#X"/><use transform="matrix(0.05,0,0,0.05,10,0)" xlink:href="#Y"/><use transform="matrix(0.05,0,0,0.05,20,0)" xlink:href="#Z"/><use transform="matrix(0.05,0,0,0.05,30,0)" xlink:href="#Z"/><use transform="matrix(0.05,0,0,0.05,40,0)" xlink:href="#ad"/><use transform="matrix(0.05,0,0,0.05,50,0)" xlink:href="#ai"/></g><g id="P"><use transform="matrix(0.05,0,0,0.05,0,0)" xlink:href="#aa"/><use transform="matrix(0.05,0,0,0.05,3.95,0)" xlink:href="#ab"/></g><path fill="#666" d="M232-93c-1 65-40 97-104 97C67 4 28-28 28-90v-158h33c8 89-33 224 67 224 102 0 64-133 71-224h33v155" id="aD"/><path fill="#666" d="M135-143c-3-34-86-38-87 0 15 53 115 12 119 90S17 21 10-45l28-5c4 36 97 45 98 0-10-56-113-15-118-90-4-57 82-63 122-42 12 7 21 19 24 35" id="aE"/><path fill="#666" d="M100-194c63 0 86 42 84 106H49c0 40 14 67 53 68 26 1 43-12 49-29l28 8c-11 28-37 45-77 45C44 4 14-33 15-96c1-61 26-98 85-98zm52 81c6-60-76-77-97-28-3 7-6 17-6 28h103" id="aF"/><path fill="#666" d="M114-163C36-179 61-72 57 0H25l-1-190h30c1 12-1 29 2 39 6-27 23-49 58-41v29" id="aG"/><g id="Q"><use transform="matrix(0.09259259259259256,0,0,0.09259259259259256,0,0)" xlink:href="#aD"/><use transform="matrix(0.09259259259259256,0,0,0.09259259259259256,23.981481481481474,0)" xlink:href="#aE"/><use transform="matrix(0.09259259259259256,0,0,0.09259259259259256,40.64814814814814,0)" xlink:href="#aF"/><use transform="matrix(0.09259259259259256,0,0,0.09259259259259256,59.16666666666664,0)" xlink:href="#aG"/></g><path fill="#666" d="M177-190C167-65 218 103 67 71c-23-6-38-20-44-43l32-5c15 47 100 32 89-28v-30C133-14 115 1 83 1 29 1 15-40 15-95c0-56 16-97 71-98 29-1 48 16 59 35 1-10 0-23 2-32h30zM94-22c36 0 50-32 50-73 0-42-14-75-50-75-39 0-46 34-46 75s6 73 46 73" id="aH"/><path fill="#666" d="M24-231v-30h32v30H24zM24 0v-190h32V0H24" id="aI"/><path fill="#666" d="M59-47c-2 24 18 29 38 22v24C64 9 27 4 27-40v-127H5v-23h24l9-43h21v43h35v23H59v120" id="aJ"/><path fill="#666" d="M141-36C126-15 110 5 73 4 37 3 15-17 15-53c-1-64 63-63 125-63 3-35-9-54-41-54-24 1-41 7-42 31l-33-3c5-37 33-52 76-52 45 0 72 20 72 64v82c-1 20 7 32 28 27v20c-31 9-61-2-59-35zM48-53c0 20 12 33 32 33 41-3 63-29 60-74-43 2-92-5-92 41" id="aK"/><path fill="#666" d="M100-194c62-1 85 37 85 99 1 63-27 99-86 99S16-35 15-95c0-66 28-99 85-99zM99-20c44 1 53-31 53-75 0-43-8-75-51-75s-53 32-53 75 10 74 51 75" id="aL"/><path fill="#666" d="M117-194c89-4 53 116 60 194h-32v-121c0-31-8-49-39-48C34-167 62-67 57 0H25l-1-190h30c1 10-1 24 2 32 11-22 29-35 61-36" id="aM"/><g id="R"><use transform="matrix(0.09259259259259256,0,0,0.09259259259259256,0,0)" xlink:href="#aG"/><use transform="matrix(0.09259259259259256,0,0,0.09259259259259256,11.018518518518515,0)" xlink:href="#aF"/><use transform="matrix(0.09259259259259256,0,0,0.09259259259259256,29.537037037037027,0)" xlink:href="#aH"/><use transform="matrix(0.09259259259259256,0,0,0.09259259259259256,48.055555555555536,0)" xlink:href="#aI"/><use transform="matrix(0.09259259259259256,0,0,0.09259259259259256,55.37037037037035,0)" xlink:href="#aE"/><use transform="matrix(0.09259259259259256,0,0,0.09259259259259256,72.03703703703701,0)" xlink:href="#aJ"/><use transform="matrix(0.09259259259259256,0,0,0.09259259259259256,81.29629629629626,0)" xlink:href="#aG"/><use transform="matrix(0.09259259259259256,0,0,0.09259259259259256,92.31481481481478,0)" xlink:href="#aK"/><use transform="matrix(0.09259259259259256,0,0,0.09259259259259256,110.8333333333333,0)" xlink:href="#aJ"/><use transform="matrix(0.09259259259259256,0,0,0.09259259259259256,120.09259259259252,0)" xlink:href="#aI"/><use transform="matrix(0.09259259259259256,0,0,0.09259259259259256,127.40740740740735,0)" xlink:href="#aL"/><use transform="matrix(0.09259259259259256,0,0,0.09259259259259256,145.92592592592587,0)" xlink:href="#aM"/></g><path fill="#666" d="M85-194c31 0 48 13 60 33l-1-100h32l1 261h-30c-2-10 0-23-3-31C134-8 116 4 85 4 32 4 16-35 15-94c0-66 23-100 70-100zm9 24c-40 0-46 34-46 75 0 40 6 74 45 74 42 0 51-32 51-76 0-42-9-74-50-73" id="aN"/><g id="S"><use transform="matrix(0.09259259259259256,0,0,0.09259259259259256,0,0)" xlink:href="#aK"/><use transform="matrix(0.09259259259259256,0,0,0.09259259259259256,18.518518518518512,0)" xlink:href="#aM"/><use transform="matrix(0.09259259259259256,0,0,0.09259259259259256,37.037037037037024,0)" xlink:href="#aN"/></g><path fill="#666" d="M24 0v-261h32V0H24" id="aO"/><g id="T"><use transform="matrix(0.09259259259259256,0,0,0.09259259259259256,0,0)" xlink:href="#aO"/><use transform="matrix(0.09259259259259256,0,0,0.09259259259259256,7.314814814814812,0)" xlink:href="#aL"/><use transform="matrix(0.09259259259259256,0,0,0.09259259259259256,25.833333333333325,0)" xlink:href="#aH"/><use transform="matrix(0.09259259259259256,0,0,0.09259259259259256,44.35185185185183,0)" xlink:href="#aI"/><use transform="matrix(0.09259259259259256,0,0,0.09259259259259256,51.666666666666636,0)" xlink:href="#aM"/></g><g id="U"><use transform="matrix(0.09259259259259256,0,0,0.09259259259259256,0,0)" xlink:href="#aE"/><use transform="matrix(0.09259259259259256,0,0,0.09259259259259256,16.66666666666666,0)" xlink:href="#aJ"/><use transform="matrix(0.09259259259259256,0,0,0.09259259259259256,25.925925925925917,0)" xlink:href="#aK"/><use transform="matrix(0.09259259259259256,0,0,0.09259259259259256,44.44444444444443,0)" xlink:href="#aJ"/><use transform="matrix(0.09259259259259256,0,0,0.09259259259259256,53.70370370370368,0)" xlink:href="#aF"/></g><path fill="#666" d="M96-169c-40 0-48 33-48 73s9 75 48 75c24 0 41-14 43-38l32 2c-6 37-31 61-74 61-59 0-76-41-82-99-10-93 101-131 147-64 4 7 5 14 7 22l-32 3c-4-21-16-35-41-35" id="aP"/><path fill="#666" d="M106-169C34-169 62-67 57 0H25v-261h32l-1 103c12-21 28-36 61-36 89 0 53 116 60 194h-32v-121c2-32-8-49-39-48" id="aQ"/><g id="V"><use transform="matrix(0.09259259259259256,0,0,0.09259259259259256,0,0)" xlink:href="#aP"/><use transform="matrix(0.09259259259259256,0,0,0.09259259259259256,16.66666666666666,0)" xlink:href="#aQ"/><use transform="matrix(0.09259259259259256,0,0,0.09259259259259256,35.185185185185176,0)" xlink:href="#aK"/><use transform="matrix(0.09259259259259256,0,0,0.09259259259259256,53.70370370370368,0)" xlink:href="#aG"/><use transform="matrix(0.09259259259259256,0,0,0.09259259259259256,64.7222222222222,0)" xlink:href="#aJ"/></g><path fill="#666" d="M210-169c-67 3-38 105-44 169h-31v-121c0-29-5-50-35-48C34-165 62-65 56 0H25l-1-190h30c1 10-1 24 2 32 10-44 99-50 107 0 11-21 27-35 58-36 85-2 47 119 55 194h-31v-121c0-29-5-49-35-48" id="aR"/><g id="W"><use transform="matrix(0.09259259259259256,0,0,0.09259259259259256,0,0)" xlink:href="#aN"/><use transform="matrix(0.09259259259259256,0,0,0.09259259259259256,18.518518518518512,0)" xlink:href="#aI"/><use transform="matrix(0.09259259259259256,0,0,0.09259259259259256,25.833333333333325,0)" xlink:href="#aK"/><use transform="matrix(0.09259259259259256,0,0,0.09259259259259256,44.35185185185183,0)" xlink:href="#aH"/><use transform="matrix(0.09259259259259256,0,0,0.09259259259259256,62.870370370370345,0)" xlink:href="#aG"/><use transform="matrix(0.09259259259259256,0,0,0.09259259259259256,73.88888888888886,0)" xlink:href="#aK"/><use transform="matrix(0.09259259259259256,0,0,0.09259259259259256,92.40740740740736,0)" xlink:href="#aR"/></g></defs></g></svg>