<svg xmlns="http://www.w3.org/2000/svg" xmlns:xlink="http://www.w3.org/1999/xlink" xmlns:lucid="lucid" width="4412.64" height="1333.11"><g transform="translate(0 0)" lucid:page-tab-id="Ei-5Q4oXSq_m"><path d="M0 0h4412.64v1333.1H0z" fill="#fff"/><path d="M69.98 698.16h-40v-320h40z" stroke="#000" stroke-width="2" fill="#83bbe5"/><path d="M69.98 378.16H4220v320H69.98z" stroke="#000" stroke-width="2" fill-opacity="0"/><use xlink:href="#a" transform="matrix(-1.8369701987210297e-16,-1,1,-1.8369701987210297e-16,29.983546429094986,698.1562106582195) translate(121.07499999999999 23.6)"/><path d="M200 476.34c0 16.57-13.43 30-30 30s-30-13.43-30-30 13.43-30 30-30 30 13.43 30 30z" stroke="#000" stroke-width="2" fill="#fff"/><use xlink:href="#b" transform="matrix(1,0,0,1,140,508.3368556539574) translate(8.524999999999999 14.4)"/><use xlink:href="#c" transform="matrix(1,0,0,1,140,508.3368556539574) translate(19.525 36)"/><use xlink:href="#d" transform="matrix(1,0,0,1,140,508.3368556539574) translate(5 57.6)"/><path d="M290 416.96c0-2.76 2.24-5 5-5h180c2.76 0 5 2.24 5 5v118.76c0 2.76-2.24 5-5 5H295c-2.76 0-5-2.24-5-5z" stroke="#000" stroke-width="2" fill="#fff"/><path d="M299.76 455.24h34.14V443.9s-3.3-5.65-10.04-7.46h-13.1c-6.28 1.93-11.12 8.32-11.12 8.32l.12 10.48z" stroke="#000" stroke-width="2" fill="#f4f6f7"/><path d="M299.76 455.24h34.14V443.9s-3.3-5.65-10.04-7.46h-13.1c-6.28 1.93-11.12 8.32-11.12 8.32l.12 10.48zM307.2 449.1v5.54M326.92 449.2v5.8" stroke="#000" stroke-width="2" fill="none"/><path d="M325.04 428.83c0-4.33-3.45-7.83-7.7-7.83-4.23 0-7.66 3.5-7.66 7.83s3.43 7.85 7.67 7.85 7.7-3.52 7.7-7.85z" stroke="#000" stroke-width="2" fill="#020202"/><path d="M325.04 428.83c0-4.33-3.45-7.83-7.7-7.83-4.23 0-7.66 3.5-7.66 7.83s3.43 7.85 7.67 7.85 7.7-3.52 7.7-7.85z" stroke="#000" stroke-width="2" fill="none"/><path d="M310.33 430.52s3.98-3.5 7.6-2.6c3.64.9 6.58-1 6.58-1 .35 2.44.07 5.4-2.06 8.07 0 0 1.54 1.08 1.54 2.17 0 1.08.18 2.7-1.42 4.32-1.6 1.63-7.8 1.8-9.57 0-1.78-1.82-1.78-2.64-1.78-3.85 0-1.2.83-1.8 1.77-2.78-1.55-.84-3.56-3.44-2.67-4.35z" stroke="#000" stroke-width="2" fill="#f0eff0"/><path d="M310.33 430.52s3.98-3.5 7.6-2.6c3.64.9 6.58-1 6.58-1 .35 2.44.07 5.4-2.06 8.07 0 0 1.54 1.08 1.54 2.17 0 1.08.18 2.7-1.42 4.32-1.6 1.63-7.8 1.8-9.57 0-1.78-1.82-1.78-2.64-1.78-3.85 0-1.2.83-1.8 1.77-2.78-1.55-.84-3.56-3.44-2.67-4.35z" stroke="#000" stroke-width="2" fill="none"/><use xlink:href="#e" transform="matrix(1,0,0,1,290,411.9571590057019) translate(64.55499999999998 58.74375)"/><use xlink:href="#f" transform="matrix(1,0,0,1,290,411.9571590057019) translate(112.505 58.74375)"/><use xlink:href="#g" transform="matrix(1,0,0,1,290,411.9571590057019) translate(66.13 80.34375)"/><path d="M202 476.34h68.5" stroke="#000" stroke-width="2" fill="none"/><path d="M202.03 477.34h-1.1l.07-.98-.03-1.02h1.06z"/><path d="M285.76 476.34l-14.26 4.63v-9.27z" stroke="#000" stroke-width="2"/><path d="M560 416.96c0-2.76 2.24-5 5-5h180c2.76 0 5 2.24 5 5v118.76c0 2.76-2.24 5-5 5H565c-2.76 0-5-2.24-5-5z" stroke="#000" stroke-width="2" fill="#fff"/><path d="M568.9 427.74h35v20h-35z" stroke="#000" stroke-width="2"/><path d="M568.9 427.74l17.5 10 17.5-10" stroke="#fff" stroke-width="2" fill="none"/><use xlink:href="#h" transform="matrix(1,0,0,1,560,411.9571590057019) translate(53.07999999999999 66.80625)"/><use xlink:href="#i" transform="matrix(1,0,0,1,560,411.9571590057019) translate(79.97999999999999 66.80625)"/><path d="M482 476.34h58.5" stroke="#000" stroke-width="2" fill="none"/><path d="M482.03 477.34H481v-2h1.03z"/><path d="M555.76 476.34l-14.26 4.63v-9.27z" stroke="#000" stroke-width="2"/><path d="M2765.24 630c0 16.57-13.43 30-30 30s-30-13.43-30-30 13.43-30 30-30 30 13.43 30 30z" stroke="#000" stroke-width="6" fill="#fff"/><use xlink:href="#j" transform="matrix(1,0,0,1,2705.2417732145473,662) translate(14 14.4)"/><path d="M70.88 1053.54h-35c-2.76 0-5-2.24-5-5v-310c0-2.77 2.24-5 5-5h35z" stroke="#000" stroke-width="2" fill="#a3d977"/><path d="M70.88 733.54H4215c2.76 0 5 2.23 5 5v310c0 2.76-2.24 5-5 5H70.88z" stroke="#000" stroke-width="2" fill="none"/><use xlink:href="#k" transform="matrix(-1.8369701987210297e-16,-1,1,-1.8369701987210297e-16,30.88019071875351,1053.5359073064749) translate(118.25 23.6)"/><use xlink:href="#l" transform="matrix(-1.8369701987210297e-16,-1,1,-1.8369701987210297e-16,70.88019071875351,1053.5359073064749) translate(140 23.6)"/><path d="M620 765c0-2.76 2.24-5 5-5h180c2.76 0 5 2.24 5 5v118.76c0 2.76-2.24 5-5 5H625c-2.76 0-5-2.24-5-5z" stroke="#000" stroke-width="2" fill="#fff"/><path d="M628.9 775.8h35v20h-35z" stroke="#000" stroke-width="2" fill="#fff"/><path d="M628.9 775.8l17.5 10 17.5-10" stroke="#000" stroke-width="2" fill="none"/><use xlink:href="#m" transform="matrix(1,0,0,1,620,760) translate(35.154999999999994 58.74375)"/><use xlink:href="#n" transform="matrix(1,0,0,1,620,760) translate(97.105 58.74375)"/><use xlink:href="#o" transform="matrix(1,0,0,1,620,760) translate(57.529999999999994 80.34375)"/><path d="M715 542.72v4.12m0 8.24v8.24m0 8.24v8.24m0 8.24v8.24m0 8.24v8.24m0 8.25v8.25m0 8.24v8.23m0 8.24v8.24m0 8.25v8.24m0 8.23v8.24m0 8.24v8.25m0 8.25v8.24m0 8.24v4.12" stroke="#000" stroke-width="2" fill="none"/><path d="M716 542.74h-2v-1.02h2z"/><path d="M715 755.76l-4.64-14.26h9.28z" stroke="#000" stroke-width="2"/><path d="M900 765c0-2.76 2.24-5 5-5h180c2.76 0 5 2.24 5 5v118.76c0 2.76-2.24 5-5 5H905c-2.76 0-5-2.24-5-5z" stroke="#000" stroke-width="2" fill="#fff"/><path d="M919.65 769.28h24.25s-9.76 4.86-9.76 9.58c0 4.7 7.4 10.3 7.4 15.7 0 5.45-6.98 8.73-6.98 8.73h-25.2s8.34-4.58 8.34-8.57c0-4-7.65-11.6-7.65-15.87s9.6-9.58 9.6-9.58z" stroke="#000" stroke-width="2" fill="#fff"/><path d="M919.65 769.28h24.25s-9.76 4.86-9.76 9.58c0 4.7 7.4 10.3 7.4 15.7 0 5.45-6.98 8.73-6.98 8.73h-25.2s8.34-4.58 8.34-8.57c0-4-7.65-11.6-7.65-15.87s9.6-9.58 9.6-9.58z" stroke="#000" stroke-width="2" fill="#fff"/><path d="M914.92 776.57h16.44M915.33 783.3h16.45M919.52 790.43h16.43M919.94 797.58h16.42" stroke="#000" stroke-width="3"/><use xlink:href="#p" transform="matrix(1,0,0,1,900,760) translate(47.605 66.80625)"/><use xlink:href="#q" transform="matrix(1,0,0,1,900,760) translate(92.405 66.80625)"/><path d="M812 824.38h68.5" stroke="#000" stroke-width="2" fill="none"/><path d="M812.03 825.38H811v-2h1.03z"/><path d="M895.76 824.38L881.5 829v-9.26z" stroke="#000" stroke-width="2"/><path d="M1289.75 758v-4.12m0-8.24v-8.24m0-8.24v-8.24m0-8.24v-8.25m0-8.24v-8.25m0-8.24v-8.23m0-8.24V655m0-8.25v-8.24m0-8.23v-8.24m0-8.25v-8.24m0-8.24v-8.24m0-8.24v-8.24m0-8.24v-4.12" stroke="#000" stroke-width="2" fill="none"/><path d="M1290.75 759h-2v-1.03h2z"/><path d="M1289.75 544.95l4.64 14.27h-9.3z" stroke="#000" stroke-width="2"/><path d="M1180 416.96c0-2.76 2.24-5 5-5h180c2.76 0 5 2.24 5 5v118.76c0 2.76-2.24 5-5 5h-180c-2.76 0-5-2.24-5-5z" stroke="#000" stroke-width="2" fill="#fff"/><path d="M1188.9 427.74h35v20h-35z" stroke="#000" stroke-width="2" fill="#fff"/><path d="M1188.9 427.74l17.5 10 17.5-10" stroke="#000" stroke-width="2" fill="none"/><use xlink:href="#r" transform="matrix(1,0,0,1,1180,411.9571590057019) translate(18.07999999999999 66.80625)"/><use xlink:href="#s" transform="matrix(1,0,0,1,1180,411.9571590057019) translate(64.07999999999998 66.80625)"/><use xlink:href="#t" transform="matrix(1,0,0,1,1180,411.9571590057019) translate(97.03 66.80625)"/><path d="M1180 765c0-2.76 2.24-5 5-5h180c2.76 0 5 2.24 5 5v118.76c0 2.76-2.24 5-5 5h-180c-2.76 0-5-2.24-5-5z" stroke="#000" stroke-width="2" fill="#fff"/><path d="M1188.9 775.8h35v20h-35z" stroke="#000" stroke-width="2"/><path d="M1188.9 775.8l17.5 10 17.5-10" stroke="#fff" stroke-width="2" fill="none"/><use xlink:href="#u" transform="matrix(1,0,0,1,1180,760) translate(10.579999999999993 66.80625)"/><use xlink:href="#v" transform="matrix(1,0,0,1,1180,760) translate(57.57999999999999 66.80625)"/><use xlink:href="#w" transform="matrix(1,0,0,1,1180,760) translate(119.53 66.80625)"/><path d="M1092 824.38h68.5" stroke="#000" stroke-width="2" fill="none"/><path d="M1092.03 825.38H1091v-2h1.03z"/><path d="M1175.76 824.38L1161.5 829v-9.26z" stroke="#000" stroke-width="2"/><path d="M1460.25 416.96c0-2.76 2.24-5 5-5h180c2.76 0 5 2.24 5 5v118.76c0 2.76-2.24 5-5 5h-180c-2.76 0-5-2.24-5-5z" stroke="#000" stroke-width="2" fill="#fff"/><path d="M1470 455.24h34.15V443.9s-3.3-5.65-10.04-7.46H1481c-6.27 1.93-11.1 8.32-11.1 8.32l.1 10.48z" stroke="#000" stroke-width="2" fill="#f4f6f7"/><path d="M1470 455.24h34.15V443.9s-3.3-5.65-10.04-7.46H1481c-6.27 1.93-11.1 8.32-11.1 8.32l.1 10.48zM1477.45 449.1v5.54M1497.17 449.2v5.8" stroke="#000" stroke-width="2" fill="none"/><path d="M1495.3 428.83c0-4.33-3.46-7.83-7.7-7.83s-7.67 3.5-7.67 7.83 3.43 7.85 7.67 7.85 7.7-3.52 7.7-7.85z" stroke="#000" stroke-width="2" fill="#020202"/><path d="M1495.3 428.83c0-4.33-3.46-7.83-7.7-7.83s-7.67 3.5-7.67 7.83 3.43 7.85 7.67 7.85 7.7-3.52 7.7-7.85z" stroke="#000" stroke-width="2" fill="none"/><path d="M1480.58 430.52s3.98-3.5 7.6-2.6c3.64.9 6.58-1 6.58-1 .34 2.44.06 5.4-2.07 8.07 0 0 1.53 1.08 1.53 2.17 0 1.08.18 2.7-1.42 4.32-1.6 1.63-7.8 1.8-9.56 0-1.77-1.82-1.77-2.64-1.77-3.85 0-1.2.83-1.8 1.77-2.78-1.54-.84-3.55-3.44-2.66-4.35z" stroke="#000" stroke-width="2" fill="#f0eff0"/><path d="M1480.58 430.52s3.98-3.5 7.6-2.6c3.64.9 6.58-1 6.58-1 .34 2.44.06 5.4-2.07 8.07 0 0 1.53 1.08 1.53 2.17 0 1.08.18 2.7-1.42 4.32-1.6 1.63-7.8 1.8-9.56 0-1.77-1.82-1.77-2.64-1.77-3.85 0-1.2.83-1.8 1.77-2.78-1.54-.84-3.55-3.44-2.66-4.35z" stroke="#000" stroke-width="2" fill="none"/><use xlink:href="#x" transform="matrix(1,0,0,1,1460.25,411.9571590056876) translate(36.529999999999994 66.80625)"/><use xlink:href="#y" transform="matrix(1,0,0,1,1460.25,411.9571590056876) translate(96.48 66.80625)"/><use xlink:href="#z" transform="matrix(1,0,0,1,1460.25,411.9571590056876) translate(112.48 66.80625)"/><path d="M1372 476.34h68.75" stroke="#000" stroke-width="2" fill="none"/><path d="M1372.03 477.34H1371v-2h1.03z"/><path d="M1456 476.34l-14.25 4.63v-9.27z" stroke="#000" stroke-width="2"/><path d="M1740.5 416.96c0-2.76 2.24-5 5-5h180c2.76 0 5 2.24 5 5v118.76c0 2.76-2.24 5-5 5h-180c-2.76 0-5-2.24-5-5z" stroke="#000" stroke-width="2" fill="#fff"/><path d="M1749.4 427.74h35v20h-35z" stroke="#000" stroke-width="2"/><path d="M1749.4 427.74l17.5 10 17.5-10" stroke="#fff" stroke-width="2" fill="none"/><use xlink:href="#h" transform="matrix(1,0,0,1,1740.5,411.9571590056876) translate(54.12999999999999 66.80625)"/><use xlink:href="#A" transform="matrix(1,0,0,1,1740.5,411.9571590056876) translate(81.03 66.80625)"/><path d="M1740.5 765c0-2.76 2.24-5 5-5h180c2.76 0 5 2.24 5 5v118.76c0 2.76-2.24 5-5 5h-180c-2.76 0-5-2.24-5-5z" stroke="#000" stroke-width="2" fill="#fff"/><path d="M1749.4 775.8h35v20h-35z" stroke="#000" stroke-width="2" fill="#fff"/><path d="M1749.4 775.8l17.5 10 17.5-10" stroke="#000" stroke-width="2" fill="none"/><use xlink:href="#r" transform="matrix(1,0,0,1,1740.5,760) translate(49.07999999999999 58.74375)"/><use xlink:href="#B" transform="matrix(1,0,0,1,1740.5,760) translate(95.07999999999998 58.74375)"/><use xlink:href="#C" transform="matrix(1,0,0,1,1740.5,760) translate(51.529999999999994 80.34375)"/><path d="M1835.5 542.72v4.12m0 8.24v8.24m0 8.24v8.24m0 8.24v8.24m0 8.24v8.24m0 8.25v8.25m0 8.24v8.23m0 8.24v8.24m0 8.25v8.24m0 8.23v8.24m0 8.24v8.25m0 8.25v8.24m0 8.24v4.12" stroke="#000" stroke-width="2" fill="none"/><path d="M1836.5 542.74h-2v-1.02h2z"/><path d="M1835.5 755.76l-4.64-14.26h9.28z" stroke="#000" stroke-width="2"/><path d="M1652.25 476.34H1721" stroke="#000" stroke-width="2" fill="none"/><path d="M1652.28 477.34h-1.03v-2h1.03z"/><path d="M1736.26 476.34l-14.26 4.63v-9.27z" stroke="#000" stroke-width="2"/><path d="M2060 765c0-2.76 2.24-5 5-5h180c2.76 0 5 2.24 5 5v118.76c0 2.76-2.24 5-5 5h-180c-2.76 0-5-2.24-5-5z" stroke="#000" stroke-width="2" fill="#fff"/><path d="M2079.65 769.28h24.25s-9.76 4.86-9.76 9.58c0 4.7 7.4 10.3 7.4 15.7 0 5.45-6.98 8.73-6.98 8.73h-25.2s8.34-4.58 8.34-8.57c0-4-7.65-11.6-7.65-15.87s9.6-9.58 9.6-9.58z" stroke="#000" stroke-width="2" fill="#fff"/><path d="M2079.65 769.28h24.25s-9.76 4.86-9.76 9.58c0 4.7 7.4 10.3 7.4 15.7 0 5.45-6.98 8.73-6.98 8.73h-25.2s8.34-4.58 8.34-8.57c0-4-7.65-11.6-7.65-15.87s9.6-9.58 9.6-9.58z" stroke="#000" stroke-width="2" fill="#fff"/><path d="M2074.92 776.57h16.44M2075.33 783.3h16.45M2079.52 790.43h16.43M2079.94 797.58h16.42" stroke="#000" stroke-width="3"/><use xlink:href="#D" transform="matrix(1,0,0,1,2060,760) translate(36.03 66.80625)"/><use xlink:href="#E" transform="matrix(1,0,0,1,2060,760) translate(70.03 66.80625)"/><use xlink:href="#F" transform="matrix(1,0,0,1,2060,760) translate(116.03 66.80625)"/><path d="M1932.5 824.38h108" stroke="#000" stroke-width="2" fill="none"/><path d="M1932.53 825.38h-1.03v-2h1.03z"/><path d="M2055.76 824.38L2041.5 829v-9.26z" stroke="#000" stroke-width="2"/><path d="M2360 765c0-2.76 2.24-5 5-5h180c2.76 0 5 2.24 5 5v118.76c0 2.76-2.24 5-5 5h-180c-2.76 0-5-2.24-5-5z" stroke="#000" stroke-width="2" fill="#fff"/><path d="M2368.9 775.8h35v20h-35z" stroke="#000" stroke-width="2"/><path d="M2368.9 775.8l17.5 10 17.5-10" stroke="#fff" stroke-width="2" fill="none"/><use xlink:href="#u" transform="matrix(1,0,0,1,2360,760) translate(29.53000000000001 66.80625)"/><use xlink:href="#E" transform="matrix(1,0,0,1,2360,760) translate(76.53 66.80625)"/><use xlink:href="#F" transform="matrix(1,0,0,1,2360,760) translate(122.53 66.80625)"/><path d="M2252 824.38h88.5" stroke="#000" stroke-width="2" fill="none"/><path d="M2252.03 825.38H2251v-2h1.03z"/><path d="M2355.76 824.38L2341.5 829v-9.26z" stroke="#000" stroke-width="2"/><path d="M2360 416.96c0-2.76 2.24-5 5-5h180c2.76 0 5 2.24 5 5v118.76c0 2.76-2.24 5-5 5h-180c-2.76 0-5-2.24-5-5z" stroke="#000" stroke-width="2" fill="#fff"/><path d="M2368.9 427.74h35v20h-35z" stroke="#000" stroke-width="2" fill="#fff"/><path d="M2368.9 427.74l17.5 10 17.5-10" stroke="#000" stroke-width="2" fill="none"/><use xlink:href="#r" transform="matrix(1,0,0,1,2360,411.9571590057019) translate(9.12999999999999 66.80625)"/><use xlink:href="#G" transform="matrix(1,0,0,1,2360,411.9571590057019) translate(55.12999999999999 66.80625)"/><use xlink:href="#t" transform="matrix(1,0,0,1,2360,411.9571590057019) translate(105.98 66.80625)"/><path d="M2455 758v-4.12m0-8.24v-8.24m0-8.24v-8.24m0-8.24v-8.25m0-8.24v-8.25m0-8.24v-8.23m0-8.24V655m0-8.25v-8.24m0-8.23v-8.24m0-8.25v-8.24m0-8.24v-8.24m0-8.24v-8.24m0-8.24v-4.12" stroke="#000" stroke-width="2" fill="none"/><path d="M2456 759h-2v-1.03h2z"/><path d="M2455 544.95l4.64 14.27h-9.28z" stroke="#000" stroke-width="2"/><path d="M2697.74 476.34l37.5-37.5 37.5 37.5-37.5 37.5z" stroke="#000" stroke-width="2" fill="#fff"/><path d="M2750.24 476.34c0 8.28-6.7 15-15 15-8.28 0-15-6.72-15-15 0-8.3 6.72-15 15-15 8.3 0 15 6.7 15 15zM2552 476.34h125.83" stroke="#000" stroke-width="2" fill="none"/><path d="M2552.03 477.34H2551v-2h1.03z"/><path d="M2693.1 476.34l-14.27 4.63v-9.27z" stroke="#000" stroke-width="2"/><path d="M2735.24 516.25v62.25" stroke="#000" stroke-width="2" fill="none"/><path d="M2735.24 515.25l1-1v2.03h-2v-2.03z"/><path d="M2735.24 593.76l-4.63-14.26h9.28z" stroke="#000" stroke-width="2"/><path d="M3020 425c0-2.76 2.24-5 5-5h180c2.76 0 5 2.24 5 5v118.76c0 2.76-2.24 5-5 5h-180c-2.76 0-5-2.24-5-5z" stroke="#000" stroke-width="2" fill="#fff"/><path d="M3028.9 435.8h35v20h-35z" stroke="#000" stroke-width="2"/><path d="M3028.9 435.8l17.5 10 17.5-10" stroke="#fff" stroke-width="2" fill="none"/><use xlink:href="#h" transform="matrix(1,0,0,1,3020,420) translate(34.129999999999995 66.80625)"/><use xlink:href="#H" transform="matrix(1,0,0,1,3020,420) translate(61.03 66.80625)"/><use xlink:href="#I" transform="matrix(1,0,0,1,3020,420) translate(98.03 66.80625)"/><use xlink:href="#J" transform="matrix(1,0,0,1,3020,420) translate(121.97999999999999 66.80625)"/><path d="M2775.16 476.34h225.34" stroke="#000" stroke-width="2" fill="none"/><path d="M2775.18 477.34h-2.02l1-1-1-1h2.02z"/><path d="M3015.76 476.34l-14.26 4.63v-9.27z" stroke="#000" stroke-width="2"/><path d="M3020 785c0-2.76 2.24-5 5-5h180c2.76 0 5 2.24 5 5v118.76c0 2.76-2.24 5-5 5h-180c-2.76 0-5-2.24-5-5z" stroke="#000" stroke-width="2" fill="#fff"/><path d="M3028.9 795.8h35v20h-35z" stroke="#000" stroke-width="2" fill="#fff"/><path d="M3028.9 795.8l17.5 10 17.5-10" stroke="#000" stroke-width="2" fill="none"/><use xlink:href="#K" transform="matrix(1,0,0,1,3020,780) translate(13.579999999999993 66.80625)"/><use xlink:href="#L" transform="matrix(1,0,0,1,3020,780) translate(50.57999999999999 66.80625)"/><use xlink:href="#M" transform="matrix(1,0,0,1,3020,780) translate(89.47999999999999 66.80625)"/><path d="M3115 550.76v4.03m0 8.06v8.07m0 8.06v8.06m0 8.07v8.06m0 8.06v8.07m0 8.06v8.06m0 8.07v8.07m0 8.06v8.07m0 8.07v8.06m0 8.07V700m0 8.06v8.07m0 8.07v8.06m0 8.07v8.07m0 8.06v4.04" stroke="#000" stroke-width="2" fill="none"/><path d="M3116 550.8h-2v-1.04h2z"/><path d="M3115 775.76l-4.64-14.26h9.28z" stroke="#000" stroke-width="2"/><path d="M3300 785c0-2.76 2.24-5 5-5h180c2.76 0 5 2.24 5 5v118.76c0 2.76-2.24 5-5 5h-180c-2.76 0-5-2.24-5-5z" stroke="#000" stroke-width="2" fill="#fff"/><path d="M3319.65 789.28h24.25s-9.76 4.86-9.76 9.58c0 4.7 7.4 10.3 7.4 15.7 0 5.45-6.98 8.73-6.98 8.73h-25.2s8.34-4.58 8.34-8.57c0-4-7.65-11.6-7.65-15.87s9.6-9.58 9.6-9.58z" stroke="#000" stroke-width="2" fill="#fff"/><path d="M3319.65 789.28h24.25s-9.76 4.86-9.76 9.58c0 4.7 7.4 10.3 7.4 15.7 0 5.45-6.98 8.73-6.98 8.73h-25.2s8.34-4.58 8.34-8.57c0-4-7.65-11.6-7.65-15.87s9.6-9.58 9.6-9.58z" stroke="#000" stroke-width="2" fill="#fff"/><path d="M3314.92 796.57h16.44M3315.33 803.3h16.45M3319.52 810.43h16.43M3319.94 817.58h16.42" stroke="#000" stroke-width="3"/><g><use xlink:href="#K" transform="matrix(1,0,0,1,3300,780) translate(24.57999999999999 66.80625)"/><use xlink:href="#E" transform="matrix(1,0,0,1,3300,780) translate(61.57999999999999 66.80625)"/><use xlink:href="#I" transform="matrix(1,0,0,1,3300,780) translate(107.57999999999998 66.80625)"/><use xlink:href="#J" transform="matrix(1,0,0,1,3300,780) translate(131.52999999999997 66.80625)"/></g><path d="M3212 844.38h68.5" stroke="#000" stroke-width="2" fill="none"/><path d="M3212.03 845.38H3211v-2h1.03z"/><path d="M3295.76 844.38L3281.5 849v-9.26z" stroke="#000" stroke-width="2"/><path d="M3580 785c0-2.76 2.24-5 5-5h180c2.76 0 5 2.24 5 5v118.76c0 2.76-2.24 5-5 5h-180c-2.76 0-5-2.24-5-5z" stroke="#000" stroke-width="2" fill="#fff"/><path d="M3588.9 795.8h35v20h-35z" stroke="#000" stroke-width="2"/><path d="M3588.9 795.8l17.5 10 17.5-10" stroke="#fff" stroke-width="2" fill="none"/><g><use xlink:href="#N" transform="matrix(1,0,0,1,3580,780) translate(48.105 66.80625)"/><use xlink:href="#O" transform="matrix(1,0,0,1,3580,780) translate(104.005 66.80625)"/></g><path d="M3492 844.38h68.5" stroke="#000" stroke-width="2" fill="none"/><path d="M3492.03 845.38H3491v-2h1.03z"/><path d="M3575.76 844.38L3561.5 849v-9.26z" stroke="#000" stroke-width="2"/><path d="M3580 425c0-2.76 2.24-5 5-5h180c2.76 0 5 2.24 5 5v118.76c0 2.76-2.24 5-5 5h-180c-2.76 0-5-2.24-5-5z" stroke="#000" stroke-width="2" fill="#fff"/><path d="M3588.9 435.8h35v20h-35z" stroke="#000" stroke-width="2" fill="#fff"/><path d="M3588.9 435.8l17.5 10 17.5-10" stroke="#000" stroke-width="2" fill="none"/><g><use xlink:href="#P" transform="matrix(1,0,0,1,3580,420) translate(34.105 58.74375)"/><use xlink:href="#L" transform="matrix(1,0,0,1,3580,420) translate(75.005 58.74375)"/><use xlink:href="#Q" transform="matrix(1,0,0,1,3580,420) translate(113.905 58.74375)"/><use xlink:href="#t" transform="matrix(1,0,0,1,3580,420) translate(57.55499999999999 80.34375)"/></g><path d="M3675 778v-10m0-9.98v-19.97m0-10V708.1m0-10v-19.98m0-9.98v-19.98m0-10V618.2m0-10v-19.96m0-10v-9.98" stroke="#000" stroke-width="2" fill="none"/><path d="M3676 779h-2v-1.03h2z"/><path d="M3675 553l4.64 14.26h-9.28z" stroke="#000" stroke-width="2"/><path d="M3980 476.34c0 16.57-13.43 30-30 30s-30-13.43-30-30 13.43-30 30-30 30 13.43 30 30z" stroke="#000" stroke-width="6" fill="#fff"/><g><use xlink:href="#j" transform="matrix(1,0,0,1,3920,508.3368556539574) translate(14 14.4)"/></g><path d="M3772 484.38h127.5" stroke="#000" stroke-width="2" fill="none"/><path d="M3772.03 485.38H3771v-2h1.03z"/><path d="M3914.76 484.38L3900.5 489v-9.26z" stroke="#000" stroke-width="2"/><defs><path d="M212-179c-10-28-35-45-73-45-59 0-87 40-87 99 0 60 29 101 89 101 43 0 62-24 78-52l27 14C228-24 195 4 139 4 59 4 22-46 18-125c-6-104 99-153 187-111 19 9 31 26 39 46" id="R"/><path d="M135-143c-3-34-86-38-87 0 15 53 115 12 119 90S17 21 10-45l28-5c4 36 97 45 98 0-10-56-113-15-118-90-4-57 82-63 122-42 12 7 21 19 24 35" id="S"/><path d="M84 4C-5 8 30-112 23-190h32v120c0 31 7 50 39 49 72-2 45-101 50-169h31l1 190h-30c-1-10 1-25-2-33-11 22-28 36-60 37" id="T"/><path d="M59-47c-2 24 18 29 38 22v24C64 9 27 4 27-40v-127H5v-23h24l9-43h21v43h35v23H59v120" id="U"/><path d="M100-194c62-1 85 37 85 99 1 63-27 99-86 99S16-35 15-95c0-66 28-99 85-99zM99-20c44 1 53-31 53-75 0-43-8-75-51-75s-53 32-53 75 10 74 51 75" id="V"/><path d="M210-169c-67 3-38 105-44 169h-31v-121c0-29-5-50-35-48C34-165 62-65 56 0H25l-1-190h30c1 10-1 24 2 32 10-44 99-50 107 0 11-21 27-35 58-36 85-2 47 119 55 194h-31v-121c0-29-5-49-35-48" id="W"/><path d="M100-194c63 0 86 42 84 106H49c0 40 14 67 53 68 26 1 43-12 49-29l28 8c-11 28-37 45-77 45C44 4 14-33 15-96c1-61 26-98 85-98zm52 81c6-60-76-77-97-28-3 7-6 17-6 28h103" id="X"/><path d="M114-163C36-179 61-72 57 0H25l-1-190h30c1 12-1 29 2 39 6-27 23-49 58-41v29" id="Y"/><g id="a"><use transform="matrix(0.05,0,0,0.05,0,0)" xlink:href="#R"/><use transform="matrix(0.05,0,0,0.05,12.950000000000001,0)" xlink:href="#S"/><use transform="matrix(0.05,0,0,0.05,21.950000000000003,0)" xlink:href="#T"/><use transform="matrix(0.05,0,0,0.05,31.950000000000003,0)" xlink:href="#U"/><use transform="matrix(0.05,0,0,0.05,36.95,0)" xlink:href="#V"/><use transform="matrix(0.05,0,0,0.05,46.95,0)" xlink:href="#W"/><use transform="matrix(0.05,0,0,0.05,61.900000000000006,0)" xlink:href="#X"/><use transform="matrix(0.05,0,0,0.05,71.9,0)" xlink:href="#Y"/></g><path d="M190 0L58-211 59 0H30v-248h39L202-35l-2-213h31V0h-41" id="Z"/><path d="M85-194c31 0 48 13 60 33l-1-100h32l1 261h-30c-2-10 0-23-3-31C134-8 116 4 85 4 32 4 16-35 15-94c0-66 23-100 70-100zm9 24c-40 0-46 34-46 75 0 40 6 74 45 74 42 0 51-32 51-76 0-42-9-74-50-73" id="aa"/><g id="b"><use transform="matrix(0.05,0,0,0.05,0,0)" xlink:href="#Z"/><use transform="matrix(0.05,0,0,0.05,12.950000000000001,0)" xlink:href="#X"/><use transform="matrix(0.05,0,0,0.05,22.950000000000003,0)" xlink:href="#X"/><use transform="matrix(0.05,0,0,0.05,32.95,0)" xlink:href="#aa"/></g><path d="M101-234c-31-9-42 10-38 44h38v23H63V0H32v-167H5v-23h27c-7-52 17-82 69-68v24" id="ab"/><g id="c"><use transform="matrix(0.05,0,0,0.05,0,0)" xlink:href="#ab"/><use transform="matrix(0.05,0,0,0.05,5,0)" xlink:href="#V"/><use transform="matrix(0.05,0,0,0.05,15,0)" xlink:href="#Y"/></g><path d="M160-131c35 5 61 23 61 61C221 17 115-2 30 0v-248c76 3 177-17 177 60 0 33-19 50-47 57zm-97-11c50-1 110 9 110-42 0-47-63-36-110-37v79zm0 115c55-2 124 14 124-45 0-56-70-42-124-44v89" id="ac"/><path d="M143 0L79-87 56-68V0H24v-261h32v163l83-92h37l-77 82L181 0h-38" id="ad"/><g id="d"><use transform="matrix(0.05,0,0,0.05,0,0)" xlink:href="#ac"/><use transform="matrix(0.05,0,0,0.05,12,0)" xlink:href="#V"/><use transform="matrix(0.05,0,0,0.05,22,0)" xlink:href="#V"/><use transform="matrix(0.05,0,0,0.05,32,0)" xlink:href="#ad"/><use transform="matrix(0.05,0,0,0.05,41,0)" xlink:href="#S"/></g><path d="M30 0v-248h187v28H63v79h144v27H63v87h162V0H30" id="ae"/><path d="M117-194c89-4 53 116 60 194h-32v-121c0-31-8-49-39-48C34-167 62-67 57 0H25l-1-190h30c1 10-1 24 2 32 11-22 29-35 61-36" id="af"/><g id="e"><use transform="matrix(0.05,0,0,0.05,0,0)" xlink:href="#ae"/><use transform="matrix(0.05,0,0,0.05,12,0)" xlink:href="#af"/><use transform="matrix(0.05,0,0,0.05,22,0)" xlink:href="#U"/><use transform="matrix(0.05,0,0,0.05,27,0)" xlink:href="#X"/><use transform="matrix(0.05,0,0,0.05,37,0)" xlink:href="#Y"/></g><path d="M185-189c-5-48-123-54-124 2 14 75 158 14 163 119 3 78-121 87-175 55-17-10-28-26-33-46l33-7c5 56 141 63 141-1 0-78-155-14-162-118-5-82 145-84 179-34 5 7 8 16 11 25" id="ag"/><path d="M141-36C126-15 110 5 73 4 37 3 15-17 15-53c-1-64 63-63 125-63 3-35-9-54-41-54-24 1-41 7-42 31l-33-3c5-37 33-52 76-52 45 0 72 20 72 64v82c-1 20 7 32 28 27v20c-31 9-61-2-59-35zM48-53c0 20 12 33 32 33 41-3 63-29 60-74-43 2-92-5-92 41" id="ah"/><path d="M96-169c-40 0-48 33-48 73s9 75 48 75c24 0 41-14 43-38l32 2c-6 37-31 61-74 61-59 0-76-41-82-99-10-93 101-131 147-64 4 7 5 14 7 22l-32 3c-4-21-16-35-41-35" id="ai"/><path d="M106-169C34-169 62-67 57 0H25v-261h32l-1 103c12-21 28-36 61-36 89 0 53 116 60 194h-32v-121c2-32-8-49-39-48" id="aj"/><g id="f"><use transform="matrix(0.05,0,0,0.05,0,0)" xlink:href="#ag"/><use transform="matrix(0.05,0,0,0.05,12,0)" xlink:href="#X"/><use transform="matrix(0.05,0,0,0.05,22,0)" xlink:href="#ah"/><use transform="matrix(0.05,0,0,0.05,32,0)" xlink:href="#Y"/><use transform="matrix(0.05,0,0,0.05,37.95,0)" xlink:href="#ai"/><use transform="matrix(0.05,0,0,0.05,46.95,0)" xlink:href="#aj"/></g><path d="M24-231v-30h32v30H24zM24 0v-190h32V0H24" id="ak"/><g id="g"><use transform="matrix(0.05,0,0,0.05,0,0)" xlink:href="#R"/><use transform="matrix(0.05,0,0,0.05,12.950000000000001,0)" xlink:href="#Y"/><use transform="matrix(0.05,0,0,0.05,18.900000000000002,0)" xlink:href="#ak"/><use transform="matrix(0.05,0,0,0.05,22.85,0)" xlink:href="#U"/><use transform="matrix(0.05,0,0,0.05,27.85,0)" xlink:href="#X"/><use transform="matrix(0.05,0,0,0.05,37.85,0)" xlink:href="#Y"/><use transform="matrix(0.05,0,0,0.05,43.800000000000004,0)" xlink:href="#ak"/><use transform="matrix(0.05,0,0,0.05,47.75000000000001,0)" xlink:href="#ah"/></g><path d="M197 0v-115H63V0H30v-248h33v105h134v-105h34V0h-34" id="al"/><g id="h"><use transform="matrix(0.05,0,0,0.05,0,0)" xlink:href="#al"/><use transform="matrix(0.05,0,0,0.05,12.950000000000001,0)" xlink:href="#ak"/><use transform="matrix(0.05,0,0,0.05,16.900000000000002,0)" xlink:href="#U"/></g><g id="i"><use transform="matrix(0.05,0,0,0.05,0,0)" xlink:href="#ag"/><use transform="matrix(0.05,0,0,0.05,12,0)" xlink:href="#X"/><use transform="matrix(0.05,0,0,0.05,22,0)" xlink:href="#ah"/><use transform="matrix(0.05,0,0,0.05,32,0)" xlink:href="#Y"/><use transform="matrix(0.05,0,0,0.05,37.95,0)" xlink:href="#ai"/><use transform="matrix(0.05,0,0,0.05,46.95,0)" xlink:href="#aj"/></g><g id="j"><use transform="matrix(0.05,0,0,0.05,0,0)" xlink:href="#ae"/><use transform="matrix(0.05,0,0,0.05,12,0)" xlink:href="#af"/><use transform="matrix(0.05,0,0,0.05,22,0)" xlink:href="#aa"/></g><path d="M63-220v92h138v28H63V0H30v-248h175v28H63" id="am"/><path d="M140-251c81 0 123 46 123 126C263-46 219 4 140 4 59 4 17-45 17-125s42-126 123-126zm0 227c63 0 89-41 89-101s-29-99-89-99c-61 0-89 39-89 99S79-25 140-24" id="an"/><g id="k"><use transform="matrix(0.05,0,0,0.05,0,0)" xlink:href="#am"/><use transform="matrix(0.05,0,0,0.05,10.950000000000001,0)" xlink:href="#Y"/><use transform="matrix(0.05,0,0,0.05,16.900000000000002,0)" xlink:href="#V"/><use transform="matrix(0.05,0,0,0.05,26.900000000000002,0)" xlink:href="#af"/><use transform="matrix(0.05,0,0,0.05,36.900000000000006,0)" xlink:href="#an"/><use transform="matrix(0.05,0,0,0.05,50.900000000000006,0)" xlink:href="#ab"/><use transform="matrix(0.05,0,0,0.05,55.550000000000004,0)" xlink:href="#ab"/><use transform="matrix(0.05,0,0,0.05,60.550000000000004,0)" xlink:href="#ak"/><use transform="matrix(0.05,0,0,0.05,64.5,0)" xlink:href="#ai"/><use transform="matrix(0.05,0,0,0.05,73.5,0)" xlink:href="#X"/></g><path d="M30 0v-248h33v221h125V0H30" id="ao"/><g id="l"><use transform="matrix(0.05,0,0,0.05,0,0)" xlink:href="#ao"/><use transform="matrix(0.05,0,0,0.05,10,0)" xlink:href="#ah"/><use transform="matrix(0.05,0,0,0.05,20,0)" xlink:href="#af"/><use transform="matrix(0.05,0,0,0.05,30,0)" xlink:href="#X"/></g><g id="m"><use transform="matrix(0.05,0,0,0.05,0,0)" xlink:href="#ag"/><use transform="matrix(0.05,0,0,0.05,12,0)" xlink:href="#X"/><use transform="matrix(0.05,0,0,0.05,22,0)" xlink:href="#ah"/><use transform="matrix(0.05,0,0,0.05,32,0)" xlink:href="#Y"/><use transform="matrix(0.05,0,0,0.05,37.95,0)" xlink:href="#ai"/><use transform="matrix(0.05,0,0,0.05,46.95,0)" xlink:href="#aj"/></g><g id="n"><use transform="matrix(0.05,0,0,0.05,0,0)" xlink:href="#R"/><use transform="matrix(0.05,0,0,0.05,12.950000000000001,0)" xlink:href="#Y"/><use transform="matrix(0.05,0,0,0.05,18.900000000000002,0)" xlink:href="#ak"/><use transform="matrix(0.05,0,0,0.05,22.85,0)" xlink:href="#U"/><use transform="matrix(0.05,0,0,0.05,27.85,0)" xlink:href="#X"/><use transform="matrix(0.05,0,0,0.05,37.85,0)" xlink:href="#Y"/><use transform="matrix(0.05,0,0,0.05,43.800000000000004,0)" xlink:href="#ak"/><use transform="matrix(0.05,0,0,0.05,47.75000000000001,0)" xlink:href="#ah"/></g><path d="M143 4C61 4 22-44 18-125c-5-107 100-154 193-111 17 8 29 25 37 43l-32 9c-13-25-37-40-76-40-61 0-88 39-88 99 0 61 29 100 91 101 35 0 62-11 79-27v-45h-74v-28h105v86C228-13 192 4 143 4" id="ap"/><g id="o"><use transform="matrix(0.05,0,0,0.05,0,0)" xlink:href="#ap"/><use transform="matrix(0.05,0,0,0.05,14,0)" xlink:href="#ah"/><use transform="matrix(0.05,0,0,0.05,24,0)" xlink:href="#U"/><use transform="matrix(0.05,0,0,0.05,29,0)" xlink:href="#aj"/><use transform="matrix(0.05,0,0,0.05,39,0)" xlink:href="#X"/><use transform="matrix(0.05,0,0,0.05,49,0)" xlink:href="#Y"/><use transform="matrix(0.05,0,0,0.05,54.95,0)" xlink:href="#X"/><use transform="matrix(0.05,0,0,0.05,64.95,0)" xlink:href="#aa"/></g><path d="M24 0v-261h32V0H24" id="aq"/><g id="p"><use transform="matrix(0.05,0,0,0.05,0,0)" xlink:href="#am"/><use transform="matrix(0.05,0,0,0.05,10.950000000000001,0)" xlink:href="#ak"/><use transform="matrix(0.05,0,0,0.05,14.9,0)" xlink:href="#aq"/><use transform="matrix(0.05,0,0,0.05,18.85,0)" xlink:href="#U"/><use transform="matrix(0.05,0,0,0.05,23.85,0)" xlink:href="#X"/><use transform="matrix(0.05,0,0,0.05,33.85,0)" xlink:href="#Y"/></g><g id="q"><use transform="matrix(0.05,0,0,0.05,0,0)" xlink:href="#ac"/><use transform="matrix(0.05,0,0,0.05,12,0)" xlink:href="#V"/><use transform="matrix(0.05,0,0,0.05,22,0)" xlink:href="#V"/><use transform="matrix(0.05,0,0,0.05,32,0)" xlink:href="#ad"/><use transform="matrix(0.05,0,0,0.05,41,0)" xlink:href="#S"/></g><g id="r"><use transform="matrix(0.05,0,0,0.05,0,0)" xlink:href="#ac"/><use transform="matrix(0.05,0,0,0.05,12,0)" xlink:href="#V"/><use transform="matrix(0.05,0,0,0.05,22,0)" xlink:href="#V"/><use transform="matrix(0.05,0,0,0.05,32,0)" xlink:href="#ad"/></g><g id="s"><use transform="matrix(0.05,0,0,0.05,0,0)" xlink:href="#ao"/><use transform="matrix(0.05,0,0,0.05,10,0)" xlink:href="#ak"/><use transform="matrix(0.05,0,0,0.05,13.949999999999998,0)" xlink:href="#S"/><use transform="matrix(0.05,0,0,0.05,22.95,0)" xlink:href="#U"/></g><path d="M233-177c-1 41-23 64-60 70L243 0h-38l-65-103H63V0H30v-248c88 3 205-21 203 71zM63-129c60-2 137 13 137-47 0-61-80-42-137-45v92" id="ar"/><path d="M108 0H70L1-190h34L89-25l56-165h34" id="as"/><g id="t"><use transform="matrix(0.05,0,0,0.05,0,0)" xlink:href="#ar"/><use transform="matrix(0.05,0,0,0.05,12.950000000000001,0)" xlink:href="#X"/><use transform="matrix(0.05,0,0,0.05,22.950000000000003,0)" xlink:href="#ai"/><use transform="matrix(0.05,0,0,0.05,31.950000000000003,0)" xlink:href="#ak"/><use transform="matrix(0.05,0,0,0.05,35.900000000000006,0)" xlink:href="#X"/><use transform="matrix(0.05,0,0,0.05,45.900000000000006,0)" xlink:href="#as"/><use transform="matrix(0.05,0,0,0.05,54.900000000000006,0)" xlink:href="#X"/><use transform="matrix(0.05,0,0,0.05,64.9,0)" xlink:href="#aa"/></g><g id="u"><use transform="matrix(0.05,0,0,0.05,0,0)" xlink:href="#ag"/><use transform="matrix(0.05,0,0,0.05,12,0)" xlink:href="#X"/><use transform="matrix(0.05,0,0,0.05,22,0)" xlink:href="#af"/><use transform="matrix(0.05,0,0,0.05,32,0)" xlink:href="#aa"/></g><g id="v"><use transform="matrix(0.05,0,0,0.05,0,0)" xlink:href="#ag"/><use transform="matrix(0.05,0,0,0.05,12,0)" xlink:href="#X"/><use transform="matrix(0.05,0,0,0.05,22,0)" xlink:href="#ah"/><use transform="matrix(0.05,0,0,0.05,32,0)" xlink:href="#Y"/><use transform="matrix(0.05,0,0,0.05,37.95,0)" xlink:href="#ai"/><use transform="matrix(0.05,0,0,0.05,46.95,0)" xlink:href="#aj"/></g><g id="w"><use transform="matrix(0.05,0,0,0.05,0,0)" xlink:href="#ar"/><use transform="matrix(0.05,0,0,0.05,12.950000000000001,0)" xlink:href="#X"/><use transform="matrix(0.05,0,0,0.05,22.950000000000003,0)" xlink:href="#S"/><use transform="matrix(0.05,0,0,0.05,31.950000000000003,0)" xlink:href="#T"/><use transform="matrix(0.05,0,0,0.05,41.95,0)" xlink:href="#aq"/><use transform="matrix(0.05,0,0,0.05,45.900000000000006,0)" xlink:href="#U"/><use transform="matrix(0.05,0,0,0.05,50.900000000000006,0)" xlink:href="#S"/></g><g id="x"><use transform="matrix(0.05,0,0,0.05,0,0)" xlink:href="#ag"/><use transform="matrix(0.05,0,0,0.05,12,0)" xlink:href="#X"/><use transform="matrix(0.05,0,0,0.05,22,0)" xlink:href="#aq"/><use transform="matrix(0.05,0,0,0.05,25.950000000000003,0)" xlink:href="#X"/><use transform="matrix(0.05,0,0,0.05,35.95,0)" xlink:href="#ai"/><use transform="matrix(0.05,0,0,0.05,44.95,0)" xlink:href="#U"/></g><path d="M205 0l-28-72H64L36 0H1l101-248h38L239 0h-34zm-38-99l-47-123c-12 45-31 82-46 123h93" id="at"/><use transform="matrix(0.05,0,0,0.05,0,0)" xlink:href="#at" id="y"/><g id="z"><use transform="matrix(0.05,0,0,0.05,0,0)" xlink:href="#ac"/><use transform="matrix(0.05,0,0,0.05,12,0)" xlink:href="#V"/><use transform="matrix(0.05,0,0,0.05,22,0)" xlink:href="#V"/><use transform="matrix(0.05,0,0,0.05,32,0)" xlink:href="#ad"/></g><path d="M30-248c118-7 216 8 213 122C240-48 200 0 122 0H30v-248zM63-27c89 8 146-16 146-99s-60-101-146-95v194" id="au"/><g id="A"><use transform="matrix(0.05,0,0,0.05,0,0)" xlink:href="#au"/><use transform="matrix(0.05,0,0,0.05,12.950000000000001,0)" xlink:href="#X"/><use transform="matrix(0.05,0,0,0.05,22.950000000000003,0)" xlink:href="#U"/><use transform="matrix(0.05,0,0,0.05,27.950000000000003,0)" xlink:href="#ah"/><use transform="matrix(0.05,0,0,0.05,37.95,0)" xlink:href="#ak"/><use transform="matrix(0.05,0,0,0.05,41.900000000000006,0)" xlink:href="#aq"/><use transform="matrix(0.05,0,0,0.05,45.85000000000001,0)" xlink:href="#S"/></g><g id="B"><use transform="matrix(0.05,0,0,0.05,0,0)" xlink:href="#au"/><use transform="matrix(0.05,0,0,0.05,12.950000000000001,0)" xlink:href="#X"/><use transform="matrix(0.05,0,0,0.05,22.950000000000003,0)" xlink:href="#U"/><use transform="matrix(0.05,0,0,0.05,27.950000000000003,0)" xlink:href="#ah"/><use transform="matrix(0.05,0,0,0.05,37.95,0)" xlink:href="#ak"/><use transform="matrix(0.05,0,0,0.05,41.900000000000006,0)" xlink:href="#aq"/></g><path d="M145-31C134-9 116 4 85 4 32 4 16-35 15-94c0-59 17-99 70-100 32-1 48 14 60 33 0-11-1-24 2-32h30l-1 268h-32zM93-21c41 0 51-33 51-76s-8-73-50-73c-40 0-46 35-46 75s5 74 45 74" id="av"/><g id="C"><use transform="matrix(0.05,0,0,0.05,0,0)" xlink:href="#ar"/><use transform="matrix(0.05,0,0,0.05,12.950000000000001,0)" xlink:href="#X"/><use transform="matrix(0.05,0,0,0.05,22.950000000000003,0)" xlink:href="#av"/><use transform="matrix(0.05,0,0,0.05,32.95,0)" xlink:href="#T"/><use transform="matrix(0.05,0,0,0.05,42.95,0)" xlink:href="#X"/><use transform="matrix(0.05,0,0,0.05,52.95,0)" xlink:href="#S"/><use transform="matrix(0.05,0,0,0.05,61.95,0)" xlink:href="#U"/><use transform="matrix(0.05,0,0,0.05,66.95,0)" xlink:href="#X"/><use transform="matrix(0.05,0,0,0.05,76.95,0)" xlink:href="#aa"/></g><g id="D"><use transform="matrix(0.05,0,0,0.05,0,0)" xlink:href="#ap"/><use transform="matrix(0.05,0,0,0.05,14,0)" xlink:href="#X"/><use transform="matrix(0.05,0,0,0.05,24,0)" xlink:href="#U"/></g><g id="E"><use transform="matrix(0.05,0,0,0.05,0,0)" xlink:href="#ac"/><use transform="matrix(0.05,0,0,0.05,12,0)" xlink:href="#V"/><use transform="matrix(0.05,0,0,0.05,22,0)" xlink:href="#V"/><use transform="matrix(0.05,0,0,0.05,32,0)" xlink:href="#ad"/></g><g id="F"><use transform="matrix(0.05,0,0,0.05,0,0)" xlink:href="#au"/><use transform="matrix(0.05,0,0,0.05,12.950000000000001,0)" xlink:href="#ah"/><use transform="matrix(0.05,0,0,0.05,22.950000000000003,0)" xlink:href="#U"/><use transform="matrix(0.05,0,0,0.05,27.950000000000003,0)" xlink:href="#ah"/></g><g id="G"><use transform="matrix(0.05,0,0,0.05,0,0)" xlink:href="#au"/><use transform="matrix(0.05,0,0,0.05,12.950000000000001,0)" xlink:href="#X"/><use transform="matrix(0.05,0,0,0.05,22.950000000000003,0)" xlink:href="#U"/><use transform="matrix(0.05,0,0,0.05,27.950000000000003,0)" xlink:href="#ah"/><use transform="matrix(0.05,0,0,0.05,37.95,0)" xlink:href="#ak"/><use transform="matrix(0.05,0,0,0.05,41.900000000000006,0)" xlink:href="#aq"/></g><g id="H"><use transform="matrix(0.05,0,0,0.05,0,0)" xlink:href="#at"/><use transform="matrix(0.05,0,0,0.05,12,0)" xlink:href="#aa"/><use transform="matrix(0.05,0,0,0.05,22,0)" xlink:href="#aa"/></g><path d="M127-220V0H93v-220H8v-28h204v28h-85" id="aw"/><g id="I"><use transform="matrix(0.05,0,0,0.05,0,0)" xlink:href="#aw"/><use transform="matrix(0.05,0,0,0.05,8.950000000000001,0)" xlink:href="#V"/></g><g id="J"><use transform="matrix(0.05,0,0,0.05,0,0)" xlink:href="#R"/><use transform="matrix(0.05,0,0,0.05,12.950000000000001,0)" xlink:href="#ah"/><use transform="matrix(0.05,0,0,0.05,22.950000000000003,0)" xlink:href="#Y"/><use transform="matrix(0.05,0,0,0.05,28.900000000000002,0)" xlink:href="#U"/></g><g id="K"><use transform="matrix(0.05,0,0,0.05,0,0)" xlink:href="#at"/><use transform="matrix(0.05,0,0,0.05,12,0)" xlink:href="#aa"/><use transform="matrix(0.05,0,0,0.05,22,0)" xlink:href="#aa"/></g><g id="L"><use transform="matrix(0.05,0,0,0.05,0,0)" xlink:href="#R"/><use transform="matrix(0.05,0,0,0.05,12.950000000000001,0)" xlink:href="#ah"/><use transform="matrix(0.05,0,0,0.05,22.950000000000003,0)" xlink:href="#Y"/><use transform="matrix(0.05,0,0,0.05,28.900000000000002,0)" xlink:href="#U"/></g><g id="M"><use transform="matrix(0.05,0,0,0.05,0,0)" xlink:href="#ar"/><use transform="matrix(0.05,0,0,0.05,12.950000000000001,0)" xlink:href="#X"/><use transform="matrix(0.05,0,0,0.05,22.950000000000003,0)" xlink:href="#av"/><use transform="matrix(0.05,0,0,0.05,32.95,0)" xlink:href="#T"/><use transform="matrix(0.05,0,0,0.05,42.95,0)" xlink:href="#X"/><use transform="matrix(0.05,0,0,0.05,52.95,0)" xlink:href="#S"/><use transform="matrix(0.05,0,0,0.05,61.95,0)" xlink:href="#U"/><use transform="matrix(0.05,0,0,0.05,66.95,0)" xlink:href="#X"/><use transform="matrix(0.05,0,0,0.05,76.95,0)" xlink:href="#aa"/></g><path d="M33 0v-248h34V0H33" id="ax"/><g id="N"><use transform="matrix(0.05,0,0,0.05,0,0)" xlink:href="#ax"/><use transform="matrix(0.05,0,0,0.05,5,0)" xlink:href="#af"/><use transform="matrix(0.05,0,0,0.05,15,0)" xlink:href="#ab"/><use transform="matrix(0.05,0,0,0.05,20,0)" xlink:href="#V"/><use transform="matrix(0.05,0,0,0.05,30,0)" xlink:href="#Y"/><use transform="matrix(0.05,0,0,0.05,35.95,0)" xlink:href="#W"/></g><path d="M232-93c-1 65-40 97-104 97C67 4 28-28 28-90v-158h33c8 89-33 224 67 224 102 0 64-133 71-224h33v155" id="ay"/><g id="O"><use transform="matrix(0.05,0,0,0.05,0,0)" xlink:href="#ay"/><use transform="matrix(0.05,0,0,0.05,12.950000000000001,0)" xlink:href="#S"/><use transform="matrix(0.05,0,0,0.05,21.950000000000003,0)" xlink:href="#X"/><use transform="matrix(0.05,0,0,0.05,31.950000000000003,0)" xlink:href="#Y"/></g><path d="M206 0h-36l-40-164L89 0H53L-1-190h32L70-26l43-164h34l41 164 42-164h31" id="az"/><g id="P"><use transform="matrix(0.05,0,0,0.05,0,0)" xlink:href="#Z"/><use transform="matrix(0.05,0,0,0.05,12.950000000000001,0)" xlink:href="#X"/><use transform="matrix(0.05,0,0,0.05,22.950000000000003,0)" xlink:href="#az"/></g><g id="Q"><use transform="matrix(0.05,0,0,0.05,0,0)" xlink:href="#ag"/><use transform="matrix(0.05,0,0,0.05,12,0)" xlink:href="#U"/><use transform="matrix(0.05,0,0,0.05,17,0)" xlink:href="#ah"/><use transform="matrix(0.05,0,0,0.05,27,0)" xlink:href="#U"/><use transform="matrix(0.05,0,0,0.05,32,0)" xlink:href="#X"/></g></defs></g></svg>