<svg xmlns="http://www.w3.org/2000/svg" xmlns:xlink="http://www.w3.org/1999/xlink" xmlns:lucid="lucid" width="1860" height="1831"><g transform="translate(-300 0)" lucid:page-tab-id="0_0"><path d="M0 0h3676.8v2582.4H0z" fill="#fff"/><path d="M459.75 219.75c0 10.9-8.84 19.75-19.75 19.75-10.9 0-19.75-8.84-19.75-19.75 0-10.9 8.84-19.75 19.75-19.75 10.9 0 19.75 8.84 19.75 19.75z" stroke="#000" stroke-width="2" fill="#fff"/><path d="M440 239.5v55.3l40 63.2m-40-63.2L400 358m0-98.75h80" stroke="#000" stroke-width="2" fill="none"/><path d="M400 200h80v180h-80z" fill="none"/><use xlink:href="#a" transform="matrix(1,0,0,1,320,358) translate(101.05 14.6)"/><path d="M720 220h160v120H720z" stroke="#000" stroke-width="2" fill="#fff"/><use xlink:href="#b" transform="matrix(1,0,0,1,720,220) translate(20.57999999999999 63.15)"/><use xlink:href="#c" transform="matrix(1,0,0,1,720,220) translate(30.57999999999999 63.15)"/><path d="M800 342v4m0 7.97v8m0 7.97v7.98m0 8v7.97m0 7.98v7.98m0 7.98v8m0 7.97v8m0 7.98v7.98m0 7.98v8m0 7.97v8m0 7.98v7.98m0 7.98v8m0 7.97v8m0 7.98v7.98m0 7.98v8m0 7.97v8m0 7.98v7.98m0 7.98v8m0 7.97v8m0 7.98v7.98m0 7.98v8m0 7.97v8m0 7.98v7.98m0 7.98v8m0 7.97v8m0 7.98v7.98m0 7.98v8m0 7.97v8m0 7.98v7.98m0 7.98v8m0 7.97v8m0 7.98v7.98m0 7.98v8m0 7.97v8m0 7.98v7.98m0 7.98v8m0 7.97v8m0 7.98v7.98m0 7.98v8m0 7.97v8m0 7.98v7.98m0 7.98v8m0 7.97v8m0 7.98v7.98m0 7.98v8m0 7.97v8m0 7.98v7.98m0 7.98v8m0 7.97v8m0 7.98v7.98m0 7.98v8m0 7.97v8m0 7.98v7.98m0 7.98v8m0 7.97v8m0 7.98v7.98m0 7.98v8m0 7.97v8m0 7.98v7.98m0 7.98v8m0 7.97v8m0 7.98v7.98m0 7.98v8m0 7.97v8m0 7.98v7.98m0 7.98v8m0 7.97v8m0 7.98v7.98m0 7.98v8m0 7.97v8m0 7.98v7.98m0 7.98v8m0 7.97v8m0 7.98v7.98m0 7.98v8m0 7.97v8m0 7.98v7.98m0 7.98v8m0 7.97v8m0 7.98v7.98m0 7.98v8m0 7.97v8m0 7.98v7.98m0 7.98v8m0 7.97v8m0 7.98v7.98m0 7.98v8m0 7.97v8m0 7.98v7.98m0 7.98v8m0 7.97v4" stroke="#000" stroke-width="2" fill="none"/><path d="M801 342.03h-2V341h2z"/><path d="M800 1778.97v1.03M440 297.67v4m0 8v8.02m0 8v8m0 8v8m0 8.02v8m0 8.02v8m0 8v8.02m0 8v8m0 8.02v8m0 8v8.02m0 8v8m0 8.02v8m0 8v8.02m0 8v8m0 8.02v8m0 8.02v8m0 8v8.02m0 8v8m0 8.02v8m0 8v8.02m0 8v8m0 8.02v8m0 8V654m0 8v8m0 8.02v8m0 8.02v8m0 8v8.02m0 8v8m0 8.02v8m0 8v8.02m0 8v8m0 8.02v8m0 8v8.02m0 8v8m0 8.02v8m0 8.02v8m0 8v8.02m0 8v8m0 8.02v8m0 8v8.02m0 8v8m0 8.02v8m0 8v8.02m0 8v8m0 8.02v8m0 8.02v8m0 8v8.02m0 8v8m0 8.02v8m0 8v8.02m0 8v8m0 8.02v8m0 8v8.02m0 8v8m0 8.02v8m0 8.02v8m0 8v8.02m0 8v8m0 8.02v8m0 8v8.02m0 8v8m0 8.02v8m0 8v8.02m0 8v8m0 8.02v8m0 8.02v8m0 8v8.02m0 8v8m0 8.02v8m0 8v8.02m0 8v8m0 8.02v8m0 8v8.02m0 8v8m0 8.02v8m0 8.02v8m0 8v8.02m0 8v8m0 8.02v8m0 8v8.02m0 8v8m0 8.02v8m0 8v8.02m0 8v8m0 8.02v8m0 8.02v8m0 8v8.02m0 8v8m0 8.02v8m0 8v8.02m0 8v8m0 8.02v8m0 8v8.02m0 8v8m0 8.02v8m0 8.02v4M440 1818.97v1.03" stroke="#000" stroke-width="2" fill="none"/><path d="M440.5 428h712.12M440.5 428h-.5" stroke="#333" fill="none"/><path d="M1167.38 428l-14.26 4.64v-9.28z" stroke="#333" fill="#333"/><use xlink:href="#d" transform="matrix(1,0,0,1,487.766750015261,402.39919295785774) translate(0.0049999999999954525 14.4)"/><use xlink:href="#e" transform="matrix(1,0,0,1,487.766750015261,402.39919295785774) translate(71.955 14.4)"/><use xlink:href="#f" transform="matrix(1,0,0,1,487.766750015261,402.39919295785774) translate(143.805 14.4)"/><path d="M1100 230h180v120h-180z" stroke="#000" stroke-width="2" fill="#fff"/><use xlink:href="#b" transform="matrix(1,0,0,1,1100,230) translate(12.705000000000007 63.15)"/><use xlink:href="#g" transform="matrix(1,0,0,1,1100,230) translate(22.705000000000005 63.15)"/><path d="M1170 420h40v120h-40z" stroke="#000" stroke-width="2" fill="#fff"/><path d="M1190 352v4.13m0 8.25v8.25m0 8.25v8.25m0 8.25v8.25m0 8.25V418" stroke="#000" stroke-width="2" fill="none"/><path d="M1191 352.03h-2V351h2z"/><path d="M1190 417.97V419M1168 494.67h-3.9m-7.83 0h-7.82m-7.82 0h-7.83m-7.82 0h-7.82m-7.82 0h-7.82m-7.82 0h-7.82m-7.83 0h-7.82m-7.82 0h-7.8m-7.83 0h-7.82m-7.82 0h-7.83m-7.82 0h-7.82m-7.82 0h-7.82m-7.82 0h-7.82m-7.83 0h-7.82m-7.82 0h-7.8m-7.83 0h-7.82m-7.82 0h-7.82m-7.82 0h-7.82m-7.82 0h-7.82m-7.82 0h-7.82m-7.82 0h-7.83m-7.82 0h-3.9" stroke="#000" stroke-width="2" fill="none"/><path d="M1169 495.67h-1.03v-2h1.03z"/><path d="M824.24 494.67l14.26-4.64v9.27z" stroke="#000" stroke-width="2"/><use xlink:href="#h" transform="matrix(1,0,0,1,965.5073256486686,498.6666666666667) translate(0 14.4)"/><path d="M778 525.33h-4m-7.98 0h-8m-7.98 0h-7.98m-8 0h-7.98m-8 0h-7.97m-7.98 0h-8m-7.98 0h-7.98m-8 0h-7.98m-8 0h-7.97m-7.98 0h-8m-7.98 0h-7.98m-8 0h-7.98m-7.98 0h-8m-7.98 0h-8m-7.97 0h-8m-7.98 0h-8m-7.97 0h-8m-7.98 0h-8m-7.97 0h-8m-7.98 0h-8m-7.97 0h-4" stroke="#000" stroke-width="2" fill="none"/><path d="M779 526.33h-1.03v-2H779z"/><path d="M443.24 525.33l14.26-4.63v9.27z" stroke="#000" stroke-width="2"/><use xlink:href="#i" transform="matrix(1,0,0,1,580.0749598551113,529.3333267574442) translate(0 14.4)"/><path d="M441 619.4h319.5M441.03 619.4H440" stroke="#000" stroke-width="2" fill="none"/><path d="M775.76 619.4l-14.26 4.63v-9.27z" stroke="#000" stroke-width="2"/><use xlink:href="#j" transform="matrix(1,0,0,1,530.6250175757148,593.7922280035393) translate(0 14.4)"/><use xlink:href="#k" transform="matrix(1,0,0,1,530.6250175757148,593.7922280035393) translate(47.95 14.4)"/><use xlink:href="#l" transform="matrix(1,0,0,1,530.6250175757148,593.7922280035393) translate(119.80000000000001 14.4)"/><path d="M441 687.5h319.5M441.03 687.5H440" stroke="#000" stroke-width="2" fill="none"/><path d="M775.76 687.5l-14.26 4.64v-9.27z" stroke="#000" stroke-width="2"/><use xlink:href="#m" transform="matrix(1,0,0,1,568.100030670304,661.9029842543566) translate(0 14.4)"/><use xlink:href="#n" transform="matrix(1,0,0,1,568.100030670304,661.9029842543566) translate(26.900000000000002 14.4)"/><path d="M822 729.5h328.5" stroke="#000" stroke-width="2" fill="none"/><path d="M822.03 730.5H821v-2h1.03z"/><path d="M1165.76 729.5l-14.26 4.64v-9.27z" stroke="#000" stroke-width="2"/><use xlink:href="#o" transform="matrix(1,0,0,1,834.9203652393632,703.9039804482829) translate(0 14.4)"/><path d="M1190 542v3.98m0 7.95v7.96m0 7.94v7.96m0 7.96v7.95m0 7.97v7.95m0 7.96v7.95m0 7.96v7.95m0 7.95v7.96m0 7.95v7.97m0 7.95v7.96m0 7.96v7.95m0 7.95V721m0 7.96v7.95m0 7.97v7.96m0 7.95v7.96m0 7.95v7.95m0 7.95v7.96m0 7.96v7.95m0 7.96v7.95m0 7.96v7.95m0 7.95v7.96m0 7.96v7.96m0 7.95v7.96m0 7.95v7.96m0 7.96v7.95m0 7.96v7.96m0 7.96v7.95m0 7.96v7.96m0 7.94v7.96m0 7.95v7.96m0 7.96v7.96m0 7.96v7.95m0 7.96v7.94m0 7.96v7.95m0 7.96v7.97m0 7.95v7.96m0 7.95v7.96m0 7.94v7.96m0 7.96v7.95m0 7.97v7.95m0 7.96v7.95m0 7.96v7.94m0 7.96v7.96m0 7.95v7.97m0 7.95v7.96m0 7.95v7.96m0 7.95v7.95m0 7.96v7.95m0 7.97v7.95m0 7.96v7.96m0 7.95v7.95m0 7.95v7.96m0 7.95v7.97m0 7.96v7.95m0 7.96v7.95m0 7.95v7.95m0 7.96v7.96m0 7.95v7.96m0 7.95v7.96m0 7.95v7.95m0 7.96v7.96m0 7.96v7.95m0 7.96v7.95m0 7.96v7.96m0 7.95v7.96m0 7.96v7.96m0 7.95v7.96m0 7.96v7.94m0 7.96v7.95m0 7.96v7.96m0 7.96v7.96m0 7.95v7.96m0 7.94v7.96m0 7.95v7.96m0 7.97v7.95m0 7.96v7.95m0 7.96v7.94m0 7.96v7.96m0 7.95v7.97m0 7.95v3.98" stroke="#000" stroke-width="2" fill="none"/><path d="M1191 542.03h-2V541h2z"/><path d="M1190 1798.97v1.03M1212 752.32h39v86.8h-21.5" stroke="#000" stroke-width="2" fill="none"/><path d="M1212.03 753.32H1211v-2h1.03z"/><path d="M1214.24 839.1l14.26-4.63v9.27z" stroke="#000" stroke-width="2"/><use xlink:href="#p" transform="matrix(1,0,0,1,1259,784.9121939639356) translate(0 14.4)"/><path d="M1168 930H839.5" stroke="#000" stroke-width="2" fill="none"/><path d="M1169 931h-1.03v-2h1.03z"/><path d="M824.24 930l14.26-4.64v9.28z" stroke="#000" stroke-width="2"/><use xlink:href="#q" transform="matrix(1,0,0,1,945.089522932138,934) translate(0 14.4)"/><use xlink:href="#r" transform="matrix(1,0,0,1,945.089522932138,934) translate(124.75000000000001 14.4)"/><path d="M778 956.65H458.5" stroke="#000" stroke-width="2" fill="none"/><path d="M779 957.65h-1.03v-2H779z"/><path d="M443.24 956.65l14.26-4.63v9.27z" stroke="#000" stroke-width="2"/><use xlink:href="#s" transform="matrix(1,0,0,1,553.1499763444198,960.6513113047115) translate(0 14.4)"/><use xlink:href="#t" transform="matrix(1,0,0,1,553.1499763444198,960.6513113047115) translate(63.85000000000001 14.4)"/><path d="M1168 1215.46H839.5" stroke="#000" stroke-width="2" fill="none"/><path d="M1169 1216.46h-1.03v-2h1.03z"/><path d="M824.24 1215.46l14.26-4.63v9.27z" stroke="#000" stroke-width="2"/><use xlink:href="#u" transform="matrix(1,0,0,1,929.3803569557707,1219.4604965353942) translate(0 14.4)"/><use xlink:href="#v" transform="matrix(1,0,0,1,929.3803569557707,1219.4604965353942) translate(152.9 14.4)"/><path d="M778 1249.55H458.5" stroke="#000" stroke-width="2" fill="none"/><path d="M779 1250.55h-1.03v-2H779z"/><path d="M443.24 1249.55l14.26-4.63v9.27z" stroke="#000" stroke-width="2"/><use xlink:href="#s" transform="matrix(1,0,0,1,453.9749906376601,1253.5526808433303) translate(0 14.4)"/><use xlink:href="#w" transform="matrix(1,0,0,1,453.9749906376601,1253.5526808433303) translate(63.85000000000001 14.4)"/><use xlink:href="#x" transform="matrix(1,0,0,1,453.9749906376601,1253.5526808433303) translate(138 14.4)"/><use xlink:href="#y" transform="matrix(1,0,0,1,453.9749906376601,1253.5526808433303) translate(177.95 14.4)"/><use xlink:href="#z" transform="matrix(1,0,0,1,453.9749906376601,1253.5526808433303) translate(238.1 14.4)"/><path d="M1170 420h40v120h-40zM1960 230h180v120h-180z" stroke="#000" stroke-width="2" fill="#fff"/><use xlink:href="#A" transform="matrix(1,0,0,1,1960,230) translate(37.629999999999995 63.15)"/><use xlink:href="#B" transform="matrix(1,0,0,1,1960,230) translate(80.53 63.15)"/><path d="M2030 1289h40v300h-40z" stroke="#000" stroke-width="2" fill="#fff"/><path d="M2050 352v4.03m0 8.06v8.05m0 8.06v8.07m0 8.06v8.06m0 8.05v8.06m0 8.07v8.06m0 8.06v8.05m0 8.06v8.07m0 8.07V485m0 8.06v8.06m0 8.06v8.06m0 8.06v8.06m0 8.06v8.06m0 8.06v8.06m0 8.06v8.06m0 8.06v8.06m0 8.06v8.06m0 8.06v8.06m0 8.06v8.06m0 8.06v8.06m0 8.06v8.06m0 8.06v8.06m0 8.06v8.07m0 8.05v8.06m0 8.07v8.06m0 8.06v8.05m0 8.06v8.07m0 8.06v8.06m0 8.05v8.06m0 8.07v8.06m0 8.06v8.05m0 8.06v8.07m0 8.06v8.06m0 8.05V888m0 8.07v8.06m0 8.06v8.05m0 8.06v8.07m0 8.06v8.07m0 8.06v8.06m0 8.06v8.06m0 8.06v8.06m0 8.06v8.06m0 8.06v8.06m0 8.06v8.06m0 8.06v8.06m0 8.06v8.06m0 8.06v8.06m0 8.06v8.06m0 8.06v8.06m0 8.06v8.06m0 8.06v8.06m0 8.06v8.06m0 8.07v8.06m0 8.07v8.06m0 8.06v8.05m0 8.06v8.07m0 8.06v8.06m0 8.05v8.06m0 8.07v4.03" stroke="#000" stroke-width="2" fill="none"/><path d="M2051 352.03h-2V351h2z"/><path d="M2050 1286.97v1.03M1212 1309.98h798.5" stroke="#000" stroke-width="2" fill="none"/><path d="M1212.03 1310.98H1211v-2h1.03z"/><path d="M2025.76 1309.98l-14.26 4.64v-9.27z" stroke="#000" stroke-width="2"/><use xlink:href="#C" transform="matrix(1,0,0,1,1303.1433944469488,1313.9829508957307) translate(0 14.4)"/><use xlink:href="#D" transform="matrix(1,0,0,1,1303.1433944469488,1313.9829508957307) translate(181.6 14.4)"/><path d="M2028 1506h-798.5" stroke="#000" stroke-width="2" fill="none"/><path d="M2029 1507h-1.03v-2h1.03z"/><path d="M1214.24 1506l14.26-4.65v9.27z" stroke="#000" stroke-width="2"/><use xlink:href="#E" transform="matrix(1,0,0,1,1683.6569766486232,1509.9852005853174) translate(0 14.4)"/><use xlink:href="#F" transform="matrix(1,0,0,1,1683.6569766486232,1509.9852005853174) translate(67.80000000000001 14.4)"/><path d="M1168 1532.67h-3.9m-7.83 0h-7.82m-7.82 0h-7.83m-7.82 0h-7.82m-7.82 0h-7.82m-7.82 0h-7.82m-7.83 0h-7.82m-7.82 0h-7.8m-7.83 0h-7.82m-7.82 0h-7.83m-7.82 0h-7.82m-7.82 0h-7.82m-7.82 0h-7.82m-7.83 0h-7.82m-7.82 0h-7.8m-7.83 0h-7.82m-7.82 0h-7.82m-7.82 0h-7.82m-7.82 0h-7.82m-7.82 0h-7.82m-7.82 0h-7.83m-7.82 0h-3.9" stroke="#000" stroke-width="2" fill="none"/><path d="M1169 1533.67h-1.03v-2h1.03z"/><path d="M824.24 1532.67l14.26-4.64v9.27z" stroke="#000" stroke-width="2"/><use xlink:href="#G" transform="matrix(1,0,0,1,918.4375542392401,1536.6660407531674) translate(0 14.4)"/><use xlink:href="#H" transform="matrix(1,0,0,1,918.4375542392401,1536.6660407531674) translate(196.74999999999997 14.4)"/><path d="M778 1581.58h-4m-7.98 0h-8m-7.98 0h-7.98m-8 0h-7.98m-8 0h-7.97m-7.98 0h-8m-7.98 0h-7.98m-8 0h-7.98m-8 0h-7.97m-7.98 0h-8m-7.98 0h-7.98m-8 0h-7.98m-7.98 0h-8m-7.98 0h-8m-7.97 0h-8m-7.98 0h-8m-7.97 0h-8m-7.98 0h-8m-7.97 0h-8m-7.98 0h-8m-7.97 0h-4" stroke="#000" stroke-width="2" fill="none"/><path d="M779 1582.58h-1.03v-2H779z"/><path d="M443.24 1581.58l14.26-4.64v9.28z" stroke="#000" stroke-width="2"/><use xlink:href="#s" transform="matrix(1,0,0,1,521.124984145733,1585.580913385745) translate(0 14.4)"/><use xlink:href="#I" transform="matrix(1,0,0,1,521.124984145733,1585.580913385745) translate(63.85000000000001 14.4)"/><use xlink:href="#J" transform="matrix(1,0,0,1,521.124984145733,1585.580913385745) translate(142.8 14.4)"/><path d="M420 20h1120v100H420z" stroke="#000" stroke-opacity="0" stroke-width="2" fill="#fff" fill-opacity="0"/><use xlink:href="#K" transform="matrix(1,0,0,1,425,25) translate(321.2620370370371 50.37916666666666)"/><use xlink:href="#L" transform="matrix(1,0,0,1,425,25) translate(446.3342592592593 50.37916666666666)"/><use xlink:href="#M" transform="matrix(1,0,0,1,425,25) translate(521.0120370370371 50.37916666666666)"/><use xlink:href="#N" transform="matrix(1,0,0,1,425,25) translate(670.7157407407407 50.37916666666666)"/><path d="M1590 330c-27.6 0-50-22.4-50-50s22.4-50 50-50 50 22.4 50 50-22.4 50-50 50z" stroke="#000" stroke-width="2" fill="#fff"/><path d="M1540 330h100" stroke="#000" stroke-width="2" fill="none"/><use xlink:href="#O" transform="matrix(1,0,0,1,1500,330) translate(33.074999999999996 14.4)"/><use xlink:href="#P" transform="matrix(1,0,0,1,1500,330) translate(84.975 14.4)"/><path d="M1590 332v4m0 7.96v7.97m0 7.98v7.98m0 7.97v7.97m0 7.98v7.97m0 7.97v7.98m0 7.97v7.96m0 7.97v7.98m0 7.98v7.97m0 7.98v7.97m0 7.97v7.97m0 7.98v7.97m0 7.96v7.97m0 7.98v7.98m0 7.97v7.98m0 7.97v7.97m0 7.97v7.98m0 7.97v7.96m0 7.98V623m0 7.98v7.97m0 7.98v7.97m0 7.97v7.98m0 7.97v7.97m0 7.96v7.98m0 7.97v7.98m0 7.98v7.97m0 7.97v7.97m0 7.98v7.97m0 7.97v7.97m0 7.97v7.97m0 7.98v7.98m0 7.97v7.97m0 7.97v7.98m0 7.97v7.97m0 7.97v7.97m0 7.97v7.98m0 7.98v7.97m0 7.97v7.98m0 7.97v7.97m0 7.97v7.97m0 7.97v7.97m0 8v7.96m0 7.97v7.97m0 7.98v7.97m0 7.97v7.98m0 7.97v7.97m0 7.97v8m0 7.96v7.97m0 7.98v7.98m0 7.97v7.97m0 7.98v7.97m0 7.97v7.97m0 8v7.96m0 7.97v7.98m0 7.98v7.97m0 7.97v7.98m0 7.97v7.97m0 7.98v7.97m0 7.96v7.97m0 7.98v7.98m0 7.97v7.98m0 7.97v7.97m0 7.97v7.98m0 7.97v7.96m0 7.98v7.97m0 7.98v7.97m0 7.98v7.97m0 7.97v7.98m0 7.97v7.97m0 7.96v7.98m0 7.97v7.98m0 7.98v7.97m0 7.97v7.97m0 7.98v7.97m0 7.97v7.96m0 7.98v7.97m0 7.98v7.98m0 7.97v7.97m0 7.97v7.98m0 7.97v7.97m0 7.97v7.97m0 7.97v7.98m0 7.98v7.97m0 7.97v7.98m0 7.97v7.97m0 7.97v7.97m0 7.97v7.97m0 8v7.96m0 7.97v7.97m0 7.98v7.97m0 7.97v7.98m0 7.97v7.97m0 7.97v4" stroke="#000" stroke-width="2" fill="none"/><path d="M1589.98 331h1.02v1.03h-2V331z"/><path d="M1590 1798.97v1.03" stroke="#000" stroke-width="2" fill="none"/><path d="M1570 1040h40v120h-40zM780 480h40v1200h-40zM1170 700h40v940h-40z" stroke="#000" stroke-width="2" fill="#fff"/><path d="M441 1429.72h1569.5M441.03 1429.72H440" stroke="#000" stroke-width="2" fill="none"/><path d="M2025.76 1429.72l-14.26 4.64v-9.27z" stroke="#000" stroke-width="2"/><g><use xlink:href="#Q" transform="matrix(1,0,0,1,514.0579743133103,1404.123050116098) translate(0 14.4)"/><use xlink:href="#R" transform="matrix(1,0,0,1,514.0579743133103,1404.123050116098) translate(43.85 14.4)"/><use xlink:href="#S" transform="matrix(1,0,0,1,514.0579743133103,1404.123050116098) translate(150.60000000000002 14.4)"/></g><path d="M1212 1049.45h338.5" stroke="#000" stroke-width="2" fill="none"/><path d="M1212.03 1050.45H1211v-2h1.03z"/><path d="M1565.76 1049.45l-14.26 4.63v-9.27z" stroke="#000" stroke-width="2"/><g><use xlink:href="#T" transform="matrix(1,0,0,1,1350.1,1023.8463799354379) translate(0 14.4)"/></g><path d="M1568 1136.9h-4.03m-8.06 0h-8.05m-8.06 0h-8.07m-8.06 0h-8.06m-8.05 0h-8.06m-8.07 0h-8.05m-8.06 0h-8.06m-8.06 0h-8.06m-8.06 0h-8.06m-8.06 0h-8.06m-8.06 0h-8.06m-8.06 0h-8.06m-8.06 0h-8.06m-8.06 0h-8.06m-8.06 0h-8.06m-8.05 0h-8.06m-8.07 0h-8.06m-8.06 0h-8.05m-8.06 0h-8.07m-8.06 0h-8.06m-8.05 0h-8.06m-8.07 0h-4.03" stroke="#000" stroke-width="2" fill="none"/><path d="M1569 1137.9h-1.03v-2h1.03z"/><path d="M1214.24 1136.9l14.26-4.64v9.28z" stroke="#000" stroke-width="2"/><g><use xlink:href="#U" transform="matrix(1,0,0,1,1374.525,1140.9002449300576) translate(0 14.4)"/></g><path d="M320 860h100v20l-10 10h-90z" fill="#fff"/><path d="M420 860v20l-10 10h-90" stroke="#000" stroke-width="2" fill="none"/><path d="M320 860h960v760H320zM320 1028.3h20m15 0h20m15 0h20m15 0h20m15 0h20m15 0h20m15 0h20m15 0h20m15 0h20m15 0h20m15 0h20m15 0h20m15 0h20m15 0h20m15 0h20m15 0h20m15 0h20m15 0h20m15 0h20m15 0h20m15 0h20m15 0h20m15 0h20m15 0h20m15 0h20m15 0h20m15 0h20m15 0h15" stroke="#000" stroke-width="2" fill="none"/><g><use xlink:href="#V" transform="matrix(1,0,0,1,328,860) translate(0 18.6)"/></g><g><use xlink:href="#W" transform="matrix(1,0,0,1,332,898) translate(0 18.6)"/><use xlink:href="#X" transform="matrix(1,0,0,1,332,898) translate(37.95 18.6)"/></g><g><use xlink:href="#Y" transform="matrix(1,0,0,1,332,1036.2857142857142) translate(0 18.6)"/></g><defs><path d="M232-93c-1 65-40 97-104 97C67 4 28-28 28-90v-158h33c8 89-33 224 67 224 102 0 64-133 71-224h33v155" id="Z"/><path d="M135-143c-3-34-86-38-87 0 15 53 115 12 119 90S17 21 10-45l28-5c4 36 97 45 98 0-10-56-113-15-118-90-4-57 82-63 122-42 12 7 21 19 24 35" id="aa"/><path d="M100-194c63 0 86 42 84 106H49c0 40 14 67 53 68 26 1 43-12 49-29l28 8c-11 28-37 45-77 45C44 4 14-33 15-96c1-61 26-98 85-98zm52 81c6-60-76-77-97-28-3 7-6 17-6 28h103" id="ab"/><path d="M114-163C36-179 61-72 57 0H25l-1-190h30c1 12-1 29 2 39 6-27 23-49 58-41v29" id="ac"/><g id="a"><use transform="matrix(0.05,0,0,0.05,0,0)" xlink:href="#Z"/><use transform="matrix(0.05,0,0,0.05,12.950000000000001,0)" xlink:href="#aa"/><use transform="matrix(0.05,0,0,0.05,21.950000000000003,0)" xlink:href="#ab"/><use transform="matrix(0.05,0,0,0.05,31.950000000000003,0)" xlink:href="#ac"/></g><path d="M33-154v-36h34v36H33zM33 0v-36h34V0H33" id="ad"/><g id="b"><use transform="matrix(0.05,0,0,0.05,0,0)" xlink:href="#ad"/><path d="M-.9 1.25h11.8v1.32H-.9z"/></g><path d="M233-177c-1 41-23 64-60 70L243 0h-38l-65-103H63V0H30v-248c88 3 205-21 203 71zM63-129c60-2 137 13 137-47 0-61-80-42-137-45v92" id="ae"/><path d="M177-190C167-65 218 103 67 71c-23-6-38-20-44-43l32-5c15 47 100 32 89-28v-30C133-14 115 1 83 1 29 1 15-40 15-95c0-56 16-97 71-98 29-1 48 16 59 35 1-10 0-23 2-32h30zM94-22c36 0 50-32 50-73 0-42-14-75-50-75-39 0-46 34-46 75s6 73 46 73" id="af"/><path d="M24-231v-30h32v30H24zM24 0v-190h32V0H24" id="ag"/><path d="M59-47c-2 24 18 29 38 22v24C64 9 27 4 27-40v-127H5v-23h24l9-43h21v43h35v23H59v120" id="ah"/><path d="M30-248c87 1 191-15 191 75 0 78-77 80-158 76V0H30v-248zm33 125c57 0 124 11 124-50 0-59-68-47-124-48v98" id="ai"/><path d="M141-36C126-15 110 5 73 4 37 3 15-17 15-53c-1-64 63-63 125-63 3-35-9-54-41-54-24 1-41 7-42 31l-33-3c5-37 33-52 76-52 45 0 72 20 72 64v82c-1 20 7 32 28 27v20c-31 9-61-2-59-35zM48-53c0 20 12 33 32 33 41-3 63-29 60-74-43 2-92-5-92 41" id="aj"/><g id="c"><use transform="matrix(0.05,0,0,0.05,0,0)" xlink:href="#ae"/><use transform="matrix(0.05,0,0,0.05,12.950000000000001,0)" xlink:href="#ab"/><use transform="matrix(0.05,0,0,0.05,22.950000000000003,0)" xlink:href="#af"/><use transform="matrix(0.05,0,0,0.05,32.95,0)" xlink:href="#ag"/><use transform="matrix(0.05,0,0,0.05,36.900000000000006,0)" xlink:href="#aa"/><use transform="matrix(0.05,0,0,0.05,45.900000000000006,0)" xlink:href="#ah"/><use transform="matrix(0.05,0,0,0.05,50.900000000000006,0)" xlink:href="#ab"/><use transform="matrix(0.05,0,0,0.05,60.900000000000006,0)" xlink:href="#ac"/><use transform="matrix(0.05,0,0,0.05,66.85000000000001,0)" xlink:href="#ai"/><use transform="matrix(0.05,0,0,0.05,78.85000000000001,0)" xlink:href="#aj"/><use transform="matrix(0.05,0,0,0.05,88.85000000000001,0)" xlink:href="#af"/><use transform="matrix(0.05,0,0,0.05,98.85000000000001,0)" xlink:href="#ab"/><path d="M-.9 1.25h110.65v1.32H-.9z"/></g><path fill="#333" d="M233-177c-1 41-23 64-60 70L243 0h-38l-65-103H63V0H30v-248c88 3 205-21 203 71zM63-129c60-2 137 13 137-47 0-61-80-42-137-45v92" id="ak"/><path fill="#333" d="M100-194c63 0 86 42 84 106H49c0 40 14 67 53 68 26 1 43-12 49-29l28 8c-11 28-37 45-77 45C44 4 14-33 15-96c1-61 26-98 85-98zm52 81c6-60-76-77-97-28-3 7-6 17-6 28h103" id="al"/><path fill="#333" d="M145-31C134-9 116 4 85 4 32 4 16-35 15-94c0-59 17-99 70-100 32-1 48 14 60 33 0-11-1-24 2-32h30l-1 268h-32zM93-21c41 0 51-33 51-76s-8-73-50-73c-40 0-46 35-46 75s5 74 45 74" id="am"/><path fill="#333" d="M84 4C-5 8 30-112 23-190h32v120c0 31 7 50 39 49 72-2 45-101 50-169h31l1 190h-30c-1-10 1-25-2-33-11 22-28 36-60 37" id="an"/><path fill="#333" d="M135-143c-3-34-86-38-87 0 15 53 115 12 119 90S17 21 10-45l28-5c4 36 97 45 98 0-10-56-113-15-118-90-4-57 82-63 122-42 12 7 21 19 24 35" id="ao"/><path fill="#333" d="M59-47c-2 24 18 29 38 22v24C64 9 27 4 27-40v-127H5v-23h24l9-43h21v43h35v23H59v120" id="ap"/><g id="d"><use transform="matrix(0.05,0,0,0.05,0,0)" xlink:href="#ak"/><use transform="matrix(0.05,0,0,0.05,12.950000000000001,0)" xlink:href="#al"/><use transform="matrix(0.05,0,0,0.05,22.950000000000003,0)" xlink:href="#am"/><use transform="matrix(0.05,0,0,0.05,32.95,0)" xlink:href="#an"/><use transform="matrix(0.05,0,0,0.05,42.95,0)" xlink:href="#al"/><use transform="matrix(0.05,0,0,0.05,52.95,0)" xlink:href="#ao"/><use transform="matrix(0.05,0,0,0.05,61.95,0)" xlink:href="#ap"/></g><path fill="#333" d="M177-190C167-65 218 103 67 71c-23-6-38-20-44-43l32-5c15 47 100 32 89-28v-30C133-14 115 1 83 1 29 1 15-40 15-95c0-56 16-97 71-98 29-1 48 16 59 35 1-10 0-23 2-32h30zM94-22c36 0 50-32 50-73 0-42-14-75-50-75-39 0-46 34-46 75s6 73 46 73" id="aq"/><path fill="#333" d="M24-231v-30h32v30H24zM24 0v-190h32V0H24" id="ar"/><path fill="#333" d="M114-163C36-179 61-72 57 0H25l-1-190h30c1 12-1 29 2 39 6-27 23-49 58-41v29" id="as"/><g id="e"><use transform="matrix(0.05,0,0,0.05,0,0)" xlink:href="#ak"/><use transform="matrix(0.05,0,0,0.05,12.950000000000001,0)" xlink:href="#al"/><use transform="matrix(0.05,0,0,0.05,22.950000000000003,0)" xlink:href="#aq"/><use transform="matrix(0.05,0,0,0.05,32.95,0)" xlink:href="#ar"/><use transform="matrix(0.05,0,0,0.05,36.900000000000006,0)" xlink:href="#ao"/><use transform="matrix(0.05,0,0,0.05,45.900000000000006,0)" xlink:href="#ap"/><use transform="matrix(0.05,0,0,0.05,50.900000000000006,0)" xlink:href="#al"/><use transform="matrix(0.05,0,0,0.05,60.900000000000006,0)" xlink:href="#as"/></g><path fill="#333" d="M30-248c87 1 191-15 191 75 0 78-77 80-158 76V0H30v-248zm33 125c57 0 124 11 124-50 0-59-68-47-124-48v98" id="at"/><path fill="#333" d="M141-36C126-15 110 5 73 4 37 3 15-17 15-53c-1-64 63-63 125-63 3-35-9-54-41-54-24 1-41 7-42 31l-33-3c5-37 33-52 76-52 45 0 72 20 72 64v82c-1 20 7 32 28 27v20c-31 9-61-2-59-35zM48-53c0 20 12 33 32 33 41-3 63-29 60-74-43 2-92-5-92 41" id="au"/><g id="f"><use transform="matrix(0.05,0,0,0.05,0,0)" xlink:href="#at"/><use transform="matrix(0.05,0,0,0.05,12,0)" xlink:href="#au"/><use transform="matrix(0.05,0,0,0.05,22,0)" xlink:href="#aq"/><use transform="matrix(0.05,0,0,0.05,32,0)" xlink:href="#al"/></g><path d="M212-179c-10-28-35-45-73-45-59 0-87 40-87 99 0 60 29 101 89 101 43 0 62-24 78-52l27 14C228-24 195 4 139 4 59 4 22-46 18-125c-6-104 99-153 187-111 19 9 31 26 39 46" id="av"/><path d="M100-194c62-1 85 37 85 99 1 63-27 99-86 99S16-35 15-95c0-66 28-99 85-99zM99-20c44 1 53-31 53-75 0-43-8-75-51-75s-53 32-53 75 10 74 51 75" id="aw"/><path d="M117-194c89-4 53 116 60 194h-32v-121c0-31-8-49-39-48C34-167 62-67 57 0H25l-1-190h30c1 10-1 24 2 32 11-22 29-35 61-36" id="ax"/><path d="M24 0v-261h32V0H24" id="ay"/><g id="g"><use transform="matrix(0.05,0,0,0.05,0,0)" xlink:href="#ae"/><use transform="matrix(0.05,0,0,0.05,12.950000000000001,0)" xlink:href="#ab"/><use transform="matrix(0.05,0,0,0.05,22.950000000000003,0)" xlink:href="#af"/><use transform="matrix(0.05,0,0,0.05,32.95,0)" xlink:href="#ag"/><use transform="matrix(0.05,0,0,0.05,36.900000000000006,0)" xlink:href="#aa"/><use transform="matrix(0.05,0,0,0.05,45.900000000000006,0)" xlink:href="#ah"/><use transform="matrix(0.05,0,0,0.05,50.900000000000006,0)" xlink:href="#ab"/><use transform="matrix(0.05,0,0,0.05,60.900000000000006,0)" xlink:href="#ac"/><use transform="matrix(0.05,0,0,0.05,66.85000000000001,0)" xlink:href="#av"/><use transform="matrix(0.05,0,0,0.05,79.80000000000001,0)" xlink:href="#aw"/><use transform="matrix(0.05,0,0,0.05,89.80000000000001,0)" xlink:href="#ax"/><use transform="matrix(0.05,0,0,0.05,99.80000000000001,0)" xlink:href="#ah"/><use transform="matrix(0.05,0,0,0.05,104.80000000000001,0)" xlink:href="#ac"/><use transform="matrix(0.05,0,0,0.05,110.75,0)" xlink:href="#aw"/><use transform="matrix(0.05,0,0,0.05,120.75,0)" xlink:href="#ay"/><use transform="matrix(0.05,0,0,0.05,124.7,0)" xlink:href="#ay"/><use transform="matrix(0.05,0,0,0.05,128.65,0)" xlink:href="#ab"/><use transform="matrix(0.05,0,0,0.05,138.65,0)" xlink:href="#ac"/><path d="M-.9 1.25h146.4v1.32H-.9z"/></g><path d="M115-194c55 1 70 41 70 98S169 2 115 4C84 4 66-9 55-30l1 105H24l-1-265h31l2 30c10-21 28-34 59-34zm-8 174c40 0 45-34 45-75s-6-73-45-74c-42 0-51 32-51 76 0 43 10 73 51 73" id="az"/><path d="M87 75C49 33 22-17 22-94c0-76 28-126 65-167h31c-38 41-64 92-64 168S80 34 118 75H87" id="aA"/><path d="M33-261c38 41 65 92 65 168S71 34 33 75H2C39 34 66-17 66-93S39-220 2-261h31" id="aB"/><g id="h"><use transform="matrix(0.05,0,0,0.05,0,0)" xlink:href="#ac"/><use transform="matrix(0.05,0,0,0.05,5.95,0)" xlink:href="#ab"/><use transform="matrix(0.05,0,0,0.05,15.949999999999998,0)" xlink:href="#aa"/><use transform="matrix(0.05,0,0,0.05,24.95,0)" xlink:href="#az"/><use transform="matrix(0.05,0,0,0.05,34.95,0)" xlink:href="#aw"/><use transform="matrix(0.05,0,0,0.05,44.95,0)" xlink:href="#ax"/><use transform="matrix(0.05,0,0,0.05,54.95,0)" xlink:href="#aa"/><use transform="matrix(0.05,0,0,0.05,63.95,0)" xlink:href="#ab"/><use transform="matrix(0.05,0,0,0.05,73.95,0)" xlink:href="#aA"/><use transform="matrix(0.05,0,0,0.05,79.9,0)" xlink:href="#ae"/><use transform="matrix(0.05,0,0,0.05,92.85000000000001,0)" xlink:href="#ab"/><use transform="matrix(0.05,0,0,0.05,102.85000000000001,0)" xlink:href="#af"/><use transform="matrix(0.05,0,0,0.05,112.85000000000001,0)" xlink:href="#ag"/><use transform="matrix(0.05,0,0,0.05,116.80000000000001,0)" xlink:href="#aa"/><use transform="matrix(0.05,0,0,0.05,125.80000000000001,0)" xlink:href="#ah"/><use transform="matrix(0.05,0,0,0.05,130.8,0)" xlink:href="#ab"/><use transform="matrix(0.05,0,0,0.05,140.8,0)" xlink:href="#ac"/><use transform="matrix(0.05,0,0,0.05,146.75,0)" xlink:href="#ai"/><use transform="matrix(0.05,0,0,0.05,158.75,0)" xlink:href="#aj"/><use transform="matrix(0.05,0,0,0.05,168.75,0)" xlink:href="#af"/><use transform="matrix(0.05,0,0,0.05,178.75,0)" xlink:href="#ab"/><use transform="matrix(0.05,0,0,0.05,188.75,0)" xlink:href="#aB"/></g><path d="M30-248c118-7 216 8 213 122C240-48 200 0 122 0H30v-248zM63-27c89 8 146-16 146-99s-60-101-146-95v194" id="aC"/><path d="M179-190L93 31C79 59 56 82 12 73V49c39 6 53-20 64-50L1-190h34L92-34l54-156h33" id="aD"/><g id="i"><use transform="matrix(0.05,0,0,0.05,0,0)" xlink:href="#aC"/><use transform="matrix(0.05,0,0,0.05,12.950000000000001,0)" xlink:href="#ag"/><use transform="matrix(0.05,0,0,0.05,16.900000000000002,0)" xlink:href="#aa"/><use transform="matrix(0.05,0,0,0.05,25.900000000000002,0)" xlink:href="#az"/><use transform="matrix(0.05,0,0,0.05,35.900000000000006,0)" xlink:href="#ay"/><use transform="matrix(0.05,0,0,0.05,39.85000000000001,0)" xlink:href="#aj"/><use transform="matrix(0.05,0,0,0.05,49.85000000000001,0)" xlink:href="#aD"/></g><path d="M30 0v-248h187v28H63v79h144v27H63v87h162V0H30" id="aE"/><g id="j"><use transform="matrix(0.05,0,0,0.05,0,0)" xlink:href="#aE"/><use transform="matrix(0.05,0,0,0.05,12,0)" xlink:href="#ax"/><use transform="matrix(0.05,0,0,0.05,22,0)" xlink:href="#ah"/><use transform="matrix(0.05,0,0,0.05,27,0)" xlink:href="#ab"/><use transform="matrix(0.05,0,0,0.05,37,0)" xlink:href="#ac"/></g><g id="k"><use transform="matrix(0.05,0,0,0.05,0,0)" xlink:href="#ae"/><use transform="matrix(0.05,0,0,0.05,12.950000000000001,0)" xlink:href="#ab"/><use transform="matrix(0.05,0,0,0.05,22.950000000000003,0)" xlink:href="#af"/><use transform="matrix(0.05,0,0,0.05,32.95,0)" xlink:href="#ag"/><use transform="matrix(0.05,0,0,0.05,36.900000000000006,0)" xlink:href="#aa"/><use transform="matrix(0.05,0,0,0.05,45.900000000000006,0)" xlink:href="#ah"/><use transform="matrix(0.05,0,0,0.05,50.900000000000006,0)" xlink:href="#ab"/><use transform="matrix(0.05,0,0,0.05,60.900000000000006,0)" xlink:href="#ac"/></g><g id="l"><use transform="matrix(0.05,0,0,0.05,0,0)" xlink:href="#aC"/><use transform="matrix(0.05,0,0,0.05,12.950000000000001,0)" xlink:href="#aj"/><use transform="matrix(0.05,0,0,0.05,22.950000000000003,0)" xlink:href="#ah"/><use transform="matrix(0.05,0,0,0.05,27.950000000000003,0)" xlink:href="#aj"/></g><path d="M197 0v-115H63V0H30v-248h33v105h134v-105h34V0h-34" id="aF"/><g id="m"><use transform="matrix(0.05,0,0,0.05,0,0)" xlink:href="#aF"/><use transform="matrix(0.05,0,0,0.05,12.950000000000001,0)" xlink:href="#ag"/><use transform="matrix(0.05,0,0,0.05,16.900000000000002,0)" xlink:href="#ah"/></g><path d="M185-189c-5-48-123-54-124 2 14 75 158 14 163 119 3 78-121 87-175 55-17-10-28-26-33-46l33-7c5 56 141 63 141-1 0-78-155-14-162-118-5-82 145-84 179-34 5 7 8 16 11 25" id="aG"/><path d="M84 4C-5 8 30-112 23-190h32v120c0 31 7 50 39 49 72-2 45-101 50-169h31l1 190h-30c-1-10 1-25-2-33-11 22-28 36-60 37" id="aH"/><path d="M115-194c53 0 69 39 70 98 0 66-23 100-70 100C84 3 66-7 56-30L54 0H23l1-261h32v101c10-23 28-34 59-34zm-8 174c40 0 45-34 45-75 0-40-5-75-45-74-42 0-51 32-51 76 0 43 10 73 51 73" id="aI"/><path d="M210-169c-67 3-38 105-44 169h-31v-121c0-29-5-50-35-48C34-165 62-65 56 0H25l-1-190h30c1 10-1 24 2 32 10-44 99-50 107 0 11-21 27-35 58-36 85-2 47 119 55 194h-31v-121c0-29-5-49-35-48" id="aJ"/><g id="n"><use transform="matrix(0.05,0,0,0.05,0,0)" xlink:href="#aG"/><use transform="matrix(0.05,0,0,0.05,12,0)" xlink:href="#aH"/><use transform="matrix(0.05,0,0,0.05,22,0)" xlink:href="#aI"/><use transform="matrix(0.05,0,0,0.05,32,0)" xlink:href="#aJ"/><use transform="matrix(0.05,0,0,0.05,46.95,0)" xlink:href="#ag"/><use transform="matrix(0.05,0,0,0.05,50.900000000000006,0)" xlink:href="#ah"/></g><path d="M85-194c31 0 48 13 60 33l-1-100h32l1 261h-30c-2-10 0-23-3-31C134-8 116 4 85 4 32 4 16-35 15-94c0-66 23-100 70-100zm9 24c-40 0-46 34-46 75 0 40 6 74 45 74 42 0 51-32 51-76 0-42-9-74-50-73" id="aK"/><path d="M63-220v92h138v28H63V0H30v-248h175v28H63" id="aL"/><g id="o"><use transform="matrix(0.05,0,0,0.05,0,0)" xlink:href="#aa"/><use transform="matrix(0.05,0,0,0.05,9,0)" xlink:href="#ab"/><use transform="matrix(0.05,0,0,0.05,19,0)" xlink:href="#ax"/><use transform="matrix(0.05,0,0,0.05,29,0)" xlink:href="#aK"/><use transform="matrix(0.05,0,0,0.05,39,0)" xlink:href="#aL"/><use transform="matrix(0.05,0,0,0.05,49.95,0)" xlink:href="#aw"/><use transform="matrix(0.05,0,0,0.05,59.95,0)" xlink:href="#ac"/><use transform="matrix(0.05,0,0,0.05,65.9,0)" xlink:href="#aJ"/><use transform="matrix(0.05,0,0,0.05,80.85000000000001,0)" xlink:href="#aC"/><use transform="matrix(0.05,0,0,0.05,93.80000000000001,0)" xlink:href="#aj"/><use transform="matrix(0.05,0,0,0.05,103.80000000000001,0)" xlink:href="#ah"/><use transform="matrix(0.05,0,0,0.05,108.80000000000001,0)" xlink:href="#aj"/><use transform="matrix(0.05,0,0,0.05,118.80000000000001,0)" xlink:href="#aA"/><use transform="matrix(0.05,0,0,0.05,124.75,0)" xlink:href="#aB"/></g><path d="M108 0H70L1-190h34L89-25l56-165h34" id="aM"/><g id="p"><use transform="matrix(0.05,0,0,0.05,0,0)" xlink:href="#aM"/><use transform="matrix(0.05,0,0,0.05,9,0)" xlink:href="#aj"/><use transform="matrix(0.05,0,0,0.05,19,0)" xlink:href="#ay"/><use transform="matrix(0.05,0,0,0.05,22.95,0)" xlink:href="#ag"/><use transform="matrix(0.05,0,0,0.05,26.899999999999995,0)" xlink:href="#aK"/><use transform="matrix(0.05,0,0,0.05,36.9,0)" xlink:href="#aj"/><use transform="matrix(0.05,0,0,0.05,46.9,0)" xlink:href="#ah"/><use transform="matrix(0.05,0,0,0.05,51.900000000000006,0)" xlink:href="#ab"/><use transform="matrix(0.05,0,0,0.05,61.900000000000006,0)" xlink:href="#aC"/><use transform="matrix(0.05,0,0,0.05,74.85,0)" xlink:href="#aj"/><use transform="matrix(0.05,0,0,0.05,84.85,0)" xlink:href="#ah"/><use transform="matrix(0.05,0,0,0.05,89.85,0)" xlink:href="#aj"/><use transform="matrix(0.05,0,0,0.05,99.85,0)" xlink:href="#aA"/><use transform="matrix(0.05,0,0,0.05,105.80000000000001,0)" xlink:href="#aB"/></g><g id="q"><use transform="matrix(0.05,0,0,0.05,0,0)" xlink:href="#ac"/><use transform="matrix(0.05,0,0,0.05,5.95,0)" xlink:href="#ab"/><use transform="matrix(0.05,0,0,0.05,15.949999999999998,0)" xlink:href="#aa"/><use transform="matrix(0.05,0,0,0.05,24.95,0)" xlink:href="#az"/><use transform="matrix(0.05,0,0,0.05,34.95,0)" xlink:href="#aw"/><use transform="matrix(0.05,0,0,0.05,44.95,0)" xlink:href="#ax"/><use transform="matrix(0.05,0,0,0.05,54.95,0)" xlink:href="#aa"/><use transform="matrix(0.05,0,0,0.05,63.95,0)" xlink:href="#ab"/><use transform="matrix(0.05,0,0,0.05,73.95,0)" xlink:href="#aA"/><use transform="matrix(0.05,0,0,0.05,79.9,0)" xlink:href="#aE"/><use transform="matrix(0.05,0,0,0.05,91.9,0)" xlink:href="#ac"/><use transform="matrix(0.05,0,0,0.05,97.85000000000001,0)" xlink:href="#ac"/><use transform="matrix(0.05,0,0,0.05,103.80000000000001,0)" xlink:href="#aw"/><use transform="matrix(0.05,0,0,0.05,113.80000000000001,0)" xlink:href="#ac"/></g><path d="M240 0l2-218c-23 76-54 145-80 218h-23L58-218 59 0H30v-248h44l77 211c21-75 51-140 76-211h43V0h-30" id="aN"/><g id="r"><use transform="matrix(0.05,0,0,0.05,0,0)" xlink:href="#aN"/><use transform="matrix(0.05,0,0,0.05,14.950000000000001,0)" xlink:href="#ab"/><use transform="matrix(0.05,0,0,0.05,24.950000000000003,0)" xlink:href="#aa"/><use transform="matrix(0.05,0,0,0.05,33.95,0)" xlink:href="#aa"/><use transform="matrix(0.05,0,0,0.05,42.95,0)" xlink:href="#aj"/><use transform="matrix(0.05,0,0,0.05,52.95,0)" xlink:href="#af"/><use transform="matrix(0.05,0,0,0.05,62.95,0)" xlink:href="#ab"/><use transform="matrix(0.05,0,0,0.05,72.95,0)" xlink:href="#aA"/><use transform="matrix(0.05,0,0,0.05,78.9,0)" xlink:href="#aa"/><use transform="matrix(0.05,0,0,0.05,87.9,0)" xlink:href="#aB"/><use transform="matrix(0.05,0,0,0.05,93.85000000000001,0)" xlink:href="#aB"/></g><g id="s"><use transform="matrix(0.05,0,0,0.05,0,0)" xlink:href="#aC"/><use transform="matrix(0.05,0,0,0.05,12.950000000000001,0)" xlink:href="#ag"/><use transform="matrix(0.05,0,0,0.05,16.900000000000002,0)" xlink:href="#aa"/><use transform="matrix(0.05,0,0,0.05,25.900000000000002,0)" xlink:href="#az"/><use transform="matrix(0.05,0,0,0.05,35.900000000000006,0)" xlink:href="#ay"/><use transform="matrix(0.05,0,0,0.05,39.85000000000001,0)" xlink:href="#aj"/><use transform="matrix(0.05,0,0,0.05,49.85000000000001,0)" xlink:href="#aD"/></g><g id="t"><use transform="matrix(0.05,0,0,0.05,0,0)" xlink:href="#aE"/><use transform="matrix(0.05,0,0,0.05,12,0)" xlink:href="#ac"/><use transform="matrix(0.05,0,0,0.05,17.95,0)" xlink:href="#ac"/><use transform="matrix(0.05,0,0,0.05,23.9,0)" xlink:href="#aw"/><use transform="matrix(0.05,0,0,0.05,33.9,0)" xlink:href="#ac"/><use transform="matrix(0.05,0,0,0.05,39.85,0)" xlink:href="#aa"/></g><path d="M96-169c-40 0-48 33-48 73s9 75 48 75c24 0 41-14 43-38l32 2c-6 37-31 61-74 61-59 0-76-41-82-99-10-93 101-131 147-64 4 7 5 14 7 22l-32 3c-4-21-16-35-41-35" id="aO"/><g id="u"><use transform="matrix(0.05,0,0,0.05,0,0)" xlink:href="#ac"/><use transform="matrix(0.05,0,0,0.05,5.95,0)" xlink:href="#ab"/><use transform="matrix(0.05,0,0,0.05,15.949999999999998,0)" xlink:href="#aa"/><use transform="matrix(0.05,0,0,0.05,24.95,0)" xlink:href="#az"/><use transform="matrix(0.05,0,0,0.05,34.95,0)" xlink:href="#aw"/><use transform="matrix(0.05,0,0,0.05,44.95,0)" xlink:href="#ax"/><use transform="matrix(0.05,0,0,0.05,54.95,0)" xlink:href="#aa"/><use transform="matrix(0.05,0,0,0.05,63.95,0)" xlink:href="#ab"/><use transform="matrix(0.05,0,0,0.05,73.95,0)" xlink:href="#aA"/><use transform="matrix(0.05,0,0,0.05,79.9,0)" xlink:href="#aG"/><use transform="matrix(0.05,0,0,0.05,91.9,0)" xlink:href="#aH"/><use transform="matrix(0.05,0,0,0.05,101.9,0)" xlink:href="#aO"/><use transform="matrix(0.05,0,0,0.05,110.9,0)" xlink:href="#aO"/><use transform="matrix(0.05,0,0,0.05,119.9,0)" xlink:href="#ab"/><use transform="matrix(0.05,0,0,0.05,129.9,0)" xlink:href="#aa"/><use transform="matrix(0.05,0,0,0.05,138.9,0)" xlink:href="#aa"/></g><g id="v"><use transform="matrix(0.05,0,0,0.05,0,0)" xlink:href="#aN"/><use transform="matrix(0.05,0,0,0.05,14.950000000000001,0)" xlink:href="#ab"/><use transform="matrix(0.05,0,0,0.05,24.950000000000003,0)" xlink:href="#aa"/><use transform="matrix(0.05,0,0,0.05,33.95,0)" xlink:href="#aa"/><use transform="matrix(0.05,0,0,0.05,42.95,0)" xlink:href="#aj"/><use transform="matrix(0.05,0,0,0.05,52.95,0)" xlink:href="#af"/><use transform="matrix(0.05,0,0,0.05,62.95,0)" xlink:href="#ab"/><use transform="matrix(0.05,0,0,0.05,72.95,0)" xlink:href="#aB"/></g><path d="M109-170H84l-4-78h32zm-65 0H19l-4-78h33" id="aP"/><path d="M101-234c-31-9-42 10-38 44h38v23H63V0H32v-167H5v-23h27c-7-52 17-82 69-68v24" id="aQ"/><g id="w"><use transform="matrix(0.05,0,0,0.05,0,0)" xlink:href="#aP"/><use transform="matrix(0.05,0,0,0.05,6.3500000000000005,0)" xlink:href="#av"/><use transform="matrix(0.05,0,0,0.05,19.3,0)" xlink:href="#aw"/><use transform="matrix(0.05,0,0,0.05,29.3,0)" xlink:href="#ax"/><use transform="matrix(0.05,0,0,0.05,39.3,0)" xlink:href="#aQ"/><use transform="matrix(0.05,0,0,0.05,44.3,0)" xlink:href="#ag"/><use transform="matrix(0.05,0,0,0.05,48.25,0)" xlink:href="#ac"/><use transform="matrix(0.05,0,0,0.05,54.2,0)" xlink:href="#aJ"/></g><g id="x"><use transform="matrix(0.05,0,0,0.05,0,0)" xlink:href="#aD"/><use transform="matrix(0.05,0,0,0.05,9,0)" xlink:href="#aw"/><use transform="matrix(0.05,0,0,0.05,19,0)" xlink:href="#aH"/><use transform="matrix(0.05,0,0,0.05,29,0)" xlink:href="#ac"/></g><path d="M16-82v-28h88v28H16" id="aR"/><g id="y"><use transform="matrix(0.05,0,0,0.05,0,0)" xlink:href="#ab"/><use transform="matrix(0.05,0,0,0.05,10,0)" xlink:href="#aR"/><use transform="matrix(0.05,0,0,0.05,15.949999999999998,0)" xlink:href="#aN"/><use transform="matrix(0.05,0,0,0.05,30.899999999999995,0)" xlink:href="#aj"/><use transform="matrix(0.05,0,0,0.05,40.9,0)" xlink:href="#ag"/><use transform="matrix(0.05,0,0,0.05,44.85,0)" xlink:href="#ay"/><use transform="matrix(0.05,0,0,0.05,48.800000000000004,0)" xlink:href="#aP"/></g><g id="z"><use transform="matrix(0.05,0,0,0.05,0,0)" xlink:href="#aN"/><use transform="matrix(0.05,0,0,0.05,14.950000000000001,0)" xlink:href="#ab"/><use transform="matrix(0.05,0,0,0.05,24.950000000000003,0)" xlink:href="#aa"/><use transform="matrix(0.05,0,0,0.05,33.95,0)" xlink:href="#aa"/><use transform="matrix(0.05,0,0,0.05,42.95,0)" xlink:href="#aj"/><use transform="matrix(0.05,0,0,0.05,52.95,0)" xlink:href="#af"/><use transform="matrix(0.05,0,0,0.05,62.95,0)" xlink:href="#ab"/></g><g id="A"><use transform="matrix(0.05,0,0,0.05,0,0)" xlink:href="#Z"/><use transform="matrix(0.05,0,0,0.05,12.950000000000001,0)" xlink:href="#aa"/><use transform="matrix(0.05,0,0,0.05,21.950000000000003,0)" xlink:href="#ab"/><use transform="matrix(0.05,0,0,0.05,31.950000000000003,0)" xlink:href="#ac"/><path d="M-.9 1.25h44.7v1.32H-.9z"/></g><path d="M141 0L90-78 38 0H4l68-98-65-92h35l48 74 47-74h35l-64 92 68 98h-35" id="aS"/><g id="B"><use transform="matrix(0.05,0,0,0.05,0,0)" xlink:href="#aN"/><use transform="matrix(0.05,0,0,0.05,14.950000000000001,0)" xlink:href="#aj"/><use transform="matrix(0.05,0,0,0.05,24.950000000000003,0)" xlink:href="#ag"/><use transform="matrix(0.05,0,0,0.05,28.900000000000002,0)" xlink:href="#ay"/><use transform="matrix(0.05,0,0,0.05,32.85,0)" xlink:href="#aI"/><use transform="matrix(0.05,0,0,0.05,42.85,0)" xlink:href="#aw"/><use transform="matrix(0.05,0,0,0.05,52.85,0)" xlink:href="#aS"/><path d="M-.9 1.25h63.65v1.32H-.9z"/></g><g id="C"><use transform="matrix(0.05,0,0,0.05,0,0)" xlink:href="#aG"/><use transform="matrix(0.05,0,0,0.05,12,0)" xlink:href="#ab"/><use transform="matrix(0.05,0,0,0.05,22,0)" xlink:href="#ax"/><use transform="matrix(0.05,0,0,0.05,32,0)" xlink:href="#aK"/><use transform="matrix(0.05,0,0,0.05,42,0)" xlink:href="#aN"/><use transform="matrix(0.05,0,0,0.05,56.95,0)" xlink:href="#aj"/><use transform="matrix(0.05,0,0,0.05,66.95,0)" xlink:href="#ag"/><use transform="matrix(0.05,0,0,0.05,70.9,0)" xlink:href="#ay"/><use transform="matrix(0.05,0,0,0.05,74.85000000000001,0)" xlink:href="#aA"/><use transform="matrix(0.05,0,0,0.05,80.80000000000001,0)" xlink:href="#av"/><use transform="matrix(0.05,0,0,0.05,93.75000000000001,0)" xlink:href="#aw"/><use transform="matrix(0.05,0,0,0.05,103.75,0)" xlink:href="#ax"/><use transform="matrix(0.05,0,0,0.05,113.75,0)" xlink:href="#aQ"/><use transform="matrix(0.05,0,0,0.05,118.75,0)" xlink:href="#ag"/><use transform="matrix(0.05,0,0,0.05,122.7,0)" xlink:href="#aJ"/><use transform="matrix(0.05,0,0,0.05,137.65,0)" xlink:href="#aj"/><use transform="matrix(0.05,0,0,0.05,147.65,0)" xlink:href="#ah"/><use transform="matrix(0.05,0,0,0.05,152.65,0)" xlink:href="#ag"/><use transform="matrix(0.05,0,0,0.05,156.6,0)" xlink:href="#aw"/><use transform="matrix(0.05,0,0,0.05,166.6,0)" xlink:href="#ax"/></g><g id="D"><use transform="matrix(0.05,0,0,0.05,0,0)" xlink:href="#aN"/><use transform="matrix(0.05,0,0,0.05,14.950000000000001,0)" xlink:href="#aj"/><use transform="matrix(0.05,0,0,0.05,24.950000000000003,0)" xlink:href="#ag"/><use transform="matrix(0.05,0,0,0.05,28.900000000000002,0)" xlink:href="#ay"/><use transform="matrix(0.05,0,0,0.05,32.85,0)" xlink:href="#aB"/></g><g id="E"><use transform="matrix(0.05,0,0,0.05,0,0)" xlink:href="#av"/><use transform="matrix(0.05,0,0,0.05,12.950000000000001,0)" xlink:href="#aw"/><use transform="matrix(0.05,0,0,0.05,22.950000000000003,0)" xlink:href="#ax"/><use transform="matrix(0.05,0,0,0.05,32.95,0)" xlink:href="#aQ"/><use transform="matrix(0.05,0,0,0.05,37.95,0)" xlink:href="#ag"/><use transform="matrix(0.05,0,0,0.05,41.900000000000006,0)" xlink:href="#ac"/><use transform="matrix(0.05,0,0,0.05,47.85000000000001,0)" xlink:href="#aJ"/></g><path d="M145-31C134-9 116 4 85 4 32 4 16-35 15-94c0-59 17-99 70-100 32-1 48 14 60 33 0-11-1-24 2-32h30l-1 268h-32zM93-21c41 0 51-33 51-76s-8-73-50-73c-40 0-46 35-46 75s5 74 45 74" id="aT"/><g id="F"><use transform="matrix(0.05,0,0,0.05,0,0)" xlink:href="#ae"/><use transform="matrix(0.05,0,0,0.05,12.950000000000001,0)" xlink:href="#ab"/><use transform="matrix(0.05,0,0,0.05,22.950000000000003,0)" xlink:href="#aT"/><use transform="matrix(0.05,0,0,0.05,32.95,0)" xlink:href="#aH"/><use transform="matrix(0.05,0,0,0.05,42.95,0)" xlink:href="#ab"/><use transform="matrix(0.05,0,0,0.05,52.95,0)" xlink:href="#aa"/><use transform="matrix(0.05,0,0,0.05,61.95,0)" xlink:href="#ah"/></g><g id="G"><use transform="matrix(0.05,0,0,0.05,0,0)" xlink:href="#ac"/><use transform="matrix(0.05,0,0,0.05,5.95,0)" xlink:href="#ab"/><use transform="matrix(0.05,0,0,0.05,15.949999999999998,0)" xlink:href="#aa"/><use transform="matrix(0.05,0,0,0.05,24.95,0)" xlink:href="#az"/><use transform="matrix(0.05,0,0,0.05,34.95,0)" xlink:href="#aw"/><use transform="matrix(0.05,0,0,0.05,44.95,0)" xlink:href="#ax"/><use transform="matrix(0.05,0,0,0.05,54.95,0)" xlink:href="#aa"/><use transform="matrix(0.05,0,0,0.05,63.95,0)" xlink:href="#ab"/><use transform="matrix(0.05,0,0,0.05,73.95,0)" xlink:href="#aA"/><use transform="matrix(0.05,0,0,0.05,79.9,0)" xlink:href="#az"/><use transform="matrix(0.05,0,0,0.05,89.9,0)" xlink:href="#aj"/><use transform="matrix(0.05,0,0,0.05,99.9,0)" xlink:href="#af"/><use transform="matrix(0.05,0,0,0.05,109.9,0)" xlink:href="#ab"/><use transform="matrix(0.05,0,0,0.05,119.9,0)" xlink:href="#ad"/><use transform="matrix(0.05,0,0,0.05,124.9,0)" xlink:href="#ae"/><use transform="matrix(0.05,0,0,0.05,137.85,0)" xlink:href="#ab"/><use transform="matrix(0.05,0,0,0.05,147.85,0)" xlink:href="#af"/><use transform="matrix(0.05,0,0,0.05,157.85,0)" xlink:href="#ag"/><use transform="matrix(0.05,0,0,0.05,161.79999999999998,0)" xlink:href="#aa"/><use transform="matrix(0.05,0,0,0.05,170.79999999999998,0)" xlink:href="#ah"/><use transform="matrix(0.05,0,0,0.05,175.79999999999998,0)" xlink:href="#ab"/><use transform="matrix(0.05,0,0,0.05,185.79999999999998,0)" xlink:href="#ac"/></g><g id="H"><use transform="matrix(0.05,0,0,0.05,0,0)" xlink:href="#az"/><use transform="matrix(0.05,0,0,0.05,10,0)" xlink:href="#aj"/><use transform="matrix(0.05,0,0,0.05,20,0)" xlink:href="#af"/><use transform="matrix(0.05,0,0,0.05,30,0)" xlink:href="#ab"/><use transform="matrix(0.05,0,0,0.05,40,0)" xlink:href="#aB"/></g><path d="M205 0l-28-72H64L36 0H1l101-248h38L239 0h-34zm-38-99l-47-123c-12 45-31 82-46 123h93" id="aU"/><g id="I"><use transform="matrix(0.05,0,0,0.05,0,0)" xlink:href="#aU"/><use transform="matrix(0.05,0,0,0.05,12,0)" xlink:href="#aO"/><use transform="matrix(0.05,0,0,0.05,21,0)" xlink:href="#ah"/><use transform="matrix(0.05,0,0,0.05,26,0)" xlink:href="#ag"/><use transform="matrix(0.05,0,0,0.05,29.950000000000003,0)" xlink:href="#aM"/><use transform="matrix(0.05,0,0,0.05,38.95,0)" xlink:href="#aj"/><use transform="matrix(0.05,0,0,0.05,48.95,0)" xlink:href="#ah"/><use transform="matrix(0.05,0,0,0.05,53.95,0)" xlink:href="#ab"/><use transform="matrix(0.05,0,0,0.05,63.95,0)" xlink:href="#aK"/></g><g id="J"><use transform="matrix(0.05,0,0,0.05,0,0)" xlink:href="#aN"/><use transform="matrix(0.05,0,0,0.05,14.950000000000001,0)" xlink:href="#aa"/><use transform="matrix(0.05,0,0,0.05,23.950000000000003,0)" xlink:href="#af"/></g><g id="K"><use transform="matrix(0.08703703703703701,0,0,0.08703703703703701,0,0)" xlink:href="#ae"/><use transform="matrix(0.08703703703703701,0,0,0.08703703703703701,22.542592592592584,0)" xlink:href="#ab"/><use transform="matrix(0.08703703703703701,0,0,0.08703703703703701,39.94999999999999,0)" xlink:href="#af"/><use transform="matrix(0.08703703703703701,0,0,0.08703703703703701,57.357407407407386,0)" xlink:href="#ag"/><use transform="matrix(0.08703703703703701,0,0,0.08703703703703701,64.23333333333332,0)" xlink:href="#aa"/><use transform="matrix(0.08703703703703701,0,0,0.08703703703703701,79.89999999999998,0)" xlink:href="#ah"/><use transform="matrix(0.08703703703703701,0,0,0.08703703703703701,88.60370370370367,0)" xlink:href="#ab"/><use transform="matrix(0.08703703703703701,0,0,0.08703703703703701,106.01111111111108,0)" xlink:href="#ac"/></g><g id="L"><use transform="matrix(0.08703703703703701,0,0,0.08703703703703701,0,0)" xlink:href="#Z"/><use transform="matrix(0.08703703703703701,0,0,0.08703703703703701,22.542592592592584,0)" xlink:href="#aa"/><use transform="matrix(0.08703703703703701,0,0,0.08703703703703701,38.20925925925925,0)" xlink:href="#ab"/><use transform="matrix(0.08703703703703701,0,0,0.08703703703703701,55.61666666666665,0)" xlink:href="#ac"/></g><g id="M"><use transform="matrix(0.08703703703703701,0,0,0.08703703703703701,0,0)" xlink:href="#aG"/><use transform="matrix(0.08703703703703701,0,0,0.08703703703703701,20.888888888888882,0)" xlink:href="#ab"/><use transform="matrix(0.08703703703703701,0,0,0.08703703703703701,38.29629629629628,0)" xlink:href="#aT"/><use transform="matrix(0.08703703703703701,0,0,0.08703703703703701,55.703703703703674,0)" xlink:href="#aH"/><use transform="matrix(0.08703703703703701,0,0,0.08703703703703701,73.11111111111109,0)" xlink:href="#ab"/><use transform="matrix(0.08703703703703701,0,0,0.08703703703703701,90.51851851851849,0)" xlink:href="#ax"/><use transform="matrix(0.08703703703703701,0,0,0.08703703703703701,107.9259259259259,0)" xlink:href="#aO"/><use transform="matrix(0.08703703703703701,0,0,0.08703703703703701,123.59259259259255,0)" xlink:href="#ab"/></g><g id="N"><use transform="matrix(0.08703703703703701,0,0,0.08703703703703701,0,0)" xlink:href="#aC"/><use transform="matrix(0.08703703703703701,0,0,0.08703703703703701,22.542592592592584,0)" xlink:href="#ag"/><use transform="matrix(0.08703703703703701,0,0,0.08703703703703701,29.41851851851851,0)" xlink:href="#aj"/><use transform="matrix(0.08703703703703701,0,0,0.08703703703703701,46.82592592592591,0)" xlink:href="#af"/><use transform="matrix(0.08703703703703701,0,0,0.08703703703703701,64.2333333333333,0)" xlink:href="#ac"/><use transform="matrix(0.08703703703703701,0,0,0.08703703703703701,74.59074074074071,0)" xlink:href="#aj"/><use transform="matrix(0.08703703703703701,0,0,0.08703703703703701,91.99814814814812,0)" xlink:href="#aJ"/></g><g id="O"><use transform="matrix(0.05,0,0,0.05,0,0)" xlink:href="#Z"/><use transform="matrix(0.05,0,0,0.05,12.950000000000001,0)" xlink:href="#aa"/><use transform="matrix(0.05,0,0,0.05,21.950000000000003,0)" xlink:href="#ab"/><use transform="matrix(0.05,0,0,0.05,31.950000000000003,0)" xlink:href="#ac"/><use transform="matrix(0.05,0,0,0.05,37.900000000000006,0)" xlink:href="#aa"/></g><g id="P"><use transform="matrix(0.05,0,0,0.05,0,0)" xlink:href="#aC"/><use transform="matrix(0.05,0,0,0.05,12.950000000000001,0)" xlink:href="#aj"/><use transform="matrix(0.05,0,0,0.05,22.950000000000003,0)" xlink:href="#ah"/><use transform="matrix(0.05,0,0,0.05,27.950000000000003,0)" xlink:href="#aj"/><use transform="matrix(0.05,0,0,0.05,37.95,0)" xlink:href="#aa"/><use transform="matrix(0.05,0,0,0.05,46.95,0)" xlink:href="#ab"/><use transform="matrix(0.05,0,0,0.05,56.95,0)" xlink:href="#ah"/></g><path d="M143 0L79-87 56-68V0H24v-261h32v163l83-92h37l-77 82L181 0h-38" id="aV"/><g id="Q"><use transform="matrix(0.05,0,0,0.05,0,0)" xlink:href="#av"/><use transform="matrix(0.05,0,0,0.05,12.950000000000001,0)" xlink:href="#ay"/><use transform="matrix(0.05,0,0,0.05,16.900000000000002,0)" xlink:href="#ag"/><use transform="matrix(0.05,0,0,0.05,20.85,0)" xlink:href="#aO"/><use transform="matrix(0.05,0,0,0.05,29.85,0)" xlink:href="#aV"/></g><g id="R"><use transform="matrix(0.05,0,0,0.05,0,0)" xlink:href="#av"/><use transform="matrix(0.05,0,0,0.05,12.950000000000001,0)" xlink:href="#aw"/><use transform="matrix(0.05,0,0,0.05,22.950000000000003,0)" xlink:href="#ax"/><use transform="matrix(0.05,0,0,0.05,32.95,0)" xlink:href="#aQ"/><use transform="matrix(0.05,0,0,0.05,37.95,0)" xlink:href="#ag"/><use transform="matrix(0.05,0,0,0.05,41.900000000000006,0)" xlink:href="#ac"/><use transform="matrix(0.05,0,0,0.05,47.85000000000001,0)" xlink:href="#aJ"/><use transform="matrix(0.05,0,0,0.05,62.80000000000001,0)" xlink:href="#aj"/><use transform="matrix(0.05,0,0,0.05,72.80000000000001,0)" xlink:href="#ah"/><use transform="matrix(0.05,0,0,0.05,77.80000000000001,0)" xlink:href="#ag"/><use transform="matrix(0.05,0,0,0.05,81.75000000000001,0)" xlink:href="#aw"/><use transform="matrix(0.05,0,0,0.05,91.75000000000001,0)" xlink:href="#ax"/></g><path d="M30 0v-248h33v221h125V0H30" id="aW"/><g id="S"><use transform="matrix(0.05,0,0,0.05,0,0)" xlink:href="#aW"/><use transform="matrix(0.05,0,0,0.05,10,0)" xlink:href="#ag"/><use transform="matrix(0.05,0,0,0.05,13.949999999999998,0)" xlink:href="#ax"/><use transform="matrix(0.05,0,0,0.05,23.95,0)" xlink:href="#aV"/></g><g id="T"><use transform="matrix(0.05,0,0,0.05,0,0)" xlink:href="#aj"/><use transform="matrix(0.05,0,0,0.05,10,0)" xlink:href="#aK"/><use transform="matrix(0.05,0,0,0.05,20,0)" xlink:href="#aK"/><use transform="matrix(0.05,0,0,0.05,30,0)" xlink:href="#Z"/><use transform="matrix(0.05,0,0,0.05,42.95,0)" xlink:href="#aa"/><use transform="matrix(0.05,0,0,0.05,51.95,0)" xlink:href="#ab"/><use transform="matrix(0.05,0,0,0.05,61.95,0)" xlink:href="#ac"/><use transform="matrix(0.05,0,0,0.05,67.9,0)" xlink:href="#aA"/><use transform="matrix(0.05,0,0,0.05,73.85000000000001,0)" xlink:href="#aB"/></g><g id="U"><use transform="matrix(0.05,0,0,0.05,0,0)" xlink:href="#ah"/><use transform="matrix(0.05,0,0,0.05,5,0)" xlink:href="#ac"/><use transform="matrix(0.05,0,0,0.05,10.95,0)" xlink:href="#aH"/><use transform="matrix(0.05,0,0,0.05,20.95,0)" xlink:href="#ab"/></g><g id="V"><use transform="matrix(0.05,0,0,0.05,0,0)" xlink:href="#aU"/><use transform="matrix(0.05,0,0,0.05,12,0)" xlink:href="#ay"/><use transform="matrix(0.05,0,0,0.05,15.949999999999998,0)" xlink:href="#ah"/><use transform="matrix(0.05,0,0,0.05,20.95,0)" xlink:href="#ab"/><use transform="matrix(0.05,0,0,0.05,30.950000000000003,0)" xlink:href="#ac"/><use transform="matrix(0.05,0,0,0.05,36.9,0)" xlink:href="#ax"/><use transform="matrix(0.05,0,0,0.05,46.9,0)" xlink:href="#aj"/><use transform="matrix(0.05,0,0,0.05,56.900000000000006,0)" xlink:href="#ah"/><use transform="matrix(0.05,0,0,0.05,61.900000000000006,0)" xlink:href="#ag"/><use transform="matrix(0.05,0,0,0.05,65.85,0)" xlink:href="#aM"/><use transform="matrix(0.05,0,0,0.05,74.85,0)" xlink:href="#ab"/></g><path d="M26 75v-336h71v23H56V52h41v23H26" id="aX"/><path d="M190 0L58-211 59 0H30v-248h39L202-35l-2-213h31V0h-41" id="aY"/><g id="W"><use transform="matrix(0.05,0,0,0.05,0,0)" xlink:href="#aX"/><use transform="matrix(0.05,0,0,0.05,5,0)" xlink:href="#aY"/><use transform="matrix(0.05,0,0,0.05,17.950000000000003,0)" xlink:href="#aw"/><use transform="matrix(0.05,0,0,0.05,27.950000000000003,0)" xlink:href="#ah"/></g><path d="M137 0h-34L2-248h35l83 218 83-218h36" id="aZ"/><path d="M3 75V52h41v-290H3v-23h71V75H3" id="ba"/><g id="X"><use transform="matrix(0.05,0,0,0.05,0,0)" xlink:href="#aZ"/><use transform="matrix(0.05,0,0,0.05,10.65,0)" xlink:href="#aj"/><use transform="matrix(0.05,0,0,0.05,20.65,0)" xlink:href="#ay"/><use transform="matrix(0.05,0,0,0.05,24.599999999999998,0)" xlink:href="#ag"/><use transform="matrix(0.05,0,0,0.05,28.549999999999997,0)" xlink:href="#aK"/><use transform="matrix(0.05,0,0,0.05,38.55,0)" xlink:href="#ba"/></g><g id="Y"><use transform="matrix(0.05,0,0,0.05,0,0)" xlink:href="#aX"/><use transform="matrix(0.05,0,0,0.05,5,0)" xlink:href="#aZ"/><use transform="matrix(0.05,0,0,0.05,15.65,0)" xlink:href="#aj"/><use transform="matrix(0.05,0,0,0.05,25.649999999999995,0)" xlink:href="#ay"/><use transform="matrix(0.05,0,0,0.05,29.599999999999994,0)" xlink:href="#ag"/><use transform="matrix(0.05,0,0,0.05,33.55,0)" xlink:href="#aK"/><use transform="matrix(0.05,0,0,0.05,43.55,0)" xlink:href="#ba"/></g></defs></g></svg>