<svg xmlns="http://www.w3.org/2000/svg" xmlns:xlink="http://www.w3.org/1999/xlink" xmlns:lucid="lucid" width="2580" height="2571.6"><g transform="translate(-160 1140.6)" lucid:page-tab-id="fM25cyVS3K2J"><path d="M0-1259.2h3676.8v3841.6H0z" fill="#fff"/><path d="M339.75-920.25c0 10.9-8.84 19.75-19.75 19.75-10.9 0-19.75-8.84-19.75-19.75 0-10.9 8.84-19.75 19.75-19.75 10.9 0 19.75 8.84 19.75 19.75z" stroke="#000" stroke-width="2" fill="#fff"/><path d="M320-900.5v55.3l40 63.2m-40-63.2L280-782m0-98.75h80" stroke="#000" stroke-width="2" fill="none"/><path d="M280-940h80v180h-80z" fill="none"/><use xlink:href="#a" transform="matrix(1,0,0,1,200,-782) translate(101.05 14.6)"/><path d="M680-818v4m0 8.03v8.02m0 8v8.03m0 8.02v8.02m0 8.02v8.02m0 8v8.03m0 8v8.03m0 8.02v8.02m0 8v8.03m0 8.02v8.02m0 8.02v8m0 8.03v8m0 8.03v8.02m0 8.02v8m0 8.03v8.02m0 8.02v8.02m0 8.02v8m0 8.03v8.03m0 8.02v8.02m0 8v8.03m0 8.02v8.02m0 8.02v8.02m0 8v8.03m0 8.03v8.02m0 8.02v8.02m0 8v8.02m0 8.02v8.02m0 8.02v8.02m0 8v8.03m0 8.02v8.02m0 8.02v8m0 8.02v8.02m0 8.02v8.02m0 8.02v8m0 8.03v8.02m0 8.02v8.02m0 8v8.02m0 8.02v8.02m0 8.02v8.02m0 8v8.03m0 8.02v8.02m0 8.02v8m0 8.02v8.02m0 8.02v8.02m0 8.02v8.02m0 8v8.03m0 8.02v8.02m0 8v8.02m0 8.02v8.02m0 8.02v8.02m0 8.02v8m0 8.03v8.02m0 8.02v8m0 8.03v8m0 8.03v8.02m0 8.02v8.02m0 8.02v8m0 8.03v8.02m0 8v8.03m0 8v8.03m0 8.02v8.02m0 8.02v8.02m0 8v8.03m0 8.02v8m0 8.03v8.02m0 8v8.03m0 8.02v8.02m0 8.02v8m0 8.03v8.02m0 8v8.03m0 8.02v8m0 8.03v8.02m0 8.02v8.02m0 8.02v8m0 8.03v8m0 8.03v8.02m0 8v8.03m0 8.02v8.02m0 8.02v8.02m0 8v8.03m0 8v8.03m0 8.02v8.02m0 8V501m0 8.02v8.02m0 8.02v8.02m0 8v8.03m0 8.03v8.02m0 8.02v8m0 8.03v8.02m0 8.02v8.02m0 8.02v8m0 8.03v8.03m0 8.02v8.02m0 8.02v8m0 8.02v8.02m0 8.02v8.02m0 8v8.03m0 8.03v8.02m0 8.02v8.02m0 8v8.02m0 8.02v8.02m0 8.02v8.02m0 8v8.03m0 8.02v8.02m0 8.02v8m0 8.02v8.02m0 8.02v8.02m0 8.02v8m0 8.03v8.02m0 8.02V934m0 8v8.02m0 8.02v8.02m0 8.02v8.02m0 8.02v8m0 8.03v8.02m0 8.02v8m0 8.02v8.02m0 8.02v8.02m0 8.02v8.02m0 8v8.03m0 8.02v8.02m0 8v8.03m0 8v8.03m0 8.02v8.02m0 8.02v8m0 8.03v8.02m0 8.02v8m0 8.03v8m0 8.03v8.02m0 8.02v8.02m0 8.02v8m0 8.03v8.02m0 8v8.03m0 8v8.03m0 8.02v8.02m0 8.02v8.02m0 8v8.03m0 8.02v4" stroke="#000" stroke-width="2" fill="none"/><path d="M680-819l1-.03v1.06h-2v-1.1z"/><path d="M680 1378.97v1.03M319-843.33h-1.5v2.5m0 7.98v7.97m0 7.98v7.98m0 7.97v7.98m0 7.98v7.98m0 7.98v7.98m0 7.97v8m0 7.97v7.97m0 7.98v7.98m0 7.97v7.98m0 7.98v7.97m0 7.98v7.98m0 7.97v7.98m0 8v7.96m0 7.98v7.98m0 7.97v7.97m0 7.98v7.97m0 7.98v7.98m0 7.97v7.98m0 7.98v7.98m0 7.98v7.98m0 7.97v8m0 7.97v7.97m0 7.98v7.98m0 7.97v7.98m0 7.98v7.97m0 7.98v7.98m0 7.97v7.98m0 8v7.96m0 7.98v7.98m0 7.97v7.97m0 7.98v7.97m0 7.98v7.98m0 7.97v7.98m0 7.98v7.98m0 7.98v7.98m0 7.97v8m0 7.97v7.97m0 7.98v7.98m0 7.97v7.98m0 7.98v7.97m0 7.98v7.98m0 7.97v7.98m0 8v7.96m0 7.98v7.98m0 7.97v7.97m0 7.98v7.97m0 7.98v7.98m0 7.97v7.98m0 7.98v7.98m0 7.98v7.98m0 7.97v8m0 7.97v7.97m0 7.98V4.7m0 7.97v7.98m0 7.98v7.97m0 7.98v7.98m0 7.97v7.98m0 8v7.96m0 7.98v7.98m0 7.97v7.97m0 7.98v7.97m0 7.98v7.98m0 7.97v7.98m0 7.98v7.98m0 7.98v7.98m0 7.97v8m0 7.97v7.97m0 7.98V244m0 7.97v7.98m0 7.98v7.97m0 7.98v7.98m0 7.97v7.98m0 8v7.96m0 7.98v7.98m0 7.97v7.97m0 7.98v7.97m0 7.98v7.98m0 7.97v7.98m0 7.98v7.98m0 7.98v7.98m0 7.97v8m0 7.97v7.97m0 7.98v7.98m0 7.97v7.98m0 7.98v7.97m0 7.98v7.98m0 7.97v7.98m0 8v7.96m0 7.98v7.98m0 7.97v7.97m0 7.98v7.97m0 7.98v7.98m0 7.97v7.98m0 7.98v7.98m0 7.98v7.98m0 7.97v8m0 7.97v7.97m0 7.98v7.98m0 7.97v7.98m0 7.98v7.97m0 7.98v7.98m0 7.97v7.98m0 8v7.96m0 7.98v7.98m0 7.97v7.97m0 7.98v7.97m0 7.98v7.98m0 7.97v7.98m0 7.98v7.98m.57 7.42H320v6.05m0 7.97v7.98m0 7.98v7.97m0 7.98v7.98m0 7.98v7.98m0 7.98v7.97m0 8v7.97m0 7.97v7.98m0 7.98v7.97m0 7.98v7.98m0 7.97v7.98m0 7.98v7.97m0 7.98v4M318.97-843.33H323M320 1098.97v1.03" stroke="#000" stroke-width="2" fill="none"/><path d="M1251.5-920h180v120h-180z" stroke="#000" stroke-width="2" fill="#fff"/><use xlink:href="#b" transform="matrix(1,0,0,1,1251.4889389925952,-920.0009999999999) translate(29.179999999999986 63.15)"/><use xlink:href="#c" transform="matrix(1,0,0,1,1251.4889389925952,-920.0009999999999) translate(39.179999999999986 63.15)"/><path d="M1341.5-798v4m0 8.03v8m0 8.03v8.02m0 8.02v8.02m0 8.02v8m0 8.03v8.02m0 8v8.03m0 8.02v8m0 8.03v8.02m0 8.02v8.02m0 8v8.03m0 8.02v8m0 8.03v8.02m0 8v8.03m0 8.02v8.02m0 8.02v8.02m0 8v8.03m0 8v8.03m0 8.02v8.02m0 8v8.03m0 8.02v8.02m0 8.02v8m0 8.03v8m0 8.03v8.02m0 8.02v8m0 8.03v8.02m0 8.02v8.02m0 8.02v8m0 8.03v8.03m0 8.02v8.02m0 8v8.03m0 8.02v8.02m0 8.02v8.02m0 8v8.03m0 8.03v8.02m0 8.02v8.02m0 8v8.02m0 8.02v8.02m0 8.02v8.02m0 8v8.03m0 8.02v8.02m0 8.02v8m0 8.02v8.02m0 8.02v8.02m0 8.02v8m0 8.03v8.02m0 8.02v8.02m0 8v8.02m0 8.02v8.02m0 8.02v8.02m0 8.02v8m0 8.03v8.02m0 8.02v8m0 8.02v8.02m0 8.02v8.02m0 8.02v8.02m0 8v8.03m0 8.02v8.02m0 8v8.03m0 8v8.03m0 8.02v8.02m0 8.02v8m0 8.03v8.02m0 8.02v8m0 8.03v8m0 8.03v8.02m0 8.02v8.02m0 8.02v8m0 8.03v8.02m0 8v8.03m0 8.02v8m0 8.03v8.02m0 8.02v8.02m0 8v8.03m0 8.02v8m0 8.03v8.02m0 8v8.03m0 8.02v8.02m0 8.02v8.02m0 8v8.03m0 8v8.03m0 8.02v8m0 8.03V521m0 8.02v8.02m0 8.02v8m0 8.03v8m0 8.03v8.02m0 8.02v8m0 8.03v8.02m0 8.02v8.02m0 8.02v8m0 8.03v8.03m0 8.02v8.02m0 8v8.03m0 8.02v8.02m0 8.02v8.02m0 8v8.03m0 8.03v8.02m0 8.02v8.02m0 8v8.02m0 8.02v8.02m0 8.02v8m0 8.03v8.03m0 8.02v8.02m0 8.02v8m0 8.02v8.02m0 8.02v8.02m0 8.02v8m0 8.03v8.02m0 8.02V954m0 8v8.02m0 8.02v8.02m0 8.02v8.02m0 8v8.03m0 8.02v8.02m0 8.02v8m0 8.02v8.02m0 8.02v8.02m0 8.02v8.02m0 8v8.03m0 8.02v8.02m0 8v8.03m0 8v8.03m0 8.02v8.02m0 8.02v8m0 8.03v8.02m0 8.02v8m0 8.03v8m0 8.03v8.02m0 8.02v8.02m0 8.02v8m0 8.03v8.02m0 8v8.03m0 8v8.03m0 8.02v8.02m0 8.02v8.02m0 8v8.03m0 8.02v4" stroke="#000" stroke-width="2" fill="none"/><path d="M1342.5-797.98h-2V-799h2z"/><path d="M1341.5 1398.97v1.03M1319.5-556.87h-4.08m-8.14 0h-8.14m-8.14 0h-8.13m-8.14 0h-8.14m-8.15 0h-8.14m-8.13 0h-8.14m-8.14 0h-8.14m-8.14 0h-8.14m-8.14 0h-8.14m-8.14 0h-8.14m-8.13 0h-8.15m-8.14 0h-8.13m-8.14 0h-8.14m-8.15 0h-8.13m-8.14 0h-8.14m-8.14 0h-8.14m-8.14 0h-8.14m-8.13 0h-8.14m-8.13 0h-8.14m-8.14 0h-8.15m-8.14 0h-8.12m-8.14 0h-8.14m-8.14 0h-8.14m-8.14 0h-8.14m-8.14 0h-4.06" stroke="#000" stroke-width="2" fill="none"/><path d="M1320.5-555.87h-1.04v-2h1.03z"/><path d="M913.57-556.86l14.27-4.64v9.27z" stroke="#000" stroke-width="2"/><use xlink:href="#d" transform="matrix(1,0,0,1,1033.9917700323174,-552.8657691098251) translate(0 14.4)"/><use xlink:href="#e" transform="matrix(1,0,0,1,1033.9917700323174,-552.8657691098251) translate(111.05 14.4)"/><path d="M318.5-711.52h322M318.54-711.52h-1.03" stroke="#000" stroke-width="2" fill="none"/><path d="M655.76-711.52l-14.26 4.63v-9.26z" stroke="#000" stroke-width="2"/><use xlink:href="#f" transform="matrix(1,0,0,1,336.0700950974895,-737.1249555029519) translate(0 14.4)"/><use xlink:href="#g" transform="matrix(1,0,0,1,336.0700950974895,-737.1249555029519) translate(26.900000000000002 14.4)"/><use xlink:href="#h" transform="matrix(1,0,0,1,336.0700950974895,-737.1249555029519) translate(76.85000000000001 14.4)"/><path d="M300-1120.6h2300v101.2H300z" stroke="#000" stroke-opacity="0" stroke-width="2" fill="#fff" fill-opacity="0"/><use xlink:href="#i" transform="matrix(1,0,0,1,305,-1115.6) translate(1055.3305555555555 53.399999999999984)"/><use xlink:href="#j" transform="matrix(1,0,0,1,305,-1115.6) translate(1173.447222222222 53.399999999999984)"/><path d="M1836-920h180v120h-180z" stroke="#000" stroke-width="2" fill="#fff"/><use xlink:href="#b" transform="matrix(1,0,0,1,1836.0000000000002,-919.9999999999999) translate(6.15500000000001 63.15)"/><use xlink:href="#k" transform="matrix(1,0,0,1,1836.0000000000002,-919.9999999999999) translate(16.15500000000001 63.15)"/><path d="M1926-798v4m0 7.97v7.98m0 8v7.97m0 7.98v7.98m0 7.98v8m0 7.97v7.98m0 8v7.97m0 8v7.97m0 7.98v7.98m0 7.98v7.98m0 8v7.97m0 7.98v8m0 7.97v8m0 7.97v7.98m0 7.98v7.98m0 8v7.97m0 7.98v7.98m0 8v7.97m0 8v7.97m0 7.98v7.98m0 7.98v8m0 7.97v7.98m0 7.98v8m0 7.98v7.98m0 7.98v7.98m0 7.98v8m0 7.97v7.98m0 7.98v7.98m0 8v7.98m0 7.98v7.98m0 7.98v7.98m0 8v7.97m0 7.98v7.98m0 7.98v8m0 7.98v7.98m0 7.98v7.98m0 7.98v8m0 7.97v7.98m0 7.98v7.98m0 8v7.98m0 7.98v7.98m0 7.98v8m0 7.97v7.97m0 7.98v7.98m0 7.98v8m0 7.98v7.98m0 7.98v7.98m0 8v7.97m0 7.97v7.98m0 7.98v8m0 7.97v7.98m0 7.98v7.98m0 7.98v8m0 7.97v7.97m0 7.98v7.98m0 8V84m0 7.98v7.98m0 7.98v8m0 7.97v8m0 7.97v7.98m0 8v7.97m0 7.98v7.98m0 7.98v7.98m0 8v7.97m0 8v7.97m0 7.98v8m0 7.97v7.98m0 7.98v7.98m0 8v7.97m0 7.98v1h-6v1m0 7.97v7.98m0 8v7.97m0 7.98v7.98m0 7.98v8m0 7.97v7.98m0 8v7.97m0 8v7.97m0 7.98v7.98m0 7.98v7.98m0 8v7.97m0 7.98v8m0 7.97v8m0 7.97v7.98m0 7.98v7.98m0 8v7.97m0 7.98v7.98m0 8v7.97m0 8v7.97m0 7.98v7.98m0 7.98v8m0 7.97v7.98m0 7.98v8m0 7.98v7.98m0 7.98v7.98m0 7.98v8m0 7.97v7.98m0 7.98v7.98m0 8v7.98m0 7.98v7.98m0 7.98v7.98m0 8v7.97m0 7.98v7.98m0 7.98v8m0 7.98v7.98m0 7.98v7.98m0 7.98v8m0 7.97v7.98m0 7.98v7.98m0 8v7.98m0 7.98v7.98m0 7.98v8m0 7.97v7.97m0 7.98v7.98m0 7.98v8m0 7.98v7.98m0 7.98v7.98m0 8v7.97m0 7.97v7.98m0 7.98v8m0 7.97v7.98m0 7.98v7.98m0 7.98v8m0 7.97v7.97m0 7.98v7.98m0 8v7.97m0 7.98v7.98m0 7.98v8m0 7.97v8m0 7.97v7.98m0 8v7.97m0 7.98v7.98m0 7.98v7.98m0 8v7.97m0 8v7.97m0 7.98v8m0 7.97v7.98m0 7.98v7.98m0 8v7.97m0 7.98v4" stroke="#000" stroke-width="2" fill="none"/><path d="M1927-797.97h-2V-799h2z"/><path d="M1920 1398.97v1.03" stroke="#000" stroke-width="2" fill="none"/><path d="M720-860c0 22.1-17.9 40-40 40s-40-17.9-40-40 17.9-40 40-40 40 17.9 40 40z" stroke="#000" stroke-width="2" fill="#fff"/><path d="M620-900v80m0-40h20" stroke="#000" stroke-width="2" fill="none"/><use xlink:href="#l" transform="matrix(1,0,0,1,600,-820) translate(29.049999999999997 14.4)"/><use xlink:href="#m" transform="matrix(1,0,0,1,600,-820) translate(88.95 14.4)"/><path d="M938.67-861.33c0 22.82-17.6 41.33-39.34 41.33-21.72 0-39.33-18.5-39.33-41.33s17.6-41.34 39.33-41.34c21.73 0 39.34 18.5 39.34 41.34z" stroke="#000" stroke-width="2" fill="#fff"/><path d="M840-902.67V-820m0-41.33h20" stroke="#000" stroke-width="2" fill="none"/><use xlink:href="#n" transform="matrix(1,0,0,1,820,-820) translate(39.05 14.4)"/><use xlink:href="#m" transform="matrix(1,0,0,1,820,-820) translate(77.95 14.4)"/><path d="M1906-380h40v1540h-40z" stroke="#000" stroke-width="2" fill="#fff"/><path d="M1381-660h234" stroke="#000" stroke-width="2" fill="none"/><path d="M1381.03-659H1380v-2h1.03z"/><path d="M1630.26-660l-14.26 4.63v-9.27z" stroke="#000" stroke-width="2"/><use xlink:href="#o" transform="matrix(1,0,0,1,1418,-685.6009999999611) translate(0 14.4)"/><path d="M1654.5-817.33c-27.6 0-50-23-50-51.34 0-28.35 22.4-51.33 50-51.33s50 22.98 50 51.33c0 28.35-22.4 51.34-50 51.34z" stroke="#000" stroke-width="2" fill="#fff"/><path d="M1604.5-817.33h100" stroke="#000" stroke-width="2" fill="none"/><use xlink:href="#p" transform="matrix(1,0,0,1,1564.5,-817.333333333372) translate(17.599999999999994 12.799999999999999)"/><use xlink:href="#q" transform="matrix(1,0,0,1,1564.5,-817.333333333372) translate(100.45 12.799999999999999)"/><path d="M1654.5-815.33v4m0 7.97v7.98m0 7.98v7.98m0 7.98v7.98m0 7.97v8m0 7.97v7.98m0 7.98v7.98m0 8v7.97m0 7.98v7.98m0 7.98v8m0 7.97v7.98m0 7.98v7.98m0 8v7.97m0 7.98v7.98m0 7.98v8m0 7.97v7.98m0 7.98v7.98m0 8v7.97m0 7.98v7.98m0 7.98v8m0 7.97v7.98m0 7.98v7.98m0 8v7.97m0 7.98v7.98m0 7.98v8m0 7.96v7.98m0 7.98v7.98m0 7.98v7.98m0 7.98v7.98m0 7.98v7.98m0 7.98v7.98m0 7.98v7.98m0 7.98v7.98m0 7.98v7.98m0 7.98v7.98m0 7.98v7.98m0 7.98v7.98m0 7.98v7.98m0 7.98v7.98m0 7.98v7.98m0 7.98v7.98m0 7.98v7.98m0 7.98v7.98m0 7.98v7.98m0 7.98v7.98m0 7.98v7.98m0 7.97v8m0 7.97v7.98m0 7.98v7.98m0 8v7.97m0 7.98v7.98m0 7.98v8m0 7.97v7.98m0 7.98v7.98m0 8v7.97m0 7.98v7.98m0 7.98v8m0 7.97v7.98m0 7.98v7.98m0 8v7.97m0 7.98v7.98m0 7.98v8m0 7.97v7.98m0 7.98v7.98m0 8v7.97m0 7.98v7.98m0 7.98v8m0 7.96v7.98m0 7.98v7.98m0 7.98v7.98m0 7.98v7.98m0 7.98v7.98m0 7.98v7.98m0 7.98v7.98m0 7.98v7.98m0 7.98v7.98m0 7.98v7.98m0 7.98v7.98m0 7.98v7.98m0 7.98v7.98m0 7.98v7.98m0 7.98v7.98m0 7.98v7.98m0 7.98v7.98m0 7.98v7.98m0 7.98v7.98m0 7.98v7.98m0 7.98v7.98m0 7.97v8m0 7.97v7.98m0 7.98V625m0 8v7.97m0 7.98v7.98m0 7.98v8m0 7.97v7.98m0 7.98v7.98m0 8v7.97m0 7.98v7.98m0 7.98v8m0 7.97v7.98m0 7.98v7.98m0 8v7.97m0 7.98v7.98m0 7.98v8m0 7.97v7.98m0 7.98v7.98m0 8v7.97m0 7.98v7.98m0 7.98v8m0 7.96v7.98m0 7.98v7.98m0 7.98v7.98m0 7.98v7.98m0 7.98v7.98m0 7.98v7.98m0 7.98v7.98m0 7.98v7.98m0 7.98v7.98m0 7.98v7.98m0 7.98v7.98m0 7.98v7.98m0 7.98v7.98m0 7.98v7.98m0 7.98v7.98m0 7.98v7.98m0 7.98v7.98m0 7.98v7.98m0 7.98v7.98m0 7.98v7.98m0 7.98v7.98m0 7.97v8m0 7.97v7.98m0 7.98v7.98m0 8v7.97m0 7.98v7.98m0 7.98v8m0 7.97v7.98m0 7.98v7.98m0 8v7.97m0 7.98v7.98m0 7.98v4" stroke="#000" stroke-width="2" fill="none"/><path d="M1654.48-816.33h1.02v1.02h-2v-1.03z"/><path d="M1654.5 1418.97v1.03" stroke="#000" stroke-width="2" fill="none"/><path d="M1634.5-682.67h40V-560h-40z" stroke="#000" stroke-width="2" fill="#fff"/><path d="M1632.5-601.33h-3.9m-7.8 0h-7.8m-7.8 0h-7.8m-7.8 0h-7.8m-7.8 0h-7.8m-7.8 0h-7.8m-7.8 0h-7.8m-7.8 0h-7.8m-7.8 0h-7.8m-7.8 0h-7.8m-7.8 0h-7.8m-7.8 0h-7.8m-7.8 0h-7.8m-7.8 0h-7.8m-7.8 0h-7.8m-7.8 0h-3.9" stroke="#000" stroke-width="2" fill="none"/><path d="M1633.5-600.33h-1.03v-2h1.03z"/><path d="M1383.24-601.33l14.26-4.64v9.27z" stroke="#000" stroke-width="2"/><use xlink:href="#r" transform="matrix(1,0,0,1,1456.0526143790846,-597.3343333333333) translate(0 14.4)"/><path d="M658-614.67h-4m-7.98 0h-8m-7.98 0h-7.98m-8 0h-7.98m-8 0h-7.97m-7.98 0h-8m-7.98 0h-7.98m-8 0h-7.98m-8 0h-7.97m-7.98 0h-8m-7.98 0h-7.98m-8 0h-7.98m-7.98 0h-8m-7.98 0h-8m-7.97 0h-8m-7.98 0h-8m-7.97 0h-8m-7.98 0h-8m-7.97 0h-8m-7.98 0h-8m-7.97 0h-4M657.97-614.67H659" stroke="#000" stroke-width="2" fill="none"/><path d="M323.24-614.67l14.26-4.63v9.27z" stroke="#000" stroke-width="2"/><use xlink:href="#s" transform="matrix(1,0,0,1,460.0749598551112,-610.6666732425562) translate(0 14.4)"/><path d="M660-740h40v160h-40z" stroke="#000" stroke-width="2" fill="#fff"/><path d="M702-672.48H1302" stroke="#000" stroke-width="2" fill="none"/><path d="M702.03-671.48H701v-2h1.03z"/><path d="M1317.25-672.48l-14.26 4.63v-9.27z" stroke="#000" stroke-width="2"/><use xlink:href="#t" transform="matrix(1,0,0,1,712.6249999999989,-698.0817431705088) translate(0 14.4)"/><path d="M867.33-511.4h-4.02m-8.04 0h-8.05m-8.04 0h-8.05m-8.04 0H815m-8.04 0h-8.05m-8.04 0h-8.05m-8.05 0h-8.05m-8.05 0h-8.05m-8.05 0h-8.05m-8.05 0h-8.05m-8.05 0h-8.05m-8.05 0h-8.05m-8.05 0h-8.05m-8.05 0H654m-8.05 0h-8.05m-8.05 0h-8.05m-8.05 0h-8.05m-8.05 0h-8.05m-8.05 0h-8.05m-8.05 0h-8.05m-8.05 0h-8.05m-8.05 0h-8.05m-8.05 0h-8.05m-8.06 0H493m-8.06 0h-8.05m-8.06 0h-8.05m-8.06 0h-8.05m-8.06 0h-8.05m-8.06 0h-8.05m-8.06 0h-8.05m-8.06 0h-8.05m-8.06 0h-8.05m-8.06 0h-8.05m-8.06 0H336" stroke="#000" stroke-width="2" fill="none"/><path d="M868.33-510.4h-1.02v-2h1.03z"/><path d="M320.75-511.4l14.26-4.64v9.27z" stroke="#000" stroke-width="2"/><use xlink:href="#s" transform="matrix(1,0,0,1,756.3714102402953,-507.40852289793247) translate(0 14.4)"/><path d="M1321.5-720h40v200h-40z" stroke="#000" stroke-width="2" fill="#fff"/><path d="M1339-680h40v120h-40z" stroke="#000" stroke-width="2" fill="#fff"/><path d="M318.5-405.87H849.83M318.54-405.87h-1.03" stroke="#000" stroke-width="2" fill="none"/><path d="M865.1-405.87l-14.27 4.64v-9.27z" stroke="#000" stroke-width="2"/><use xlink:href="#f" transform="matrix(1,0,0,1,322.7416666666665,-431.46666666666715) translate(0 14.4)"/><use xlink:href="#u" transform="matrix(1,0,0,1,322.7416666666665,-431.46666666666715) translate(26.900000000000002 14.4)"/><use xlink:href="#v" transform="matrix(1,0,0,1,322.7416666666665,-431.46666666666715) translate(107.85000000000001 14.4)"/><path d="M911.33-361.87h975.17" stroke="#000" stroke-width="2" fill="none"/><path d="M911.36-360.87h-1.03v-2h1.03z"/><path d="M1901.76-361.87l-14.26 4.64v-9.27z" stroke="#000" stroke-width="2"/><use xlink:href="#w" transform="matrix(1,0,0,1,915.8273965538158,-387.46666666666727) translate(0 14.4)"/><path d="M2266-808.67c-27.6 0-50-22.98-50-51.33 0-28.35 22.4-51.33 50-51.33s50 22.98 50 51.33c0 28.35-22.4 51.33-50 51.33z" stroke="#000" stroke-width="2" fill="#fff"/><path d="M2216-808.67h100" stroke="#000" stroke-width="2" fill="none"/><use xlink:href="#x" transform="matrix(1,0,0,1,2176,-808.6666666666861) translate(37.574999999999996 12.799999999999999)"/><use xlink:href="#q" transform="matrix(1,0,0,1,2176,-808.6666666666861) translate(80.475 12.799999999999999)"/><path d="M2266-806.67v4m0 8v8.02m0 8v8m0 8.02v8m0 8v8.02m0 8v8m0 8v8m0 8.02v8m0 8v8.02m0 8v8m0 8v8.02m0 8v8m0 8.02v8m0 8v8.02m0 8v8m0 8.02v8m0 8v8.02m0 8v8m0 8v8.02m0 8v8m0 8.02v8m0 8v8.02m0 8v8m0 8.02v8m0 8v8m0 8.02v8m0 8v8.02m0 8v8m0 8.02v8m0 8v8.02m0 8v8m0 8.02v8m0 8v8m0 8.02v8m0 8v8.02m0 8v8m0 8.02v8m0 8v8.02m0 8v8m0 8.02v8m0 8v8m0 8.02v8m0 8v8.02m0 8v8m0 8.02v8m0 8v8.02m0 8v8m0 8v8.02m0 8v8m0 8.02v8m0 8v8.02m0 8v8m0 8.02v8m0 8V46m0 8v8m0 8v8.02m0 8v8m0 8.02v8m0 8v8.02m0 8v8m0 8.02v8m0 8v8.02m0 8v8m0 8v8.02m0 8v8m0 8.02v8m0 8v8.02m0 8v8m0 8.02v8m0 8v8m0 8.02v8m0 8v8.02m0 8v8m0 8.02v8m0 8v8.02m0 8v8m0 8.02v8m0 8v8m0 8.02v8m0 8v8.02m0 8v8m0 8.02v8m0 8v8.02m0 8v8m0 8.02v8m0 8v8m0 8.02v8m0 8v8.02m0 8v8m0 8.02v8m0 8v8.02m0 8v8m0 8v8.02m0 8v8m0 8.02v8m0 8v8.02m0 8v8m0 8.02v8m0 8v8.02m0 8v8m0 8v8.02m0 8v8m0 8.02v8m0 8v8.02m0 8v8m0 8.02v8m0 8v8m0 8.02v8m0 8v8.02m0 8v8m0 8.02v8m0 8v8.02m0 8v8m0 8.02v8m0 8v8m0 8.02v8m0 8v8.02m0 8v8m0 8.02v8m0 8v8.02m0 8v8m0 8.02v8m0 8v8m0 8.02v8m0 8v8.02m0 8v8m0 8.02v8m0 8v8.02m0 8v8m0 8v8.02m0 8v8m0 8.02v8m0 8v8.02m0 8v8m0 8.02v4" stroke="#000" stroke-width="2" fill="none"/><path d="M2265.98-807.67h1.02v1.03h-2v-1.03z"/><path d="M2266 1338.97v1.03M1961-317.33h265.5" stroke="#000" stroke-width="2" fill="none"/><path d="M1961.03-316.33H1960v-2h1.03z"/><path d="M2241.76-317.33l-14.26 4.63v-9.27z" stroke="#000" stroke-width="2"/><use xlink:href="#y" transform="matrix(1,0,0,1,2026.625,-342.9333333333334) translate(0 14.4)"/><path d="M2246-340h40v122.67h-40z" stroke="#000" stroke-width="2" fill="#fff"/><path d="M2244-258.67h-3.9m-7.8 0h-7.82m-7.8 0h-7.82m-7.8 0h-7.82m-7.8 0h-7.8m-7.82 0h-7.8m-7.82 0h-7.8m-7.82 0h-7.8m-7.82 0h-7.8m-7.8 0h-7.82m-7.8 0h-7.82m-7.8 0h-7.82m-7.8 0h-7.8m-7.82 0h-7.8m-7.82 0h-7.8m-7.82 0h-7.8m-7.82 0h-7.8m-7.8 0h-3.92" stroke="#000" stroke-width="2" fill="none"/><path d="M2245-257.67h-1.03v-2h1.03z"/><path d="M1963.24-258.67l14.26-4.63v9.27z" stroke="#000" stroke-width="2"/><use xlink:href="#z" transform="matrix(1,0,0,1,2148.6916666666652,-254.66666666670562) translate(0 14.4)"/><path d="M1919-337.33h40v120h-40z" stroke="#000" stroke-width="2" fill="#fff"/><path d="M889.33-819.35v4m0 7.97v7.98m0 7.98v7.98m0 7.98v7.98m0 7.98v7.98m0 7.98v7.98m0 7.98v7.98m0 7.98v7.98m0 7.98v7.98m0 7.97v7.97m0 7.98v7.98m0 7.98v8m0 7.97v7.98m0 7.98v7.98m0 8v7.97m0 7.98v7.98m0 7.98v8m0 7.97v7.98m0 7.98v7.98m0 8v7.97m0 7.98v7.98m0 7.98v8m0 7.97v7.98m0 7.98v7.98m0 7.98v7.98m0 7.98v7.98m0 7.98v7.98m0 7.98v7.98m0 7.98v7.98m0 7.98v7.98m0 7.98v7.98m0 7.98v7.98m0 7.98v7.98m0 7.98v7.98m0 7.98v7.98m0 7.98v7.98m0 7.98v7.98m0 7.98v7.98m0 7.98v7.98m0 7.98v7.97m0 7.98v7.98m0 8v7.97m0 7.98v7.98m0 7.98v8m0 7.97v7.98m0 7.98v7.98m0 8v7.97m0 7.98v7.98m0 7.98v8m0 7.97v7.98m0 7.98v7.98m0 8v7.97m0 7.98v7.98m0 7.98v8m0 7.97v7.98m0 7.97v7.98m0 7.98v7.98m0 7.98v7.98m0 7.98v7.98m0 7.98v7.98m0 7.98v7.98m0 7.98v7.98m0 7.98v7.98m0 7.98v7.98m0 7.98v7.98m0 7.98V222m0 7.98v7.98m0 7.98v7.98m0 7.98v7.98m0 7.98v7.98m0 7.98v7.97m0 7.97v7.98m0 7.98v7.98m0 8v7.97m0 7.98v7.98m0 7.98v8m0 7.97v7.98m0 7.98v7.98m0 8v7.97m0 7.98v7.98m0 7.98v8m0 7.97v7.98m0 7.98v7.98m0 8v7.97m0 7.98v7.98m0 7.98v7.98m0 7.98v7.98m0 7.98v7.98m0 7.98v7.98m0 7.98v7.98m0 7.98v7.98m0 7.98v7.98m0 7.98v7.98m0 7.98v7.98m0 7.98v7.98m0 7.98v7.98m0 7.98v7.98m0 7.98v7.98m0 7.98v7.98m0 7.98v7.98m0 7.98v7.98m0 7.97v7.98m0 7.98v8m0 7.97v7.98m0 7.98v7.98m0 8v7.97m0 7.98v7.98m0 7.98v8m0 7.97v7.98m0 7.98v7.98m0 8v7.97m0 7.98v7.98m0 7.98v8m0 7.97v7.98m0 7.98v7.98m0 8v7.97m0 7.98v7.97m0 7.98v7.98m0 7.98v7.98m0 7.98v7.98m0 7.98v7.98m0 7.98v7.98m0 7.98v7.98m0 7.98v7.98m0 7.98v7.98m0 7.98v7.98m0 7.98v7.98m0 7.98v7.98m0 7.98v7.98m0 7.98v7.98m0 7.98v7.98m0 7.98v7.98m0 7.97v7.97m0 7.98v7.98m0 7.98v8m0 7.97v7.98m0 7.98v7.98m0 8v7.97m0 7.98v7.98m0 7.98v4" stroke="#000" stroke-width="2" fill="none"/><path d="M890.07-820.12l.26.05v.75h-2v-1.34z"/><path d="M889.33 1398.97v1.03" stroke="#000" stroke-width="2" fill="none"/><path d="M869.33-600h40v280h-40zM1144.4-861.33c0 22.82-17.6 41.33-39.32 41.33-21.73 0-39.34-18.5-39.34-41.33s17.6-41.34 39.34-41.34c21.72 0 39.33 18.5 39.33 41.34z" stroke="#000" stroke-width="2" fill="#fff"/><path d="M1045.74-902.67V-820m0-41.33h20" stroke="#000" stroke-width="2" fill="none"/><use xlink:href="#A" transform="matrix(1,0,0,1,1025.7444694962974,-820) translate(37.025 14.4)"/><use xlink:href="#B" transform="matrix(1,0,0,1,1025.7444694962974,-820) translate(92.975 14.4)"/><path d="M1095.08-819.35v4m0 8v8m0 8v8m0 8v7.98m0 8v8m0 8v8m0 8v8m0 8v7.98m0 8v8m0 8v8m0 8v8m0 8v8m0 8v8m0 7.98v8m0 8v8m0 8v8m0 8v8m0 7.98v8m0 8v8m0 8v8m0 8v7.98m0 8v8m0 8v8m0 8v8m0 8v7.98m0 8v8m0 8v8m0 8v8m0 7.98v8m0 8v8m0 8v8m0 8v8m0 7.98v8m0 8v8m0 8v8m0 8v8m0 7.98v8m0 8v8m0 8v8m0 8v7.98m0 8v8m0 8v8m0 8v8m0 8v7.98m0 8v8m0 8v8m0 8v8m0 8v7.98m0 8v8m0 8v8m0 8v8m0 7.98v8m0 8v8m0 8v8m0 8v8m0 7.98v8m0 8v8m0 8v8m0 8v8m0 7.98v8m0 8v8m0 8v8m0 8v7.98m0 8v8m0 8v8m0 8v8m0 8v7.98m0 8v8m0 8v8m0 8v8m4.92 3.06v8m0 8v8m0 8v8m0 8v7.98m0 8v8m0 8v8m0 8v8m0 8v7.98m0 8v8m0 8v8m0 8v8m0 8v7.98m0 8v8m0 8v8m0 8v8m0 7.98v8m0 8v8m0 8v8m0 8v8m0 7.98v8m0 8v8m0 8v8m0 8v8m0 7.98v8m0 8v8m0 8v8m0 8v7.98m0 8v8m0 8v8m0 8v8m0 8v7.98m0 8v8m0 8v8m0 8v8m0 7.98v8m0 8v8m0 8v8m0 8v8m0 7.98v8m0 8v8m0 8v8m0 8v8m0 7.98v8m0 8v8m0 8v8m0 8v7.98m0 8v8m0 8v8m0 8v8m0 8v7.98m0 8v8m0 8v8m0 8v8m0 8v7.98m0 8v8m0 8v8m0 8v8m0 7.98v8m0 8v8m0 8v8m0 8v8m0 7.98v8m0 8v8m0 8v8m0 8v7.98m0 8v8m0 8v8m0 8v8m0 8v7.98m0 8v4" stroke="#000" stroke-width="2" fill="none"/><path d="M1095.8-820.12l.28.05v.75h-2v-1.34z"/><path d="M1100 1398.97v1.03" stroke="#000" stroke-width="2" fill="none"/><path d="M1075.08-280h40v1440h-40z" stroke="#000" stroke-width="2" fill="#fff"/><path d="M1904-137.87h-769.42" stroke="#000" stroke-width="2" fill="none"/><path d="M1905-136.87h-1.03v-2h1.03z"/><path d="M1119.3-137.87l14.28-4.63v9.27z" stroke="#000" stroke-width="2"/><use xlink:href="#C" transform="matrix(1,0,0,1,1600.499999999999,-163.46666666666675) translate(0 14.4)"/><use xlink:href="#D" transform="matrix(1,0,0,1,1600.499999999999,-163.46666666666675) translate(144.1 14.4)"/><path d="M1073.08-101.87h-4m-8.02 0h-8m-8.02 0h-8m-8.03 0h-8m-8 0h-8.02m-8 0h-8.02m-8.02 0h-8m-8.02 0h-8m-8.02 0h-8m-8.02 0h-8.02m-8 0h-8.02m-8 0h-8.02m-8 0h-8.03m-8.02 0h-8m-8.02 0h-8m-8.02 0h-8m-8.03 0h-8m-8 0h-8.02m-8 0h-8.02m-8.02 0h-8m-8.02 0h-8m-8.02 0h-8m-8.03 0h-8m-8.02 0h-8m-8.02 0h-8m-8.02 0h-8m-8.02 0h-8m-8.02 0h-8m-8.02 0h-8.02m-8 0h-8.02m-8 0h-8.02m-8 0h-8.02m-8.02 0h-8m-8.02 0h-8m-8.02 0h-8m-8.03 0h-8m-8.02 0h-8m-8.02 0h-8m-8.03 0h-8m-8.02 0h-8m-8.02 0h-8m-8.02 0h-8.02m-8 0h-8.02m-8 0h-8.02m-8 0h-8.03m-8 0h-8.02m-8 0H336" stroke="#000" stroke-width="2" fill="none"/><path d="M1074.08-100.87h-1.03v-2h1.03z"/><path d="M320.75-101.87L335-106.5v9.27z" stroke="#000" stroke-width="2"/><use xlink:href="#s" transform="matrix(1,0,0,1,931.286488281656,-97.86666666666724) translate(0 14.4)"/><path d="M318.5-31.2H1055.58M318.54-31.2h-1.03" stroke="#000" stroke-width="2" fill="none"/><path d="M1070.84-31.2l-14.27 4.64v-9.28z" stroke="#000" stroke-width="2"/><use xlink:href="#E" transform="matrix(1,0,0,1,333.5749999999998,-56.80000000000062) translate(0 14.4)"/><use xlink:href="#F" transform="matrix(1,0,0,1,333.5749999999998,-56.80000000000062) translate(47.95 14.4)"/><use xlink:href="#G" transform="matrix(1,0,0,1,333.5749999999998,-56.80000000000062) translate(118.9 14.4)"/><path d="M1117.08-7.2h769.42" stroke="#000" stroke-width="2" fill="none"/><path d="M1117.1-6.2h-1.02v-2h1.02z"/><path d="M1901.76-7.2l-14.26 4.64v-9.28z" stroke="#000" stroke-width="2"/><use xlink:href="#H" transform="matrix(1,0,0,1,1124.1257211735117,-32.800000000000956) translate(0 14.4)"/><path d="M1962-17.33h265.5" stroke="#000" stroke-width="2" fill="none"/><path d="M1962.03-16.33H1961v-2h1.03z"/><path d="M2242.76-17.33l-14.26 4.63v-9.27z" stroke="#000" stroke-width="2"/><use xlink:href="#I" transform="matrix(1,0,0,1,1998.675,-42.933333333333366) translate(0 14.4)"/><path d="M2247-40h40V82.67h-40z" stroke="#000" stroke-width="2" fill="#fff"/><path d="M2245 41.33h-3.9m-7.8 0h-7.82m-7.8 0h-7.82m-7.8 0h-7.82m-7.8 0h-7.8m-7.82 0h-7.8m-7.82 0h-7.8m-7.82 0h-7.8m-7.82 0h-7.8m-7.8 0h-7.82m-7.8 0h-7.82m-7.8 0h-7.82m-7.8 0h-7.8m-7.82 0h-7.8m-7.82 0h-7.8m-7.82 0h-7.8m-7.82 0h-7.8m-7.8 0h-3.92" stroke="#000" stroke-width="2" fill="none"/><path d="M2246 42.33h-1.03v-2h1.03z"/><path d="M1964.24 41.33l14.26-4.63v9.27z" stroke="#000" stroke-width="2"/><use xlink:href="#J" transform="matrix(1,0,0,1,2197.5668073839656,45.33333333329438) translate(0 14.4)"/><path d="M1920-37.33h40v120h-40z" stroke="#000" stroke-width="2" fill="#fff"/><path d="M180-180h100v20l-10 10h-90z" fill="#fff"/><path d="M280-180v20l-10 10h-90" stroke="#000" stroke-width="2" fill="none"/><path d="M180-180h2136v300H180z" stroke="#000" stroke-width="2" fill="none"/><use xlink:href="#K" transform="matrix(1,0,0,1,188,-180) translate(0 18.6)"/><use xlink:href="#L" transform="matrix(1,0,0,1,192,-142) translate(0 18.6)"/><use xlink:href="#M" transform="matrix(1,0,0,1,192,-142) translate(32.95 18.6)"/><use xlink:href="#N" transform="matrix(1,0,0,1,192,-142) translate(103.9 18.6)"/><path d="M318.5 285.15H1055.58M318.54 285.15h-1.03" stroke="#000" stroke-width="2" fill="none"/><path d="M1070.84 285.15l-14.27 4.63v-9.27z" stroke="#000" stroke-width="2"/><use xlink:href="#f" transform="matrix(1,0,0,1,374.04919477735575,259.54530797858627) translate(0 14.4)"/><use xlink:href="#O" transform="matrix(1,0,0,1,374.04919477735575,259.54530797858627) translate(26.900000000000002 14.4)"/><use xlink:href="#v" transform="matrix(1,0,0,1,374.04919477735575,259.54530797858627) translate(68.85000000000001 14.4)"/><path d="M1904 177.2h-4m-8.02 0h-8.02m-8 0h-8.03m-8 0h-8.03m-8 0h-8.03m-8 0h-8.03m-8 0h-8.02m-8.02 0h-8m-8.03 0h-8m-8.03 0h-8m-8.03 0h-8m-8.02 0h-8m-8.03 0h-8m-8.03 0h-8m-8.03 0h-8.02m-8.02 0h-8m-8.03 0h-8m-8.03 0h-8m-8.02 0h-8.02m-8 0h-8.03m-8 0h-8.03m-8 0h-8.03m-8 0h-8.03m-8 0h-8.03m-8 0h-8.02m-8 0h-8.03m-8 0h-8.03m-8 0h-8.03m-8.02 0h-8.02m-8 0h-8.02m-8.02 0h-8m-8.03 0h-8.02m-8.02 0h-8m-8.03 0h-8m-8.03 0h-8m-8.03 0h-8m-8.03 0h-8m-8.03 0h-8m-8.02 0h-8m-8.03 0h-8m-8.03 0h-8m-8.02 0h-8.02m-8 0h-8.03m-8 0h-8.03m-8 0h-8.03m-8.02 0h-8.02m-8 0h-8.03m-8 0h-8.03m-8 0h-4.02" stroke="#000" stroke-width="2" fill="none"/><path d="M1905 178.2h-1.03v-2h1.03z"/><path d="M1119.3 177.2l14.28-4.63v9.27z" stroke="#000" stroke-width="2"/><use xlink:href="#P" transform="matrix(1,0,0,1,1696.3242566779948,181.2026801647013) translate(0 14.4)"/><path d="M1073.08 225.78h-4m-8.02 0h-8m-8.02 0h-8m-8.03 0h-8m-8 0h-8.02m-8 0h-8.02m-8.02 0h-8m-8.02 0h-8m-8.02 0h-8m-8.02 0h-8.02m-8 0h-8.02m-8 0h-8.02m-8 0h-8.03m-8.02 0h-8m-8.02 0h-8m-8.02 0h-8m-8.03 0h-8m-8 0h-8.02m-8 0h-8.02m-8.02 0h-8m-8.02 0h-8m-8.02 0h-8m-8.03 0h-8m-8.02 0h-8m-8.02 0h-8m-8.02 0h-8m-8.02 0h-8m-8.02 0h-8m-8.02 0h-8.02m-8 0h-8.02m-8 0h-8.02m-8 0h-8.02m-8.02 0h-8m-8.02 0h-8m-8.02 0h-8m-8.03 0h-8m-8.02 0h-8m-8.02 0h-8m-8.03 0h-8m-8.02 0h-8m-8.02 0h-8m-8.02 0h-8.02m-8 0h-8.02m-8 0h-8.02m-8 0h-8.03m-8 0h-8.02m-8 0H336" stroke="#000" stroke-width="2" fill="none"/><path d="M1074.08 226.78h-1.03v-2h1.03z"/><path d="M320.75 225.78l14.26-4.64v9.27z" stroke="#000" stroke-width="2"/><use xlink:href="#s" transform="matrix(1,0,0,1,981.2416666666661,200.1768626809496) translate(0 14.4)"/><path d="M1117.08 317.53h769.42" stroke="#000" stroke-width="2" fill="none"/><path d="M1117.1 318.53h-1.02v-2h1.02z"/><path d="M1901.76 317.53l-14.26 4.63v-9.27z" stroke="#000" stroke-width="2"/><use xlink:href="#Q" transform="matrix(1,0,0,1,1136.574365732646,291.9280963227518) translate(0 14.4)"/><path d="M1904 382.3h-4m-8.02 0h-8.02m-8 0h-8.03m-8 0h-8.03m-8 0h-8.03m-8 0h-8.03m-8 0h-8.02m-8.02 0h-8m-8.03 0h-8m-8.03 0h-8m-8.03 0h-8m-8.02 0h-8m-8.03 0h-8m-8.03 0h-8m-8.03 0h-8.02m-8.02 0h-8m-8.03 0h-8m-8.03 0h-8m-8.02 0h-8.02m-8 0h-8.03m-8 0h-8.03m-8 0h-8.03m-8 0h-8.03m-8 0h-8.03m-8 0h-8.02m-8 0h-8.03m-8 0h-8.03m-8 0h-8.03m-8.02 0h-8.02m-8 0h-8.02m-8.02 0h-8m-8.03 0h-8.02m-8.02 0h-8m-8.03 0h-8m-8.03 0h-8m-8.03 0h-8m-8.03 0h-8m-8.03 0h-8m-8.02 0h-8m-8.03 0h-8m-8.03 0h-8m-8.02 0h-8.02m-8 0h-8.03m-8 0h-8.03m-8 0h-8.03m-8.02 0h-8.02m-8 0h-8.03m-8 0h-8.03m-8 0h-4.02" stroke="#000" stroke-width="2" fill="none"/><path d="M1905 383.3h-1.03v-2h1.03z"/><path d="M1119.3 382.3l14.28-4.64v9.27z" stroke="#000" stroke-width="2"/><use xlink:href="#R" transform="matrix(1,0,0,1,1727.7666070531795,386.2936730110829) translate(0 14.4)"/><path d="M1073.08 432.67h-4m-8.02 0h-8m-8.02 0h-8m-8.03 0h-8m-8 0h-8.02m-8 0h-8.02m-8.02 0h-8m-8.02 0h-8m-8.02 0h-8m-8.02 0h-8.02m-8 0h-8.02m-8 0h-8.02m-8 0h-8.03m-8.02 0h-8m-8.02 0h-8m-8.02 0h-8m-8.03 0h-8m-8 0h-8.02m-8 0h-8.02m-8.02 0h-8m-8.02 0h-8m-8.02 0h-8m-8.03 0h-8m-8.02 0h-8m-8.02 0h-8m-8.02 0h-8m-8.02 0h-8m-8.02 0h-8m-8.02 0h-8.02m-8 0h-8.02m-8 0h-8.02m-8 0h-8.02m-8.02 0h-8m-8.02 0h-8m-8.02 0h-8m-8.03 0h-8m-8.02 0h-8m-8.02 0h-8m-8.03 0h-8m-8.02 0h-8m-8.02 0h-8m-8.02 0h-8.02m-8 0h-8.02m-8 0h-8.02m-8 0h-8.03m-8 0h-8.02m-8 0H336" stroke="#000" stroke-width="2" fill="none"/><path d="M1074.08 433.67h-1.03v-2h1.03z"/><path d="M320.75 432.67l14.26-4.64v9.27z" stroke="#000" stroke-width="2"/><use xlink:href="#s" transform="matrix(1,0,0,1,995.2835116056149,436.66689932422923) translate(0 14.4)"/><path d="M318.5 502.83H1055.58M318.54 502.83h-1.03" stroke="#000" stroke-width="2" fill="none"/><path d="M1070.84 502.83l-14.27 4.63v-9.27z" stroke="#000" stroke-width="2"/><use xlink:href="#E" transform="matrix(1,0,0,1,320.67499999999984,477.22960740325397) translate(0 14.4)"/><use xlink:href="#S" transform="matrix(1,0,0,1,320.67499999999984,477.22960740325397) translate(47.95 14.4)"/><use xlink:href="#T" transform="matrix(1,0,0,1,320.67499999999984,477.22960740325397) translate(100.80000000000001 14.4)"/><use xlink:href="#G" transform="matrix(1,0,0,1,320.67499999999984,477.22960740325397) translate(144.70000000000002 14.4)"/><path d="M318.5 564H1055.58M318.54 564h-1.03" stroke="#000" stroke-width="2" fill="none"/><path d="M1070.84 564l-14.27 4.63v-9.27z" stroke="#000" stroke-width="2"/><use xlink:href="#f" transform="matrix(1,0,0,1,324.9998761129991,538.3970964977896) translate(0 14.4)"/><use xlink:href="#U" transform="matrix(1,0,0,1,324.9998761129991,538.3970964977896) translate(26.900000000000002 14.4)"/><use xlink:href="#v" transform="matrix(1,0,0,1,324.9998761129991,538.3970964977896) translate(62.900000000000006 14.4)"/><path d="M1117.08 603.58h4m8.02 0h8m8.03 0h8m8.03 0h8m8.03 0h8m8.02 0h8m8.03 0h8m8.03 0h8m8.03 0h8.02m8.02 0h8m8.03 0h8m8.03 0h8m8.03 0h8m8.02 0h8.02m8 0h8.03m8 0h8.03m8 0h8.03m8 0h8.03m8 0h8.02m8 0h8.03m8 0h8.03m8 0h8.03m8.02 0h8.02m8 0h8.03m8 0h8.02m8 0h8.02m8.02 0h8m8.03 0h8m8.03 0h8m8.03 0h8m8.03 0h8m8.03 0h8m8.02 0h8m8.03 0h8m8.03 0h8m8.03 0h8.02m8 0h8.03m8 0h8.03m8 0h8.03m8.02 0h8.02m8 0h8.03m8 0h8.03m8 0h8.03m8 0h8.03m8 0h8.03m8 0h8.02m8 0h8.03m8 0h8.02m8.02 0h4" stroke="#000" stroke-width="2" fill="none"/><path d="M1117.1 604.58h-1.02v-2h1.02z"/><path d="M1901.76 603.58l-14.26 4.63v-9.26z" stroke="#000" stroke-width="2"/><use xlink:href="#V" transform="matrix(1,0,0,1,1132.6071540768119,577.9760600295473) translate(0 14.4)"/><path d="M2560-917.33h160v120h-160z" stroke="#000" stroke-width="2" fill="#fff"/><use xlink:href="#W" transform="matrix(1,0,0,1,2560,-917.333333333372) translate(42.505 63.15)"/><use xlink:href="#X" transform="matrix(1,0,0,1,2560,-917.333333333372) translate(88.505 63.15)"/><path d="M2640-795.33v4m0 8.03v8.03m0 8.02v8.03m0 8.02v8.03m0 8.02v8.03m0 8.02v8.03m0 8.02v8.03m0 8.02v8.03m0 8.02v8.02m0 8.03v8.02m0 8.03v8.02m0 8.03v8.02m0 8.03v8.02m0 8.03v8.02m0 8.03v8.02m0 8.03v8.02m0 8.03v8.02m0 8.03v8.02m0 8.02v8.03m0 8.02v8.02m0 8.02v8.03m0 8.02v8.02m0 8.02v8.03m0 8.02v8.02m0 8.02v8.03m0 8.02v8.02m0 8.02v8.03m0 8.02v8m0 8.04v8.02m0 8.03v8m0 8.04v8.02m0 8.03v8m0 8.04v8.02m0 8.03v8m0 8.04v8.02m0 8.03v8m0 8.04v8.02m0 8.03v8m0 8.03v8.03m0 8.02v8.03m0 8.03v8.03m0 8.02v8.03m0 8.03v8.03m0 8.02v8.03m0 8.03v8.03m0 8.02v8.03m0 8.03v8.03m0 8.02V-37m0 8.03v8.02m0 8.03v8.02m0 8.03v8.02m0 8.03v8.02m0 8.03v8.02m0 8.03v8.02m0 8.03v8.02m0 8.03v8.02m0 8.03v8.02m0 8.02v8.03m0 8.02v8.03m0 8.02v8.03m0 8.02v8.03m0 8.02v8.03m0 8.02v8.03m0 8.02v8.03m0 8.02v8.03m0 8.02v8.03m0 8.02v8.02m0 8.03V284m0 8.02v8.02m0 8.03v8.02m0 8.02v8.02m0 8.03v8.02m0 8.02v8.02m0 8.03v8.02m0 8.02v8.02m0 8.03v8.02m0 8v8.04m0 8.02v8.03m0 8v8.04m0 8.02v8.03m0 8v8.04m0 8.02v8.03m0 8v8.04m0 8.02v8.03m0 8v8.04m0 8.02v8.02m0 8.03v8.03m0 8.03v8.02m0 8.03v8.03m0 8.03v8.02m0 8.03v8.03m0 8.03v8.02m0 8.03v8.03m0 8.03v8.02m0 8.03v8.03m0 8.02v8.03m0 8.02v8.03m0 8.02v8.03m0 8.02v8.03m0 8.02v8.03m0 8.02v8.03m0 8.02v8.03m0 8.02v8.03m0 8.02v8.03m0 8.02v8.02m0 8.03v8.02m0 8.03v8.02m0 8.03v8.02m0 8.03v8.02m0 8.03v8.02m0 8.03v8.02m0 8.03v8.02m0 8.03v8.02m0 8.03v8.02m0 8.02v8.02m0 8.02v8.03m0 8.02v8.02m0 8.02v8.03m0 8.02v8.02m0 8.02v8.03m0 8.02v8.02m0 8.02v8.03m0 8.02v8.02m0 8.02v8.02m0 8.03v8m0 8.04v8.02m0 8.03v8m0 8.04v8.02m0 8.03v4" stroke="#000" stroke-width="2" fill="none"/><path d="M2641-795.3h-2v-1.03h2z"/><path d="M2640 1258.97v1.03M1961 662.67h639.5" stroke="#000" stroke-width="2" fill="none"/><path d="M1961.03 663.67H1960v-2h1.03z"/><path d="M2615.76 662.67l-14.26 4.63v-9.27z" stroke="#000" stroke-width="2"/><use xlink:href="#Y" transform="matrix(1,0,0,1,2143.6990000000046,637.0666666666668) translate(0 14.4)"/><path d="M2620 640h40v122.67h-40z" stroke="#000" stroke-width="2" fill="#fff"/><path d="M2618 721.33h-4m-8 0h-7.98m-8 0h-8m-8 0h-7.98m-8 0h-8m-7.98 0h-8m-8 0h-7.98m-8 0h-8m-7.98 0h-8m-8 0h-7.98m-8 0h-8m-7.98 0h-8m-8 0h-8m-7.98 0h-8m-8 0h-7.98m-8 0h-8m-7.98 0h-8m-8 0h-7.98m-8 0h-8m-7.98 0h-8m-8 0h-8m-7.98 0h-8m-8 0h-7.98m-8 0h-8m-7.98 0h-8m-8 0h-7.98m-8 0h-8m-7.98 0h-8m-8 0h-7.98m-8 0h-8m-8 0h-7.98m-8 0h-8m-7.98 0h-8m-8 0h-7.98m-8 0h-8m-7.98 0h-8m-8 0h-7.98m-8 0h-8m-8 0h-7.98m-8 0h-8m-7.98 0h-4" stroke="#000" stroke-width="2" fill="none"/><path d="M2619 722.33h-1.03v-2h1.03z"/><path d="M1963.24 721.33l14.26-4.63v9.27z" stroke="#000" stroke-width="2"/><g><use xlink:href="#Z" transform="matrix(1,0,0,1,2379.1029261243702,725.3333333332946) translate(0 14.4)"/></g><path d="M1919 642.67h40v120h-40z" stroke="#000" stroke-width="2" fill="#fff"/><path d="M1904 817.66h-4m-8.02 0h-8.02m-8 0h-8.03m-8 0h-8.03m-8 0h-8.03m-8 0h-8.03m-8 0h-8.02m-8.02 0h-8m-8.03 0h-8m-8.03 0h-8m-8.03 0h-8m-8.02 0h-8m-8.03 0h-8m-8.03 0h-8m-8.03 0h-8.02m-8.02 0h-8m-8.03 0h-8m-8.03 0h-8m-8.03 0h-8m-8.02 0h-8.02m-8 0h-8.03m-8 0h-8.03m-8 0h-8.03m-8 0h-8.03m-8 0h-8.02m-8 0h-8.03m-8 0h-8.03m-8 0h-8.03m-8.02 0h-8.02m-8 0h-8.03m-8 0h-8.03m-8 0h-8.02m-8.02 0h-8m-8.03 0h-8m-8.03 0h-8m-8.03 0h-8m-8.03 0h-8m-8.03 0h-8m-8.02 0h-8m-8.03 0h-8m-8.03 0h-8m-8.03 0h-8.02m-8.02 0h-8m-8.02 0h-8.02m-8 0h-8.03m-8.02 0h-8.02m-8 0h-8.03m-8 0h-8.03m-8 0h-4.02" stroke="#000" stroke-width="2" fill="none"/><path d="M1905 818.66h-1.03v-2h1.03z"/><path d="M1119.3 817.66l14.28-4.63v9.27z" stroke="#000" stroke-width="2"/><g><use xlink:href="#aa" transform="matrix(1,0,0,1,1683.8758629958827,821.662271860419) translate(0 14.4)"/><use xlink:href="#ab" transform="matrix(1,0,0,1,1683.8758629958827,821.662271860419) translate(153.2 14.4)"/></g><path d="M1904 981.38h-4m-8.02 0h-8.02m-8 0h-8.03m-8 0h-8.03m-8 0h-8.03m-8 0h-8.03m-8 0h-8.02m-8.02 0h-8m-8.03 0h-8m-8.03 0h-8m-8.03 0h-8m-8.02 0h-8m-8.03 0h-8m-8.03 0h-8m-8.03 0h-8.02m-8.02 0h-8m-8.03 0h-8m-8.03 0h-8m-8.02 0h-8.02m-8 0h-8.03m-8 0h-8.03m-8 0h-8.03m-8 0h-8.03m-8 0h-8.03m-8 0h-8.02m-8 0h-8.03m-8 0h-8.03m-8 0h-8.03m-8.02 0h-8.02m-8 0h-8.02m-8.02 0h-8m-8.03 0h-8.02m-8.02 0h-8m-8.03 0h-8m-8.03 0h-8m-8.03 0h-8m-8.03 0h-8m-8.03 0h-8m-8.02 0h-8m-8.03 0h-8m-8.03 0h-8m-8.02 0h-8.02m-8 0h-8.03m-8 0h-8.03m-8 0h-8.03m-8.02 0h-8.02m-8 0h-8.03m-8 0h-8.03m-8 0h-4.02" stroke="#000" stroke-width="2" fill="none"/><path d="M1905 982.38h-1.03v-2h1.03z"/><path d="M1119.3 981.38l14.28-4.64V986z" stroke="#000" stroke-width="2"/><g><use xlink:href="#aa" transform="matrix(1,0,0,1,1669.7291764128545,985.3752573781444) translate(0 14.4)"/><use xlink:href="#ac" transform="matrix(1,0,0,1,1669.7291764128545,985.3752573781444) translate(153.2 14.4)"/></g><path d="M1073.08 871.63h-4m-8.02 0h-8m-8.02 0h-8m-8.03 0h-8m-8 0h-8.02m-8 0h-8.02m-8.02 0h-8m-8.02 0h-8m-8.02 0h-8m-8.02 0h-8.02m-8 0h-8.02m-8 0h-8.02m-8 0h-8.03m-8.02 0h-8m-8.02 0h-8m-8.02 0h-8m-8.03 0h-8m-8 0h-8.02m-8 0h-8.02m-8.02 0h-8m-8.02 0h-8m-8.02 0h-8m-8.03 0h-8m-8.02 0h-8m-8.02 0h-8m-8.02 0h-8m-8.02 0h-8m-8.02 0h-8m-8.02 0h-8.02m-8 0h-8.02m-8 0h-8.02m-8 0h-8.02m-8.02 0h-8m-8.02 0h-8m-8.02 0h-8m-8.03 0h-8m-8.02 0h-8m-8.02 0h-8m-8.03 0h-8m-8.02 0h-8m-8.02 0h-8m-8.02 0h-8.02m-8 0h-8.02m-8 0h-8.02m-8 0h-8.03m-8 0h-8.02m-8 0H336" stroke="#000" stroke-width="2" fill="none"/><path d="M1074.08 872.63h-1.03v-2h1.03z"/><path d="M320.75 871.63L335 867v9.27z" stroke="#000" stroke-width="2"/><g><use xlink:href="#s" transform="matrix(1,0,0,1,995.2835116056149,875.6335857673618) translate(0 14.4)"/></g><path d="M1073.08 1046.14h-4m-7.98 0h-7.98m-8 0h-7.97m-8 0h-7.97m-8 0h-7.97m-7.98 0h-7.98m-7.98 0h-8m-7.97 0h-8m-7.98 0h-8m-7.97 0h-8m-7.97 0h-7.98m-8 0h-7.97m-8 0h-7.97m-8 0h-7.97m-8 0h-7.98m-8 0h-7.97m-7.98 0h-8m-7.97 0h-8m-7.97 0h-8m-7.97 0h-8m-7.97 0h-8m-7.98 0h-7.98m-8 0h-7.97m-8 0h-7.97m-8 0h-7.97m-8 0h-7.97m-8 0h-7.97m-8 0h-7.98m-7.98 0h-8m-7.97 0h-8m-7.97 0h-8m-7.97 0h-7.98m-8 0h-7.97m-8 0h-7.97m-7.98 0h-7.98m-8 0h-7.97m-8 0h-7.97m-7.98 0h-8m-7.97 0h-8m-7.97 0h-8m-7.97 0h-7.98m-7.98 0h-8m-7.97 0h-7.98m-8 0h-7.98m-8 0h-7.97m-8 0h-7.97m-8 0h-3.98" stroke="#000" stroke-width="2" fill="none"/><path d="M1074.08 1047.14h-1.03v-2h1.03z"/><path d="M323.24 1046.14l14.26-4.63v9.28z" stroke="#000" stroke-width="2"/><g><use xlink:href="#s" transform="matrix(1,0,0,1,995.4459257684002,1050.1408340664757) translate(0 14.4)"/></g><path d="M180 780h100v20l-10 10h-90z" fill="#fff"/><path d="M280 780v20l-10 10h-90" stroke="#000" stroke-width="2" fill="none"/><path d="M180 780h1800v320H180zM180 940h20m15 0h20m15 0h20m15 0h20m15 0h20m15 0h20m15 0h20m15 0h20m15 0h20m15 0h20m15 0h20m15 0h20m15 0h20m15 0h20m15 0h20m15 0h20m15 0h20m15 0h20m15 0h20m15 0h20m15 0h20m15 0h20m15 0h20m15 0h20m15 0h20m15 0h20m15 0h20m15 0h20m15 0h20m15 0h20m15 0h20m15 0h20m15 0h20m15 0h20m15 0h20m15 0h20m15 0h20m15 0h20m15 0h20m15 0h20m15 0h20m15 0h20m15 0h20m15 0h20m15 0h20m15 0h20m15 0h20m15 0h20m15 0h20m15 0h20m15 0h20m15 0h15" stroke="#000" stroke-width="2" fill="none"/><g><use xlink:href="#ad" transform="matrix(1,0,0,1,188,780) translate(0 18.6)"/></g><g><use xlink:href="#ae" transform="matrix(1,0,0,1,192,818) translate(0 18.6)"/><use xlink:href="#af" transform="matrix(1,0,0,1,192,818) translate(80.95 18.6)"/></g><g><use xlink:href="#ag" transform="matrix(1,0,0,1,192,948) translate(0 18.6)"/></g><defs><path d="M232-93c-1 65-40 97-104 97C67 4 28-28 28-90v-158h33c8 89-33 224 67 224 102 0 64-133 71-224h33v155" id="ah"/><path d="M135-143c-3-34-86-38-87 0 15 53 115 12 119 90S17 21 10-45l28-5c4 36 97 45 98 0-10-56-113-15-118-90-4-57 82-63 122-42 12 7 21 19 24 35" id="ai"/><path d="M100-194c63 0 86 42 84 106H49c0 40 14 67 53 68 26 1 43-12 49-29l28 8c-11 28-37 45-77 45C44 4 14-33 15-96c1-61 26-98 85-98zm52 81c6-60-76-77-97-28-3 7-6 17-6 28h103" id="aj"/><path d="M114-163C36-179 61-72 57 0H25l-1-190h30c1 12-1 29 2 39 6-27 23-49 58-41v29" id="ak"/><g id="a"><use transform="matrix(0.05,0,0,0.05,0,0)" xlink:href="#ah"/><use transform="matrix(0.05,0,0,0.05,12.950000000000001,0)" xlink:href="#ai"/><use transform="matrix(0.05,0,0,0.05,21.950000000000003,0)" xlink:href="#aj"/><use transform="matrix(0.05,0,0,0.05,31.950000000000003,0)" xlink:href="#ak"/></g><path d="M33-154v-36h34v36H33zM33 0v-36h34V0H33" id="al"/><g id="b"><use transform="matrix(0.05,0,0,0.05,0,0)" xlink:href="#al"/><path d="M-.9 1.25h11.8v1.32H-.9z"/></g><path d="M212-179c-10-28-35-45-73-45-59 0-87 40-87 99 0 60 29 101 89 101 43 0 62-24 78-52l27 14C228-24 195 4 139 4 59 4 22-46 18-125c-6-104 99-153 187-111 19 9 31 26 39 46" id="am"/><path d="M141-36C126-15 110 5 73 4 37 3 15-17 15-53c-1-64 63-63 125-63 3-35-9-54-41-54-24 1-41 7-42 31l-33-3c5-37 33-52 76-52 45 0 72 20 72 64v82c-1 20 7 32 28 27v20c-31 9-61-2-59-35zM48-53c0 20 12 33 32 33 41-3 63-29 60-74-43 2-92-5-92 41" id="an"/><path d="M59-47c-2 24 18 29 38 22v24C64 9 27 4 27-40v-127H5v-23h24l9-43h21v43h35v23H59v120" id="ao"/><path d="M100-194c62-1 85 37 85 99 1 63-27 99-86 99S16-35 15-95c0-66 28-99 85-99zM99-20c44 1 53-31 53-75 0-43-8-75-51-75s-53 32-53 75 10 74 51 75" id="ap"/><path d="M117-194c89-4 53 116 60 194h-32v-121c0-31-8-49-39-48C34-167 62-67 57 0H25l-1-190h30c1 10-1 24 2 32 11-22 29-35 61-36" id="aq"/><path d="M24 0v-261h32V0H24" id="ar"/><g id="c"><use transform="matrix(0.05,0,0,0.05,0,0)" xlink:href="#am"/><use transform="matrix(0.05,0,0,0.05,12.950000000000001,0)" xlink:href="#an"/><use transform="matrix(0.05,0,0,0.05,22.950000000000003,0)" xlink:href="#ak"/><use transform="matrix(0.05,0,0,0.05,28.900000000000002,0)" xlink:href="#ao"/><use transform="matrix(0.05,0,0,0.05,33.900000000000006,0)" xlink:href="#am"/><use transform="matrix(0.05,0,0,0.05,46.85000000000001,0)" xlink:href="#ap"/><use transform="matrix(0.05,0,0,0.05,56.85,0)" xlink:href="#aq"/><use transform="matrix(0.05,0,0,0.05,66.85000000000001,0)" xlink:href="#ao"/><use transform="matrix(0.05,0,0,0.05,71.85000000000001,0)" xlink:href="#ak"/><use transform="matrix(0.05,0,0,0.05,77.80000000000001,0)" xlink:href="#ap"/><use transform="matrix(0.05,0,0,0.05,87.80000000000001,0)" xlink:href="#ar"/><use transform="matrix(0.05,0,0,0.05,91.75000000000001,0)" xlink:href="#ar"/><use transform="matrix(0.05,0,0,0.05,95.70000000000002,0)" xlink:href="#aj"/><use transform="matrix(0.05,0,0,0.05,105.7,0)" xlink:href="#ak"/><path d="M-.9 1.25h113.45v1.32H-.9z"/></g><path d="M85-194c31 0 48 13 60 33l-1-100h32l1 261h-30c-2-10 0-23-3-31C134-8 116 4 85 4 32 4 16-35 15-94c0-66 23-100 70-100zm9 24c-40 0-46 34-46 75 0 40 6 74 45 74 42 0 51-32 51-76 0-42-9-74-50-73" id="as"/><path d="M24-231v-30h32v30H24zM24 0v-190h32V0H24" id="at"/><path d="M96-169c-40 0-48 33-48 73s9 75 48 75c24 0 41-14 43-38l32 2c-6 37-31 61-74 61-59 0-76-41-82-99-10-93 101-131 147-64 4 7 5 14 7 22l-32 3c-4-21-16-35-41-35" id="au"/><path d="M87 75C49 33 22-17 22-94c0-76 28-126 65-167h31c-38 41-64 92-64 168S80 34 118 75H87" id="av"/><path d="M109-170H84l-4-78h32zm-65 0H19l-4-78h33" id="aw"/><g id="d"><use transform="matrix(0.05,0,0,0.05,0,0)" xlink:href="#ak"/><use transform="matrix(0.05,0,0,0.05,5.95,0)" xlink:href="#aj"/><use transform="matrix(0.05,0,0,0.05,15.949999999999998,0)" xlink:href="#as"/><use transform="matrix(0.05,0,0,0.05,25.950000000000003,0)" xlink:href="#at"/><use transform="matrix(0.05,0,0,0.05,29.899999999999995,0)" xlink:href="#ak"/><use transform="matrix(0.05,0,0,0.05,35.85,0)" xlink:href="#aj"/><use transform="matrix(0.05,0,0,0.05,45.85,0)" xlink:href="#au"/><use transform="matrix(0.05,0,0,0.05,54.85,0)" xlink:href="#ao"/><use transform="matrix(0.05,0,0,0.05,59.85,0)" xlink:href="#av"/><use transform="matrix(0.05,0,0,0.05,65.8,0)" xlink:href="#aw"/><use transform="matrix(0.05,0,0,0.05,72.14999999999999,0)" xlink:href="#am"/><use transform="matrix(0.05,0,0,0.05,85.1,0)" xlink:href="#an"/><use transform="matrix(0.05,0,0,0.05,95.1,0)" xlink:href="#ak"/><use transform="matrix(0.05,0,0,0.05,101.05,0)" xlink:href="#ao"/></g><path d="M30-248c87 1 191-15 191 75 0 78-77 80-158 76V0H30v-248zm33 125c57 0 124 11 124-50 0-59-68-47-124-48v98" id="ax"/><path d="M177-190C167-65 218 103 67 71c-23-6-38-20-44-43l32-5c15 47 100 32 89-28v-30C133-14 115 1 83 1 29 1 15-40 15-95c0-56 16-97 71-98 29-1 48 16 59 35 1-10 0-23 2-32h30zM94-22c36 0 50-32 50-73 0-42-14-75-50-75-39 0-46 34-46 75s6 73 46 73" id="ay"/><path d="M68-38c1 34 0 65-14 84H32c9-13 17-26 17-46H33v-38h35" id="az"/><path d="M18-100v-36l175-74v27L42-118l151 64v27" id="aA"/><path d="M33 0v-248h34V0H33" id="aB"/><path d="M210-169c-67 3-38 105-44 169h-31v-121c0-29-5-50-35-48C34-165 62-65 56 0H25l-1-190h30c1 10-1 24 2 32 10-44 99-50 107 0 11-21 27-35 58-36 85-2 47 119 55 194h-31v-121c0-29-5-49-35-48" id="aC"/><path d="M18-27v-27l151-64-151-65v-27l175 74v36" id="aD"/><path d="M33-261c38 41 65 92 65 168S71 34 33 75H2C39 34 66-17 66-93S39-220 2-261h31" id="aE"/><g id="e"><use transform="matrix(0.05,0,0,0.05,0,0)" xlink:href="#ax"/><use transform="matrix(0.05,0,0,0.05,12,0)" xlink:href="#an"/><use transform="matrix(0.05,0,0,0.05,22,0)" xlink:href="#ay"/><use transform="matrix(0.05,0,0,0.05,32,0)" xlink:href="#aj"/><use transform="matrix(0.05,0,0,0.05,42,0)" xlink:href="#aw"/><use transform="matrix(0.05,0,0,0.05,48.35,0)" xlink:href="#az"/><use transform="matrix(0.05,0,0,0.05,53.35,0)" xlink:href="#ar"/><use transform="matrix(0.05,0,0,0.05,57.300000000000004,0)" xlink:href="#at"/><use transform="matrix(0.05,0,0,0.05,61.25,0)" xlink:href="#ai"/><use transform="matrix(0.05,0,0,0.05,70.25,0)" xlink:href="#ao"/><use transform="matrix(0.05,0,0,0.05,75.25,0)" xlink:href="#aA"/><use transform="matrix(0.05,0,0,0.05,85.75,0)" xlink:href="#au"/><use transform="matrix(0.05,0,0,0.05,94.75,0)" xlink:href="#an"/><use transform="matrix(0.05,0,0,0.05,104.75,0)" xlink:href="#ak"/><use transform="matrix(0.05,0,0,0.05,110.7,0)" xlink:href="#ao"/><use transform="matrix(0.05,0,0,0.05,115.7,0)" xlink:href="#aB"/><use transform="matrix(0.05,0,0,0.05,120.7,0)" xlink:href="#ao"/><use transform="matrix(0.05,0,0,0.05,125.7,0)" xlink:href="#aj"/><use transform="matrix(0.05,0,0,0.05,135.7,0)" xlink:href="#aC"/><use transform="matrix(0.05,0,0,0.05,150.64999999999998,0)" xlink:href="#ai"/><use transform="matrix(0.05,0,0,0.05,159.64999999999998,0)" xlink:href="#aD"/><use transform="matrix(0.05,0,0,0.05,170.14999999999998,0)" xlink:href="#aE"/></g><path d="M197 0v-115H63V0H30v-248h33v105h134v-105h34V0h-34" id="aF"/><g id="f"><use transform="matrix(0.05,0,0,0.05,0,0)" xlink:href="#aF"/><use transform="matrix(0.05,0,0,0.05,12.950000000000001,0)" xlink:href="#at"/><use transform="matrix(0.05,0,0,0.05,16.900000000000002,0)" xlink:href="#ao"/></g><path d="M185-189c-5-48-123-54-124 2 14 75 158 14 163 119 3 78-121 87-175 55-17-10-28-26-33-46l33-7c5 56 141 63 141-1 0-78-155-14-162-118-5-82 145-84 179-34 5 7 8 16 11 25" id="aG"/><path d="M106-169C34-169 62-67 57 0H25v-261h32l-1 103c12-21 28-36 61-36 89 0 53 116 60 194h-32v-121c2-32-8-49-39-48" id="aH"/><path d="M206 0h-36l-40-164L89 0H53L-1-190h32L70-26l43-164h34l41 164 42-164h31" id="aI"/><g id="g"><use transform="matrix(0.05,0,0,0.05,0,0)" xlink:href="#aG"/><use transform="matrix(0.05,0,0,0.05,12,0)" xlink:href="#aH"/><use transform="matrix(0.05,0,0,0.05,22,0)" xlink:href="#ap"/><use transform="matrix(0.05,0,0,0.05,32,0)" xlink:href="#aI"/></g><g id="h"><use transform="matrix(0.05,0,0,0.05,0,0)" xlink:href="#am"/><use transform="matrix(0.05,0,0,0.05,12.950000000000001,0)" xlink:href="#an"/><use transform="matrix(0.05,0,0,0.05,22.950000000000003,0)" xlink:href="#ak"/><use transform="matrix(0.05,0,0,0.05,28.900000000000002,0)" xlink:href="#ao"/></g><path d="M143 0L79-87 56-68V0H24v-261h32v163l83-92h37l-77 82L181 0h-38" id="aJ"/><g id="i"><use transform="matrix(0.1055555555555555,0,0,0.1055555555555555,0,0)" xlink:href="#am"/><use transform="matrix(0.1055555555555555,0,0,0.1055555555555555,27.338888888888874,0)" xlink:href="#aH"/><use transform="matrix(0.1055555555555555,0,0,0.1055555555555555,48.449999999999974,0)" xlink:href="#aj"/><use transform="matrix(0.1055555555555555,0,0,0.1055555555555555,69.56111111111107,0)" xlink:href="#au"/><use transform="matrix(0.1055555555555555,0,0,0.1055555555555555,88.56111111111106,0)" xlink:href="#aJ"/></g><path d="M140-251c81 0 123 46 123 126C263-46 219 4 140 4 59 4 17-45 17-125s42-126 123-126zm0 227c63 0 89-41 89-101s-29-99-89-99c-61 0-89 39-89 99S79-25 140-24" id="aK"/><path d="M84 4C-5 8 30-112 23-190h32v120c0 31 7 50 39 49 72-2 45-101 50-169h31l1 190h-30c-1-10 1-25-2-33-11 22-28 36-60 37" id="aL"/><g id="j"><use transform="matrix(0.1055555555555555,0,0,0.1055555555555555,0,0)" xlink:href="#aK"/><use transform="matrix(0.1055555555555555,0,0,0.1055555555555555,29.55555555555554,0)" xlink:href="#aL"/><use transform="matrix(0.1055555555555555,0,0,0.1055555555555555,50.66666666666664,0)" xlink:href="#ao"/></g><g id="k"><use transform="matrix(0.05,0,0,0.05,0,0)" xlink:href="#am"/><use transform="matrix(0.05,0,0,0.05,12.950000000000001,0)" xlink:href="#aH"/><use transform="matrix(0.05,0,0,0.05,22.950000000000003,0)" xlink:href="#aj"/><use transform="matrix(0.05,0,0,0.05,32.95,0)" xlink:href="#au"/><use transform="matrix(0.05,0,0,0.05,41.95,0)" xlink:href="#aJ"/><use transform="matrix(0.05,0,0,0.05,50.95,0)" xlink:href="#aK"/><use transform="matrix(0.05,0,0,0.05,64.95,0)" xlink:href="#aL"/><use transform="matrix(0.05,0,0,0.05,74.95,0)" xlink:href="#ao"/><use transform="matrix(0.05,0,0,0.05,79.95,0)" xlink:href="#am"/><use transform="matrix(0.05,0,0,0.05,92.9,0)" xlink:href="#ap"/><use transform="matrix(0.05,0,0,0.05,102.9,0)" xlink:href="#aq"/><use transform="matrix(0.05,0,0,0.05,112.9,0)" xlink:href="#ao"/><use transform="matrix(0.05,0,0,0.05,117.9,0)" xlink:href="#ak"/><use transform="matrix(0.05,0,0,0.05,123.85000000000001,0)" xlink:href="#ap"/><use transform="matrix(0.05,0,0,0.05,133.85000000000002,0)" xlink:href="#ar"/><use transform="matrix(0.05,0,0,0.05,137.8,0)" xlink:href="#ar"/><use transform="matrix(0.05,0,0,0.05,141.75,0)" xlink:href="#aj"/><use transform="matrix(0.05,0,0,0.05,151.75,0)" xlink:href="#ak"/><path d="M-.9 1.25h159.5v1.32H-.9z"/></g><path d="M240 0l2-218c-23 76-54 145-80 218h-23L58-218 59 0H30v-248h44l77 211c21-75 51-140 76-211h43V0h-30" id="aM"/><g id="l"><use transform="matrix(0.05,0,0,0.05,0,0)" xlink:href="#aM"/><use transform="matrix(0.05,0,0,0.05,14.950000000000001,0)" xlink:href="#an"/><use transform="matrix(0.05,0,0,0.05,24.950000000000003,0)" xlink:href="#ai"/><use transform="matrix(0.05,0,0,0.05,33.95,0)" xlink:href="#ao"/><use transform="matrix(0.05,0,0,0.05,38.95,0)" xlink:href="#aj"/><use transform="matrix(0.05,0,0,0.05,48.95,0)" xlink:href="#ak"/></g><g id="m"><use transform="matrix(0.05,0,0,0.05,0,0)" xlink:href="#ax"/><use transform="matrix(0.05,0,0,0.05,12,0)" xlink:href="#an"/><use transform="matrix(0.05,0,0,0.05,22,0)" xlink:href="#ay"/><use transform="matrix(0.05,0,0,0.05,32,0)" xlink:href="#aj"/></g><g id="n"><use transform="matrix(0.05,0,0,0.05,0,0)" xlink:href="#am"/><use transform="matrix(0.05,0,0,0.05,12.950000000000001,0)" xlink:href="#an"/><use transform="matrix(0.05,0,0,0.05,22.950000000000003,0)" xlink:href="#ak"/><use transform="matrix(0.05,0,0,0.05,28.900000000000002,0)" xlink:href="#ao"/></g><path d="M33 0v-38h34V0H33" id="aN"/><path d="M101-234c-31-9-42 10-38 44h38v23H63V0H32v-167H5v-23h27c-7-52 17-82 69-68v24" id="aO"/><g id="o"><use transform="matrix(0.05,0,0,0.05,0,0)" xlink:href="#aN"/><use transform="matrix(0.05,0,0,0.05,5,0)" xlink:href="#aO"/><use transform="matrix(0.05,0,0,0.05,10,0)" xlink:href="#at"/><use transform="matrix(0.05,0,0,0.05,13.949999999999998,0)" xlink:href="#ar"/><use transform="matrix(0.05,0,0,0.05,17.9,0)" xlink:href="#ao"/><use transform="matrix(0.05,0,0,0.05,22.9,0)" xlink:href="#aj"/><use transform="matrix(0.05,0,0,0.05,32.9,0)" xlink:href="#ak"/><use transform="matrix(0.05,0,0,0.05,38.85,0)" xlink:href="#am"/><use transform="matrix(0.05,0,0,0.05,51.800000000000004,0)" xlink:href="#an"/><use transform="matrix(0.05,0,0,0.05,61.800000000000004,0)" xlink:href="#ak"/><use transform="matrix(0.05,0,0,0.05,67.75,0)" xlink:href="#ao"/><use transform="matrix(0.05,0,0,0.05,72.75,0)" xlink:href="#at"/><use transform="matrix(0.05,0,0,0.05,76.7,0)" xlink:href="#ao"/><use transform="matrix(0.05,0,0,0.05,81.7,0)" xlink:href="#aj"/><use transform="matrix(0.05,0,0,0.05,91.7,0)" xlink:href="#aC"/><use transform="matrix(0.05,0,0,0.05,106.65,0)" xlink:href="#ai"/><use transform="matrix(0.05,0,0,0.05,115.65,0)" xlink:href="#av"/><use transform="matrix(0.05,0,0,0.05,121.60000000000001,0)" xlink:href="#aL"/><use transform="matrix(0.05,0,0,0.05,131.60000000000002,0)" xlink:href="#ai"/><use transform="matrix(0.05,0,0,0.05,140.60000000000002,0)" xlink:href="#aj"/><use transform="matrix(0.05,0,0,0.05,150.60000000000002,0)" xlink:href="#ak"/><use transform="matrix(0.05,0,0,0.05,156.55,0)" xlink:href="#aB"/><use transform="matrix(0.05,0,0,0.05,161.55,0)" xlink:href="#as"/><use transform="matrix(0.05,0,0,0.05,171.55,0)" xlink:href="#aE"/></g><g id="p"><use transform="matrix(0.05,0,0,0.05,0,0)" xlink:href="#am"/><use transform="matrix(0.05,0,0,0.05,12.950000000000001,0)" xlink:href="#an"/><use transform="matrix(0.05,0,0,0.05,22.950000000000003,0)" xlink:href="#ak"/><use transform="matrix(0.05,0,0,0.05,28.900000000000002,0)" xlink:href="#ao"/><use transform="matrix(0.05,0,0,0.05,33.900000000000006,0)" xlink:href="#aB"/><use transform="matrix(0.05,0,0,0.05,38.900000000000006,0)" xlink:href="#ao"/><use transform="matrix(0.05,0,0,0.05,43.900000000000006,0)" xlink:href="#aj"/><use transform="matrix(0.05,0,0,0.05,53.900000000000006,0)" xlink:href="#aC"/><use transform="matrix(0.05,0,0,0.05,68.85000000000001,0)" xlink:href="#ai"/></g><path d="M30-248c118-7 216 8 213 122C240-48 200 0 122 0H30v-248zM63-27c89 8 146-16 146-99s-60-101-146-95v194" id="aP"/><g id="q"><use transform="matrix(0.05,0,0,0.05,0,0)" xlink:href="#aP"/><use transform="matrix(0.05,0,0,0.05,12.950000000000001,0)" xlink:href="#an"/><use transform="matrix(0.05,0,0,0.05,22.950000000000003,0)" xlink:href="#ao"/><use transform="matrix(0.05,0,0,0.05,27.950000000000003,0)" xlink:href="#an"/><use transform="matrix(0.05,0,0,0.05,37.95,0)" xlink:href="#ai"/><use transform="matrix(0.05,0,0,0.05,46.95,0)" xlink:href="#aj"/><use transform="matrix(0.05,0,0,0.05,56.95,0)" xlink:href="#ao"/></g><path d="M30 0v-248h33v221h125V0H30" id="aQ"/><g id="r"><use transform="matrix(0.05,0,0,0.05,0,0)" xlink:href="#aQ"/><use transform="matrix(0.05,0,0,0.05,10,0)" xlink:href="#at"/><use transform="matrix(0.05,0,0,0.05,13.949999999999998,0)" xlink:href="#ai"/><use transform="matrix(0.05,0,0,0.05,22.95,0)" xlink:href="#ao"/><use transform="matrix(0.05,0,0,0.05,27.950000000000003,0)" xlink:href="#aA"/><use transform="matrix(0.05,0,0,0.05,38.45,0)" xlink:href="#am"/><use transform="matrix(0.05,0,0,0.05,51.400000000000006,0)" xlink:href="#an"/><use transform="matrix(0.05,0,0,0.05,61.400000000000006,0)" xlink:href="#ak"/><use transform="matrix(0.05,0,0,0.05,67.35000000000001,0)" xlink:href="#ao"/><use transform="matrix(0.05,0,0,0.05,72.35000000000001,0)" xlink:href="#aB"/><use transform="matrix(0.05,0,0,0.05,77.35000000000001,0)" xlink:href="#ao"/><use transform="matrix(0.05,0,0,0.05,82.35000000000001,0)" xlink:href="#aj"/><use transform="matrix(0.05,0,0,0.05,92.35000000000001,0)" xlink:href="#aC"/><use transform="matrix(0.05,0,0,0.05,107.30000000000001,0)" xlink:href="#ai"/><use transform="matrix(0.05,0,0,0.05,116.30000000000001,0)" xlink:href="#aD"/></g><path d="M115-194c55 1 70 41 70 98S169 2 115 4C84 4 66-9 55-30l1 105H24l-1-265h31l2 30c10-21 28-34 59-34zm-8 174c40 0 45-34 45-75s-6-73-45-74c-42 0-51 32-51 76 0 43 10 73 51 73" id="aR"/><path d="M179-190L93 31C79 59 56 82 12 73V49c39 6 53-20 64-50L1-190h34L92-34l54-156h33" id="aS"/><g id="s"><use transform="matrix(0.05,0,0,0.05,0,0)" xlink:href="#aP"/><use transform="matrix(0.05,0,0,0.05,12.950000000000001,0)" xlink:href="#at"/><use transform="matrix(0.05,0,0,0.05,16.900000000000002,0)" xlink:href="#ai"/><use transform="matrix(0.05,0,0,0.05,25.900000000000002,0)" xlink:href="#aR"/><use transform="matrix(0.05,0,0,0.05,35.900000000000006,0)" xlink:href="#ar"/><use transform="matrix(0.05,0,0,0.05,39.85000000000001,0)" xlink:href="#an"/><use transform="matrix(0.05,0,0,0.05,49.85000000000001,0)" xlink:href="#aS"/></g><g id="t"><use transform="matrix(0.05,0,0,0.05,0,0)" xlink:href="#ay"/><use transform="matrix(0.05,0,0,0.05,10,0)" xlink:href="#aj"/><use transform="matrix(0.05,0,0,0.05,20,0)" xlink:href="#ao"/><use transform="matrix(0.05,0,0,0.05,25,0)" xlink:href="#am"/><use transform="matrix(0.05,0,0,0.05,37.95,0)" xlink:href="#an"/><use transform="matrix(0.05,0,0,0.05,47.95,0)" xlink:href="#ak"/><use transform="matrix(0.05,0,0,0.05,53.900000000000006,0)" xlink:href="#ao"/><use transform="matrix(0.05,0,0,0.05,58.900000000000006,0)" xlink:href="#ax"/><use transform="matrix(0.05,0,0,0.05,70.9,0)" xlink:href="#an"/><use transform="matrix(0.05,0,0,0.05,80.9,0)" xlink:href="#ay"/><use transform="matrix(0.05,0,0,0.05,90.9,0)" xlink:href="#aj"/><use transform="matrix(0.05,0,0,0.05,100.9,0)" xlink:href="#av"/><use transform="matrix(0.05,0,0,0.05,106.85000000000001,0)" xlink:href="#aL"/><use transform="matrix(0.05,0,0,0.05,116.85000000000001,0)" xlink:href="#ai"/><use transform="matrix(0.05,0,0,0.05,125.85000000000001,0)" xlink:href="#aj"/><use transform="matrix(0.05,0,0,0.05,135.85000000000002,0)" xlink:href="#ak"/><use transform="matrix(0.05,0,0,0.05,141.8,0)" xlink:href="#aB"/><use transform="matrix(0.05,0,0,0.05,146.8,0)" xlink:href="#as"/><use transform="matrix(0.05,0,0,0.05,156.8,0)" xlink:href="#aE"/></g><g id="u"><use transform="matrix(0.05,0,0,0.05,0,0)" xlink:href="#ax"/><use transform="matrix(0.05,0,0,0.05,12,0)" xlink:href="#aL"/><use transform="matrix(0.05,0,0,0.05,22,0)" xlink:href="#ak"/><use transform="matrix(0.05,0,0,0.05,27.950000000000003,0)" xlink:href="#au"/><use transform="matrix(0.05,0,0,0.05,36.95,0)" xlink:href="#aH"/><use transform="matrix(0.05,0,0,0.05,46.95,0)" xlink:href="#an"/><use transform="matrix(0.05,0,0,0.05,56.95,0)" xlink:href="#ai"/><use transform="matrix(0.05,0,0,0.05,65.95,0)" xlink:href="#aj"/></g><path d="M160-131c35 5 61 23 61 61C221 17 115-2 30 0v-248c76 3 177-17 177 60 0 33-19 50-47 57zm-97-11c50-1 110 9 110-42 0-47-63-36-110-37v79zm0 115c55-2 124 14 124-45 0-56-70-42-124-44v89" id="aT"/><g id="v"><use transform="matrix(0.05,0,0,0.05,0,0)" xlink:href="#aT"/><use transform="matrix(0.05,0,0,0.05,12,0)" xlink:href="#aL"/><use transform="matrix(0.05,0,0,0.05,22,0)" xlink:href="#ao"/><use transform="matrix(0.05,0,0,0.05,27,0)" xlink:href="#ao"/><use transform="matrix(0.05,0,0,0.05,32,0)" xlink:href="#ap"/><use transform="matrix(0.05,0,0,0.05,42,0)" xlink:href="#aq"/></g><g id="w"><use transform="matrix(0.05,0,0,0.05,0,0)" xlink:href="#aN"/><use transform="matrix(0.05,0,0,0.05,5,0)" xlink:href="#ay"/><use transform="matrix(0.05,0,0,0.05,15,0)" xlink:href="#aj"/><use transform="matrix(0.05,0,0,0.05,25,0)" xlink:href="#ao"/><use transform="matrix(0.05,0,0,0.05,30,0)" xlink:href="#am"/><use transform="matrix(0.05,0,0,0.05,42.95,0)" xlink:href="#aH"/><use transform="matrix(0.05,0,0,0.05,52.95,0)" xlink:href="#aj"/><use transform="matrix(0.05,0,0,0.05,62.95,0)" xlink:href="#aJ"/><use transform="matrix(0.05,0,0,0.05,71.95,0)" xlink:href="#aK"/><use transform="matrix(0.05,0,0,0.05,85.95,0)" xlink:href="#aL"/><use transform="matrix(0.05,0,0,0.05,95.95,0)" xlink:href="#ao"/><use transform="matrix(0.05,0,0,0.05,100.95,0)" xlink:href="#ax"/><use transform="matrix(0.05,0,0,0.05,112.95,0)" xlink:href="#an"/><use transform="matrix(0.05,0,0,0.05,122.95,0)" xlink:href="#ay"/><use transform="matrix(0.05,0,0,0.05,132.95,0)" xlink:href="#aj"/><use transform="matrix(0.05,0,0,0.05,142.95,0)" xlink:href="#av"/><use transform="matrix(0.05,0,0,0.05,148.89999999999998,0)" xlink:href="#aE"/></g><g id="x"><use transform="matrix(0.05,0,0,0.05,0,0)" xlink:href="#ah"/><use transform="matrix(0.05,0,0,0.05,12.950000000000001,0)" xlink:href="#ai"/><use transform="matrix(0.05,0,0,0.05,21.950000000000003,0)" xlink:href="#aj"/><use transform="matrix(0.05,0,0,0.05,31.950000000000003,0)" xlink:href="#ak"/></g><path d="M205 0l-28-72H64L36 0H1l101-248h38L239 0h-34zm-38-99l-47-123c-12 45-31 82-46 123h93" id="aU"/><g id="y"><use transform="matrix(0.05,0,0,0.05,0,0)" xlink:href="#ay"/><use transform="matrix(0.05,0,0,0.05,10,0)" xlink:href="#aj"/><use transform="matrix(0.05,0,0,0.05,20,0)" xlink:href="#ao"/><use transform="matrix(0.05,0,0,0.05,25,0)" xlink:href="#aU"/><use transform="matrix(0.05,0,0,0.05,37,0)" xlink:href="#as"/><use transform="matrix(0.05,0,0,0.05,47,0)" xlink:href="#as"/><use transform="matrix(0.05,0,0,0.05,57,0)" xlink:href="#ak"/><use transform="matrix(0.05,0,0,0.05,62.95,0)" xlink:href="#aj"/><use transform="matrix(0.05,0,0,0.05,72.95,0)" xlink:href="#ai"/><use transform="matrix(0.05,0,0,0.05,81.95,0)" xlink:href="#ai"/><use transform="matrix(0.05,0,0,0.05,90.95,0)" xlink:href="#av"/><use transform="matrix(0.05,0,0,0.05,96.9,0)" xlink:href="#aL"/><use transform="matrix(0.05,0,0,0.05,106.9,0)" xlink:href="#ai"/><use transform="matrix(0.05,0,0,0.05,115.9,0)" xlink:href="#aj"/><use transform="matrix(0.05,0,0,0.05,125.9,0)" xlink:href="#ak"/><use transform="matrix(0.05,0,0,0.05,131.85,0)" xlink:href="#at"/><use transform="matrix(0.05,0,0,0.05,135.79999999999998,0)" xlink:href="#as"/><use transform="matrix(0.05,0,0,0.05,145.79999999999998,0)" xlink:href="#aE"/></g><g id="z"><use transform="matrix(0.05,0,0,0.05,0,0)" xlink:href="#aU"/><use transform="matrix(0.05,0,0,0.05,12,0)" xlink:href="#as"/><use transform="matrix(0.05,0,0,0.05,22,0)" xlink:href="#as"/><use transform="matrix(0.05,0,0,0.05,32,0)" xlink:href="#ak"/><use transform="matrix(0.05,0,0,0.05,37.95,0)" xlink:href="#aj"/><use transform="matrix(0.05,0,0,0.05,47.95,0)" xlink:href="#ai"/><use transform="matrix(0.05,0,0,0.05,56.95,0)" xlink:href="#ai"/></g><g id="A"><use transform="matrix(0.05,0,0,0.05,0,0)" xlink:href="#am"/><use transform="matrix(0.05,0,0,0.05,12.950000000000001,0)" xlink:href="#aH"/><use transform="matrix(0.05,0,0,0.05,22.950000000000003,0)" xlink:href="#aj"/><use transform="matrix(0.05,0,0,0.05,32.95,0)" xlink:href="#au"/><use transform="matrix(0.05,0,0,0.05,41.95,0)" xlink:href="#aJ"/></g><g id="B"><use transform="matrix(0.05,0,0,0.05,0,0)" xlink:href="#aK"/><use transform="matrix(0.05,0,0,0.05,14,0)" xlink:href="#aL"/><use transform="matrix(0.05,0,0,0.05,24,0)" xlink:href="#ao"/></g><g id="C"><use transform="matrix(0.05,0,0,0.05,0,0)" xlink:href="#ak"/><use transform="matrix(0.05,0,0,0.05,5.95,0)" xlink:href="#aj"/><use transform="matrix(0.05,0,0,0.05,15.949999999999998,0)" xlink:href="#as"/><use transform="matrix(0.05,0,0,0.05,25.950000000000003,0)" xlink:href="#at"/><use transform="matrix(0.05,0,0,0.05,29.899999999999995,0)" xlink:href="#ak"/><use transform="matrix(0.05,0,0,0.05,35.85,0)" xlink:href="#aj"/><use transform="matrix(0.05,0,0,0.05,45.85,0)" xlink:href="#au"/><use transform="matrix(0.05,0,0,0.05,54.85,0)" xlink:href="#ao"/><use transform="matrix(0.05,0,0,0.05,59.85,0)" xlink:href="#av"/><use transform="matrix(0.05,0,0,0.05,65.8,0)" xlink:href="#aw"/><use transform="matrix(0.05,0,0,0.05,72.14999999999999,0)" xlink:href="#am"/><use transform="matrix(0.05,0,0,0.05,85.1,0)" xlink:href="#aH"/><use transform="matrix(0.05,0,0,0.05,95.1,0)" xlink:href="#aj"/><use transform="matrix(0.05,0,0,0.05,105.09999999999998,0)" xlink:href="#aJ"/><use transform="matrix(0.05,0,0,0.05,114.09999999999998,0)" xlink:href="#ap"/><use transform="matrix(0.05,0,0,0.05,124.09999999999998,0)" xlink:href="#aL"/><use transform="matrix(0.05,0,0,0.05,134.1,0)" xlink:href="#ao"/></g><path d="M190 0L58-211 59 0H30v-248h39L202-35l-2-213h31V0h-41" id="aV"/><g id="D"><use transform="matrix(0.05,0,0,0.05,0,0)" xlink:href="#ax"/><use transform="matrix(0.05,0,0,0.05,12,0)" xlink:href="#an"/><use transform="matrix(0.05,0,0,0.05,22,0)" xlink:href="#ay"/><use transform="matrix(0.05,0,0,0.05,32,0)" xlink:href="#aj"/><use transform="matrix(0.05,0,0,0.05,42,0)" xlink:href="#aw"/><use transform="matrix(0.05,0,0,0.05,48.35,0)" xlink:href="#az"/><use transform="matrix(0.05,0,0,0.05,53.35,0)" xlink:href="#aw"/><use transform="matrix(0.05,0,0,0.05,59.7,0)" xlink:href="#aV"/><use transform="matrix(0.05,0,0,0.05,72.65,0)" xlink:href="#ap"/><use transform="matrix(0.05,0,0,0.05,82.65,0)" xlink:href="#aU"/><use transform="matrix(0.05,0,0,0.05,94.65,0)" xlink:href="#as"/><use transform="matrix(0.05,0,0,0.05,104.65,0)" xlink:href="#as"/><use transform="matrix(0.05,0,0,0.05,114.65,0)" xlink:href="#ak"/><use transform="matrix(0.05,0,0,0.05,120.60000000000001,0)" xlink:href="#aj"/><use transform="matrix(0.05,0,0,0.05,130.60000000000002,0)" xlink:href="#ai"/><use transform="matrix(0.05,0,0,0.05,139.60000000000002,0)" xlink:href="#ai"/><use transform="matrix(0.05,0,0,0.05,148.60000000000002,0)" xlink:href="#aw"/><use transform="matrix(0.05,0,0,0.05,154.95000000000002,0)" xlink:href="#aE"/></g><path d="M30 0v-248h187v28H63v79h144v27H63v87h162V0H30" id="aW"/><g id="E"><use transform="matrix(0.05,0,0,0.05,0,0)" xlink:href="#aW"/><use transform="matrix(0.05,0,0,0.05,12,0)" xlink:href="#aq"/><use transform="matrix(0.05,0,0,0.05,22,0)" xlink:href="#ao"/><use transform="matrix(0.05,0,0,0.05,27,0)" xlink:href="#aj"/><use transform="matrix(0.05,0,0,0.05,37,0)" xlink:href="#ak"/></g><g id="F"><use transform="matrix(0.05,0,0,0.05,0,0)" xlink:href="#aU"/><use transform="matrix(0.05,0,0,0.05,12,0)" xlink:href="#as"/><use transform="matrix(0.05,0,0,0.05,22,0)" xlink:href="#as"/><use transform="matrix(0.05,0,0,0.05,32,0)" xlink:href="#ak"/><use transform="matrix(0.05,0,0,0.05,37.95,0)" xlink:href="#aj"/><use transform="matrix(0.05,0,0,0.05,47.95,0)" xlink:href="#ai"/><use transform="matrix(0.05,0,0,0.05,56.95,0)" xlink:href="#ai"/></g><g id="G"><use transform="matrix(0.05,0,0,0.05,0,0)" xlink:href="#aP"/><use transform="matrix(0.05,0,0,0.05,12.950000000000001,0)" xlink:href="#an"/><use transform="matrix(0.05,0,0,0.05,22.950000000000003,0)" xlink:href="#ao"/><use transform="matrix(0.05,0,0,0.05,27.950000000000003,0)" xlink:href="#an"/></g><g id="H"><use transform="matrix(0.05,0,0,0.05,0,0)" xlink:href="#aN"/><use transform="matrix(0.05,0,0,0.05,5,0)" xlink:href="#ai"/><use transform="matrix(0.05,0,0,0.05,14,0)" xlink:href="#aj"/><use transform="matrix(0.05,0,0,0.05,24,0)" xlink:href="#ao"/><use transform="matrix(0.05,0,0,0.05,29,0)" xlink:href="#aU"/><use transform="matrix(0.05,0,0,0.05,41,0)" xlink:href="#as"/><use transform="matrix(0.05,0,0,0.05,51,0)" xlink:href="#as"/><use transform="matrix(0.05,0,0,0.05,61,0)" xlink:href="#ak"/><use transform="matrix(0.05,0,0,0.05,66.95,0)" xlink:href="#aj"/><use transform="matrix(0.05,0,0,0.05,76.95,0)" xlink:href="#ai"/><use transform="matrix(0.05,0,0,0.05,85.95,0)" xlink:href="#ai"/><use transform="matrix(0.05,0,0,0.05,94.95,0)" xlink:href="#av"/><use transform="matrix(0.05,0,0,0.05,100.9,0)" xlink:href="#an"/><use transform="matrix(0.05,0,0,0.05,110.9,0)" xlink:href="#as"/><use transform="matrix(0.05,0,0,0.05,120.9,0)" xlink:href="#as"/><use transform="matrix(0.05,0,0,0.05,130.9,0)" xlink:href="#ak"/><use transform="matrix(0.05,0,0,0.05,136.85,0)" xlink:href="#aj"/><use transform="matrix(0.05,0,0,0.05,146.85,0)" xlink:href="#ai"/><use transform="matrix(0.05,0,0,0.05,155.85,0)" xlink:href="#ai"/><use transform="matrix(0.05,0,0,0.05,164.85,0)" xlink:href="#aP"/><use transform="matrix(0.05,0,0,0.05,177.79999999999998,0)" xlink:href="#an"/><use transform="matrix(0.05,0,0,0.05,187.79999999999998,0)" xlink:href="#ao"/><use transform="matrix(0.05,0,0,0.05,192.79999999999998,0)" xlink:href="#an"/><use transform="matrix(0.05,0,0,0.05,202.79999999999998,0)" xlink:href="#aE"/></g><g id="I"><use transform="matrix(0.05,0,0,0.05,0,0)" xlink:href="#ah"/><use transform="matrix(0.05,0,0,0.05,12.950000000000001,0)" xlink:href="#aR"/><use transform="matrix(0.05,0,0,0.05,22.950000000000003,0)" xlink:href="#as"/><use transform="matrix(0.05,0,0,0.05,32.95,0)" xlink:href="#an"/><use transform="matrix(0.05,0,0,0.05,42.95,0)" xlink:href="#ao"/><use transform="matrix(0.05,0,0,0.05,47.95,0)" xlink:href="#aj"/><use transform="matrix(0.05,0,0,0.05,57.95,0)" xlink:href="#ah"/><use transform="matrix(0.05,0,0,0.05,70.9,0)" xlink:href="#ai"/><use transform="matrix(0.05,0,0,0.05,79.9,0)" xlink:href="#aj"/><use transform="matrix(0.05,0,0,0.05,89.9,0)" xlink:href="#ak"/><use transform="matrix(0.05,0,0,0.05,95.85000000000001,0)" xlink:href="#av"/><use transform="matrix(0.05,0,0,0.05,101.80000000000001,0)" xlink:href="#an"/><use transform="matrix(0.05,0,0,0.05,111.80000000000001,0)" xlink:href="#as"/><use transform="matrix(0.05,0,0,0.05,121.80000000000001,0)" xlink:href="#as"/><use transform="matrix(0.05,0,0,0.05,131.8,0)" xlink:href="#ak"/><use transform="matrix(0.05,0,0,0.05,137.75,0)" xlink:href="#aj"/><use transform="matrix(0.05,0,0,0.05,147.75,0)" xlink:href="#ai"/><use transform="matrix(0.05,0,0,0.05,156.75,0)" xlink:href="#ai"/><use transform="matrix(0.05,0,0,0.05,165.75,0)" xlink:href="#aP"/><use transform="matrix(0.05,0,0,0.05,178.7,0)" xlink:href="#an"/><use transform="matrix(0.05,0,0,0.05,188.7,0)" xlink:href="#ao"/><use transform="matrix(0.05,0,0,0.05,193.7,0)" xlink:href="#an"/><use transform="matrix(0.05,0,0,0.05,203.7,0)" xlink:href="#aE"/></g><path d="M127-220V0H93v-220H8v-28h204v28h-85" id="aX"/><g id="J"><use transform="matrix(0.05,0,0,0.05,0,0)" xlink:href="#aX"/><use transform="matrix(0.05,0,0,0.05,10.3,0)" xlink:href="#ak"/><use transform="matrix(0.05,0,0,0.05,16.25,0)" xlink:href="#aL"/><use transform="matrix(0.05,0,0,0.05,26.25,0)" xlink:href="#aj"/></g><g id="K"><use transform="matrix(0.05,0,0,0.05,0,0)" xlink:href="#aK"/><use transform="matrix(0.05,0,0,0.05,14,0)" xlink:href="#aR"/><use transform="matrix(0.05,0,0,0.05,24,0)" xlink:href="#ao"/></g><path d="M26 75v-336h71v23H56V52h41v23H26" id="aY"/><g id="L"><use transform="matrix(0.05,0,0,0.05,0,0)" xlink:href="#aY"/><use transform="matrix(0.05,0,0,0.05,5,0)" xlink:href="#aV"/><use transform="matrix(0.05,0,0,0.05,17.950000000000003,0)" xlink:href="#ap"/></g><g id="M"><use transform="matrix(0.05,0,0,0.05,0,0)" xlink:href="#aU"/><use transform="matrix(0.05,0,0,0.05,12,0)" xlink:href="#as"/><use transform="matrix(0.05,0,0,0.05,22,0)" xlink:href="#as"/><use transform="matrix(0.05,0,0,0.05,32,0)" xlink:href="#ak"/><use transform="matrix(0.05,0,0,0.05,37.95,0)" xlink:href="#aj"/><use transform="matrix(0.05,0,0,0.05,47.95,0)" xlink:href="#ai"/><use transform="matrix(0.05,0,0,0.05,56.95,0)" xlink:href="#ai"/></g><path d="M3 75V52h41v-290H3v-23h71V75H3" id="aZ"/><use transform="matrix(0.05,0,0,0.05,0,0)" xlink:href="#aZ" id="N"/><path d="M141 0L90-78 38 0H4l68-98-65-92h35l48 74 47-74h35l-64 92 68 98h-35" id="ba"/><g id="O"><use transform="matrix(0.05,0,0,0.05,0,0)" xlink:href="#aV"/><use transform="matrix(0.05,0,0,0.05,12.950000000000001,0)" xlink:href="#aj"/><use transform="matrix(0.05,0,0,0.05,22.950000000000003,0)" xlink:href="#ba"/><use transform="matrix(0.05,0,0,0.05,31.950000000000003,0)" xlink:href="#ao"/></g><path d="M233-177c-1 41-23 64-60 70L243 0h-38l-65-103H63V0H30v-248c88 3 205-21 203 71zM63-129c60-2 137 13 137-47 0-61-80-42-137-45v92" id="bb"/><g id="P"><use transform="matrix(0.05,0,0,0.05,0,0)" xlink:href="#bb"/><use transform="matrix(0.05,0,0,0.05,12.950000000000001,0)" xlink:href="#aj"/><use transform="matrix(0.05,0,0,0.05,22.950000000000003,0)" xlink:href="#ai"/><use transform="matrix(0.05,0,0,0.05,31.950000000000003,0)" xlink:href="#aR"/><use transform="matrix(0.05,0,0,0.05,41.95,0)" xlink:href="#ap"/><use transform="matrix(0.05,0,0,0.05,51.95,0)" xlink:href="#aq"/><use transform="matrix(0.05,0,0,0.05,61.95,0)" xlink:href="#ai"/><use transform="matrix(0.05,0,0,0.05,70.95,0)" xlink:href="#aj"/><use transform="matrix(0.05,0,0,0.05,80.95,0)" xlink:href="#av"/><use transform="matrix(0.05,0,0,0.05,86.9,0)" xlink:href="#aU"/><use transform="matrix(0.05,0,0,0.05,98.9,0)" xlink:href="#as"/><use transform="matrix(0.05,0,0,0.05,108.9,0)" xlink:href="#as"/><use transform="matrix(0.05,0,0,0.05,118.9,0)" xlink:href="#ak"/><use transform="matrix(0.05,0,0,0.05,124.85000000000001,0)" xlink:href="#aj"/><use transform="matrix(0.05,0,0,0.05,134.85000000000002,0)" xlink:href="#ai"/><use transform="matrix(0.05,0,0,0.05,143.85000000000002,0)" xlink:href="#ai"/><use transform="matrix(0.05,0,0,0.05,152.85000000000002,0)" xlink:href="#aP"/><use transform="matrix(0.05,0,0,0.05,165.8,0)" xlink:href="#an"/><use transform="matrix(0.05,0,0,0.05,175.8,0)" xlink:href="#ao"/><use transform="matrix(0.05,0,0,0.05,180.8,0)" xlink:href="#an"/><use transform="matrix(0.05,0,0,0.05,190.8,0)" xlink:href="#aE"/></g><g id="Q"><use transform="matrix(0.05,0,0,0.05,0,0)" xlink:href="#aq"/><use transform="matrix(0.05,0,0,0.05,10,0)" xlink:href="#aj"/><use transform="matrix(0.05,0,0,0.05,20,0)" xlink:href="#ba"/><use transform="matrix(0.05,0,0,0.05,29,0)" xlink:href="#ao"/><use transform="matrix(0.05,0,0,0.05,34,0)" xlink:href="#aG"/><use transform="matrix(0.05,0,0,0.05,46,0)" xlink:href="#ao"/><use transform="matrix(0.05,0,0,0.05,51,0)" xlink:href="#an"/><use transform="matrix(0.05,0,0,0.05,61,0)" xlink:href="#ay"/><use transform="matrix(0.05,0,0,0.05,71,0)" xlink:href="#aj"/><use transform="matrix(0.05,0,0,0.05,81,0)" xlink:href="#av"/><use transform="matrix(0.05,0,0,0.05,86.95,0)" xlink:href="#aE"/></g><path d="M63-220v92h138v28H63V0H30v-248h175v28H63" id="bc"/><g id="R"><use transform="matrix(0.05,0,0,0.05,0,0)" xlink:href="#ak"/><use transform="matrix(0.05,0,0,0.05,5.95,0)" xlink:href="#aj"/><use transform="matrix(0.05,0,0,0.05,15.949999999999998,0)" xlink:href="#ai"/><use transform="matrix(0.05,0,0,0.05,24.95,0)" xlink:href="#aR"/><use transform="matrix(0.05,0,0,0.05,34.95,0)" xlink:href="#ap"/><use transform="matrix(0.05,0,0,0.05,44.95,0)" xlink:href="#aq"/><use transform="matrix(0.05,0,0,0.05,54.95,0)" xlink:href="#ai"/><use transform="matrix(0.05,0,0,0.05,63.95,0)" xlink:href="#aj"/><use transform="matrix(0.05,0,0,0.05,73.95,0)" xlink:href="#av"/><use transform="matrix(0.05,0,0,0.05,79.9,0)" xlink:href="#au"/><use transform="matrix(0.05,0,0,0.05,88.9,0)" xlink:href="#an"/><use transform="matrix(0.05,0,0,0.05,98.9,0)" xlink:href="#ak"/><use transform="matrix(0.05,0,0,0.05,104.85000000000001,0)" xlink:href="#as"/><use transform="matrix(0.05,0,0,0.05,114.85000000000001,0)" xlink:href="#bc"/><use transform="matrix(0.05,0,0,0.05,125.80000000000001,0)" xlink:href="#ap"/><use transform="matrix(0.05,0,0,0.05,135.8,0)" xlink:href="#ak"/><use transform="matrix(0.05,0,0,0.05,141.75,0)" xlink:href="#aC"/><use transform="matrix(0.05,0,0,0.05,156.7,0)" xlink:href="#aE"/></g><g id="S"><use transform="matrix(0.05,0,0,0.05,0,0)" xlink:href="#am"/><use transform="matrix(0.05,0,0,0.05,12.950000000000001,0)" xlink:href="#ak"/><use transform="matrix(0.05,0,0,0.05,18.900000000000002,0)" xlink:href="#aj"/><use transform="matrix(0.05,0,0,0.05,28.900000000000002,0)" xlink:href="#as"/><use transform="matrix(0.05,0,0,0.05,38.900000000000006,0)" xlink:href="#at"/><use transform="matrix(0.05,0,0,0.05,42.85000000000001,0)" xlink:href="#ao"/></g><g id="T"><use transform="matrix(0.05,0,0,0.05,0,0)" xlink:href="#am"/><use transform="matrix(0.05,0,0,0.05,12.950000000000001,0)" xlink:href="#an"/><use transform="matrix(0.05,0,0,0.05,22.950000000000003,0)" xlink:href="#ak"/><use transform="matrix(0.05,0,0,0.05,28.900000000000002,0)" xlink:href="#as"/></g><g id="U"><use transform="matrix(0.05,0,0,0.05,0,0)" xlink:href="#ax"/><use transform="matrix(0.05,0,0,0.05,12,0)" xlink:href="#an"/><use transform="matrix(0.05,0,0,0.05,22,0)" xlink:href="#aS"/></g><g id="V"><use transform="matrix(0.05,0,0,0.05,0,0)" xlink:href="#aR"/><use transform="matrix(0.05,0,0,0.05,10,0)" xlink:href="#an"/><use transform="matrix(0.05,0,0,0.05,20,0)" xlink:href="#aS"/><use transform="matrix(0.05,0,0,0.05,29,0)" xlink:href="#av"/><use transform="matrix(0.05,0,0,0.05,34.95,0)" xlink:href="#am"/><use transform="matrix(0.05,0,0,0.05,47.900000000000006,0)" xlink:href="#ak"/><use transform="matrix(0.05,0,0,0.05,53.85,0)" xlink:href="#aj"/><use transform="matrix(0.05,0,0,0.05,63.85,0)" xlink:href="#as"/><use transform="matrix(0.05,0,0,0.05,73.85000000000001,0)" xlink:href="#at"/><use transform="matrix(0.05,0,0,0.05,77.80000000000001,0)" xlink:href="#ao"/><use transform="matrix(0.05,0,0,0.05,82.80000000000001,0)" xlink:href="#am"/><use transform="matrix(0.05,0,0,0.05,95.75000000000001,0)" xlink:href="#an"/><use transform="matrix(0.05,0,0,0.05,105.75,0)" xlink:href="#ak"/><use transform="matrix(0.05,0,0,0.05,111.7,0)" xlink:href="#as"/><use transform="matrix(0.05,0,0,0.05,121.7,0)" xlink:href="#aP"/><use transform="matrix(0.05,0,0,0.05,134.65,0)" xlink:href="#an"/><use transform="matrix(0.05,0,0,0.05,144.65,0)" xlink:href="#ao"/><use transform="matrix(0.05,0,0,0.05,149.65,0)" xlink:href="#an"/><use transform="matrix(0.05,0,0,0.05,159.65,0)" xlink:href="#aE"/></g><g id="W"><use transform="matrix(0.05,0,0,0.05,0,0)" xlink:href="#aT"/><use transform="matrix(0.05,0,0,0.05,12,0)" xlink:href="#an"/><use transform="matrix(0.05,0,0,0.05,22,0)" xlink:href="#aq"/><use transform="matrix(0.05,0,0,0.05,32,0)" xlink:href="#aJ"/><path d="M-.9 1.25h47.8v1.32H-.9z"/></g><g id="X"><use transform="matrix(0.05,0,0,0.05,0,0)" xlink:href="#aU"/><use transform="matrix(0.05,0,0,0.05,12,0)" xlink:href="#ax"/><use transform="matrix(0.05,0,0,0.05,24,0)" xlink:href="#aB"/><path d="M-.9 1.25h30.8v1.32H-.9z"/></g><path d="M145-31C134-9 116 4 85 4 32 4 16-35 15-94c0-59 17-99 70-100 32-1 48 14 60 33 0-11-1-24 2-32h30l-1 268h-32zM93-21c41 0 51-33 51-76s-8-73-50-73c-40 0-46 35-46 75s5 74 45 74" id="bd"/><g id="Y"><use transform="matrix(0.05,0,0,0.05,0,0)" xlink:href="#ax"/><use transform="matrix(0.05,0,0,0.05,12,0)" xlink:href="#an"/><use transform="matrix(0.05,0,0,0.05,22,0)" xlink:href="#aS"/><use transform="matrix(0.05,0,0,0.05,31,0)" xlink:href="#aC"/><use transform="matrix(0.05,0,0,0.05,45.95,0)" xlink:href="#aj"/><use transform="matrix(0.05,0,0,0.05,55.95,0)" xlink:href="#aq"/><use transform="matrix(0.05,0,0,0.05,65.95,0)" xlink:href="#ao"/><use transform="matrix(0.05,0,0,0.05,70.95,0)" xlink:href="#bb"/><use transform="matrix(0.05,0,0,0.05,83.9,0)" xlink:href="#aj"/><use transform="matrix(0.05,0,0,0.05,93.9,0)" xlink:href="#bd"/><use transform="matrix(0.05,0,0,0.05,103.9,0)" xlink:href="#aL"/><use transform="matrix(0.05,0,0,0.05,113.9,0)" xlink:href="#aj"/><use transform="matrix(0.05,0,0,0.05,123.9,0)" xlink:href="#ai"/><use transform="matrix(0.05,0,0,0.05,132.9,0)" xlink:href="#ao"/><use transform="matrix(0.05,0,0,0.05,137.9,0)" xlink:href="#av"/><use transform="matrix(0.05,0,0,0.05,143.85,0)" xlink:href="#am"/><use transform="matrix(0.05,0,0,0.05,156.79999999999998,0)" xlink:href="#an"/><use transform="matrix(0.05,0,0,0.05,166.79999999999998,0)" xlink:href="#ak"/><use transform="matrix(0.05,0,0,0.05,172.74999999999997,0)" xlink:href="#as"/><use transform="matrix(0.05,0,0,0.05,182.74999999999997,0)" xlink:href="#aP"/><use transform="matrix(0.05,0,0,0.05,195.69999999999996,0)" xlink:href="#an"/><use transform="matrix(0.05,0,0,0.05,205.69999999999996,0)" xlink:href="#ao"/><use transform="matrix(0.05,0,0,0.05,210.69999999999996,0)" xlink:href="#an"/><use transform="matrix(0.05,0,0,0.05,220.69999999999996,0)" xlink:href="#az"/><use transform="matrix(0.05,0,0,0.05,225.69999999999996,0)" xlink:href="#an"/><use transform="matrix(0.05,0,0,0.05,235.69999999999996,0)" xlink:href="#aC"/><use transform="matrix(0.05,0,0,0.05,250.64999999999998,0)" xlink:href="#ap"/><use transform="matrix(0.05,0,0,0.05,260.65,0)" xlink:href="#aL"/><use transform="matrix(0.05,0,0,0.05,270.65,0)" xlink:href="#aq"/><use transform="matrix(0.05,0,0,0.05,280.65,0)" xlink:href="#ao"/><use transform="matrix(0.05,0,0,0.05,285.65,0)" xlink:href="#aE"/></g><g id="Z"><use transform="matrix(0.05,0,0,0.05,0,0)" xlink:href="#ax"/><use transform="matrix(0.05,0,0,0.05,12,0)" xlink:href="#an"/><use transform="matrix(0.05,0,0,0.05,22,0)" xlink:href="#aS"/><use transform="matrix(0.05,0,0,0.05,31,0)" xlink:href="#aC"/><use transform="matrix(0.05,0,0,0.05,45.95,0)" xlink:href="#aj"/><use transform="matrix(0.05,0,0,0.05,55.95,0)" xlink:href="#aq"/><use transform="matrix(0.05,0,0,0.05,65.95,0)" xlink:href="#ao"/><use transform="matrix(0.05,0,0,0.05,70.95,0)" xlink:href="#bb"/><use transform="matrix(0.05,0,0,0.05,83.9,0)" xlink:href="#aj"/><use transform="matrix(0.05,0,0,0.05,93.9,0)" xlink:href="#ai"/><use transform="matrix(0.05,0,0,0.05,102.9,0)" xlink:href="#aR"/><use transform="matrix(0.05,0,0,0.05,112.9,0)" xlink:href="#ap"/><use transform="matrix(0.05,0,0,0.05,122.9,0)" xlink:href="#aq"/><use transform="matrix(0.05,0,0,0.05,132.9,0)" xlink:href="#ai"/><use transform="matrix(0.05,0,0,0.05,141.9,0)" xlink:href="#aj"/><use transform="matrix(0.05,0,0,0.05,151.9,0)" xlink:href="#av"/><use transform="matrix(0.05,0,0,0.05,157.85,0)" xlink:href="#bb"/><use transform="matrix(0.05,0,0,0.05,170.79999999999998,0)" xlink:href="#aj"/><use transform="matrix(0.05,0,0,0.05,180.79999999999998,0)" xlink:href="#ai"/><use transform="matrix(0.05,0,0,0.05,189.79999999999998,0)" xlink:href="#aL"/><use transform="matrix(0.05,0,0,0.05,199.79999999999998,0)" xlink:href="#ar"/><use transform="matrix(0.05,0,0,0.05,203.74999999999997,0)" xlink:href="#ao"/><use transform="matrix(0.05,0,0,0.05,208.74999999999997,0)" xlink:href="#aE"/></g><g id="aa"><use transform="matrix(0.05,0,0,0.05,0,0)" xlink:href="#ak"/><use transform="matrix(0.05,0,0,0.05,5.95,0)" xlink:href="#aj"/><use transform="matrix(0.05,0,0,0.05,15.949999999999998,0)" xlink:href="#aR"/><use transform="matrix(0.05,0,0,0.05,25.950000000000003,0)" xlink:href="#ap"/><use transform="matrix(0.05,0,0,0.05,35.95,0)" xlink:href="#aq"/><use transform="matrix(0.05,0,0,0.05,45.95,0)" xlink:href="#ai"/><use transform="matrix(0.05,0,0,0.05,54.95,0)" xlink:href="#aj"/><use transform="matrix(0.05,0,0,0.05,64.95,0)" xlink:href="#av"/><use transform="matrix(0.05,0,0,0.05,70.9,0)" xlink:href="#aw"/><use transform="matrix(0.05,0,0,0.05,77.25,0)" xlink:href="#ax"/><use transform="matrix(0.05,0,0,0.05,89.25,0)" xlink:href="#an"/><use transform="matrix(0.05,0,0,0.05,99.25,0)" xlink:href="#aS"/><use transform="matrix(0.05,0,0,0.05,108.25,0)" xlink:href="#aC"/><use transform="matrix(0.05,0,0,0.05,123.2,0)" xlink:href="#aj"/><use transform="matrix(0.05,0,0,0.05,133.2,0)" xlink:href="#aq"/><use transform="matrix(0.05,0,0,0.05,143.2,0)" xlink:href="#ao"/></g><g id="ab"><use transform="matrix(0.05,0,0,0.05,0,0)" xlink:href="#bc"/><use transform="matrix(0.05,0,0,0.05,10.950000000000001,0)" xlink:href="#an"/><use transform="matrix(0.05,0,0,0.05,20.950000000000003,0)" xlink:href="#at"/><use transform="matrix(0.05,0,0,0.05,24.900000000000002,0)" xlink:href="#ar"/><use transform="matrix(0.05,0,0,0.05,28.85,0)" xlink:href="#aj"/><use transform="matrix(0.05,0,0,0.05,38.85,0)" xlink:href="#as"/><use transform="matrix(0.05,0,0,0.05,48.85,0)" xlink:href="#aw"/><use transform="matrix(0.05,0,0,0.05,55.2,0)" xlink:href="#aE"/></g><g id="ac"><use transform="matrix(0.05,0,0,0.05,0,0)" xlink:href="#aG"/><use transform="matrix(0.05,0,0,0.05,12,0)" xlink:href="#aL"/><use transform="matrix(0.05,0,0,0.05,22,0)" xlink:href="#au"/><use transform="matrix(0.05,0,0,0.05,31,0)" xlink:href="#au"/><use transform="matrix(0.05,0,0,0.05,40,0)" xlink:href="#aj"/><use transform="matrix(0.05,0,0,0.05,50,0)" xlink:href="#aj"/><use transform="matrix(0.05,0,0,0.05,60,0)" xlink:href="#as"/><use transform="matrix(0.05,0,0,0.05,70,0)" xlink:href="#aw"/><use transform="matrix(0.05,0,0,0.05,76.35,0)" xlink:href="#aE"/></g><path d="M108 0H70L1-190h34L89-25l56-165h34" id="be"/><g id="ad"><use transform="matrix(0.05,0,0,0.05,0,0)" xlink:href="#aU"/><use transform="matrix(0.05,0,0,0.05,12,0)" xlink:href="#ar"/><use transform="matrix(0.05,0,0,0.05,15.949999999999998,0)" xlink:href="#ao"/><use transform="matrix(0.05,0,0,0.05,20.95,0)" xlink:href="#aj"/><use transform="matrix(0.05,0,0,0.05,30.950000000000003,0)" xlink:href="#ak"/><use transform="matrix(0.05,0,0,0.05,36.9,0)" xlink:href="#aq"/><use transform="matrix(0.05,0,0,0.05,46.9,0)" xlink:href="#an"/><use transform="matrix(0.05,0,0,0.05,56.900000000000006,0)" xlink:href="#ao"/><use transform="matrix(0.05,0,0,0.05,61.900000000000006,0)" xlink:href="#at"/><use transform="matrix(0.05,0,0,0.05,65.85,0)" xlink:href="#be"/><use transform="matrix(0.05,0,0,0.05,74.85,0)" xlink:href="#aj"/></g><g id="ae"><use transform="matrix(0.05,0,0,0.05,0,0)" xlink:href="#aY"/><use transform="matrix(0.05,0,0,0.05,5,0)" xlink:href="#ax"/><use transform="matrix(0.05,0,0,0.05,17,0)" xlink:href="#an"/><use transform="matrix(0.05,0,0,0.05,27,0)" xlink:href="#aS"/><use transform="matrix(0.05,0,0,0.05,36,0)" xlink:href="#aC"/><use transform="matrix(0.05,0,0,0.05,50.95,0)" xlink:href="#aj"/><use transform="matrix(0.05,0,0,0.05,60.95,0)" xlink:href="#aq"/><use transform="matrix(0.05,0,0,0.05,70.95,0)" xlink:href="#ao"/></g><g id="af"><use transform="matrix(0.05,0,0,0.05,0,0)" xlink:href="#bc"/><use transform="matrix(0.05,0,0,0.05,10.950000000000001,0)" xlink:href="#an"/><use transform="matrix(0.05,0,0,0.05,20.950000000000003,0)" xlink:href="#at"/><use transform="matrix(0.05,0,0,0.05,24.900000000000002,0)" xlink:href="#ar"/><use transform="matrix(0.05,0,0,0.05,28.85,0)" xlink:href="#ai"/><use transform="matrix(0.05,0,0,0.05,37.85,0)" xlink:href="#aZ"/></g><g id="ag"><use transform="matrix(0.05,0,0,0.05,0,0)" xlink:href="#aY"/><use transform="matrix(0.05,0,0,0.05,5,0)" xlink:href="#aW"/><use transform="matrix(0.05,0,0,0.05,17,0)" xlink:href="#ar"/><use transform="matrix(0.05,0,0,0.05,20.95,0)" xlink:href="#ai"/><use transform="matrix(0.05,0,0,0.05,29.950000000000003,0)" xlink:href="#aj"/><use transform="matrix(0.05,0,0,0.05,39.95,0)" xlink:href="#aZ"/></g></defs></g></svg>