<svg xmlns="http://www.w3.org/2000/svg" xmlns:xlink="http://www.w3.org/1999/xlink" xmlns:lucid="lucid" width="1640" height="1051"><g transform="translate(-20 1180)" lucid:page-tab-id="c.45VkjNn7Uy"><path d="M0-1259.2h1870.4V64H0z" fill="#fff"/><path d="M499.75-960.25c0 10.9-8.84 19.75-19.75 19.75-10.9 0-19.75-8.84-19.75-19.75 0-10.9 8.84-19.75 19.75-19.75 10.9 0 19.75 8.84 19.75 19.75z" stroke="#000" stroke-width="2" fill="#fff"/><path d="M480-940.5v55.3l40 63.2m-40-63.2L440-822m0-98.75h80" stroke="#000" stroke-width="2" fill="none"/><path d="M440-980h80v180h-80z" fill="none"/><use xlink:href="#a" transform="matrix(1,0,0,1,360,-822) translate(101.05 14.6)"/><path d="M480-882.33v4m0 8.02v8m0 8.02v8.02m0 8v8.02m0 8.02v8m0 8.03v8.02m0 8.02v8m0 8.03v8m0 8.03v8m0 8.03v8m0 8.03v8m0 8.03v8m0 8.02v8m0 8.03v8m0 8.03v8m0 8.02v8.02m0 8v8.03m0 8v8.03m0 8v8.03m0 8.02v8.02m0 8v8.03m0 8v8.03m0 8v8.03m0 8v8.03m0 8v8.03m0 8v8.02m0 8v8.02m0 8.02v8m0 8.03v8m0 8.02v8m0 8.03v8m0 8.03v8m0 8.03v8.02m0 8.02v8m0 8.03v8m0 8.03v8m0 8.03v8m0 8.03v8m0 8.02v8.02m0 8v8.03m0 8v8.03m0 8v8.03m0 8v8.02m0 8v8.03m0 8v8.03m0 8v4.02M480-161.03v1.03" stroke="#000" stroke-width="2" fill="none"/><path d="M800-960h160v120H800z" stroke="#000" stroke-width="2" fill="#fff"/><use xlink:href="#b" transform="matrix(1,0,0,1,800,-960) translate(35.529999999999994 51.9)"/><use xlink:href="#c" transform="matrix(1,0,0,1,800,-960) translate(81.53 51.9)"/><use xlink:href="#d" transform="matrix(1,0,0,1,800,-960) translate(36.07999999999999 73.5)"/><path d="M880-838v3.96m0 7.92v7.92m0 7.92v7.92m0 7.92v7.92m0 7.92v7.92m0 7.92v7.92m0 7.93v7.9m0 7.93v7.92m0 7.92v7.92m0 7.9v7.93m0 7.92v7.92m0 7.92v7.9m0 7.93v7.92m0 7.92v7.92m0 7.9v7.93m0 7.92v7.92m0 7.92v7.9m0 7.94v7.92m0 7.92v7.92m0 7.92v7.92m0 7.92v7.92m0 7.92v7.92m0 7.92v7.92m0 7.92v7.92m0 7.92v7.92m0 7.92v7.92m0 7.92v7.92m0 7.92v7.92m0 7.93v7.9m0 7.93v7.92m0 7.92v7.92m0 7.9v7.93m0 7.92v7.92m0 7.92v7.9m0 7.93v7.92m0 7.92v7.92m0 7.9v7.93m0 7.92v7.92m0 7.92v7.9m0 7.94v7.92m0 7.92v7.92m0 7.92v7.92m0 7.92v7.92m0 7.92v7.92m0 7.92v3.96" stroke="#000" stroke-width="2" fill="none"/><path d="M881-837.97h-2V-839h2z"/><path d="M880-141.03v1.03" stroke="#000" stroke-width="2" fill="none"/><path d="M340-740h100v20l-10 10h-90z" fill="#fff"/><path d="M440-740v20l-10 10h-90" stroke="#000" stroke-width="2" fill="none"/><path d="M340-740h660v220H340z" stroke="#000" stroke-width="2" fill="none"/><use xlink:href="#e" transform="matrix(1,0,0,1,348,-740) translate(0 18.6)"/><path d="M1260-960h160v120h-160z" stroke="#000" stroke-width="2" fill="#fff"/><use xlink:href="#f" transform="matrix(1,0,0,1,1260,-959.9999999999999) translate(42.505 63.15)"/><use xlink:href="#g" transform="matrix(1,0,0,1,1260,-959.9999999999999) translate(88.505 63.15)"/><path d="M1340-838v3.96m0 7.92v7.92m0 7.92v7.92m0 7.92v7.92m0 7.92v7.92m0 7.92v7.92m0 7.93v7.9m0 7.93v7.92m0 7.92v7.92m0 7.9v7.93m0 7.92v7.92m0 7.92v7.9m0 7.93v7.92m0 7.92v7.92m0 7.9v7.93m0 7.92v7.92m0 7.92v7.9m0 7.94v7.92m0 7.92v7.92m0 7.92v7.92m0 7.92v7.92m0 7.92v7.92m0 7.92v7.92m0 7.92v7.92m0 7.92v7.92m0 7.92v7.92m0 7.92v7.92m0 7.92v7.92m0 7.93v7.9m0 7.93v7.92m0 7.92v7.92m0 7.9v7.93m0 7.92v7.92m0 7.92v7.9m0 7.93v7.92m0 7.92v7.92m0 7.9v7.93m0 7.92v7.92m0 7.92v7.9m0 7.94v7.92m0 7.92v7.92m0 7.92v7.92m0 7.92v7.92m0 7.92v7.92m0 7.92v3.96" stroke="#000" stroke-width="2" fill="none"/><path d="M1341-837.97h-2V-839h2z"/><path d="M1340-141.03v1.03" stroke="#000" stroke-width="2" fill="none"/><path d="M460-700h420v163.4H460z" stroke="#000" stroke-opacity="0" stroke-width="2" fill="#fff" fill-opacity="0"/><use xlink:href="#h" transform="matrix(1,0,0,1,465,-694.9999999999999) translate(80.40864197530885 78.74027777777775)"/><use xlink:href="#i" transform="matrix(1,0,0,1,465,-694.9999999999999) translate(142.1425925925927 78.74027777777775)"/><use xlink:href="#j" transform="matrix(1,0,0,1,465,-694.9999999999999) translate(203.93271604938272 78.74027777777775)"/><use xlink:href="#k" transform="matrix(1,0,0,1,465,-694.9999999999999) translate(223.03148148148145 78.74027777777775)"/><use xlink:href="#l" transform="matrix(1,0,0,1,465,-694.9999999999999) translate(264.59938271604926 78.74027777777775)"/><use xlink:href="#m" transform="matrix(1,0,0,1,465,-694.9999999999999) translate(291.506172839506 78.74027777777775)"/><path d="M340-460h100v20l-10 10h-90z" fill="#fff"/><path d="M440-460v20l-10 10h-90" stroke="#000" stroke-width="2" fill="none"/><path d="M340-460h1060v220H340z" stroke="#000" stroke-width="2" fill="none"/><g><use xlink:href="#e" transform="matrix(1,0,0,1,348,-460) translate(0 18.6)"/></g><path d="M740-420h674.55v163.4H740z" stroke="#000" stroke-opacity="0" stroke-width="2" fill="#fff" fill-opacity="0"/><g><use xlink:href="#n" transform="matrix(1,0,0,1,745,-415.00000000000006) translate(287.5898148148149 78.74027777777775)"/></g><path d="M40-1160h1600v80H40z" stroke="#000" stroke-opacity="0" stroke-width="2" fill="#fff" fill-opacity="0"/><g><use xlink:href="#o" transform="matrix(1,0,0,1,45,-1155) translate(714.8305555555556 43.524999999999984)"/></g><defs><path d="M232-93c-1 65-40 97-104 97C67 4 28-28 28-90v-158h33c8 89-33 224 67 224 102 0 64-133 71-224h33v155" id="p"/><path d="M135-143c-3-34-86-38-87 0 15 53 115 12 119 90S17 21 10-45l28-5c4 36 97 45 98 0-10-56-113-15-118-90-4-57 82-63 122-42 12 7 21 19 24 35" id="q"/><path d="M100-194c63 0 86 42 84 106H49c0 40 14 67 53 68 26 1 43-12 49-29l28 8c-11 28-37 45-77 45C44 4 14-33 15-96c1-61 26-98 85-98zm52 81c6-60-76-77-97-28-3 7-6 17-6 28h103" id="r"/><path d="M114-163C36-179 61-72 57 0H25l-1-190h30c1 12-1 29 2 39 6-27 23-49 58-41v29" id="s"/><g id="a"><use transform="matrix(0.05,0,0,0.05,0,0)" xlink:href="#p"/><use transform="matrix(0.05,0,0,0.05,12.950000000000001,0)" xlink:href="#q"/><use transform="matrix(0.05,0,0,0.05,21.950000000000003,0)" xlink:href="#r"/><use transform="matrix(0.05,0,0,0.05,31.950000000000003,0)" xlink:href="#s"/></g><path d="M160-131c35 5 61 23 61 61C221 17 115-2 30 0v-248c76 3 177-17 177 60 0 33-19 50-47 57zm-97-11c50-1 110 9 110-42 0-47-63-36-110-37v79zm0 115c55-2 124 14 124-45 0-56-70-42-124-44v89" id="t"/><path d="M100-194c62-1 85 37 85 99 1 63-27 99-86 99S16-35 15-95c0-66 28-99 85-99zM99-20c44 1 53-31 53-75 0-43-8-75-51-75s-53 32-53 75 10 74 51 75" id="u"/><path d="M143 0L79-87 56-68V0H24v-261h32v163l83-92h37l-77 82L181 0h-38" id="v"/><g id="b"><use transform="matrix(0.05,0,0,0.05,0,0)" xlink:href="#t"/><use transform="matrix(0.05,0,0,0.05,12,0)" xlink:href="#u"/><use transform="matrix(0.05,0,0,0.05,22,0)" xlink:href="#u"/><use transform="matrix(0.05,0,0,0.05,32,0)" xlink:href="#v"/><path d="M-.9 1.25h47.8v1.32H-.9z"/></g><path d="M185-189c-5-48-123-54-124 2 14 75 158 14 163 119 3 78-121 87-175 55-17-10-28-26-33-46l33-7c5 56 141 63 141-1 0-78-155-14-162-118-5-82 145-84 179-34 5 7 8 16 11 25" id="w"/><path d="M59-47c-2 24 18 29 38 22v24C64 9 27 4 27-40v-127H5v-23h24l9-43h21v43h35v23H59v120" id="x"/><g id="c"><use transform="matrix(0.05,0,0,0.05,0,0)" xlink:href="#w"/><use transform="matrix(0.05,0,0,0.05,12,0)" xlink:href="#x"/><use transform="matrix(0.05,0,0,0.05,17,0)" xlink:href="#u"/><use transform="matrix(0.05,0,0,0.05,27,0)" xlink:href="#s"/><use transform="matrix(0.05,0,0,0.05,32.95,0)" xlink:href="#r"/><path d="M-.9 1.25h44.75v1.32H-.9z"/></g><path d="M205 0l-28-72H64L36 0H1l101-248h38L239 0h-34zm-38-99l-47-123c-12 45-31 82-46 123h93" id="y"/><path d="M115-194c55 1 70 41 70 98S169 2 115 4C84 4 66-9 55-30l1 105H24l-1-265h31l2 30c10-21 28-34 59-34zm-8 174c40 0 45-34 45-75s-6-73-45-74c-42 0-51 32-51 76 0 43 10 73 51 73" id="z"/><path d="M24 0v-261h32V0H24" id="A"/><path d="M24-231v-30h32v30H24zM24 0v-190h32V0H24" id="B"/><path d="M96-169c-40 0-48 33-48 73s9 75 48 75c24 0 41-14 43-38l32 2c-6 37-31 61-74 61-59 0-76-41-82-99-10-93 101-131 147-64 4 7 5 14 7 22l-32 3c-4-21-16-35-41-35" id="C"/><path d="M141-36C126-15 110 5 73 4 37 3 15-17 15-53c-1-64 63-63 125-63 3-35-9-54-41-54-24 1-41 7-42 31l-33-3c5-37 33-52 76-52 45 0 72 20 72 64v82c-1 20 7 32 28 27v20c-31 9-61-2-59-35zM48-53c0 20 12 33 32 33 41-3 63-29 60-74-43 2-92-5-92 41" id="D"/><path d="M117-194c89-4 53 116 60 194h-32v-121c0-31-8-49-39-48C34-167 62-67 57 0H25l-1-190h30c1 10-1 24 2 32 11-22 29-35 61-36" id="E"/><g id="d"><use transform="matrix(0.05,0,0,0.05,0,0)" xlink:href="#y"/><use transform="matrix(0.05,0,0,0.05,12,0)" xlink:href="#z"/><use transform="matrix(0.05,0,0,0.05,22,0)" xlink:href="#z"/><use transform="matrix(0.05,0,0,0.05,32,0)" xlink:href="#A"/><use transform="matrix(0.05,0,0,0.05,35.95,0)" xlink:href="#B"/><use transform="matrix(0.05,0,0,0.05,39.900000000000006,0)" xlink:href="#C"/><use transform="matrix(0.05,0,0,0.05,48.900000000000006,0)" xlink:href="#D"/><use transform="matrix(0.05,0,0,0.05,58.900000000000006,0)" xlink:href="#x"/><use transform="matrix(0.05,0,0,0.05,63.900000000000006,0)" xlink:href="#B"/><use transform="matrix(0.05,0,0,0.05,67.85000000000001,0)" xlink:href="#u"/><use transform="matrix(0.05,0,0,0.05,77.85000000000001,0)" xlink:href="#E"/><path d="M-.9 1.25h89.65v1.32H-.9z"/></g><path d="M233-177c-1 41-23 64-60 70L243 0h-38l-65-103H63V0H30v-248c88 3 205-21 203 71zM63-129c60-2 137 13 137-47 0-61-80-42-137-45v92" id="F"/><path d="M101-234c-31-9-42 10-38 44h38v23H63V0H32v-167H5v-23h27c-7-52 17-82 69-68v24" id="G"/><g id="e"><use transform="matrix(0.05,0,0,0.05,0,0)" xlink:href="#F"/><use transform="matrix(0.05,0,0,0.05,12.950000000000001,0)" xlink:href="#r"/><use transform="matrix(0.05,0,0,0.05,22.950000000000003,0)" xlink:href="#G"/></g><g id="f"><use transform="matrix(0.05,0,0,0.05,0,0)" xlink:href="#t"/><use transform="matrix(0.05,0,0,0.05,12,0)" xlink:href="#D"/><use transform="matrix(0.05,0,0,0.05,22,0)" xlink:href="#E"/><use transform="matrix(0.05,0,0,0.05,32,0)" xlink:href="#v"/><path d="M-.9 1.25h47.8v1.32H-.9z"/></g><path d="M30-248c87 1 191-15 191 75 0 78-77 80-158 76V0H30v-248zm33 125c57 0 124 11 124-50 0-59-68-47-124-48v98" id="H"/><path d="M33 0v-248h34V0H33" id="I"/><g id="g"><use transform="matrix(0.05,0,0,0.05,0,0)" xlink:href="#y"/><use transform="matrix(0.05,0,0,0.05,12,0)" xlink:href="#H"/><use transform="matrix(0.05,0,0,0.05,24,0)" xlink:href="#I"/><path d="M-.9 1.25h30.8v1.32H-.9z"/></g><g id="h"><use transform="matrix(0.05617283950617275,0,0,0.05617283950617275,0,0)" xlink:href="#w"/><use transform="matrix(0.05617283950617275,0,0,0.05617283950617275,13.48148148148146,0)" xlink:href="#r"/><use transform="matrix(0.05617283950617275,0,0,0.05617283950617275,24.716049382716008,0)" xlink:href="#A"/><use transform="matrix(0.05617283950617275,0,0,0.05617283950617275,29.15370370370366,0)" xlink:href="#r"/><use transform="matrix(0.05617283950617275,0,0,0.05617283950617275,40.388271604938204,0)" xlink:href="#C"/><use transform="matrix(0.05617283950617275,0,0,0.05617283950617275,50.4993827160493,0)" xlink:href="#x"/></g><g id="i"><use transform="matrix(0.05617283950617275,0,0,0.05617283950617275,0,0)" xlink:href="#t"/><use transform="matrix(0.05617283950617275,0,0,0.05617283950617275,13.48148148148146,0)" xlink:href="#u"/><use transform="matrix(0.05617283950617275,0,0,0.05617283950617275,24.716049382716008,0)" xlink:href="#u"/><use transform="matrix(0.05617283950617275,0,0,0.05617283950617275,35.95061728395056,0)" xlink:href="#v"/><use transform="matrix(0.05617283950617275,0,0,0.05617283950617275,46.06172839506165,0)" xlink:href="#q"/></g><path d="M234-2c-28 10-62 0-77-18C117 19 8 12 13-65c3-43 29-61 60-76-25-40-17-114 47-108 35 3 59 15 59 50 0 44-40 53-71 69 14 26 32 50 51 72 14-21 24-43 30-72l26 8c-9 33-21 57-38 82 13 13 33 22 57 15v23zM97-151c25-10 52-18 56-48-1-18-13-29-33-29-42 0-39 50-23 77zM42-66c-3 51 71 58 98 28-20-24-41-51-56-80-23 10-40 24-42 52" id="J"/><use transform="matrix(0.05617283950617275,0,0,0.05617283950617275,0,0)" xlink:href="#J" id="j"/><path d="M85-194c31 0 48 13 60 33l-1-100h32l1 261h-30c-2-10 0-23-3-31C134-8 116 4 85 4 32 4 16-35 15-94c0-66 23-100 70-100zm9 24c-40 0-46 34-46 75 0 40 6 74 45 74 42 0 51-32 51-76 0-42-9-74-50-73" id="K"/><g id="k"><use transform="matrix(0.05617283950617275,0,0,0.05617283950617275,0,0)" xlink:href="#y"/><use transform="matrix(0.05617283950617275,0,0,0.05617283950617275,13.48148148148146,0)" xlink:href="#K"/><use transform="matrix(0.05617283950617275,0,0,0.05617283950617275,24.716049382716008,0)" xlink:href="#K"/></g><path d="M127-220V0H93v-220H8v-28h204v28h-85" id="L"/><g id="l"><use transform="matrix(0.05617283950617275,0,0,0.05617283950617275,0,0)" xlink:href="#L"/><use transform="matrix(0.05617283950617275,0,0,0.05617283950617275,10.054938271604922,0)" xlink:href="#u"/></g><path d="M212-179c-10-28-35-45-73-45-59 0-87 40-87 99 0 60 29 101 89 101 43 0 62-24 78-52l27 14C228-24 195 4 139 4 59 4 22-46 18-125c-6-104 99-153 187-111 19 9 31 26 39 46" id="M"/><g id="m"><use transform="matrix(0.05617283950617275,0,0,0.05617283950617275,0,0)" xlink:href="#M"/><use transform="matrix(0.05617283950617275,0,0,0.05617283950617275,14.548765432098742,0)" xlink:href="#D"/><use transform="matrix(0.05617283950617275,0,0,0.05617283950617275,25.783333333333292,0)" xlink:href="#s"/><use transform="matrix(0.05617283950617275,0,0,0.05617283950617275,32.46790123456785,0)" xlink:href="#x"/></g><path d="M106-169C34-169 62-67 57 0H25v-261h32l-1 103c12-21 28-36 61-36 89 0 53 116 60 194h-32v-121c2-32-8-49-39-48" id="N"/><path d="M140-251c81 0 123 46 123 126C263-46 219 4 140 4 59 4 17-45 17-125s42-126 123-126zm0 227c63 0 89-41 89-101s-29-99-89-99c-61 0-89 39-89 99S79-25 140-24" id="O"/><path d="M84 4C-5 8 30-112 23-190h32v120c0 31 7 50 39 49 72-2 45-101 50-169h31l1 190h-30c-1-10 1-25-2-33-11 22-28 36-60 37" id="P"/><g id="n"><use transform="matrix(0.05617283950617275,0,0,0.05617283950617275,0,0)" xlink:href="#M"/><use transform="matrix(0.05617283950617275,0,0,0.05617283950617275,14.548765432098742,0)" xlink:href="#N"/><use transform="matrix(0.05617283950617275,0,0,0.05617283950617275,25.783333333333292,0)" xlink:href="#r"/><use transform="matrix(0.05617283950617275,0,0,0.05617283950617275,37.017901234567844,0)" xlink:href="#C"/><use transform="matrix(0.05617283950617275,0,0,0.05617283950617275,47.12901234567894,0)" xlink:href="#v"/><use transform="matrix(0.05617283950617275,0,0,0.05617283950617275,57.24012345679003,0)" xlink:href="#O"/><use transform="matrix(0.05617283950617275,0,0,0.05617283950617275,72.96851851851841,0)" xlink:href="#P"/><use transform="matrix(0.05617283950617275,0,0,0.05617283950617275,84.20308641975296,0)" xlink:href="#x"/></g><g id="o"><use transform="matrix(0.1055555555555555,0,0,0.1055555555555555,0,0)" xlink:href="#H"/><use transform="matrix(0.1055555555555555,0,0,0.1055555555555555,25.33333333333332,0)" xlink:href="#P"/><use transform="matrix(0.1055555555555555,0,0,0.1055555555555555,46.44444444444442,0)" xlink:href="#s"/><use transform="matrix(0.1055555555555555,0,0,0.1055555555555555,59.005555555555524,0)" xlink:href="#C"/><use transform="matrix(0.1055555555555555,0,0,0.1055555555555555,78.00555555555552,0)" xlink:href="#N"/><use transform="matrix(0.1055555555555555,0,0,0.1055555555555555,99.11666666666662,0)" xlink:href="#D"/><use transform="matrix(0.1055555555555555,0,0,0.1055555555555555,120.22777777777772,0)" xlink:href="#q"/><use transform="matrix(0.1055555555555555,0,0,0.1055555555555555,139.2277777777777,0)" xlink:href="#r"/></g></defs></g></svg>