<svg xmlns="http://www.w3.org/2000/svg" xmlns:xlink="http://www.w3.org/1999/xlink" xmlns:lucid="lucid" width="2400" height="1671"><g transform="translate(-380 0)" lucid:page-tab-id="Ta15vikNOwYf"><path d="M0 0h3676.8v2582.4H0z" fill="#fff"/><path d="M459.75 219.75c0 10.9-8.84 19.75-19.75 19.75-10.9 0-19.75-8.84-19.75-19.75 0-10.9 8.84-19.75 19.75-19.75 10.9 0 19.75 8.84 19.75 19.75z" stroke="#000" stroke-width="2" fill="#fff"/><path d="M440 239.5v55.3l40 63.2m-40-63.2L400 358m0-98.75h80" stroke="#000" stroke-width="2" fill="none"/><path d="M400 200h80v180h-80z" fill="none"/><use xlink:href="#a" transform="matrix(1,0,0,1,320,358) translate(101.05 14.6)"/><path d="M780 480h40v320h-40z" stroke="#000" stroke-width="2" fill="#fff"/><path d="M800 322v3.9m0 7.8v7.8m0 7.8v7.8m0 7.8v7.8m0 7.8v7.8m0 7.8v7.8m0 7.8v7.8m0 7.8v7.8m0 7.8v7.8m0 7.8v7.8m0 7.8v3.9" stroke="#000" stroke-width="2" fill="none"/><path d="M800 321l1-.03v1.06h-2v-1.1z"/><path d="M800 477.97V479M437.5 360.2v4m0 8v7.98m0 8v8m0 7.98v8m0 7.98v8m0 8v7.98m0 8v8m0 7.98v8m0 7.98v8m0 8v7.98m0 8v8m0 7.98v8m0 7.98v8m0 8V572m0 8v8m0 7.98v8m0 7.98v8m0 8v7.98m0 8v8m0 7.98v8m0 7.98v8m0 8v7.98m0 8v8m0 7.98v8m0 7.98v8m0 8v7.98m0 8v8m0 7.98v8m0 7.98v8m0 8v7.98m0 8v8m0 7.98v8m0 7.98v8m0 8v7.98m0 8v8m0 7.98v8m0 7.98v8m0 8v7.98m0 8v8m0 7.98v8m0 7.98v8m0 8v7.98m0 8v8m0 7.98v8m0 7.98v8m0 8v7.98m0 8v8m0 7.98v8m0 7.98v8m0 8v7.98m0 8v8m0 7.98v8m0 7.98v8m0 8v7.98m0 8v8m0 7.98v8m0 7.98v8m0 8v7.98m0 8v8m0 7.98v8m0 7.98v8m0 8v7.98m0 8v8m0 7.98v8m0 7.98v8m0 8v7.98m0 8v8m0 7.98v8m0 7.98v8m0 8v7.98m0 8v8m0 7.98v8m0 7.98v8m0 8v7.98m0 8v8m0 7.98v8m0 7.98v8m0 8v7.98m0 8v8m0 7.98v8m0 7.98v4M437.5 360.23v-1.03M437.5 1638.97v1.03" stroke="#000" stroke-width="2" fill="none"/><path d="M438 428h634.62M438.02 428h-.5" stroke="#333" fill="none"/><path d="M1087.38 428l-14.26 4.63v-9.27z" stroke="#333" fill="#333"/><use xlink:href="#b" transform="matrix(1,0,0,1,471.77054930194134,402.39900000000017) translate(0.0049999999999954525 14.4)"/><use xlink:href="#c" transform="matrix(1,0,0,1,471.77054930194134,402.39900000000017) translate(71.955 14.4)"/><use xlink:href="#d" transform="matrix(1,0,0,1,471.77054930194134,402.39900000000017) translate(140.905 14.4)"/><path d="M1020 220h180v120h-180z" stroke="#000" stroke-width="2" fill="#fff"/><use xlink:href="#e" transform="matrix(1,0,0,1,1020,220) translate(22.179999999999986 63.15)"/><use xlink:href="#f" transform="matrix(1,0,0,1,1020,220) translate(32.179999999999986 63.15)"/><path d="M1090 420h40v120h-40z" stroke="#000" stroke-width="2" fill="#fff"/><path d="M1110 342v4.13m0 8.25v8.25m0 8.25v8.25m0 8.25v8.25m0 8.25V408" stroke="#000" stroke-width="2" fill="none"/><path d="M1111 342.03h-2V341h2z"/><path d="M1110 407.97V409M1088 494.67h-3.88m-7.77 0h-7.76m-7.78 0h-7.77m-7.76 0h-7.78m-7.76 0H1022m-7.77 0h-7.77m-7.76 0h-7.77m-7.77 0h-7.76m-7.77 0h-7.76m-7.77 0h-7.76m-7.77 0h-7.76m-7.76 0h-7.76m-7.77 0h-7.76m-7.76 0h-7.77m-7.75 0h-7.77m-7.76 0h-7.77m-7.77 0h-3.88" stroke="#000" stroke-width="2" fill="none"/><path d="M1089 495.67h-1.03v-2h1.03z"/><path d="M824.24 494.67l14.26-4.64v9.27z" stroke="#000" stroke-width="2"/><use xlink:href="#g" transform="matrix(1,0,0,1,895.6249999999989,498.66566666666677) translate(0 14.4)"/><use xlink:href="#h" transform="matrix(1,0,0,1,895.6249999999989,498.66566666666677) translate(132.8 14.4)"/><path d="M438.5 619.4h322M438.54 619.4h-1.03" stroke="#000" stroke-width="2" fill="none"/><path d="M775.76 619.4l-14.26 4.63v-9.27z" stroke="#000" stroke-width="2"/><use xlink:href="#i" transform="matrix(1,0,0,1,534.3305305037024,593.7932267633036) translate(0 14.4)"/><use xlink:href="#j" transform="matrix(1,0,0,1,534.3305305037024,593.7932267633036) translate(47.95 14.4)"/><use xlink:href="#k" transform="matrix(1,0,0,1,534.3305305037024,593.7932267633036) translate(109.9 14.4)"/><path d="M438.5 687.5h322M438.54 687.5h-1.03" stroke="#000" stroke-width="2" fill="none"/><path d="M775.76 687.5l-14.26 4.64v-9.27z" stroke="#000" stroke-width="2"/><use xlink:href="#l" transform="matrix(1,0,0,1,566.3305305037024,661.903980448283) translate(0 14.4)"/><use xlink:href="#m" transform="matrix(1,0,0,1,566.3305305037024,661.903980448283) translate(26.900000000000002 14.4)"/><path d="M822 729.5h1164.5" stroke="#000" stroke-width="2" fill="none"/><path d="M822.03 730.5H821v-2h1.03z"/><path d="M2001.76 729.5l-14.26 4.64v-9.27z" stroke="#000" stroke-width="2"/><use xlink:href="#n" transform="matrix(1,0,0,1,853.2796685787123,703.9039804482829) translate(0 14.4)"/><use xlink:href="#o" transform="matrix(1,0,0,1,853.2796685787123,703.9039804482829) translate(101.9 14.4)"/><path d="M420 20h2300v100H420z" stroke="#000" stroke-opacity="0" stroke-width="2" fill="#fff" fill-opacity="0"/><use xlink:href="#p" transform="matrix(1,0,0,1,425,25) translate(910.877777777778 52.899999999999984)"/><use xlink:href="#q" transform="matrix(1,0,0,1,425,25) translate(1026.8833333333334 52.899999999999984)"/><use xlink:href="#r" transform="matrix(1,0,0,1,425,25) translate(1142.9944444444445 52.899999999999984)"/><use xlink:href="#s" transform="matrix(1,0,0,1,425,25) translate(1178.8833333333332 52.899999999999984)"/><use xlink:href="#t" transform="matrix(1,0,0,1,425,25) translate(1256.9944444444445 52.899999999999984)"/><use xlink:href="#u" transform="matrix(1,0,0,1,425,25) translate(1307.5555555555554 52.899999999999984)"/><path d="M1410 323.32v4m0 8.03v8.02m0 8.03v8.02m0 8.02v8.02m0 8.03v8m0 8.03v8.02m0 8.03v8.02m0 8.02v8.02m0 8.03v8.02m0 8v8.03m0 8.02v8.03m0 8.02v8.02m0 8.02v8.03m0 8.02v8m0 8.03v8.03m0 8.02V568m0 8.02v8.03m0 8.02v8.02m0 8v8.04m0 8.02v8.02m0 8.02v8.03m0 8.02v8.02m0 8.02v8.02m0 8.02v8.02m0 8.02v8.03m0 8.03v8.02m0 8.02v8.03m0 8.02v8.02m0 8.02v8.03m0 8v8.03m0 8.02v8.03m0 8.02v8.02m0 8.02v8.03m0 8.02v8m0 8.03v8.03m0 8.02v8.02m0 8.02v8.03m0 8.02V921m0 8v8.03m0 8.03v8.02m0 8.02v8.02m0 8.03v8.02m0 8.02v8m0 8.04v8.02m0 8.02v8.02m0 8.03v8.02m0 8.02v8.02m0 8.02v8.02m0 8.02v8.02m0 8.03v8.03m0 8.02v8.02m0 8.03v8.02m0 8.02v8.02m0 8.03v8m0 8.03v8.02m0 8.03v8.02m0 8.02v8.02m0 8.03v8.02m0 8v8.03m0 8.03v8.02m0 8.02v8.02m0 8.03v8.02m0 8.02v8m0 8.04v8.02m0 8.02v8.02m0 8.03v8.02m0 8.02v8.02m0 8.02v8.02m0 8.02v8.02m0 8.02v8.03m0 8.02v8.02m0 8.02v8.02m0 8.02v8.02m0 8.02v8.03m0 8.03v8.02m0 8.02v8.03m0 8.02v8.02m0 8.02v8.03m0 8v8.03m0 8.02v8.03m0 8.02v8.02m0 8.02v8.03m0 8.02v4" stroke="#000" stroke-width="2" fill="none"/><path d="M1410.73 322.55l.27.04v.74h-2V322z"/><path d="M1410 1638.97v1.03" stroke="#000" stroke-width="2" fill="none"/><path d="M1936 220h180v120h-180z" stroke="#000" stroke-width="2" fill="#fff"/><use xlink:href="#e" transform="matrix(1,0,0,1,1936,220.0000000000001) translate(25.62999999999999 63.15)"/><use xlink:href="#v" transform="matrix(1,0,0,1,1936,220.0000000000001) translate(35.62999999999999 63.15)"/><path d="M1629 323.43v4.02m0 8.05v8.04m0 8.05v8.03m0 8.05v8.05m0 8.04v8.05m0 8.04v8.05m0 8.05V424m0 8.04v8.05m0 8.04v8.04m0 8.05v8.04m0 8.05v8.04m0 8.05v8.06m0 8.04v8.05m0 8.04v8.04m0 8.04v8.05m0 8.04v8.05m0 8.05v8.04m0 8.06V601m0 8.05v8.04m0 8.04v8.05m0 8.03v8.05m0 8.04v8.05m0 8.04v8.06m0 8.04v8.05m0 8.05v8.04m0 8.05v8.03m0 8.05v8.04m0 8.05v8.04m0 8.06V778m0 8.05v8.05m0 8.04v8.05m0 8.03v8.05m0 8.05v8.04m0 8.05v8.04m0 8.05v8.05m0 8.05v8.04m0 8.05v8.04m0 8.04v8.05m0 8.04v8.05m0 8.04V955m0 8.05v8.05m0 8.05v8.04m0 8.04v8.04m0 8.05v8.04m0 8.05v8.05m0 8.04v8.06m0 8.04v8.05m0 8.04v8.04m0 8.04v8.05m0 8.05v8.04m0 8.05v8.04m0 8.06v8.04m0 8.05v8.05m0 8.04v8.05m0 8.03v8.05m0 8.04v8.05m0 8.04v8.06m0 8.05v8.05m0 8.05v8.04m0 8.05v8.03m0 8.05v8.04m0 8.05v8.05m0 8.04v8.05m0 8.05v8.05m0 8.04v8.05m0 8.04v8.04m0 8.05v8.04m0 8.05v8.04m0 8.05v8.05m0 8.05v8.05m0 8.04v8.04m0 8.04v8.05m0 8.04v8.05m0 8.05v8.04m0 8.06v8.04m0 8.05v8.04m0 8.04v8.04m0 8.05v8.05m0 8.04v8.05m0 8.04v8.06m0 8.04v8.05m0 8.04v8.04m0 8.05v8.03m0 8.05v4.02" stroke="#000" stroke-width="2" fill="none"/><path d="M1628.83 322.4l1.17.22v.83h-2v-1.32z"/><path d="M1629 1658.97v1.03M2026 342v4.02m0 8.03v8.03m0 8.03v8.04m0 8.03v8.03m0 8.03v8.03m0 8.03v8.02m0 8.03v8.03m0 8.03v8.04m0 8.03v8.03m0 8.03v8.03m0 8.03v8.02m0 8.04v8.03m0 8.02v8.03m0 8.03v8.03m0 8.04v8.03m0 8.03v8.03m0 8.03V603m0 8.02v8.03m0 8.03v8.03m0 8.04v8.03m0 8.03v8.03m0 8.04v8.03m0 8.03v8.03m0 8.03v8.02m0 8.03v8.03m0 8.03v8.04m0 8.03v8.03m0 8.03v8.03m0 8.03v8.02m0 8.03v8.03m0 8.03v8.04m0 8.03v8.04m0 8.04v8.03m0 8.03v8.03m0 8.03v8.03m0 8.02v8.03m0 8.03v8.03m0 8.04v8.03m0 8.03v8.03m0 8.03v8.03m0 8.02v8.03m0 8.03v8.04m0 8.03v8.03m0 8.03v8.04m0 8.03v8.03m0 8.03v8.03m0 8.03v8.02m0 8.03v8.03m0 8.03v8.04m0 8.03v8.03m0 8.03v8.03m0 8.03v8.02m0 8.04v8.03m0 8.02v8.03m0 8.03v8.03m0 8.04v8.03m0 8.03v8.03m0 8.03v8.03m0 8.02v8.03m0 8.03v8.03m0 8.04v8.03m0 8.03v8.03m0 8.04v8.03m0 8.03v8.03m0 8.03v8.02m0 8.03v8.03m0 8.03v8.04m0 8.03v8.03m0 8.03v8.03m0 8.03v8.02m0 8.03v8.03m0 8.03v8.04m0 8.03v8.04m0 8.04v8.03m0 8.03v8.03m0 8.03v8.03m0 8.02v8.03m0 8.03v8.03m0 8.04v8.03m0 8.03v8.03m0 8.03v8.03m0 8.02v8.03m0 8.03v4.02" stroke="#000" stroke-width="2" fill="none"/><path d="M2027 342.03h-2V341h2z"/><path d="M2026 1658.97v1.03M2004 906.67h-554.5" stroke="#000" stroke-width="2" fill="none"/><path d="M2005 907.67h-1.03v-2h1.03z"/><path d="M1434.24 906.67l14.26-4.64v9.27z" stroke="#000" stroke-width="2"/><use xlink:href="#w" transform="matrix(1,0,0,1,1702.2383792048922,910.6666666666665) translate(0 14.4)"/><use xlink:href="#x" transform="matrix(1,0,0,1,1702.2383792048922,910.6666666666665) translate(127.14999999999999 14.4)"/><use xlink:href="#y" transform="matrix(1,0,0,1,1702.2383792048922,910.6666666666665) translate(160.1 14.4)"/><path d="M840 280c0 22.1-17.9 40-40 40s-40-17.9-40-40 17.9-40 40-40 40 17.9 40 40z" stroke="#000" stroke-width="2" fill="#fff"/><path d="M740 240v80m0-40h20" stroke="#000" stroke-width="2" fill="none"/><use xlink:href="#z" transform="matrix(1,0,0,1,720,320) translate(32.55 14.4)"/><use xlink:href="#A" transform="matrix(1,0,0,1,720,320) translate(85.45 14.4)"/><path d="M1459.33 281.33c0 22.83-17.6 41.34-39.33 41.34-21.72 0-39.33-18.5-39.33-41.34 0-22.82 17.6-41.33 39.33-41.33 21.72 0 39.33 18.5 39.33 41.33z" stroke="#000" stroke-width="2" fill="#fff"/><path d="M1360.67 240v82.67m0-41.34h20" stroke="#000" stroke-width="2" fill="none"/><use xlink:href="#B" transform="matrix(1,0,0,1,1340.6666666666665,322.66666666666663) translate(19.025 14.4)"/><use xlink:href="#C" transform="matrix(1,0,0,1,1340.6666666666665,322.66666666666663) translate(65.025 14.4)"/><use xlink:href="#A" transform="matrix(1,0,0,1,1340.6666666666665,322.66666666666663) translate(97.975 14.4)"/><path d="M1679 282.67c0 22.1-17.9 40-40 40s-40-17.9-40-40 17.9-40 40-40 40 17.9 40 40z" stroke="#000" stroke-width="2" fill="#fff"/><path d="M1579 242.67v80m0-40h20" stroke="#000" stroke-width="2" fill="none"/><use xlink:href="#B" transform="matrix(1,0,0,1,1559,322.66666666666674) translate(6.074999999999989 14.4)"/><use xlink:href="#D" transform="matrix(1,0,0,1,1559,322.66666666666674) translate(52.07499999999999 14.4)"/><use xlink:href="#A" transform="matrix(1,0,0,1,1559,322.66666666666674) translate(111.925 14.4)"/><path d="M1390 860h40v220h-40zM2006 700h40v240h-40z" stroke="#000" stroke-width="2" fill="#fff"/><path d="M2072 760h227.5" stroke="#000" stroke-width="2" fill="none"/><path d="M2072.03 761H2071v-2h1.03z"/><path d="M2314.76 760l-14.26 4.64v-9.28z" stroke="#000" stroke-width="2"/><use xlink:href="#E" transform="matrix(1,0,0,1,2119.2,734.4000000000389) translate(0 14.4)"/><path d="M2339 320c-27.6 0-50-22.4-50-50s22.4-50 50-50 50 22.4 50 50-22.4 50-50 50z" stroke="#000" stroke-width="2" fill="#fff"/><path d="M2289 320h100" stroke="#000" stroke-width="2" fill="none"/><use xlink:href="#F" transform="matrix(1,0,0,1,2249,320) translate(31.525 14.4)"/><use xlink:href="#G" transform="matrix(1,0,0,1,2249,320) translate(86.525 14.4)"/><path d="M2339 322v3.98m0 7.96v7.96m0 7.95v7.96m0 7.97v7.96m0 7.96v7.95m0 7.95v7.96m0 7.96v7.96m0 7.96v7.96m0 7.95v7.96m0 7.97v7.96m0 7.96v7.95m0 7.95v7.96m0 7.96v7.96m0 7.96v7.96m0 7.95v7.96m0 7.97v7.96m0 7.96v7.95m0 7.95v7.96m0 7.96v7.96m0 7.96v7.96m0 7.95v7.96m0 7.97v7.96m0 7.96v7.95m0 7.95v7.96m0 7.96v7.96m0 7.96v7.96m0 7.95v7.96m0 7.97v7.96m0 7.96v7.95m0 7.95v7.96m0 7.96v7.96m0 7.96v7.96m0 7.95v7.96m0 7.97v7.96m0 7.96v7.95m0 7.95v7.96m0 7.96v7.96m0 7.96v7.96m0 7.95v7.96m0 7.97v7.96m0 7.96v7.95m0 7.95v7.96m0 7.96v7.96m0 7.96v7.96m0 7.95v7.96m0 7.97v7.96m0 7.96v7.95m0 7.95v7.96m0 7.96v7.96m0 7.96v7.96m0 7.95v7.96m0 7.97v7.96m0 7.96v7.95m0 7.95v7.96m0 7.96v7.96m0 7.96v7.96m0 7.95v7.96m0 7.97v7.96m0 7.96v7.95m0 7.95v7.96m0 7.96v7.96m0 7.96v7.96m0 7.95v7.96m0 7.97v7.96m0 7.96v7.95m0 7.95v7.96m0 7.96v7.96m0 7.96v7.96m0 7.95v7.96m0 7.97v7.96m0 7.96v7.95m0 7.95v7.96m0 7.96v7.96m0 7.96v7.96m0 7.95v7.96m0 7.97v7.96m0 7.96v7.95m0 7.95v7.96m0 7.96v7.96m0 7.96v7.96m0 7.95v7.96m0 7.97v7.96m0 7.96v7.95m0 7.95v7.96m0 7.96v3.98" stroke="#000" stroke-width="2" fill="none"/><path d="M2338.98 321h1.02v1.03h-2V321z"/><path d="M2339 1658.97v1.03" stroke="#000" stroke-width="2" fill="none"/><path d="M2319 737.33h40V860h-40zM2030 740h40v120h-40z" stroke="#000" stroke-width="2" fill="#fff"/><path d="M2317 818.67h-4.06m-8.13 0h-8.1m-8.14 0h-8.12m-8.13 0h-8.1m-8.14 0h-8.12m-8.13 0h-8.1m-8.14 0h-8.12m-8.13 0h-8.1m-8.14 0h-8.12m-8.13 0h-8.1m-8.14 0h-8.12m-8.13 0h-8.1m-8.14 0h-8.12m-8.12 0h-8.13m-8.13 0h-4.07" stroke="#000" stroke-width="2" fill="none"/><path d="M2318 819.67h-1.03v-2h1.03z"/><path d="M2074.24 818.67l14.26-4.64v9.27z" stroke="#000" stroke-width="2"/><use xlink:href="#H" transform="matrix(1,0,0,1,2161.9019063180826,822.6666666666665) translate(0 14.4)"/><path d="M778 525.33h-4m-7.98 0h-8m-7.98 0h-7.98m-8 0h-7.98m-8 0h-7.97m-7.98 0h-8m-7.98 0h-7.98m-8 0h-7.98m-8 0h-7.97m-7.98 0h-8m-7.98 0h-7.98m-8 0h-7.98m-7.98 0h-8m-7.98 0h-8m-7.97 0h-8m-7.98 0h-8m-7.97 0h-8m-7.98 0h-8m-7.97 0h-8m-7.98 0h-8m-7.97 0h-4M777.97 525.33H779" stroke="#000" stroke-width="2" fill="none"/><path d="M443.24 525.33l14.26-4.63v9.27z" stroke="#000" stroke-width="2"/><use xlink:href="#I" transform="matrix(1,0,0,1,580.0749598551113,529.3333267574437) translate(0 14.4)"/><path d="M1388 938.67h-4.02m-8.03 0h-8.04m-8.02 0h-8.03m-8.04 0h-8.02m-8.04 0h-8.03m-8.03 0h-8.03m-8.04 0h-8.03m-8.03 0h-8.04m-8.03 0h-8.04m-8.03 0h-8.04m-8.03 0h-8.03m-8.04 0h-8.03m-8.04 0h-8.04m-8.04 0h-8.03m-8.05 0h-8.03m-8.03 0h-8.05m-8.03 0h-8.04m-8.03 0h-8.04m-8.02 0h-8.03m-8.04 0h-8.02m-8.04 0h-8.03m-8.03 0h-8.03m-8.04 0h-8.03m-8.03 0h-8.04m-8.03 0h-8.04m-8.03 0h-8.04m-8.03 0h-8.03m-8.04 0h-8.03m-8.04 0h-8.04m-8.04 0H918m-8.05 0h-8.03m-8.03 0h-8.05m-8.03 0h-8.04m-8.03 0h-8.04m-8.02 0h-8.03m-8.04 0h-8.02m-8.04 0h-8.03m-8.03 0h-8.03m-8.04 0h-8.03m-8.03 0h-8.04m-8.03 0h-8.04m-8.03 0h-8.04m-8.03 0h-8.03m-8.04 0h-8.03m-8.04 0h-8.04m-8.04 0h-8.03m-8.04 0h-8.04m-8.03 0h-8.05m-8.03 0h-8.04m-8.03 0h-8.04m-8.02 0h-8.03m-8.04 0h-8.02m-8.04 0h-8.03m-8.03 0h-8.03m-8.03 0h-8.03m-8.03 0h-8.04m-8.03 0h-8.04m-8.03 0h-8.04m-8.03 0H456" stroke="#000" stroke-width="2" fill="none"/><path d="M1389 939.67h-1.03v-2h1.03z"/><path d="M440.75 938.67l14.26-4.64v9.27z" stroke="#000" stroke-width="2"/><use xlink:href="#I" transform="matrix(1,0,0,1,883.8305305037024,942.6666666666664) translate(0 14.4)"/><path d="M1110 542v3.97m0 7.95v7.95m0 7.95v7.95m0 7.95v7.95m0 7.95v7.95m0 7.95v7.95m0 7.95v7.95m0 7.94v7.96m0 7.95v7.96m0 7.95v7.96m0 7.95v7.96m0 7.95v7.96m0 7.95v7.96m0 7.95v7.95m0 7.95v7.95m0 7.95v7.95m0 7.95v7.95m0 7.95v7.95m0 7.95v7.95m0 7.95v7.95m0 7.95v7.94m0 7.95v7.94m0 7.95v7.94m0 7.95v7.94m0 7.95v7.94m0 7.95v7.94m0 7.95v7.94m0 7.95v7.93m0 7.95v7.95m0 7.95v7.95m0 7.95v7.95m0 7.95v7.95m0 7.95v7.95m0 7.95v7.95m0 7.95v7.94m0 7.95v7.95m0 7.95v7.95m0 7.95v7.95m0 7.95v7.95m0 7.95v7.95m0 7.95v7.95m0 7.95v7.94m0 7.96v7.95m0 7.96v7.95m0 7.96v7.95m0 7.96v7.95m0 7.96v7.95m0 7.96v7.95m0 7.96v7.94m0 7.95v7.95m0 7.95v7.95m0 7.95v7.95m0 7.95v7.95m0 7.95v7.95m0 7.95v7.95m0 7.95v7.94m0 7.94v7.95m0 7.94v7.95m0 7.94v7.95m0 7.94v7.95m0 7.94v7.95m0 7.94v7.95m0 7.94v7.94m0 7.95v7.95m0 7.95v7.95m0 7.95v7.95m0 7.95v7.95m0 7.95v7.95m0 7.95v7.95m0 7.95v3.97" stroke="#000" stroke-width="2" fill="none"/><path d="M1111 542.02h-2V541h2z"/><path d="M1110 1638.97v1.03" stroke="#000" stroke-width="2" fill="none"/><path d="M1620 1180h40v420h-40zM2006 1020h40v240h-40z" stroke="#000" stroke-width="2" fill="#fff"/><path d="M438 1012.86h934.62M438.02 1012.86h-.5" stroke="#333" fill="none"/><path d="M1387.38 1012.86l-14.26 4.64v-9.27z" stroke="#333" fill="#333"/><use xlink:href="#J" transform="matrix(1,0,0,1,454.14674489734216,987.2616576536216) translate(0.0049999999999954525 14.4)"/><use xlink:href="#K" transform="matrix(1,0,0,1,454.14674489734216,987.2616576536216) translate(26.904999999999998 14.4)"/><use xlink:href="#L" transform="matrix(1,0,0,1,454.14674489734216,987.2616576536216) translate(86.75500000000001 14.4)"/><path d="M1432 1043.45h554.5" stroke="#000" stroke-width="2" fill="none"/><path d="M1432.03 1044.45H1431v-2h1.03z"/><path d="M2001.76 1043.45l-14.26 4.63v-9.27z" stroke="#000" stroke-width="2"/><use xlink:href="#M" transform="matrix(1,0,0,1,1466.5668869201108,1017.8454022008884) translate(0 14.4)"/><path d="M2319 1040h40v180h-40z" stroke="#000" stroke-width="2" fill="#fff"/><path d="M2064.5 1094.67h235" stroke="#000" stroke-width="2" fill="none"/><path d="M2064.53 1095.67h-1.03v-2h1.03z"/><path d="M2314.76 1094.67l-14.26 4.63v-9.27z" stroke="#000" stroke-width="2"/><use xlink:href="#N" transform="matrix(1,0,0,1,2075.0749999999975,1069.0666666666662) translate(0 14.4)"/><path d="M2317 1168h-3.92m-7.83 0h-7.83m-7.84 0h-7.83m-7.83 0h-7.84m-7.83 0h-7.83m-7.84 0h-7.83m-7.83 0h-7.84m-7.83 0h-7.83m-7.84 0h-7.83m-7.83 0h-7.84m-7.83 0h-7.83m-7.84 0h-7.83m-7.83 0h-7.84m-7.83 0h-7.83m-7.83 0h-7.85m-7.83 0H2082" stroke="#000" stroke-width="2" fill="none"/><path d="M2318 1169h-1.03v-2h1.03z"/><path d="M2066.74 1168l14.26-4.64v9.28z" stroke="#000" stroke-width="2"/><use xlink:href="#O" transform="matrix(1,0,0,1,2170.25,1171.9999999999993) translate(0 14.4)"/><path d="M2022.5 1060h40v120h-40z" stroke="#000" stroke-width="2" fill="#fff"/><path d="M2004 1210.67h-324.5" stroke="#000" stroke-width="2" fill="none"/><path d="M2005 1211.67h-1.03v-2h1.03z"/><path d="M1664.24 1210.67l14.26-4.64v9.27z" stroke="#000" stroke-width="2"/><g><use xlink:href="#w" transform="matrix(1,0,0,1,1689.35,1214.666666666666) translate(0 14.4)"/><use xlink:href="#P" transform="matrix(1,0,0,1,1689.35,1214.666666666666) translate(127.14999999999999 14.4)"/><use xlink:href="#Q" transform="matrix(1,0,0,1,1689.35,1214.666666666666) translate(187 14.4)"/></g><path d="M1618 1262.67h-3.98m-7.96 0h-7.96m-7.96 0h-7.95m-7.97 0h-7.96m-7.96 0h-7.95m-7.96 0h-7.97m-7.96 0h-7.96m-7.94 0h-7.96m-7.96 0h-7.96m-7.96 0h-7.96m-7.96 0h-7.96m-7.95 0h-7.97m-7.96 0H1423m-7.95 0h-7.96m-7.97 0h-7.96m-7.95 0h-7.96m-7.96 0h-7.96m-7.96 0h-7.96m-7.96 0h-7.96m-7.96 0h-7.95m-7.97 0h-7.96m-7.96 0h-7.95m-7.96 0h-7.97m-7.96 0h-7.95m-7.96 0H1232m-7.96 0h-7.96m-7.96 0h-7.96m-7.96 0h-7.96m-7.95 0h-7.97m-7.96 0h-7.96m-7.95 0h-7.96m-7.97 0h-7.96m-7.95 0h-7.96m-7.96 0h-7.96m-7.96 0h-7.96m-7.96 0h-7.96m-7.95 0H1041m-7.97 0h-7.97m-7.95 0h-7.95m-7.96 0h-7.97m-7.96 0h-7.95m-7.96 0h-7.96m-7.96 0h-7.96m-7.96 0h-7.96m-7.96 0h-7.95m-7.96 0h-7.97m-7.96 0h-7.96m-7.95 0h-7.96m-7.97 0h-7.96m-7.95 0h-7.96m-7.96 0h-7.96m-7.96 0h-7.96m-7.96 0h-7.96m-7.95 0h-7.96m-7.97 0h-7.96m-7.96 0h-7.95m-7.96 0h-7.97m-7.95 0h-7.96m-7.96 0h-7.96m-7.96 0h-7.96m-7.96 0h-7.96m-7.96 0h-7.95m-7.96 0h-7.97m-7.96 0h-7.96m-7.95 0h-7.96m-7.97 0h-7.95m-7.96 0h-7.96m-7.96 0h-7.96m-7.96 0h-7.96m-7.96 0h-7.95m-7.95 0h-7.96m-7.97 0h-7.96m-7.96 0h-7.95m-7.96 0h-4" stroke="#000" stroke-width="2" fill="none"/><path d="M1619 1263.67h-1.03v-2h1.03z"/><path d="M440.75 1262.67l14.26-4.64v9.27z" stroke="#000" stroke-width="2"/><g><use xlink:href="#I" transform="matrix(1,0,0,1,998.8305305037024,1266.666666666666) translate(0 14.4)"/></g><path d="M2580 230h180v120h-180z" stroke="#000" stroke-width="2" fill="#fff"/><g><use xlink:href="#e" transform="matrix(1,0,0,1,2580,230) translate(29.179999999999986 63.15)"/><use xlink:href="#R" transform="matrix(1,0,0,1,2580,230) translate(39.179999999999986 63.15)"/></g><path d="M2670 352v3.98m0 7.97v7.97m0 7.97v7.96m0 7.97v7.97m0 7.97v7.97m0 7.97v7.98m0 7.97v7.97m0 7.97v7.96m0 7.97v7.97m0 7.97v7.97m0 7.97v7.98m0 7.96v7.97m0 7.98v7.97m0 7.97v7.97m0 7.96v7.97m0 7.97v7.97m0 7.97V611m0 7.98v7.97m0 7.97v7.97m0 7.96v7.97m0 7.97v7.97m0 7.96v7.97m0 7.97v7.97m0 7.97v7.98m0 7.97v7.97m0 7.97v7.96m0 7.97v7.97m0 7.97v7.97m0 7.97v7.98m0 7.97v7.97m0 7.97v7.96m0 7.97v7.96m0 7.96v7.97m0 7.97v7.97m0 7.97v7.97m0 7.98v7.97m0 7.97v7.97m0 7.96v7.97m0 7.97v7.97m0 7.97v7.97m0 7.98v7.97m0 7.97v7.96m0 7.97v7.97m0 7.97v7.96m0 7.97v7.97m0 7.97v7.97m0 7.97v7.98m0 7.97v7.97m0 7.97v7.96m0 7.97v7.97m0 7.97v7.97m0 7.97v7.98m0 7.96v7.97m0 7.98v7.97m0 7.97v7.97m0 7.96v7.97m0 7.97v7.97m0 7.97v7.97m0 7.98v7.97m0 7.97v7.97m0 7.96v7.97m0 7.97v7.97m0 7.96v7.97m0 7.97v7.97m0 7.97v7.98m0 7.97v7.97m0 7.97v7.96m0 7.97v7.97m0 7.97v7.97m0 7.97v7.98m0 7.97v7.97m0 7.97v7.96m0 7.97v7.96m0 7.96v7.97m0 7.97v7.97m0 7.97v7.97m0 7.98v7.97m0 7.97v7.97m0 7.96v7.97m0 7.97v7.97m0 7.97v7.97m0 7.98v7.97m0 7.97v3.98" stroke="#000" stroke-width="2" fill="none"/><path d="M2671 352.03h-2V351h2z"/><path d="M2670 1658.97v1.03" stroke="#000" stroke-width="2" fill="none"/><path d="M2650 1400h40v180h-40z" stroke="#000" stroke-width="2" fill="#fff"/><path d="M438.5 1383.46h1162M438.54 1383.46h-1.03" stroke="#000" stroke-width="2" fill="none"/><path d="M1615.76 1383.46l-14.26 4.64v-9.27z" stroke="#000" stroke-width="2"/><g><use xlink:href="#l" transform="matrix(1,0,0,1,445.3620472685172,1357.8646798146262) translate(0 14.4)"/><use xlink:href="#S" transform="matrix(1,0,0,1,445.3620472685172,1357.8646798146262) translate(26.900000000000002 14.4)"/></g><path d="M1662 1460.82h968.5" stroke="#000" stroke-width="2" fill="none"/><path d="M1662.03 1461.82H1661v-2h1.03z"/><path d="M2645.76 1460.82l-14.26 4.64v-9.27z" stroke="#000" stroke-width="2"/><g><use xlink:href="#T" transform="matrix(1,0,0,1,1682.2907895694275,1435.2235630812438) translate(0 14.4)"/></g><path d="M2648 1539.98h-3.97m-7.94 0h-7.95m-7.93 0h-7.94m-7.94 0h-7.94m-7.94 0h-7.94m-7.94 0h-7.93m-7.94 0h-7.93m-7.94 0h-7.94m-7.95 0H2517m-7.92 0h-7.94m-7.94 0h-7.94m-7.94 0h-7.94m-7.93 0h-7.94m-7.93 0h-7.94m-7.94 0h-7.95m-7.94 0h-7.92m-7.94 0H2390m-7.94 0h-7.94m-7.94 0h-7.94m-7.93 0h-7.93m-7.94 0h-7.94m-7.95 0h-7.94m-7.93 0h-7.93m-7.94 0h-7.94m-7.94 0h-7.94m-7.94 0h-7.93m-7.93 0h-7.94m-7.94 0h-7.95m-7.94 0h-7.93m-7.93 0h-7.94m-7.94 0h-7.94m-7.94 0h-7.94m-7.94 0h-7.93m-7.94 0h-7.94m-7.95 0h-7.94m-7.93 0h-7.93m-7.94 0h-7.94m-7.94 0h-7.94m-7.94 0h-7.94m-7.93 0h-7.94m-7.94 0h-7.95m-7.94 0h-7.93m-7.94 0h-7.93m-7.94 0h-7.94m-7.94 0h-7.94m-7.94 0h-7.94m-7.93 0h-7.94m-7.95 0h-7.94m-7.93 0h-7.94m-7.93 0h-7.94m-7.94 0h-7.94m-7.94 0h-7.94m-7.94 0h-7.93m-7.94 0h-7.95m-7.94 0h-7.93m-7.94 0h-7.94m-7.94 0h-7.94m-7.94 0h-7.94m-7.94 0h-7.94m-7.93 0h-7.94m-7.95 0h-7.94m-7.93 0h-3.97" stroke="#000" stroke-width="2" fill="none"/><path d="M2649 1540.98h-1.03v-2h1.03z"/><path d="M1664.24 1539.98l14.26-4.63v9.27z" stroke="#000" stroke-width="2"/><g><use xlink:href="#U" transform="matrix(1,0,0,1,2418.0245018378914,1543.9814901447596) translate(0 14.4)"/><use xlink:href="#V" transform="matrix(1,0,0,1,2418.0245018378914,1543.9814901447596) translate(152.9 14.4)"/></g><defs><path d="M232-93c-1 65-40 97-104 97C67 4 28-28 28-90v-158h33c8 89-33 224 67 224 102 0 64-133 71-224h33v155" id="W"/><path d="M135-143c-3-34-86-38-87 0 15 53 115 12 119 90S17 21 10-45l28-5c4 36 97 45 98 0-10-56-113-15-118-90-4-57 82-63 122-42 12 7 21 19 24 35" id="X"/><path d="M100-194c63 0 86 42 84 106H49c0 40 14 67 53 68 26 1 43-12 49-29l28 8c-11 28-37 45-77 45C44 4 14-33 15-96c1-61 26-98 85-98zm52 81c6-60-76-77-97-28-3 7-6 17-6 28h103" id="Y"/><path d="M114-163C36-179 61-72 57 0H25l-1-190h30c1 12-1 29 2 39 6-27 23-49 58-41v29" id="Z"/><g id="a"><use transform="matrix(0.05,0,0,0.05,0,0)" xlink:href="#W"/><use transform="matrix(0.05,0,0,0.05,12.950000000000001,0)" xlink:href="#X"/><use transform="matrix(0.05,0,0,0.05,21.950000000000003,0)" xlink:href="#Y"/><use transform="matrix(0.05,0,0,0.05,31.950000000000003,0)" xlink:href="#Z"/></g><path fill="#333" d="M233-177c-1 41-23 64-60 70L243 0h-38l-65-103H63V0H30v-248c88 3 205-21 203 71zM63-129c60-2 137 13 137-47 0-61-80-42-137-45v92" id="aa"/><path fill="#333" d="M100-194c63 0 86 42 84 106H49c0 40 14 67 53 68 26 1 43-12 49-29l28 8c-11 28-37 45-77 45C44 4 14-33 15-96c1-61 26-98 85-98zm52 81c6-60-76-77-97-28-3 7-6 17-6 28h103" id="ab"/><path fill="#333" d="M145-31C134-9 116 4 85 4 32 4 16-35 15-94c0-59 17-99 70-100 32-1 48 14 60 33 0-11-1-24 2-32h30l-1 268h-32zM93-21c41 0 51-33 51-76s-8-73-50-73c-40 0-46 35-46 75s5 74 45 74" id="ac"/><path fill="#333" d="M84 4C-5 8 30-112 23-190h32v120c0 31 7 50 39 49 72-2 45-101 50-169h31l1 190h-30c-1-10 1-25-2-33-11 22-28 36-60 37" id="ad"/><path fill="#333" d="M135-143c-3-34-86-38-87 0 15 53 115 12 119 90S17 21 10-45l28-5c4 36 97 45 98 0-10-56-113-15-118-90-4-57 82-63 122-42 12 7 21 19 24 35" id="ae"/><path fill="#333" d="M59-47c-2 24 18 29 38 22v24C64 9 27 4 27-40v-127H5v-23h24l9-43h21v43h35v23H59v120" id="af"/><g id="b"><use transform="matrix(0.05,0,0,0.05,0,0)" xlink:href="#aa"/><use transform="matrix(0.05,0,0,0.05,12.950000000000001,0)" xlink:href="#ab"/><use transform="matrix(0.05,0,0,0.05,22.950000000000003,0)" xlink:href="#ac"/><use transform="matrix(0.05,0,0,0.05,32.95,0)" xlink:href="#ad"/><use transform="matrix(0.05,0,0,0.05,42.95,0)" xlink:href="#ab"/><use transform="matrix(0.05,0,0,0.05,52.95,0)" xlink:href="#ae"/><use transform="matrix(0.05,0,0,0.05,61.95,0)" xlink:href="#af"/></g><path fill="#333" d="M30 0v-248h33v221h125V0H30" id="ag"/><path fill="#333" d="M141-36C126-15 110 5 73 4 37 3 15-17 15-53c-1-64 63-63 125-63 3-35-9-54-41-54-24 1-41 7-42 31l-33-3c5-37 33-52 76-52 45 0 72 20 72 64v82c-1 20 7 32 28 27v20c-31 9-61-2-59-35zM48-53c0 20 12 33 32 33 41-3 63-29 60-74-43 2-92-5-92 41" id="ah"/><path fill="#333" d="M117-194c89-4 53 116 60 194h-32v-121c0-31-8-49-39-48C34-167 62-67 57 0H25l-1-190h30c1 10-1 24 2 32 11-22 29-35 61-36" id="ai"/><path fill="#333" d="M85-194c31 0 48 13 60 33l-1-100h32l1 261h-30c-2-10 0-23-3-31C134-8 116 4 85 4 32 4 16-35 15-94c0-66 23-100 70-100zm9 24c-40 0-46 34-46 75 0 40 6 74 45 74 42 0 51-32 51-76 0-42-9-74-50-73" id="aj"/><path fill="#333" d="M24-231v-30h32v30H24zM24 0v-190h32V0H24" id="ak"/><path fill="#333" d="M177-190C167-65 218 103 67 71c-23-6-38-20-44-43l32-5c15 47 100 32 89-28v-30C133-14 115 1 83 1 29 1 15-40 15-95c0-56 16-97 71-98 29-1 48 16 59 35 1-10 0-23 2-32h30zM94-22c36 0 50-32 50-73 0-42-14-75-50-75-39 0-46 34-46 75s6 73 46 73" id="al"/><g id="c"><use transform="matrix(0.05,0,0,0.05,0,0)" xlink:href="#ag"/><use transform="matrix(0.05,0,0,0.05,10,0)" xlink:href="#ah"/><use transform="matrix(0.05,0,0,0.05,20,0)" xlink:href="#ai"/><use transform="matrix(0.05,0,0,0.05,30,0)" xlink:href="#aj"/><use transform="matrix(0.05,0,0,0.05,40,0)" xlink:href="#ak"/><use transform="matrix(0.05,0,0,0.05,43.95,0)" xlink:href="#ai"/><use transform="matrix(0.05,0,0,0.05,53.95,0)" xlink:href="#al"/></g><path fill="#333" d="M30-248c87 1 191-15 191 75 0 78-77 80-158 76V0H30v-248zm33 125c57 0 124 11 124-50 0-59-68-47-124-48v98" id="am"/><g id="d"><use transform="matrix(0.05,0,0,0.05,0,0)" xlink:href="#am"/><use transform="matrix(0.05,0,0,0.05,12,0)" xlink:href="#ah"/><use transform="matrix(0.05,0,0,0.05,22,0)" xlink:href="#al"/><use transform="matrix(0.05,0,0,0.05,32,0)" xlink:href="#ab"/></g><path d="M33-154v-36h34v36H33zM33 0v-36h34V0H33" id="an"/><g id="e"><use transform="matrix(0.05,0,0,0.05,0,0)" xlink:href="#an"/><path d="M-.9 1.25h11.8v1.32H-.9z"/></g><path d="M197 0v-115H63V0H30v-248h33v105h134v-105h34V0h-34" id="ao"/><path d="M100-194c62-1 85 37 85 99 1 63-27 99-86 99S16-35 15-95c0-66 28-99 85-99zM99-20c44 1 53-31 53-75 0-43-8-75-51-75s-53 32-53 75 10 74 51 75" id="ap"/><path d="M210-169c-67 3-38 105-44 169h-31v-121c0-29-5-50-35-48C34-165 62-65 56 0H25l-1-190h30c1 10-1 24 2 32 10-44 99-50 107 0 11-21 27-35 58-36 85-2 47 119 55 194h-31v-121c0-29-5-49-35-48" id="aq"/><path d="M212-179c-10-28-35-45-73-45-59 0-87 40-87 99 0 60 29 101 89 101 43 0 62-24 78-52l27 14C228-24 195 4 139 4 59 4 22-46 18-125c-6-104 99-153 187-111 19 9 31 26 39 46" id="ar"/><path d="M117-194c89-4 53 116 60 194h-32v-121c0-31-8-49-39-48C34-167 62-67 57 0H25l-1-190h30c1 10-1 24 2 32 11-22 29-35 61-36" id="as"/><path d="M59-47c-2 24 18 29 38 22v24C64 9 27 4 27-40v-127H5v-23h24l9-43h21v43h35v23H59v120" id="at"/><path d="M24 0v-261h32V0H24" id="au"/><g id="f"><use transform="matrix(0.05,0,0,0.05,0,0)" xlink:href="#ao"/><use transform="matrix(0.05,0,0,0.05,12.950000000000001,0)" xlink:href="#ap"/><use transform="matrix(0.05,0,0,0.05,22.950000000000003,0)" xlink:href="#aq"/><use transform="matrix(0.05,0,0,0.05,37.900000000000006,0)" xlink:href="#Y"/><use transform="matrix(0.05,0,0,0.05,47.900000000000006,0)" xlink:href="#ar"/><use transform="matrix(0.05,0,0,0.05,60.85,0)" xlink:href="#ap"/><use transform="matrix(0.05,0,0,0.05,70.85000000000001,0)" xlink:href="#as"/><use transform="matrix(0.05,0,0,0.05,80.85000000000001,0)" xlink:href="#at"/><use transform="matrix(0.05,0,0,0.05,85.85000000000001,0)" xlink:href="#Z"/><use transform="matrix(0.05,0,0,0.05,91.80000000000001,0)" xlink:href="#ap"/><use transform="matrix(0.05,0,0,0.05,101.80000000000001,0)" xlink:href="#au"/><use transform="matrix(0.05,0,0,0.05,105.75,0)" xlink:href="#au"/><use transform="matrix(0.05,0,0,0.05,109.7,0)" xlink:href="#Y"/><use transform="matrix(0.05,0,0,0.05,119.7,0)" xlink:href="#Z"/><path d="M-.9 1.25h127.45v1.32H-.9z"/></g><path d="M115-194c55 1 70 41 70 98S169 2 115 4C84 4 66-9 55-30l1 105H24l-1-265h31l2 30c10-21 28-34 59-34zm-8 174c40 0 45-34 45-75s-6-73-45-74c-42 0-51 32-51 76 0 43 10 73 51 73" id="av"/><path d="M87 75C49 33 22-17 22-94c0-76 28-126 65-167h31c-38 41-64 92-64 168S80 34 118 75H87" id="aw"/><g id="g"><use transform="matrix(0.05,0,0,0.05,0,0)" xlink:href="#Z"/><use transform="matrix(0.05,0,0,0.05,5.95,0)" xlink:href="#Y"/><use transform="matrix(0.05,0,0,0.05,15.949999999999998,0)" xlink:href="#X"/><use transform="matrix(0.05,0,0,0.05,24.95,0)" xlink:href="#av"/><use transform="matrix(0.05,0,0,0.05,34.95,0)" xlink:href="#ap"/><use transform="matrix(0.05,0,0,0.05,44.95,0)" xlink:href="#as"/><use transform="matrix(0.05,0,0,0.05,54.95,0)" xlink:href="#X"/><use transform="matrix(0.05,0,0,0.05,63.95,0)" xlink:href="#Y"/><use transform="matrix(0.05,0,0,0.05,73.95,0)" xlink:href="#aw"/><use transform="matrix(0.05,0,0,0.05,79.9,0)" xlink:href="#ao"/><use transform="matrix(0.05,0,0,0.05,92.85000000000001,0)" xlink:href="#ap"/><use transform="matrix(0.05,0,0,0.05,102.85000000000001,0)" xlink:href="#aq"/><use transform="matrix(0.05,0,0,0.05,117.80000000000001,0)" xlink:href="#Y"/></g><path d="M30-248c87 1 191-15 191 75 0 78-77 80-158 76V0H30v-248zm33 125c57 0 124 11 124-50 0-59-68-47-124-48v98" id="ax"/><path d="M141-36C126-15 110 5 73 4 37 3 15-17 15-53c-1-64 63-63 125-63 3-35-9-54-41-54-24 1-41 7-42 31l-33-3c5-37 33-52 76-52 45 0 72 20 72 64v82c-1 20 7 32 28 27v20c-31 9-61-2-59-35zM48-53c0 20 12 33 32 33 41-3 63-29 60-74-43 2-92-5-92 41" id="ay"/><path d="M177-190C167-65 218 103 67 71c-23-6-38-20-44-43l32-5c15 47 100 32 89-28v-30C133-14 115 1 83 1 29 1 15-40 15-95c0-56 16-97 71-98 29-1 48 16 59 35 1-10 0-23 2-32h30zM94-22c36 0 50-32 50-73 0-42-14-75-50-75-39 0-46 34-46 75s6 73 46 73" id="az"/><path d="M33-261c38 41 65 92 65 168S71 34 33 75H2C39 34 66-17 66-93S39-220 2-261h31" id="aA"/><g id="h"><use transform="matrix(0.05,0,0,0.05,0,0)" xlink:href="#ax"/><use transform="matrix(0.05,0,0,0.05,12,0)" xlink:href="#ay"/><use transform="matrix(0.05,0,0,0.05,22,0)" xlink:href="#az"/><use transform="matrix(0.05,0,0,0.05,32,0)" xlink:href="#Y"/><use transform="matrix(0.05,0,0,0.05,42,0)" xlink:href="#aA"/></g><path d="M30 0v-248h187v28H63v79h144v27H63v87h162V0H30" id="aB"/><g id="i"><use transform="matrix(0.05,0,0,0.05,0,0)" xlink:href="#aB"/><use transform="matrix(0.05,0,0,0.05,12,0)" xlink:href="#as"/><use transform="matrix(0.05,0,0,0.05,22,0)" xlink:href="#at"/><use transform="matrix(0.05,0,0,0.05,27,0)" xlink:href="#Y"/><use transform="matrix(0.05,0,0,0.05,37,0)" xlink:href="#Z"/></g><path d="M185-189c-5-48-123-54-124 2 14 75 158 14 163 119 3 78-121 87-175 55-17-10-28-26-33-46l33-7c5 56 141 63 141-1 0-78-155-14-162-118-5-82 145-84 179-34 5 7 8 16 11 25" id="aC"/><path d="M96-169c-40 0-48 33-48 73s9 75 48 75c24 0 41-14 43-38l32 2c-6 37-31 61-74 61-59 0-76-41-82-99-10-93 101-131 147-64 4 7 5 14 7 22l-32 3c-4-21-16-35-41-35" id="aD"/><path d="M106-169C34-169 62-67 57 0H25v-261h32l-1 103c12-21 28-36 61-36 89 0 53 116 60 194h-32v-121c2-32-8-49-39-48" id="aE"/><g id="j"><use transform="matrix(0.05,0,0,0.05,0,0)" xlink:href="#aC"/><use transform="matrix(0.05,0,0,0.05,12,0)" xlink:href="#Y"/><use transform="matrix(0.05,0,0,0.05,22,0)" xlink:href="#ay"/><use transform="matrix(0.05,0,0,0.05,32,0)" xlink:href="#Z"/><use transform="matrix(0.05,0,0,0.05,37.95,0)" xlink:href="#aD"/><use transform="matrix(0.05,0,0,0.05,46.95,0)" xlink:href="#aE"/></g><path d="M30-248c118-7 216 8 213 122C240-48 200 0 122 0H30v-248zM63-27c89 8 146-16 146-99s-60-101-146-95v194" id="aF"/><g id="k"><use transform="matrix(0.05,0,0,0.05,0,0)" xlink:href="#aF"/><use transform="matrix(0.05,0,0,0.05,12.950000000000001,0)" xlink:href="#ay"/><use transform="matrix(0.05,0,0,0.05,22.950000000000003,0)" xlink:href="#at"/><use transform="matrix(0.05,0,0,0.05,27.950000000000003,0)" xlink:href="#ay"/></g><path d="M24-231v-30h32v30H24zM24 0v-190h32V0H24" id="aG"/><g id="l"><use transform="matrix(0.05,0,0,0.05,0,0)" xlink:href="#ao"/><use transform="matrix(0.05,0,0,0.05,12.950000000000001,0)" xlink:href="#aG"/><use transform="matrix(0.05,0,0,0.05,16.900000000000002,0)" xlink:href="#at"/></g><g id="m"><use transform="matrix(0.05,0,0,0.05,0,0)" xlink:href="#aC"/><use transform="matrix(0.05,0,0,0.05,12,0)" xlink:href="#Y"/><use transform="matrix(0.05,0,0,0.05,22,0)" xlink:href="#ay"/><use transform="matrix(0.05,0,0,0.05,32,0)" xlink:href="#Z"/><use transform="matrix(0.05,0,0,0.05,37.95,0)" xlink:href="#aD"/><use transform="matrix(0.05,0,0,0.05,46.95,0)" xlink:href="#aE"/></g><g id="n"><use transform="matrix(0.05,0,0,0.05,0,0)" xlink:href="#av"/><use transform="matrix(0.05,0,0,0.05,10,0)" xlink:href="#ap"/><use transform="matrix(0.05,0,0,0.05,20,0)" xlink:href="#X"/><use transform="matrix(0.05,0,0,0.05,29,0)" xlink:href="#at"/><use transform="matrix(0.05,0,0,0.05,34,0)" xlink:href="#aw"/><use transform="matrix(0.05,0,0,0.05,39.95,0)" xlink:href="#aC"/><use transform="matrix(0.05,0,0,0.05,51.95,0)" xlink:href="#Y"/><use transform="matrix(0.05,0,0,0.05,61.95,0)" xlink:href="#ay"/><use transform="matrix(0.05,0,0,0.05,71.95,0)" xlink:href="#Z"/><use transform="matrix(0.05,0,0,0.05,77.9,0)" xlink:href="#aD"/><use transform="matrix(0.05,0,0,0.05,86.9,0)" xlink:href="#aE"/></g><g id="o"><use transform="matrix(0.05,0,0,0.05,0,0)" xlink:href="#ar"/><use transform="matrix(0.05,0,0,0.05,12.950000000000001,0)" xlink:href="#Z"/><use transform="matrix(0.05,0,0,0.05,18.900000000000002,0)" xlink:href="#aG"/><use transform="matrix(0.05,0,0,0.05,22.85,0)" xlink:href="#at"/><use transform="matrix(0.05,0,0,0.05,27.85,0)" xlink:href="#Y"/><use transform="matrix(0.05,0,0,0.05,37.85,0)" xlink:href="#Z"/><use transform="matrix(0.05,0,0,0.05,43.800000000000004,0)" xlink:href="#aG"/><use transform="matrix(0.05,0,0,0.05,47.75000000000001,0)" xlink:href="#ay"/><use transform="matrix(0.05,0,0,0.05,57.75,0)" xlink:href="#aA"/></g><g id="p"><use transform="matrix(0.1055555555555555,0,0,0.1055555555555555,0,0)" xlink:href="#aC"/><use transform="matrix(0.1055555555555555,0,0,0.1055555555555555,25.33333333333332,0)" xlink:href="#Y"/><use transform="matrix(0.1055555555555555,0,0,0.1055555555555555,46.44444444444442,0)" xlink:href="#au"/><use transform="matrix(0.1055555555555555,0,0,0.1055555555555555,54.7833333333333,0)" xlink:href="#Y"/><use transform="matrix(0.1055555555555555,0,0,0.1055555555555555,75.8944444444444,0)" xlink:href="#aD"/><use transform="matrix(0.1055555555555555,0,0,0.1055555555555555,94.89444444444439,0)" xlink:href="#at"/></g><path d="M160-131c35 5 61 23 61 61C221 17 115-2 30 0v-248c76 3 177-17 177 60 0 33-19 50-47 57zm-97-11c50-1 110 9 110-42 0-47-63-36-110-37v79zm0 115c55-2 124 14 124-45 0-56-70-42-124-44v89" id="aH"/><path d="M143 0L79-87 56-68V0H24v-261h32v163l83-92h37l-77 82L181 0h-38" id="aI"/><g id="q"><use transform="matrix(0.1055555555555555,0,0,0.1055555555555555,0,0)" xlink:href="#aH"/><use transform="matrix(0.1055555555555555,0,0,0.1055555555555555,25.33333333333332,0)" xlink:href="#ap"/><use transform="matrix(0.1055555555555555,0,0,0.1055555555555555,46.44444444444442,0)" xlink:href="#ap"/><use transform="matrix(0.1055555555555555,0,0,0.1055555555555555,67.55555555555551,0)" xlink:href="#aI"/><use transform="matrix(0.1055555555555555,0,0,0.1055555555555555,86.5555555555555,0)" xlink:href="#X"/></g><path d="M234-2c-28 10-62 0-77-18C117 19 8 12 13-65c3-43 29-61 60-76-25-40-17-114 47-108 35 3 59 15 59 50 0 44-40 53-71 69 14 26 32 50 51 72 14-21 24-43 30-72l26 8c-9 33-21 57-38 82 13 13 33 22 57 15v23zM97-151c25-10 52-18 56-48-1-18-13-29-33-29-42 0-39 50-23 77zM42-66c-3 51 71 58 98 28-20-24-41-51-56-80-23 10-40 24-42 52" id="aJ"/><use transform="matrix(0.1055555555555555,0,0,0.1055555555555555,0,0)" xlink:href="#aJ" id="r"/><path d="M205 0l-28-72H64L36 0H1l101-248h38L239 0h-34zm-38-99l-47-123c-12 45-31 82-46 123h93" id="aK"/><path d="M85-194c31 0 48 13 60 33l-1-100h32l1 261h-30c-2-10 0-23-3-31C134-8 116 4 85 4 32 4 16-35 15-94c0-66 23-100 70-100zm9 24c-40 0-46 34-46 75 0 40 6 74 45 74 42 0 51-32 51-76 0-42-9-74-50-73" id="aL"/><g id="s"><use transform="matrix(0.1055555555555555,0,0,0.1055555555555555,0,0)" xlink:href="#aK"/><use transform="matrix(0.1055555555555555,0,0,0.1055555555555555,25.33333333333332,0)" xlink:href="#aL"/><use transform="matrix(0.1055555555555555,0,0,0.1055555555555555,46.44444444444442,0)" xlink:href="#aL"/></g><path d="M127-220V0H93v-220H8v-28h204v28h-85" id="aM"/><g id="t"><use transform="matrix(0.1055555555555555,0,0,0.1055555555555555,0,0)" xlink:href="#aM"/><use transform="matrix(0.1055555555555555,0,0,0.1055555555555555,18.89444444444443,0)" xlink:href="#ap"/></g><g id="u"><use transform="matrix(0.1055555555555555,0,0,0.1055555555555555,0,0)" xlink:href="#ar"/><use transform="matrix(0.1055555555555555,0,0,0.1055555555555555,27.338888888888874,0)" xlink:href="#ay"/><use transform="matrix(0.1055555555555555,0,0,0.1055555555555555,48.449999999999974,0)" xlink:href="#Z"/><use transform="matrix(0.1055555555555555,0,0,0.1055555555555555,61.01111111111108,0)" xlink:href="#at"/></g><g id="v"><use transform="matrix(0.05,0,0,0.05,0,0)" xlink:href="#aH"/><use transform="matrix(0.05,0,0,0.05,12,0)" xlink:href="#ap"/><use transform="matrix(0.05,0,0,0.05,22,0)" xlink:href="#ap"/><use transform="matrix(0.05,0,0,0.05,32,0)" xlink:href="#aI"/><use transform="matrix(0.05,0,0,0.05,41,0)" xlink:href="#ar"/><use transform="matrix(0.05,0,0,0.05,53.95,0)" xlink:href="#ap"/><use transform="matrix(0.05,0,0,0.05,63.95,0)" xlink:href="#as"/><use transform="matrix(0.05,0,0,0.05,73.95,0)" xlink:href="#at"/><use transform="matrix(0.05,0,0,0.05,78.95,0)" xlink:href="#Z"/><use transform="matrix(0.05,0,0,0.05,84.9,0)" xlink:href="#ap"/><use transform="matrix(0.05,0,0,0.05,94.9,0)" xlink:href="#au"/><use transform="matrix(0.05,0,0,0.05,98.85000000000001,0)" xlink:href="#au"/><use transform="matrix(0.05,0,0,0.05,102.80000000000001,0)" xlink:href="#Y"/><use transform="matrix(0.05,0,0,0.05,112.80000000000001,0)" xlink:href="#Z"/><path d="M-.9 1.25h120.55v1.32H-.9z"/></g><path d="M109-170H84l-4-78h32zm-65 0H19l-4-78h33" id="aN"/><g id="w"><use transform="matrix(0.05,0,0,0.05,0,0)" xlink:href="#Z"/><use transform="matrix(0.05,0,0,0.05,5.95,0)" xlink:href="#Y"/><use transform="matrix(0.05,0,0,0.05,15.949999999999998,0)" xlink:href="#aL"/><use transform="matrix(0.05,0,0,0.05,25.950000000000003,0)" xlink:href="#aG"/><use transform="matrix(0.05,0,0,0.05,29.899999999999995,0)" xlink:href="#Z"/><use transform="matrix(0.05,0,0,0.05,35.85,0)" xlink:href="#Y"/><use transform="matrix(0.05,0,0,0.05,45.85,0)" xlink:href="#aD"/><use transform="matrix(0.05,0,0,0.05,54.85,0)" xlink:href="#at"/><use transform="matrix(0.05,0,0,0.05,59.85,0)" xlink:href="#aw"/><use transform="matrix(0.05,0,0,0.05,65.8,0)" xlink:href="#aN"/><use transform="matrix(0.05,0,0,0.05,72.14999999999999,0)" xlink:href="#aH"/><use transform="matrix(0.05,0,0,0.05,84.14999999999999,0)" xlink:href="#ap"/><use transform="matrix(0.05,0,0,0.05,94.14999999999999,0)" xlink:href="#ap"/><use transform="matrix(0.05,0,0,0.05,104.14999999999998,0)" xlink:href="#aI"/><use transform="matrix(0.05,0,0,0.05,113.14999999999998,0)" xlink:href="#X"/></g><path d="M30 0v-248h33v221h125V0H30" id="aO"/><g id="x"><use transform="matrix(0.05,0,0,0.05,0,0)" xlink:href="#aO"/><use transform="matrix(0.05,0,0,0.05,10,0)" xlink:href="#aG"/><use transform="matrix(0.05,0,0,0.05,13.949999999999998,0)" xlink:href="#X"/><use transform="matrix(0.05,0,0,0.05,22.95,0)" xlink:href="#at"/></g><path d="M68-38c1 34 0 65-14 84H32c9-13 17-26 17-46H33v-38h35" id="aP"/><path d="M18-100v-36l175-74v27L42-118l151 64v27" id="aQ"/><path d="M18-27v-27l151-64-151-65v-27l175 74v36" id="aR"/><g id="y"><use transform="matrix(0.05,0,0,0.05,0,0)" xlink:href="#ax"/><use transform="matrix(0.05,0,0,0.05,12,0)" xlink:href="#ay"/><use transform="matrix(0.05,0,0,0.05,22,0)" xlink:href="#az"/><use transform="matrix(0.05,0,0,0.05,32,0)" xlink:href="#Y"/><use transform="matrix(0.05,0,0,0.05,42,0)" xlink:href="#aN"/><use transform="matrix(0.05,0,0,0.05,48.35,0)" xlink:href="#aP"/><use transform="matrix(0.05,0,0,0.05,53.35,0)" xlink:href="#au"/><use transform="matrix(0.05,0,0,0.05,57.300000000000004,0)" xlink:href="#aG"/><use transform="matrix(0.05,0,0,0.05,61.25,0)" xlink:href="#X"/><use transform="matrix(0.05,0,0,0.05,70.25,0)" xlink:href="#at"/><use transform="matrix(0.05,0,0,0.05,75.25,0)" xlink:href="#aQ"/><use transform="matrix(0.05,0,0,0.05,85.75,0)" xlink:href="#aH"/><use transform="matrix(0.05,0,0,0.05,97.75,0)" xlink:href="#ap"/><use transform="matrix(0.05,0,0,0.05,107.75,0)" xlink:href="#ap"/><use transform="matrix(0.05,0,0,0.05,117.75,0)" xlink:href="#aI"/><use transform="matrix(0.05,0,0,0.05,126.75,0)" xlink:href="#aR"/><use transform="matrix(0.05,0,0,0.05,137.25,0)" xlink:href="#aA"/></g><g id="z"><use transform="matrix(0.05,0,0,0.05,0,0)" xlink:href="#ao"/><use transform="matrix(0.05,0,0,0.05,12.950000000000001,0)" xlink:href="#ap"/><use transform="matrix(0.05,0,0,0.05,22.950000000000003,0)" xlink:href="#aq"/><use transform="matrix(0.05,0,0,0.05,37.900000000000006,0)" xlink:href="#Y"/></g><g id="A"><use transform="matrix(0.05,0,0,0.05,0,0)" xlink:href="#ax"/><use transform="matrix(0.05,0,0,0.05,12,0)" xlink:href="#ay"/><use transform="matrix(0.05,0,0,0.05,22,0)" xlink:href="#az"/><use transform="matrix(0.05,0,0,0.05,32,0)" xlink:href="#Y"/></g><g id="B"><use transform="matrix(0.05,0,0,0.05,0,0)" xlink:href="#aH"/><use transform="matrix(0.05,0,0,0.05,12,0)" xlink:href="#ap"/><use transform="matrix(0.05,0,0,0.05,22,0)" xlink:href="#ap"/><use transform="matrix(0.05,0,0,0.05,32,0)" xlink:href="#aI"/></g><g id="C"><use transform="matrix(0.05,0,0,0.05,0,0)" xlink:href="#aO"/><use transform="matrix(0.05,0,0,0.05,10,0)" xlink:href="#aG"/><use transform="matrix(0.05,0,0,0.05,13.949999999999998,0)" xlink:href="#X"/><use transform="matrix(0.05,0,0,0.05,22.95,0)" xlink:href="#at"/></g><g id="D"><use transform="matrix(0.05,0,0,0.05,0,0)" xlink:href="#aF"/><use transform="matrix(0.05,0,0,0.05,12.950000000000001,0)" xlink:href="#Y"/><use transform="matrix(0.05,0,0,0.05,22.950000000000003,0)" xlink:href="#at"/><use transform="matrix(0.05,0,0,0.05,27.950000000000003,0)" xlink:href="#ay"/><use transform="matrix(0.05,0,0,0.05,37.95,0)" xlink:href="#aG"/><use transform="matrix(0.05,0,0,0.05,41.900000000000006,0)" xlink:href="#au"/><use transform="matrix(0.05,0,0,0.05,45.85000000000001,0)" xlink:href="#X"/></g><path d="M33 0v-38h34V0H33" id="aS"/><path d="M101-234c-31-9-42 10-38 44h38v23H63V0H32v-167H5v-23h27c-7-52 17-82 69-68v24" id="aT"/><g id="E"><use transform="matrix(0.05,0,0,0.05,0,0)" xlink:href="#aS"/><use transform="matrix(0.05,0,0,0.05,5,0)" xlink:href="#aT"/><use transform="matrix(0.05,0,0,0.05,10,0)" xlink:href="#aG"/><use transform="matrix(0.05,0,0,0.05,13.949999999999998,0)" xlink:href="#au"/><use transform="matrix(0.05,0,0,0.05,17.9,0)" xlink:href="#at"/><use transform="matrix(0.05,0,0,0.05,22.9,0)" xlink:href="#Y"/><use transform="matrix(0.05,0,0,0.05,32.9,0)" xlink:href="#Z"/><use transform="matrix(0.05,0,0,0.05,38.85,0)" xlink:href="#aH"/><use transform="matrix(0.05,0,0,0.05,50.85,0)" xlink:href="#ap"/><use transform="matrix(0.05,0,0,0.05,60.85,0)" xlink:href="#ap"/><use transform="matrix(0.05,0,0,0.05,70.85,0)" xlink:href="#aI"/><use transform="matrix(0.05,0,0,0.05,79.85,0)" xlink:href="#X"/><use transform="matrix(0.05,0,0,0.05,88.85,0)" xlink:href="#aw"/><use transform="matrix(0.05,0,0,0.05,94.8,0)" xlink:href="#aD"/><use transform="matrix(0.05,0,0,0.05,103.80000000000001,0)" xlink:href="#Z"/><use transform="matrix(0.05,0,0,0.05,109.75,0)" xlink:href="#at"/><use transform="matrix(0.05,0,0,0.05,114.75,0)" xlink:href="#Y"/><use transform="matrix(0.05,0,0,0.05,124.75,0)" xlink:href="#Z"/><use transform="matrix(0.05,0,0,0.05,130.7,0)" xlink:href="#aG"/><use transform="matrix(0.05,0,0,0.05,134.64999999999998,0)" xlink:href="#ay"/><use transform="matrix(0.05,0,0,0.05,144.64999999999998,0)" xlink:href="#aA"/></g><g id="F"><use transform="matrix(0.05,0,0,0.05,0,0)" xlink:href="#aH"/><use transform="matrix(0.05,0,0,0.05,12,0)" xlink:href="#ap"/><use transform="matrix(0.05,0,0,0.05,22,0)" xlink:href="#ap"/><use transform="matrix(0.05,0,0,0.05,32,0)" xlink:href="#aI"/><use transform="matrix(0.05,0,0,0.05,41,0)" xlink:href="#X"/></g><g id="G"><use transform="matrix(0.05,0,0,0.05,0,0)" xlink:href="#aF"/><use transform="matrix(0.05,0,0,0.05,12.950000000000001,0)" xlink:href="#ay"/><use transform="matrix(0.05,0,0,0.05,22.950000000000003,0)" xlink:href="#at"/><use transform="matrix(0.05,0,0,0.05,27.950000000000003,0)" xlink:href="#ay"/><use transform="matrix(0.05,0,0,0.05,37.95,0)" xlink:href="#X"/><use transform="matrix(0.05,0,0,0.05,46.95,0)" xlink:href="#Y"/><use transform="matrix(0.05,0,0,0.05,56.95,0)" xlink:href="#at"/></g><g id="H"><use transform="matrix(0.05,0,0,0.05,0,0)" xlink:href="#aO"/><use transform="matrix(0.05,0,0,0.05,10,0)" xlink:href="#aG"/><use transform="matrix(0.05,0,0,0.05,13.949999999999998,0)" xlink:href="#X"/><use transform="matrix(0.05,0,0,0.05,22.95,0)" xlink:href="#at"/><use transform="matrix(0.05,0,0,0.05,27.950000000000003,0)" xlink:href="#aQ"/><use transform="matrix(0.05,0,0,0.05,38.45,0)" xlink:href="#aH"/><use transform="matrix(0.05,0,0,0.05,50.45,0)" xlink:href="#ap"/><use transform="matrix(0.05,0,0,0.05,60.45,0)" xlink:href="#ap"/><use transform="matrix(0.05,0,0,0.05,70.45,0)" xlink:href="#aI"/><use transform="matrix(0.05,0,0,0.05,79.45,0)" xlink:href="#aR"/></g><path d="M179-190L93 31C79 59 56 82 12 73V49c39 6 53-20 64-50L1-190h34L92-34l54-156h33" id="aU"/><g id="I"><use transform="matrix(0.05,0,0,0.05,0,0)" xlink:href="#aF"/><use transform="matrix(0.05,0,0,0.05,12.950000000000001,0)" xlink:href="#aG"/><use transform="matrix(0.05,0,0,0.05,16.900000000000002,0)" xlink:href="#X"/><use transform="matrix(0.05,0,0,0.05,25.900000000000002,0)" xlink:href="#av"/><use transform="matrix(0.05,0,0,0.05,35.900000000000006,0)" xlink:href="#au"/><use transform="matrix(0.05,0,0,0.05,39.85000000000001,0)" xlink:href="#ay"/><use transform="matrix(0.05,0,0,0.05,49.85000000000001,0)" xlink:href="#aU"/></g><path fill="#333" d="M197 0v-115H63V0H30v-248h33v105h134v-105h34V0h-34" id="aV"/><g id="J"><use transform="matrix(0.05,0,0,0.05,0,0)" xlink:href="#aV"/><use transform="matrix(0.05,0,0,0.05,12.950000000000001,0)" xlink:href="#ak"/><use transform="matrix(0.05,0,0,0.05,16.900000000000002,0)" xlink:href="#af"/></g><path fill="#333" d="M30-248c118-7 216 8 213 122C240-48 200 0 122 0H30v-248zM63-27c89 8 146-16 146-99s-60-101-146-95v194" id="aW"/><path fill="#333" d="M24 0v-261h32V0H24" id="aX"/><g id="K"><use transform="matrix(0.05,0,0,0.05,0,0)" xlink:href="#aW"/><use transform="matrix(0.05,0,0,0.05,12.950000000000001,0)" xlink:href="#ab"/><use transform="matrix(0.05,0,0,0.05,22.950000000000003,0)" xlink:href="#af"/><use transform="matrix(0.05,0,0,0.05,27.950000000000003,0)" xlink:href="#ah"/><use transform="matrix(0.05,0,0,0.05,37.95,0)" xlink:href="#ak"/><use transform="matrix(0.05,0,0,0.05,41.900000000000006,0)" xlink:href="#aX"/><use transform="matrix(0.05,0,0,0.05,45.85000000000001,0)" xlink:href="#ae"/></g><path fill="#333" d="M160-131c35 5 61 23 61 61C221 17 115-2 30 0v-248c76 3 177-17 177 60 0 33-19 50-47 57zm-97-11c50-1 110 9 110-42 0-47-63-36-110-37v79zm0 115c55-2 124 14 124-45 0-56-70-42-124-44v89" id="aY"/><path fill="#333" d="M100-194c62-1 85 37 85 99 1 63-27 99-86 99S16-35 15-95c0-66 28-99 85-99zM99-20c44 1 53-31 53-75 0-43-8-75-51-75s-53 32-53 75 10 74 51 75" id="aZ"/><g id="L"><use transform="matrix(0.05,0,0,0.05,0,0)" xlink:href="#aY"/><use transform="matrix(0.05,0,0,0.05,12,0)" xlink:href="#ad"/><use transform="matrix(0.05,0,0,0.05,22,0)" xlink:href="#af"/><use transform="matrix(0.05,0,0,0.05,27,0)" xlink:href="#af"/><use transform="matrix(0.05,0,0,0.05,32,0)" xlink:href="#aZ"/><use transform="matrix(0.05,0,0,0.05,42,0)" xlink:href="#ai"/></g><path d="M33 0v-248h34V0H33" id="ba"/><g id="M"><use transform="matrix(0.05,0,0,0.05,0,0)" xlink:href="#az"/><use transform="matrix(0.05,0,0,0.05,10,0)" xlink:href="#Y"/><use transform="matrix(0.05,0,0,0.05,20,0)" xlink:href="#at"/><use transform="matrix(0.05,0,0,0.05,25,0)" xlink:href="#aH"/><use transform="matrix(0.05,0,0,0.05,37,0)" xlink:href="#ap"/><use transform="matrix(0.05,0,0,0.05,47,0)" xlink:href="#ap"/><use transform="matrix(0.05,0,0,0.05,57,0)" xlink:href="#aI"/><use transform="matrix(0.05,0,0,0.05,66,0)" xlink:href="#aF"/><use transform="matrix(0.05,0,0,0.05,78.95,0)" xlink:href="#Y"/><use transform="matrix(0.05,0,0,0.05,88.95,0)" xlink:href="#at"/><use transform="matrix(0.05,0,0,0.05,93.95,0)" xlink:href="#ay"/><use transform="matrix(0.05,0,0,0.05,103.95,0)" xlink:href="#aG"/><use transform="matrix(0.05,0,0,0.05,107.9,0)" xlink:href="#au"/><use transform="matrix(0.05,0,0,0.05,111.85000000000001,0)" xlink:href="#X"/><use transform="matrix(0.05,0,0,0.05,120.85000000000001,0)" xlink:href="#aw"/><use transform="matrix(0.05,0,0,0.05,126.80000000000001,0)" xlink:href="#aH"/><use transform="matrix(0.05,0,0,0.05,138.8,0)" xlink:href="#ap"/><use transform="matrix(0.05,0,0,0.05,148.8,0)" xlink:href="#ap"/><use transform="matrix(0.05,0,0,0.05,158.8,0)" xlink:href="#aI"/><use transform="matrix(0.05,0,0,0.05,167.8,0)" xlink:href="#ba"/><use transform="matrix(0.05,0,0,0.05,172.8,0)" xlink:href="#aL"/><use transform="matrix(0.05,0,0,0.05,182.8,0)" xlink:href="#aA"/></g><g id="N"><use transform="matrix(0.05,0,0,0.05,0,0)" xlink:href="#aT"/><use transform="matrix(0.05,0,0,0.05,5,0)" xlink:href="#aG"/><use transform="matrix(0.05,0,0,0.05,8.95,0)" xlink:href="#as"/><use transform="matrix(0.05,0,0,0.05,18.95,0)" xlink:href="#aL"/><use transform="matrix(0.05,0,0,0.05,28.950000000000003,0)" xlink:href="#aH"/><use transform="matrix(0.05,0,0,0.05,40.95,0)" xlink:href="#ap"/><use transform="matrix(0.05,0,0,0.05,50.95,0)" xlink:href="#ap"/><use transform="matrix(0.05,0,0,0.05,60.95,0)" xlink:href="#aI"/><use transform="matrix(0.05,0,0,0.05,69.95,0)" xlink:href="#aw"/><use transform="matrix(0.05,0,0,0.05,75.9,0)" xlink:href="#aH"/><use transform="matrix(0.05,0,0,0.05,87.9,0)" xlink:href="#ap"/><use transform="matrix(0.05,0,0,0.05,97.9,0)" xlink:href="#ap"/><use transform="matrix(0.05,0,0,0.05,107.9,0)" xlink:href="#aI"/><use transform="matrix(0.05,0,0,0.05,116.9,0)" xlink:href="#ba"/><use transform="matrix(0.05,0,0,0.05,121.9,0)" xlink:href="#aL"/><use transform="matrix(0.05,0,0,0.05,131.9,0)" xlink:href="#aA"/></g><g id="O"><use transform="matrix(0.05,0,0,0.05,0,0)" xlink:href="#aH"/><use transform="matrix(0.05,0,0,0.05,12,0)" xlink:href="#ap"/><use transform="matrix(0.05,0,0,0.05,22,0)" xlink:href="#ap"/><use transform="matrix(0.05,0,0,0.05,32,0)" xlink:href="#aI"/></g><g id="P"><use transform="matrix(0.05,0,0,0.05,0,0)" xlink:href="#aF"/><use transform="matrix(0.05,0,0,0.05,12.950000000000001,0)" xlink:href="#Y"/><use transform="matrix(0.05,0,0,0.05,22.950000000000003,0)" xlink:href="#at"/><use transform="matrix(0.05,0,0,0.05,27.950000000000003,0)" xlink:href="#ay"/><use transform="matrix(0.05,0,0,0.05,37.95,0)" xlink:href="#aG"/><use transform="matrix(0.05,0,0,0.05,41.900000000000006,0)" xlink:href="#au"/><use transform="matrix(0.05,0,0,0.05,45.85000000000001,0)" xlink:href="#X"/></g><g id="Q"><use transform="matrix(0.05,0,0,0.05,0,0)" xlink:href="#ax"/><use transform="matrix(0.05,0,0,0.05,12,0)" xlink:href="#ay"/><use transform="matrix(0.05,0,0,0.05,22,0)" xlink:href="#az"/><use transform="matrix(0.05,0,0,0.05,32,0)" xlink:href="#Y"/><use transform="matrix(0.05,0,0,0.05,42,0)" xlink:href="#aN"/><use transform="matrix(0.05,0,0,0.05,48.35,0)" xlink:href="#aP"/><use transform="matrix(0.05,0,0,0.05,53.35,0)" xlink:href="#aH"/><use transform="matrix(0.05,0,0,0.05,65.35,0)" xlink:href="#ap"/><use transform="matrix(0.05,0,0,0.05,75.35,0)" xlink:href="#ap"/><use transform="matrix(0.05,0,0,0.05,85.35,0)" xlink:href="#aI"/><use transform="matrix(0.05,0,0,0.05,94.35,0)" xlink:href="#aA"/></g><g id="R"><use transform="matrix(0.05,0,0,0.05,0,0)" xlink:href="#ar"/><use transform="matrix(0.05,0,0,0.05,12.950000000000001,0)" xlink:href="#ay"/><use transform="matrix(0.05,0,0,0.05,22.950000000000003,0)" xlink:href="#Z"/><use transform="matrix(0.05,0,0,0.05,28.900000000000002,0)" xlink:href="#at"/><use transform="matrix(0.05,0,0,0.05,33.900000000000006,0)" xlink:href="#ar"/><use transform="matrix(0.05,0,0,0.05,46.85000000000001,0)" xlink:href="#ap"/><use transform="matrix(0.05,0,0,0.05,56.85,0)" xlink:href="#as"/><use transform="matrix(0.05,0,0,0.05,66.85000000000001,0)" xlink:href="#at"/><use transform="matrix(0.05,0,0,0.05,71.85000000000001,0)" xlink:href="#Z"/><use transform="matrix(0.05,0,0,0.05,77.80000000000001,0)" xlink:href="#ap"/><use transform="matrix(0.05,0,0,0.05,87.80000000000001,0)" xlink:href="#au"/><use transform="matrix(0.05,0,0,0.05,91.75000000000001,0)" xlink:href="#au"/><use transform="matrix(0.05,0,0,0.05,95.70000000000002,0)" xlink:href="#Y"/><use transform="matrix(0.05,0,0,0.05,105.7,0)" xlink:href="#Z"/><path d="M-.9 1.25h113.45v1.32H-.9z"/></g><g id="S"><use transform="matrix(0.05,0,0,0.05,0,0)" xlink:href="#aK"/><use transform="matrix(0.05,0,0,0.05,12,0)" xlink:href="#aL"/><use transform="matrix(0.05,0,0,0.05,22,0)" xlink:href="#aL"/></g><g id="T"><use transform="matrix(0.05,0,0,0.05,0,0)" xlink:href="#ay"/><use transform="matrix(0.05,0,0,0.05,10,0)" xlink:href="#aL"/><use transform="matrix(0.05,0,0,0.05,20,0)" xlink:href="#aL"/><use transform="matrix(0.05,0,0,0.05,30,0)" xlink:href="#aM"/><use transform="matrix(0.05,0,0,0.05,38.95,0)" xlink:href="#ap"/><use transform="matrix(0.05,0,0,0.05,48.95,0)" xlink:href="#ar"/><use transform="matrix(0.05,0,0,0.05,61.900000000000006,0)" xlink:href="#ay"/><use transform="matrix(0.05,0,0,0.05,71.9,0)" xlink:href="#Z"/><use transform="matrix(0.05,0,0,0.05,77.85000000000001,0)" xlink:href="#at"/><use transform="matrix(0.05,0,0,0.05,82.85000000000001,0)" xlink:href="#aw"/><use transform="matrix(0.05,0,0,0.05,88.80000000000001,0)" xlink:href="#aH"/><use transform="matrix(0.05,0,0,0.05,100.80000000000001,0)" xlink:href="#ap"/><use transform="matrix(0.05,0,0,0.05,110.80000000000001,0)" xlink:href="#ap"/><use transform="matrix(0.05,0,0,0.05,120.80000000000001,0)" xlink:href="#aI"/><use transform="matrix(0.05,0,0,0.05,129.8,0)" xlink:href="#ba"/><use transform="matrix(0.05,0,0,0.05,134.8,0)" xlink:href="#aL"/><use transform="matrix(0.05,0,0,0.05,144.8,0)" xlink:href="#aA"/></g><path d="M84 4C-5 8 30-112 23-190h32v120c0 31 7 50 39 49 72-2 45-101 50-169h31l1 190h-30c-1-10 1-25-2-33-11 22-28 36-60 37" id="bb"/><g id="U"><use transform="matrix(0.05,0,0,0.05,0,0)" xlink:href="#Z"/><use transform="matrix(0.05,0,0,0.05,5.95,0)" xlink:href="#Y"/><use transform="matrix(0.05,0,0,0.05,15.949999999999998,0)" xlink:href="#X"/><use transform="matrix(0.05,0,0,0.05,24.95,0)" xlink:href="#av"/><use transform="matrix(0.05,0,0,0.05,34.95,0)" xlink:href="#ap"/><use transform="matrix(0.05,0,0,0.05,44.95,0)" xlink:href="#as"/><use transform="matrix(0.05,0,0,0.05,54.95,0)" xlink:href="#X"/><use transform="matrix(0.05,0,0,0.05,63.95,0)" xlink:href="#Y"/><use transform="matrix(0.05,0,0,0.05,73.95,0)" xlink:href="#aw"/><use transform="matrix(0.05,0,0,0.05,79.9,0)" xlink:href="#aC"/><use transform="matrix(0.05,0,0,0.05,91.9,0)" xlink:href="#bb"/><use transform="matrix(0.05,0,0,0.05,101.9,0)" xlink:href="#aD"/><use transform="matrix(0.05,0,0,0.05,110.9,0)" xlink:href="#aD"/><use transform="matrix(0.05,0,0,0.05,119.9,0)" xlink:href="#Y"/><use transform="matrix(0.05,0,0,0.05,129.9,0)" xlink:href="#X"/><use transform="matrix(0.05,0,0,0.05,138.9,0)" xlink:href="#X"/></g><path d="M240 0l2-218c-23 76-54 145-80 218h-23L58-218 59 0H30v-248h44l77 211c21-75 51-140 76-211h43V0h-30" id="bc"/><g id="V"><use transform="matrix(0.05,0,0,0.05,0,0)" xlink:href="#bc"/><use transform="matrix(0.05,0,0,0.05,14.950000000000001,0)" xlink:href="#Y"/><use transform="matrix(0.05,0,0,0.05,24.950000000000003,0)" xlink:href="#X"/><use transform="matrix(0.05,0,0,0.05,33.95,0)" xlink:href="#X"/><use transform="matrix(0.05,0,0,0.05,42.95,0)" xlink:href="#ay"/><use transform="matrix(0.05,0,0,0.05,52.95,0)" xlink:href="#az"/><use transform="matrix(0.05,0,0,0.05,62.95,0)" xlink:href="#Y"/><use transform="matrix(0.05,0,0,0.05,72.95,0)" xlink:href="#aA"/></g></defs></g></svg>